%
M48
M72
T01C0.01200
T02C0.04000
%
T01
X37250Y41000
X37250Y67250
X57250Y67250
X87250Y54750
X114750Y61000
X86000Y84750
X79750Y92250
X53500Y92250
X49750Y88500
X47250Y101000
X29750Y101000
X26000Y104750
X29750Y112250
X29750Y122250
X61000Y121000
X61000Y126000
X61000Y134750
X72250Y148500
X64750Y152250
X83500Y134750
X88500Y126000
X88500Y113500
X68500Y109750
X126000Y112250
X156000Y102250
X186000Y71000
X174750Y67250
X158500Y56000
X156000Y67250
X186000Y51000
X191000Y56000
X196000Y51000
X201000Y68500
X233500Y64750
X289750Y106000
X279750Y136000
X264750Y151000
X303500Y164750
X318500Y179750
X352250Y101000
X168500Y147250
X166000Y144750
X168500Y164750
X122250Y181000
X118500Y179750
X114750Y168500
X78500Y184750
X76000Y182250
X68500Y174750
X62250Y176000
X54750Y189750
X49750Y189750
X58500Y193500
X91000Y202250
X94750Y211000
X122250Y198500
X124750Y206000
X49750Y224750
X16000Y177250
X28500Y154750
X6000Y68500
X122250Y23500
X159750Y37250
X161000Y9750
T02
X46000Y11000
X56000Y11000
X66000Y11000
X76000Y11000
X86000Y11000
X96000Y11000
X96000Y21000
X86000Y21000
X76000Y21000
X66000Y21000
X56000Y21000
X46000Y21000
X46000Y31000
X56000Y31000
X66000Y31000
X76000Y31000
X86000Y31000
X96000Y31000
X146000Y21000
X156000Y21000
X166000Y21000
X176000Y21000
X146000Y46000
X146000Y56000
X146000Y66000
X146000Y76000
X146000Y86000
X146000Y96000
X146000Y116000
X146000Y126000
X146000Y136000
X146000Y146000
X146000Y156000
X146000Y166000
X146000Y176000
X146000Y186000
X101000Y186000
X101000Y196000
X101000Y206000
X101000Y216000
X41000Y216000
X41000Y206000
X41000Y196000
X41000Y186000
X41000Y176000
X41000Y166000
X41000Y156000
X41000Y146000
X41000Y136000
X41000Y126000
X41000Y116000
X41000Y106000
X41000Y96000
X41000Y86000
X41000Y76000
X21000Y71000
X11000Y71000
X11000Y81000
X21000Y81000
X21000Y91000
X11000Y91000
X11000Y101000
X21000Y101000
X21000Y111000
X11000Y111000
X11000Y121000
X21000Y121000
X21000Y131000
X11000Y131000
X11000Y141000
X21000Y141000
X21000Y151000
X11000Y151000
X11000Y161000
X21000Y161000
X101000Y156000
X101000Y166000
X101000Y176000
X101000Y146000
X101000Y136000
X101000Y126000
X101000Y116000
X101000Y106000
X101000Y96000
X101000Y86000
X101000Y76000
X241000Y31000
X251000Y31000
X261000Y31000
X271000Y31000
X281000Y31000
X291000Y31000
X291000Y21000
X281000Y21000
X271000Y21000
X261000Y21000
X251000Y21000
X241000Y21000
X241000Y11000
X251000Y11000
X261000Y11000
X271000Y11000
X281000Y11000
X291000Y11000
X336000Y46000
X336000Y56000
X336000Y66000
X336000Y76000
X336000Y86000
X336000Y96000
X336000Y106000
X336000Y116000
X336000Y131000
X336000Y141000
X336000Y151000
X336000Y161000
X336000Y171000
X336000Y181000
X336000Y191000
X336000Y201000
X336000Y211000
X336000Y221000
M30
