%
M48
M72
T01C0.01200
T02C0.04000
%
T01
X54750Y112250
X69750Y126000
X73500Y129750
X77250Y133500
X82250Y137250
X96000Y146000
X101000Y156000
X72250Y163500
X68500Y167250
X64750Y176000
X49750Y166000
X59750Y153500
X61000Y149750
X32250Y159750
X6000Y143500
X32250Y134750
X106000Y117250
X132250Y131000
X177250Y133500
X177250Y144750
X181000Y151000
X148500Y168500
X137250Y173500
X169750Y186000
X173500Y191000
X174750Y194750
X188500Y189750
X181000Y217250
X148500Y216000
X127250Y226000
X96000Y222250
X86000Y212250
X68500Y196000
X16000Y247250
X16000Y252250
X62250Y256000
X153500Y261000
X308500Y144750
X286000Y106000
X217250Y116000
X212250Y119750
T02
X46000Y36000
X46000Y46000
X46000Y56000
X76000Y56000
X76000Y46000
X76000Y36000
X106000Y36000
X106000Y46000
X106000Y56000
X136000Y56000
X136000Y46000
X136000Y36000
X166000Y36000
X166000Y46000
X166000Y56000
X196000Y56000
X196000Y46000
X196000Y36000
X226000Y36000
X226000Y46000
X226000Y56000
X256000Y56000
X256000Y46000
X256000Y36000
X286000Y36000
X286000Y46000
X286000Y56000
X316000Y56000
X316000Y46000
X316000Y36000
X346000Y36000
X346000Y46000
X346000Y56000
X376000Y56000
X376000Y46000
X376000Y36000
X356000Y91000
X356000Y101000
X356000Y111000
X356000Y121000
X356000Y131000
X356000Y141000
X356000Y151000
X356000Y161000
X356000Y176000
X356000Y186000
X356000Y196000
X356000Y206000
X356000Y216000
X356000Y226000
X356000Y236000
X356000Y246000
X356000Y256000
X356000Y266000
X161000Y236000
X161000Y226000
X161000Y216000
X161000Y206000
X161000Y196000
X161000Y186000
X161000Y176000
X161000Y166000
X161000Y146000
X161000Y136000
X161000Y126000
X161000Y116000
X161000Y106000
X161000Y96000
X121000Y121000
X121000Y131000
X121000Y141000
X121000Y151000
X121000Y161000
X121000Y171000
X121000Y181000
X121000Y191000
X121000Y201000
X121000Y211000
X121000Y221000
X121000Y231000
X121000Y241000
X121000Y251000
X121000Y261000
X41000Y261000
X41000Y251000
X41000Y241000
X41000Y231000
X41000Y221000
X41000Y211000
X41000Y201000
X41000Y191000
X41000Y181000
X41000Y171000
X41000Y161000
X41000Y151000
X41000Y141000
X41000Y131000
X41000Y121000
X21000Y116000
X21000Y106000
X11000Y106000
X11000Y116000
X11000Y126000
X21000Y126000
X21000Y136000
X21000Y146000
X11000Y146000
X11000Y136000
X11000Y156000
X11000Y166000
X21000Y166000
X21000Y156000
X21000Y176000
X11000Y176000
X11000Y186000
X21000Y186000
X21000Y96000
X11000Y96000
M30
