G75*
%MOIN*%
%OFA0B0*%
%FSLAX25Y25*%
%IPPOS*%
%LPD*%
%AMOC8*
5,1,8,0,0,1.08239X$1,22.5*
%
%ADD10OC8,0.06400*%
%ADD11C,0.06400*%
%ADD12R,0.06400X0.06400*%
%ADD13C,0.02400*%
%ADD14C,0.02800*%
D10*
X0041000Y0011000D03*
X0056000Y0011000D03*
X0071000Y0011000D03*
X0086000Y0011000D03*
X0101000Y0011000D03*
X0116000Y0011000D03*
X0116000Y0021000D03*
X0101000Y0021000D03*
X0086000Y0021000D03*
X0071000Y0021000D03*
X0056000Y0021000D03*
X0041000Y0021000D03*
X0021000Y0071000D03*
X0011000Y0071000D03*
X0011000Y0081000D03*
X0021000Y0081000D03*
X0021000Y0091000D03*
X0011000Y0091000D03*
X0011000Y0101000D03*
X0021000Y0101000D03*
X0021000Y0111000D03*
X0011000Y0111000D03*
X0011000Y0121000D03*
X0021000Y0121000D03*
X0021000Y0131000D03*
X0011000Y0131000D03*
X0011000Y0141000D03*
X0021000Y0141000D03*
X0021000Y0151000D03*
X0011000Y0151000D03*
X0011000Y0161000D03*
X0021000Y0161000D03*
X0236000Y0021000D03*
X0251000Y0021000D03*
X0266000Y0021000D03*
X0281000Y0021000D03*
X0296000Y0021000D03*
X0311000Y0021000D03*
X0311000Y0011000D03*
X0296000Y0011000D03*
X0281000Y0011000D03*
X0266000Y0011000D03*
X0251000Y0011000D03*
X0236000Y0011000D03*
D11*
X0149200Y0046000D02*
X0142800Y0046000D01*
X0142800Y0056000D02*
X0149200Y0056000D01*
X0149200Y0066000D02*
X0142800Y0066000D01*
X0142800Y0076000D02*
X0149200Y0076000D01*
X0149200Y0086000D02*
X0142800Y0086000D01*
X0142800Y0096000D02*
X0149200Y0096000D01*
X0149200Y0116000D02*
X0142800Y0116000D01*
X0142800Y0126000D02*
X0149200Y0126000D01*
X0149200Y0136000D02*
X0142800Y0136000D01*
X0142800Y0146000D02*
X0149200Y0146000D01*
X0149200Y0156000D02*
X0142800Y0156000D01*
X0142800Y0166000D02*
X0149200Y0166000D01*
X0149200Y0176000D02*
X0142800Y0176000D01*
X0142800Y0186000D02*
X0149200Y0186000D01*
X0104200Y0186000D02*
X0097800Y0186000D01*
X0097800Y0196000D02*
X0104200Y0196000D01*
X0104200Y0206000D02*
X0097800Y0206000D01*
X0097800Y0216000D02*
X0104200Y0216000D01*
X0044200Y0216000D02*
X0037800Y0216000D01*
X0037800Y0206000D02*
X0044200Y0206000D01*
X0044200Y0196000D02*
X0037800Y0196000D01*
X0037800Y0186000D02*
X0044200Y0186000D01*
X0044200Y0176000D02*
X0037800Y0176000D01*
X0037800Y0166000D02*
X0044200Y0166000D01*
X0044200Y0156000D02*
X0037800Y0156000D01*
X0037800Y0146000D02*
X0044200Y0146000D01*
X0044200Y0136000D02*
X0037800Y0136000D01*
X0037800Y0126000D02*
X0044200Y0126000D01*
X0044200Y0116000D02*
X0037800Y0116000D01*
X0037800Y0106000D02*
X0044200Y0106000D01*
X0044200Y0096000D02*
X0037800Y0096000D01*
X0037800Y0086000D02*
X0044200Y0086000D01*
X0044200Y0076000D02*
X0037800Y0076000D01*
X0097800Y0076000D02*
X0104200Y0076000D01*
X0104200Y0086000D02*
X0097800Y0086000D01*
X0097800Y0096000D02*
X0104200Y0096000D01*
X0104200Y0106000D02*
X0097800Y0106000D01*
X0097800Y0116000D02*
X0104200Y0116000D01*
X0104200Y0126000D02*
X0097800Y0126000D01*
X0097800Y0136000D02*
X0104200Y0136000D01*
X0104200Y0146000D02*
X0097800Y0146000D01*
X0097800Y0156000D02*
X0104200Y0156000D01*
X0104200Y0166000D02*
X0097800Y0166000D01*
X0097800Y0176000D02*
X0104200Y0176000D01*
X0332800Y0171000D02*
X0339200Y0171000D01*
X0339200Y0161000D02*
X0332800Y0161000D01*
X0332800Y0151000D02*
X0339200Y0151000D01*
X0339200Y0141000D02*
X0332800Y0141000D01*
X0332800Y0131000D02*
X0339200Y0131000D01*
X0339200Y0116000D02*
X0332800Y0116000D01*
X0332800Y0106000D02*
X0339200Y0106000D01*
X0339200Y0096000D02*
X0332800Y0096000D01*
X0332800Y0086000D02*
X0339200Y0086000D01*
X0339200Y0076000D02*
X0332800Y0076000D01*
X0332800Y0066000D02*
X0339200Y0066000D01*
X0339200Y0056000D02*
X0332800Y0056000D01*
X0332800Y0046000D02*
X0339200Y0046000D01*
X0339200Y0181000D02*
X0332800Y0181000D01*
X0332800Y0191000D02*
X0339200Y0191000D01*
X0339200Y0201000D02*
X0332800Y0201000D01*
X0332800Y0211000D02*
X0339200Y0211000D01*
X0339200Y0221000D02*
X0332800Y0221000D01*
D12*
X0311000Y0031000D03*
X0296000Y0031000D03*
X0281000Y0031000D03*
X0266000Y0031000D03*
X0251000Y0031000D03*
X0236000Y0031000D03*
X0116000Y0031000D03*
X0101000Y0031000D03*
X0086000Y0031000D03*
X0071000Y0031000D03*
X0056000Y0031000D03*
X0041000Y0031000D03*
D13*
X0051000Y0026000D02*
X0056000Y0021000D01*
X0061000Y0018500D02*
X0061000Y0067250D01*
X0061000Y0099750D01*
X0064750Y0102250D02*
X0064750Y0017250D01*
X0058500Y0011000D01*
X0056000Y0011000D01*
X0058500Y0016000D02*
X0053500Y0016000D01*
X0048500Y0011000D01*
X0041000Y0011000D01*
X0058500Y0016000D02*
X0061000Y0018500D01*
X0071000Y0011000D02*
X0078500Y0011000D01*
X0083500Y0006000D01*
X0088500Y0006000D01*
X0096000Y0013500D01*
X0096000Y0054750D01*
X0116625Y0075375D01*
X0116000Y0076000D01*
X0116000Y0091000D01*
X0133500Y0108500D01*
X0133500Y0114750D01*
X0134750Y0121000D02*
X0109750Y0096000D01*
X0101000Y0096000D01*
X0096000Y0101000D02*
X0094750Y0101000D01*
X0086000Y0092250D01*
X0086000Y0031000D01*
X0092250Y0019750D02*
X0092250Y0056000D01*
X0112250Y0076000D01*
X0112250Y0093500D01*
X0123500Y0104750D01*
X0114750Y0106000D02*
X0134750Y0126000D01*
X0146000Y0126000D01*
X0152250Y0121000D02*
X0134750Y0121000D01*
X0146000Y0116000D02*
X0119750Y0089750D01*
X0116625Y0075375D02*
X0137250Y0096000D01*
X0137250Y0098500D01*
X0144750Y0106000D01*
X0158500Y0097250D02*
X0158500Y0191000D01*
X0162250Y0198500D02*
X0162250Y0098500D01*
X0162250Y0063500D01*
X0214750Y0011000D01*
X0236000Y0011000D01*
X0238500Y0016000D02*
X0214750Y0016000D01*
X0166000Y0064750D01*
X0166000Y0092250D01*
X0166000Y0164750D01*
X0173500Y0161000D02*
X0173500Y0091000D01*
X0169750Y0087250D01*
X0169750Y0066000D01*
X0209750Y0026000D01*
X0253500Y0026000D01*
X0266000Y0013500D01*
X0266000Y0011000D01*
X0276000Y0016000D02*
X0281000Y0011000D01*
X0284750Y0006000D02*
X0292875Y0014125D01*
X0291000Y0016000D01*
X0291000Y0031000D01*
X0181000Y0141000D01*
X0182250Y0141000D01*
X0182250Y0209750D01*
X0192250Y0219750D01*
X0194750Y0219750D01*
X0203500Y0211000D01*
X0336000Y0211000D01*
X0336000Y0222250D02*
X0348500Y0209750D01*
X0348500Y0042250D01*
X0317250Y0011000D01*
X0311000Y0011000D01*
X0296000Y0011000D02*
X0292875Y0014125D01*
X0284750Y0006000D02*
X0202250Y0006000D01*
X0152250Y0056000D01*
X0146000Y0056000D01*
X0173500Y0067250D02*
X0206625Y0100375D01*
X0177250Y0129750D01*
X0177250Y0151000D01*
X0186000Y0153500D02*
X0253500Y0086000D01*
X0336000Y0086000D01*
X0336000Y0116000D02*
X0228500Y0116000D01*
X0186000Y0158500D01*
X0154750Y0158500D02*
X0154750Y0123500D01*
X0152250Y0121000D01*
X0129750Y0137250D02*
X0129750Y0181000D01*
X0133500Y0184750D02*
X0133500Y0157250D01*
X0137250Y0153500D02*
X0137250Y0168500D01*
X0144750Y0176000D01*
X0146000Y0176000D01*
X0146000Y0166000D02*
X0151000Y0161000D01*
X0152250Y0161000D01*
X0154750Y0158500D01*
X0146000Y0146000D02*
X0141000Y0151000D01*
X0139750Y0151000D01*
X0137250Y0153500D01*
X0144750Y0146000D02*
X0146000Y0146000D01*
X0144750Y0146000D02*
X0109750Y0111000D01*
X0063500Y0111000D01*
X0050375Y0097875D01*
X0047250Y0101000D01*
X0046000Y0101000D01*
X0041000Y0106000D01*
X0034750Y0111000D02*
X0048500Y0111000D01*
X0053500Y0116000D01*
X0054750Y0112250D02*
X0088500Y0146000D01*
X0101000Y0146000D01*
X0106000Y0151000D02*
X0107250Y0151000D01*
X0113500Y0144750D01*
X0113500Y0119750D01*
X0101000Y0126000D02*
X0073500Y0126000D01*
X0054750Y0107250D01*
X0050375Y0097875D02*
X0051000Y0097250D01*
X0051000Y0026000D01*
X0086000Y0013500D02*
X0086000Y0011000D01*
X0086000Y0013500D02*
X0092250Y0019750D01*
X0101000Y0013500D02*
X0111000Y0023500D01*
X0111000Y0062250D01*
X0139750Y0091000D01*
X0152250Y0091000D01*
X0158500Y0097250D01*
X0114750Y0106000D02*
X0101000Y0106000D01*
X0096000Y0101000D01*
X0101000Y0086000D02*
X0096000Y0081000D01*
X0089750Y0081000D01*
X0101000Y0076000D02*
X0093500Y0068500D01*
X0093500Y0063500D01*
X0041000Y0076000D02*
X0031000Y0066000D01*
X0018500Y0066000D01*
X0013500Y0071000D01*
X0011000Y0071000D01*
X0008500Y0076000D02*
X0028500Y0076000D01*
X0029125Y0075375D01*
X0024750Y0071000D01*
X0021000Y0071000D01*
X0029125Y0075375D02*
X0039750Y0086000D01*
X0041000Y0086000D01*
X0041000Y0096000D02*
X0039750Y0096000D01*
X0024750Y0081000D01*
X0021000Y0081000D01*
X0016000Y0086000D01*
X0016000Y0143500D01*
X0011000Y0148500D01*
X0011000Y0151000D01*
X0006000Y0153500D02*
X0006000Y0078500D01*
X0008500Y0076000D01*
X0023500Y0096000D02*
X0032250Y0104750D01*
X0032250Y0108500D01*
X0034750Y0111000D01*
X0032250Y0114750D02*
X0032250Y0118500D01*
X0034750Y0121000D01*
X0053500Y0121000D01*
X0068500Y0136000D01*
X0063500Y0141000D02*
X0098500Y0176000D01*
X0101000Y0176000D01*
X0102250Y0166000D02*
X0111000Y0174750D01*
X0102250Y0166000D02*
X0101000Y0166000D01*
X0099750Y0166000D01*
X0092250Y0158500D01*
X0092250Y0154750D01*
X0058500Y0121000D01*
X0058500Y0131000D02*
X0083500Y0156000D01*
X0088500Y0156000D01*
X0101000Y0156000D02*
X0106000Y0151000D01*
X0058500Y0131000D02*
X0034750Y0131000D01*
X0032250Y0128500D01*
X0032250Y0124750D01*
X0023500Y0116000D01*
X0032250Y0114750D02*
X0023500Y0106000D01*
X0041000Y0136000D02*
X0043500Y0136000D01*
X0092250Y0184750D01*
X0098500Y0186000D02*
X0049750Y0137250D01*
X0047250Y0151000D02*
X0034750Y0151000D01*
X0024750Y0141000D01*
X0021000Y0141000D01*
X0016000Y0148500D02*
X0016000Y0192250D01*
X0034750Y0211000D01*
X0089750Y0211000D01*
X0094750Y0216000D01*
X0101000Y0216000D01*
X0107250Y0211000D02*
X0094750Y0211000D01*
X0089750Y0206000D01*
X0041000Y0206000D01*
X0092250Y0198500D02*
X0092250Y0196000D01*
X0047250Y0151000D01*
X0053500Y0151000D02*
X0098500Y0196000D01*
X0101000Y0196000D01*
X0092250Y0198500D02*
X0099750Y0206000D01*
X0101000Y0206000D01*
X0107250Y0211000D02*
X0133500Y0184750D01*
X0131000Y0192250D02*
X0149750Y0192250D01*
X0181000Y0223500D01*
X0333500Y0223500D01*
X0336000Y0221000D01*
X0336000Y0222250D01*
X0336000Y0191000D02*
X0341000Y0186000D01*
X0342250Y0186000D01*
X0344750Y0183500D01*
X0344750Y0043500D01*
X0332250Y0031000D01*
X0311000Y0031000D01*
X0276000Y0031000D02*
X0276000Y0016000D01*
X0276000Y0031000D02*
X0206625Y0100375D01*
X0236000Y0171000D02*
X0192250Y0214750D01*
X0236000Y0171000D02*
X0336000Y0171000D01*
X0101000Y0186000D02*
X0098500Y0186000D01*
X0011000Y0161000D02*
X0011000Y0158500D01*
X0006000Y0153500D01*
X0101000Y0013500D02*
X0101000Y0011000D01*
X0238500Y0016000D02*
X0243500Y0011000D01*
X0251000Y0011000D01*
D14*
X0173500Y0067250D03*
X0173500Y0091000D03*
X0166000Y0092250D03*
X0162250Y0098500D03*
X0144750Y0106000D03*
X0133500Y0114750D03*
X0123500Y0104750D03*
X0113500Y0119750D03*
X0129750Y0137250D03*
X0133500Y0157250D03*
X0111000Y0174750D03*
X0129750Y0181000D03*
X0131000Y0192250D03*
X0158500Y0191000D03*
X0162250Y0198500D03*
X0192250Y0214750D03*
X0166000Y0164750D03*
X0173500Y0161000D03*
X0186000Y0158500D03*
X0186000Y0153500D03*
X0177250Y0151000D03*
X0181000Y0141000D03*
X0119750Y0089750D03*
X0089750Y0081000D03*
X0093500Y0063500D03*
X0061000Y0067250D03*
X0023500Y0096000D03*
X0023500Y0106000D03*
X0023500Y0116000D03*
X0053500Y0116000D03*
X0054750Y0112250D03*
X0054750Y0107250D03*
X0061000Y0099750D03*
X0064750Y0102250D03*
X0058500Y0121000D03*
X0068500Y0136000D03*
X0063500Y0141000D03*
X0049750Y0137250D03*
X0053500Y0151000D03*
X0088500Y0156000D03*
X0092250Y0184750D03*
X0016000Y0148500D03*
M02*
