%
M48
M72
T01C0.01200
T02C0.04000
%
T01
X40000Y38500
X35500Y55000
X47500Y55000
X61000Y59500
X82000Y49000
X86500Y50500
X100000Y44500
X115000Y35500
X128500Y35500
X136000Y56500
X119500Y76000
X115000Y91000
X124000Y95500
X136000Y116500
X128500Y125500
X119500Y128500
X76000Y149500
X80500Y166000
X53500Y181000
X32500Y184000
X5500Y199000
X32500Y215500
X41500Y227500
X130000Y170500
X179500Y197500
X170500Y215500
X164500Y215500
X188500Y155500
X184000Y113500
X188500Y110500
X178000Y110500
X182500Y91000
X188500Y91000
X203800Y74800
X221500Y67000
X224500Y71500
X236800Y74800
X257500Y67000
X262000Y71500
X268000Y71500
X271000Y74500
X249400Y51400
X233500Y50500
X224500Y49000
X218500Y55000
X215500Y58000
X199000Y58000
X169000Y66400
X91000Y26500
X83500Y64000
X88000Y71500
X74500Y73000
X70000Y73000
X58000Y76000
X70000Y86500
X65500Y91000
X59500Y91000
X62500Y101500
X89500Y91000
X56500Y121000
X67000Y124000
X31000Y92500
X31000Y74500
X22000Y68500
X16000Y68500
X16000Y161500
X272500Y151000
X310000Y175000
X299500Y190000
X347500Y220000
X286000Y40000
T02
X46000Y11000
X56000Y11000
X66000Y11000
X76000Y11000
X86000Y11000
X96000Y11000
X96000Y21000
X86000Y21000
X76000Y21000
X66000Y21000
X56000Y21000
X46000Y21000
X46000Y31000
X56000Y31000
X66000Y31000
X76000Y31000
X86000Y31000
X96000Y31000
X146000Y21000
X156000Y21000
X166000Y21000
X176000Y21000
X146000Y46000
X146000Y56000
X146000Y66000
X146000Y76000
X146000Y86000
X146000Y96000
X146000Y116000
X146000Y126000
X146000Y136000
X146000Y146000
X146000Y156000
X146000Y166000
X146000Y176000
X146000Y186000
X101000Y186000
X101000Y176000
X101000Y166000
X101000Y156000
X101000Y146000
X101000Y136000
X101000Y126000
X101000Y116000
X101000Y106000
X101000Y96000
X101000Y86000
X101000Y76000
X41000Y76000
X41000Y86000
X41000Y96000
X41000Y106000
X41000Y116000
X41000Y126000
X41000Y136000
X41000Y146000
X41000Y156000
X41000Y166000
X41000Y176000
X41000Y186000
X41000Y196000
X41000Y206000
X41000Y216000
X101000Y216000
X101000Y206000
X101000Y196000
X21000Y141000
X11000Y141000
X11000Y131000
X21000Y131000
X21000Y121000
X11000Y121000
X11000Y111000
X21000Y111000
X21000Y101000
X11000Y101000
X241000Y31000
X251000Y31000
X261000Y31000
X271000Y31000
X281000Y31000
X291000Y31000
X291000Y21000
X281000Y21000
X271000Y21000
X261000Y21000
X251000Y21000
X241000Y21000
X241000Y11000
X251000Y11000
X261000Y11000
X271000Y11000
X281000Y11000
X291000Y11000
X336000Y46000
X336000Y56000
X336000Y66000
X336000Y76000
X336000Y86000
X336000Y96000
X336000Y106000
X336000Y116000
X336000Y131000
X336000Y141000
X336000Y151000
X336000Y161000
X336000Y171000
X336000Y181000
X336000Y191000
X336000Y201000
X336000Y211000
X336000Y221000
M30
