G75*
%MOIN*%
%OFA0B0*%
%FSLAX25Y25*%
%IPPOS*%
%LPD*%
%AMOC8*
5,1,8,0,0,1.08239X$1,22.5*
%
%ADD10C,0.00000*%
D10*
X0015142Y0001000D02*
X0381445Y0001000D01*
X0381765Y0001004D01*
X0382085Y0001015D01*
X0382405Y0001035D01*
X0382724Y0001062D01*
X0383043Y0001097D01*
X0383360Y0001139D01*
X0383677Y0001189D01*
X0383992Y0001247D01*
X0384305Y0001312D01*
X0384617Y0001385D01*
X0384927Y0001466D01*
X0385235Y0001553D01*
X0385541Y0001649D01*
X0385844Y0001751D01*
X0386145Y0001861D01*
X0386443Y0001979D01*
X0386739Y0002103D01*
X0387031Y0002234D01*
X0387320Y0002373D01*
X0387605Y0002518D01*
X0387887Y0002671D01*
X0388165Y0002830D01*
X0388439Y0002995D01*
X0388709Y0003168D01*
X0388975Y0003346D01*
X0389236Y0003531D01*
X0389493Y0003723D01*
X0389745Y0003920D01*
X0389992Y0004124D01*
X0390235Y0004333D01*
X0390472Y0004549D01*
X0390704Y0004770D01*
X0390930Y0004996D01*
X0391151Y0005228D01*
X0391367Y0005465D01*
X0391576Y0005708D01*
X0391780Y0005955D01*
X0391977Y0006207D01*
X0392169Y0006464D01*
X0392354Y0006725D01*
X0392532Y0006991D01*
X0392705Y0007261D01*
X0392870Y0007535D01*
X0393029Y0007813D01*
X0393182Y0008095D01*
X0393327Y0008380D01*
X0393466Y0008669D01*
X0393597Y0008961D01*
X0393721Y0009257D01*
X0393839Y0009555D01*
X0393949Y0009856D01*
X0394051Y0010159D01*
X0394147Y0010465D01*
X0394234Y0010773D01*
X0394315Y0011083D01*
X0394388Y0011395D01*
X0394453Y0011708D01*
X0394511Y0012023D01*
X0394561Y0012340D01*
X0394603Y0012657D01*
X0394638Y0012976D01*
X0394665Y0013295D01*
X0394685Y0013615D01*
X0394696Y0013935D01*
X0394700Y0014255D01*
X0394701Y0014255D02*
X0394701Y0265945D01*
X0394698Y0266187D01*
X0394689Y0266429D01*
X0394675Y0266671D01*
X0394654Y0266912D01*
X0394628Y0267152D01*
X0394596Y0267392D01*
X0394558Y0267631D01*
X0394514Y0267869D01*
X0394465Y0268106D01*
X0394410Y0268342D01*
X0394349Y0268576D01*
X0394283Y0268809D01*
X0394211Y0269040D01*
X0394133Y0269269D01*
X0394050Y0269497D01*
X0393962Y0269722D01*
X0393868Y0269945D01*
X0393768Y0270166D01*
X0393664Y0270384D01*
X0393554Y0270600D01*
X0393439Y0270813D01*
X0393318Y0271023D01*
X0393193Y0271230D01*
X0393063Y0271434D01*
X0392928Y0271635D01*
X0392788Y0271832D01*
X0392643Y0272026D01*
X0392494Y0272217D01*
X0392340Y0272404D01*
X0392182Y0272587D01*
X0392019Y0272766D01*
X0391852Y0272941D01*
X0391681Y0273112D01*
X0391506Y0273279D01*
X0391327Y0273442D01*
X0391144Y0273600D01*
X0390957Y0273754D01*
X0390766Y0273903D01*
X0390572Y0274048D01*
X0390375Y0274188D01*
X0390174Y0274323D01*
X0389970Y0274453D01*
X0389763Y0274578D01*
X0389553Y0274699D01*
X0389340Y0274814D01*
X0389124Y0274924D01*
X0388906Y0275028D01*
X0388685Y0275128D01*
X0388462Y0275222D01*
X0388237Y0275310D01*
X0388009Y0275393D01*
X0387780Y0275471D01*
X0387549Y0275543D01*
X0387316Y0275609D01*
X0387082Y0275670D01*
X0386846Y0275725D01*
X0386609Y0275774D01*
X0386371Y0275818D01*
X0386132Y0275856D01*
X0385892Y0275888D01*
X0385652Y0275914D01*
X0385411Y0275935D01*
X0385169Y0275949D01*
X0384927Y0275958D01*
X0384685Y0275961D01*
X0012163Y0275961D01*
X0011893Y0275958D01*
X0011624Y0275948D01*
X0011354Y0275932D01*
X0011086Y0275909D01*
X0010817Y0275880D01*
X0010550Y0275844D01*
X0010284Y0275802D01*
X0010018Y0275753D01*
X0009754Y0275698D01*
X0009492Y0275637D01*
X0009230Y0275569D01*
X0008971Y0275495D01*
X0008713Y0275415D01*
X0008458Y0275328D01*
X0008205Y0275236D01*
X0007953Y0275137D01*
X0007705Y0275032D01*
X0007459Y0274921D01*
X0007216Y0274805D01*
X0006975Y0274682D01*
X0006738Y0274554D01*
X0006504Y0274420D01*
X0006273Y0274281D01*
X0006046Y0274136D01*
X0005822Y0273985D01*
X0005602Y0273829D01*
X0005385Y0273668D01*
X0005173Y0273502D01*
X0004965Y0273330D01*
X0004761Y0273154D01*
X0004561Y0272972D01*
X0004366Y0272786D01*
X0004175Y0272595D01*
X0003989Y0272400D01*
X0003807Y0272200D01*
X0003631Y0271996D01*
X0003459Y0271788D01*
X0003293Y0271576D01*
X0003132Y0271359D01*
X0002976Y0271139D01*
X0002825Y0270915D01*
X0002680Y0270688D01*
X0002541Y0270457D01*
X0002407Y0270223D01*
X0002279Y0269986D01*
X0002156Y0269745D01*
X0002040Y0269502D01*
X0001929Y0269256D01*
X0001824Y0269008D01*
X0001725Y0268756D01*
X0001633Y0268503D01*
X0001546Y0268248D01*
X0001466Y0267990D01*
X0001392Y0267731D01*
X0001324Y0267469D01*
X0001263Y0267207D01*
X0001208Y0266943D01*
X0001159Y0266677D01*
X0001117Y0266411D01*
X0001081Y0266144D01*
X0001052Y0265875D01*
X0001029Y0265607D01*
X0001013Y0265337D01*
X0001003Y0265068D01*
X0001000Y0264798D01*
X0001000Y0015142D01*
X0001004Y0014800D01*
X0001017Y0014459D01*
X0001037Y0014118D01*
X0001066Y0013777D01*
X0001103Y0013437D01*
X0001148Y0013099D01*
X0001202Y0012761D01*
X0001263Y0012425D01*
X0001333Y0012090D01*
X0001411Y0011758D01*
X0001497Y0011427D01*
X0001590Y0011098D01*
X0001692Y0010772D01*
X0001802Y0010448D01*
X0001919Y0010127D01*
X0002044Y0009809D01*
X0002177Y0009494D01*
X0002317Y0009183D01*
X0002465Y0008874D01*
X0002620Y0008570D01*
X0002782Y0008269D01*
X0002952Y0007973D01*
X0003129Y0007680D01*
X0003313Y0007392D01*
X0003503Y0007108D01*
X0003701Y0006830D01*
X0003905Y0006556D01*
X0004116Y0006286D01*
X0004333Y0006023D01*
X0004557Y0005764D01*
X0004786Y0005511D01*
X0005022Y0005264D01*
X0005264Y0005022D01*
X0005511Y0004786D01*
X0005764Y0004557D01*
X0006023Y0004333D01*
X0006286Y0004116D01*
X0006556Y0003905D01*
X0006830Y0003701D01*
X0007108Y0003503D01*
X0007392Y0003313D01*
X0007680Y0003129D01*
X0007973Y0002952D01*
X0008269Y0002782D01*
X0008570Y0002620D01*
X0008874Y0002465D01*
X0009183Y0002317D01*
X0009494Y0002177D01*
X0009809Y0002044D01*
X0010127Y0001919D01*
X0010448Y0001802D01*
X0010772Y0001692D01*
X0011098Y0001590D01*
X0011427Y0001497D01*
X0011758Y0001411D01*
X0012090Y0001333D01*
X0012425Y0001263D01*
X0012761Y0001202D01*
X0013099Y0001148D01*
X0013437Y0001103D01*
X0013777Y0001066D01*
X0014118Y0001037D01*
X0014459Y0001017D01*
X0014800Y0001004D01*
X0015142Y0001000D01*
M02*
