G75*
%MOIN*%
%OFA0B0*%
%FSLAX25Y25*%
%IPPOS*%
%LPD*%
%AMOC8*
5,1,8,0,0,1.08239X$1,22.5*
%
%ADD10OC8,0.06400*%
%ADD11C,0.06400*%
%ADD12R,0.06400X0.06400*%
%ADD13C,0.02400*%
%ADD14C,0.02800*%
D10*
X0046000Y0036000D03*
X0046000Y0046000D03*
X0076000Y0046000D03*
X0076000Y0036000D03*
X0106000Y0036000D03*
X0106000Y0046000D03*
X0136000Y0046000D03*
X0136000Y0036000D03*
X0166000Y0036000D03*
X0166000Y0046000D03*
X0196000Y0046000D03*
X0196000Y0036000D03*
X0226000Y0036000D03*
X0226000Y0046000D03*
X0256000Y0046000D03*
X0256000Y0036000D03*
X0286000Y0036000D03*
X0286000Y0046000D03*
X0316000Y0046000D03*
X0316000Y0036000D03*
X0346000Y0036000D03*
X0346000Y0046000D03*
X0376000Y0046000D03*
X0376000Y0036000D03*
X0021000Y0096000D03*
X0011000Y0096000D03*
X0011000Y0106000D03*
X0011000Y0116000D03*
X0021000Y0116000D03*
X0021000Y0106000D03*
X0021000Y0126000D03*
X0011000Y0126000D03*
X0011000Y0136000D03*
X0011000Y0146000D03*
X0021000Y0146000D03*
X0021000Y0136000D03*
X0021000Y0156000D03*
X0021000Y0166000D03*
X0011000Y0166000D03*
X0011000Y0156000D03*
X0011000Y0176000D03*
X0021000Y0176000D03*
X0021000Y0186000D03*
X0011000Y0186000D03*
D11*
X0037800Y0181000D02*
X0044200Y0181000D01*
X0044200Y0191000D02*
X0037800Y0191000D01*
X0037800Y0201000D02*
X0044200Y0201000D01*
X0044200Y0211000D02*
X0037800Y0211000D01*
X0037800Y0221000D02*
X0044200Y0221000D01*
X0044200Y0231000D02*
X0037800Y0231000D01*
X0037800Y0241000D02*
X0044200Y0241000D01*
X0044200Y0251000D02*
X0037800Y0251000D01*
X0037800Y0261000D02*
X0044200Y0261000D01*
X0117800Y0261000D02*
X0124200Y0261000D01*
X0124200Y0251000D02*
X0117800Y0251000D01*
X0117800Y0241000D02*
X0124200Y0241000D01*
X0124200Y0231000D02*
X0117800Y0231000D01*
X0117800Y0221000D02*
X0124200Y0221000D01*
X0124200Y0211000D02*
X0117800Y0211000D01*
X0117800Y0201000D02*
X0124200Y0201000D01*
X0124200Y0191000D02*
X0117800Y0191000D01*
X0117800Y0181000D02*
X0124200Y0181000D01*
X0124200Y0171000D02*
X0117800Y0171000D01*
X0117800Y0161000D02*
X0124200Y0161000D01*
X0124200Y0151000D02*
X0117800Y0151000D01*
X0117800Y0141000D02*
X0124200Y0141000D01*
X0124200Y0131000D02*
X0117800Y0131000D01*
X0117800Y0121000D02*
X0124200Y0121000D01*
X0157800Y0116000D02*
X0164200Y0116000D01*
X0164200Y0106000D02*
X0157800Y0106000D01*
X0157800Y0096000D02*
X0164200Y0096000D01*
X0164200Y0126000D02*
X0157800Y0126000D01*
X0157800Y0136000D02*
X0164200Y0136000D01*
X0164200Y0146000D02*
X0157800Y0146000D01*
X0157800Y0166000D02*
X0164200Y0166000D01*
X0164200Y0176000D02*
X0157800Y0176000D01*
X0157800Y0186000D02*
X0164200Y0186000D01*
X0164200Y0196000D02*
X0157800Y0196000D01*
X0157800Y0206000D02*
X0164200Y0206000D01*
X0164200Y0216000D02*
X0157800Y0216000D01*
X0157800Y0226000D02*
X0164200Y0226000D01*
X0164200Y0236000D02*
X0157800Y0236000D01*
X0044200Y0171000D02*
X0037800Y0171000D01*
X0037800Y0161000D02*
X0044200Y0161000D01*
X0044200Y0151000D02*
X0037800Y0151000D01*
X0037800Y0141000D02*
X0044200Y0141000D01*
X0044200Y0131000D02*
X0037800Y0131000D01*
X0037800Y0121000D02*
X0044200Y0121000D01*
X0352800Y0121000D02*
X0359200Y0121000D01*
X0359200Y0111000D02*
X0352800Y0111000D01*
X0352800Y0101000D02*
X0359200Y0101000D01*
X0359200Y0091000D02*
X0352800Y0091000D01*
X0352800Y0131000D02*
X0359200Y0131000D01*
X0359200Y0141000D02*
X0352800Y0141000D01*
X0352800Y0151000D02*
X0359200Y0151000D01*
X0359200Y0161000D02*
X0352800Y0161000D01*
X0352800Y0176000D02*
X0359200Y0176000D01*
X0359200Y0186000D02*
X0352800Y0186000D01*
X0352800Y0196000D02*
X0359200Y0196000D01*
X0359200Y0206000D02*
X0352800Y0206000D01*
X0352800Y0216000D02*
X0359200Y0216000D01*
X0359200Y0226000D02*
X0352800Y0226000D01*
X0352800Y0236000D02*
X0359200Y0236000D01*
X0359200Y0246000D02*
X0352800Y0246000D01*
X0352800Y0256000D02*
X0359200Y0256000D01*
X0359200Y0266000D02*
X0352800Y0266000D01*
D12*
X0346000Y0056000D03*
X0376000Y0056000D03*
X0316000Y0056000D03*
X0286000Y0056000D03*
X0256000Y0056000D03*
X0226000Y0056000D03*
X0196000Y0056000D03*
X0166000Y0056000D03*
X0136000Y0056000D03*
X0106000Y0056000D03*
X0076000Y0056000D03*
X0046000Y0056000D03*
D13*
X0066000Y0056000D02*
X0076000Y0046000D01*
X0076000Y0038500D02*
X0093500Y0056000D01*
X0093500Y0143500D01*
X0096000Y0146000D01*
X0104750Y0154750D01*
X0104750Y0176000D01*
X0119750Y0191000D01*
X0121000Y0191000D01*
X0127250Y0196000D02*
X0114750Y0196000D01*
X0077250Y0158500D01*
X0077250Y0133500D01*
X0082250Y0137250D02*
X0101000Y0156000D01*
X0108500Y0164750D02*
X0108500Y0136000D01*
X0127250Y0136000D01*
X0132250Y0131000D01*
X0136000Y0137250D02*
X0136000Y0056000D01*
X0136000Y0038500D02*
X0157250Y0059750D01*
X0157250Y0081000D01*
X0169750Y0093500D01*
X0169750Y0186000D01*
X0169750Y0228500D01*
X0167250Y0231000D01*
X0121000Y0231000D01*
X0114750Y0231000D01*
X0049750Y0166000D01*
X0059750Y0153500D02*
X0049750Y0143500D01*
X0047250Y0146000D01*
X0034750Y0146000D01*
X0028500Y0152250D01*
X0028500Y0176000D01*
X0021000Y0183500D01*
X0021000Y0186000D01*
X0016000Y0183500D02*
X0016000Y0237250D01*
X0039750Y0261000D01*
X0041000Y0261000D01*
X0034750Y0266000D02*
X0116000Y0266000D01*
X0121000Y0261000D01*
X0127250Y0256000D02*
X0114750Y0256000D01*
X0108500Y0249750D01*
X0108500Y0229750D01*
X0064750Y0186000D01*
X0034750Y0186000D01*
X0032250Y0183500D01*
X0032250Y0159750D01*
X0016000Y0168500D02*
X0016000Y0143500D01*
X0018500Y0141000D01*
X0041000Y0141000D01*
X0042250Y0141000D01*
X0054750Y0128500D01*
X0054750Y0112250D01*
X0056000Y0108500D02*
X0041000Y0108500D01*
X0041000Y0121000D01*
X0036000Y0126000D02*
X0034750Y0126000D01*
X0026000Y0117250D01*
X0026000Y0101000D01*
X0021000Y0096000D01*
X0023500Y0091000D02*
X0018500Y0091000D01*
X0013500Y0096000D01*
X0011000Y0096000D01*
X0023500Y0091000D02*
X0041000Y0108500D01*
X0056000Y0108500D02*
X0058500Y0111000D01*
X0058500Y0134750D01*
X0049750Y0143500D01*
X0061000Y0147250D02*
X0061000Y0149750D01*
X0061000Y0147250D02*
X0066000Y0142250D01*
X0066000Y0056000D01*
X0076000Y0038500D02*
X0076000Y0036000D01*
X0078500Y0031000D02*
X0051000Y0031000D01*
X0046000Y0036000D01*
X0046000Y0038500D01*
X0006000Y0078500D01*
X0006000Y0128500D01*
X0008500Y0131000D01*
X0014750Y0131000D01*
X0019750Y0126000D01*
X0021000Y0126000D01*
X0023500Y0121000D02*
X0018500Y0121000D01*
X0013500Y0116000D01*
X0011000Y0116000D01*
X0023500Y0121000D02*
X0032250Y0129750D01*
X0032250Y0134750D01*
X0036000Y0126000D02*
X0041000Y0131000D01*
X0069750Y0126000D02*
X0069750Y0153500D01*
X0064750Y0158500D01*
X0064750Y0176000D01*
X0068500Y0167250D02*
X0068500Y0159750D01*
X0073500Y0154750D01*
X0073500Y0129750D01*
X0097250Y0113500D02*
X0097250Y0049750D01*
X0078500Y0031000D01*
X0106000Y0036000D02*
X0122250Y0019750D01*
X0161000Y0019750D01*
X0161000Y0061000D01*
X0173500Y0073500D01*
X0173500Y0191000D01*
X0177250Y0192250D02*
X0177250Y0149750D01*
X0208500Y0118500D01*
X0208500Y0063500D01*
X0226000Y0046000D01*
X0226000Y0036000D02*
X0204750Y0057250D01*
X0204750Y0111000D01*
X0177250Y0138500D01*
X0177250Y0144750D01*
X0181000Y0151000D02*
X0181000Y0217250D01*
X0198500Y0216000D02*
X0153500Y0261000D01*
X0133500Y0259750D02*
X0133500Y0242250D01*
X0132875Y0241625D01*
X0133500Y0241000D01*
X0168500Y0241000D01*
X0279125Y0130375D01*
X0273500Y0124750D01*
X0273500Y0108500D01*
X0321000Y0061000D01*
X0321000Y0033500D01*
X0314750Y0027250D01*
X0222250Y0027250D01*
X0213500Y0036000D01*
X0196000Y0036000D01*
X0188500Y0036000D02*
X0201000Y0023500D01*
X0316000Y0023500D01*
X0324750Y0032250D01*
X0324750Y0062250D01*
X0282250Y0104750D01*
X0282250Y0128500D01*
X0349750Y0196000D01*
X0356000Y0196000D01*
X0362250Y0191000D02*
X0349750Y0191000D01*
X0287250Y0128500D01*
X0287250Y0106000D01*
X0286000Y0106000D01*
X0328500Y0063500D01*
X0328500Y0056000D01*
X0346000Y0038500D01*
X0346000Y0036000D01*
X0337250Y0019750D02*
X0161000Y0019750D01*
X0166000Y0036000D02*
X0188500Y0036000D01*
X0201000Y0053500D02*
X0201000Y0109750D01*
X0177250Y0133500D01*
X0161000Y0126000D02*
X0159750Y0126000D01*
X0148500Y0137250D01*
X0148500Y0168500D01*
X0137250Y0173500D02*
X0137250Y0216000D01*
X0127250Y0226000D01*
X0127250Y0236000D02*
X0114750Y0236000D01*
X0112250Y0238500D01*
X0112250Y0243500D01*
X0119750Y0251000D01*
X0121000Y0251000D01*
X0127250Y0256000D02*
X0129750Y0253500D01*
X0129750Y0248500D01*
X0122250Y0241000D01*
X0121000Y0241000D01*
X0127250Y0236000D02*
X0132875Y0241625D01*
X0133500Y0259750D02*
X0123500Y0269750D01*
X0033500Y0269750D01*
X0016000Y0252250D01*
X0016000Y0247250D02*
X0034750Y0266000D01*
X0041000Y0251000D02*
X0047250Y0251000D01*
X0086000Y0212250D01*
X0096000Y0222250D02*
X0062250Y0256000D01*
X0043500Y0221000D02*
X0068500Y0196000D01*
X0043500Y0221000D02*
X0041000Y0221000D01*
X0011000Y0186000D02*
X0011000Y0183500D01*
X0006000Y0178500D01*
X0006000Y0143500D01*
X0016000Y0168500D02*
X0011000Y0173500D01*
X0011000Y0176000D01*
X0016000Y0183500D02*
X0021000Y0178500D01*
X0021000Y0176000D01*
X0072250Y0163500D02*
X0119750Y0211000D01*
X0121000Y0211000D01*
X0127250Y0196000D02*
X0129750Y0193500D01*
X0129750Y0188500D01*
X0122250Y0181000D01*
X0121000Y0181000D01*
X0121000Y0171000D02*
X0114750Y0171000D01*
X0108500Y0164750D01*
X0112250Y0163500D02*
X0112250Y0148500D01*
X0119750Y0141000D01*
X0121000Y0141000D01*
X0127250Y0146000D02*
X0136000Y0137250D01*
X0127250Y0146000D02*
X0127250Y0151000D01*
X0121000Y0151000D01*
X0126000Y0151000D01*
X0156000Y0181000D01*
X0161000Y0176000D01*
X0156000Y0181000D02*
X0161000Y0186000D01*
X0161000Y0196000D02*
X0156000Y0201000D01*
X0154750Y0201000D01*
X0152250Y0203500D01*
X0152250Y0218500D01*
X0159750Y0226000D01*
X0161000Y0226000D01*
X0148500Y0216000D02*
X0148500Y0179750D01*
X0134750Y0166000D01*
X0114750Y0166000D01*
X0112250Y0163500D01*
X0108500Y0136000D02*
X0108500Y0124750D01*
X0097250Y0113500D01*
X0106000Y0117250D02*
X0119750Y0131000D01*
X0121000Y0131000D01*
X0188500Y0163500D02*
X0226625Y0125375D01*
X0217250Y0116000D01*
X0212250Y0119750D02*
X0212250Y0112250D01*
X0286000Y0038500D01*
X0286000Y0036000D01*
X0316000Y0036000D02*
X0226625Y0125375D01*
X0279125Y0130375D02*
X0354750Y0206000D01*
X0356000Y0206000D01*
X0356000Y0216000D02*
X0198500Y0216000D01*
X0177250Y0192250D02*
X0174750Y0194750D01*
X0188500Y0189750D02*
X0188500Y0163500D01*
X0308500Y0144750D02*
X0342250Y0111000D01*
X0356000Y0111000D01*
X0364750Y0143500D02*
X0364750Y0047250D01*
X0337250Y0019750D01*
X0376000Y0056000D02*
X0376000Y0217250D01*
X0362250Y0231000D01*
X0361000Y0231000D01*
X0356000Y0236000D01*
X0347250Y0248500D02*
X0354750Y0256000D01*
X0356000Y0256000D01*
X0347250Y0248500D02*
X0347250Y0223500D01*
X0349750Y0221000D01*
X0362250Y0221000D01*
X0364750Y0218500D01*
X0364750Y0193500D01*
X0362250Y0191000D01*
X0356000Y0151000D02*
X0361000Y0146000D01*
X0362250Y0146000D01*
X0364750Y0143500D01*
X0256000Y0036000D02*
X0233500Y0036000D01*
X0228500Y0031000D01*
X0223500Y0031000D01*
X0201000Y0053500D01*
X0136000Y0038500D02*
X0136000Y0036000D01*
D14*
X0054750Y0112250D03*
X0069750Y0126000D03*
X0073500Y0129750D03*
X0077250Y0133500D03*
X0082250Y0137250D03*
X0096000Y0146000D03*
X0101000Y0156000D03*
X0072250Y0163500D03*
X0068500Y0167250D03*
X0064750Y0176000D03*
X0049750Y0166000D03*
X0059750Y0153500D03*
X0061000Y0149750D03*
X0032250Y0159750D03*
X0006000Y0143500D03*
X0032250Y0134750D03*
X0106000Y0117250D03*
X0132250Y0131000D03*
X0177250Y0133500D03*
X0177250Y0144750D03*
X0181000Y0151000D03*
X0148500Y0168500D03*
X0137250Y0173500D03*
X0169750Y0186000D03*
X0173500Y0191000D03*
X0174750Y0194750D03*
X0188500Y0189750D03*
X0181000Y0217250D03*
X0148500Y0216000D03*
X0127250Y0226000D03*
X0096000Y0222250D03*
X0086000Y0212250D03*
X0068500Y0196000D03*
X0016000Y0247250D03*
X0016000Y0252250D03*
X0062250Y0256000D03*
X0153500Y0261000D03*
X0308500Y0144750D03*
X0286000Y0106000D03*
X0217250Y0116000D03*
X0212250Y0119750D03*
M02*
