G75*
%MOIN*%
%OFA0B0*%
%FSLAX25Y25*%
%IPPOS*%
%LPD*%
%AMOC8*
5,1,8,0,0,1.08239X$1,22.5*
%
%ADD10C,0.06400*%
%ADD11R,0.06400X0.06400*%
%ADD12OC8,0.06400*%
%ADD13C,0.02400*%
%ADD14C,0.02800*%
%ADD15C,0.00600*%
D10*
X0037800Y0076000D02*
X0044200Y0076000D01*
X0044200Y0086000D02*
X0037800Y0086000D01*
X0037800Y0096000D02*
X0044200Y0096000D01*
X0044200Y0106000D02*
X0037800Y0106000D01*
X0037800Y0116000D02*
X0044200Y0116000D01*
X0044200Y0126000D02*
X0037800Y0126000D01*
X0037800Y0136000D02*
X0044200Y0136000D01*
X0044200Y0146000D02*
X0037800Y0146000D01*
X0037800Y0156000D02*
X0044200Y0156000D01*
X0044200Y0166000D02*
X0037800Y0166000D01*
X0037800Y0176000D02*
X0044200Y0176000D01*
X0044200Y0186000D02*
X0037800Y0186000D01*
X0037800Y0196000D02*
X0044200Y0196000D01*
X0044200Y0206000D02*
X0037800Y0206000D01*
X0037800Y0216000D02*
X0044200Y0216000D01*
X0097800Y0216000D02*
X0104200Y0216000D01*
X0104200Y0206000D02*
X0097800Y0206000D01*
X0097800Y0196000D02*
X0104200Y0196000D01*
X0104200Y0186000D02*
X0097800Y0186000D01*
X0097800Y0176000D02*
X0104200Y0176000D01*
X0104200Y0166000D02*
X0097800Y0166000D01*
X0097800Y0156000D02*
X0104200Y0156000D01*
X0104200Y0146000D02*
X0097800Y0146000D01*
X0097800Y0136000D02*
X0104200Y0136000D01*
X0104200Y0126000D02*
X0097800Y0126000D01*
X0097800Y0116000D02*
X0104200Y0116000D01*
X0104200Y0106000D02*
X0097800Y0106000D01*
X0097800Y0096000D02*
X0104200Y0096000D01*
X0104200Y0086000D02*
X0097800Y0086000D01*
X0097800Y0076000D02*
X0104200Y0076000D01*
X0142800Y0076000D02*
X0149200Y0076000D01*
X0149200Y0066000D02*
X0142800Y0066000D01*
X0142800Y0056000D02*
X0149200Y0056000D01*
X0149200Y0046000D02*
X0142800Y0046000D01*
X0146000Y0024200D02*
X0146000Y0017800D01*
X0156000Y0017800D02*
X0156000Y0024200D01*
X0166000Y0024200D02*
X0166000Y0017800D01*
X0176000Y0017800D02*
X0176000Y0024200D01*
X0149200Y0086000D02*
X0142800Y0086000D01*
X0142800Y0096000D02*
X0149200Y0096000D01*
X0149200Y0116000D02*
X0142800Y0116000D01*
X0142800Y0126000D02*
X0149200Y0126000D01*
X0149200Y0136000D02*
X0142800Y0136000D01*
X0142800Y0146000D02*
X0149200Y0146000D01*
X0149200Y0156000D02*
X0142800Y0156000D01*
X0142800Y0166000D02*
X0149200Y0166000D01*
X0149200Y0176000D02*
X0142800Y0176000D01*
X0142800Y0186000D02*
X0149200Y0186000D01*
X0332800Y0181000D02*
X0339200Y0181000D01*
X0339200Y0171000D02*
X0332800Y0171000D01*
X0332800Y0161000D02*
X0339200Y0161000D01*
X0339200Y0151000D02*
X0332800Y0151000D01*
X0332800Y0141000D02*
X0339200Y0141000D01*
X0339200Y0131000D02*
X0332800Y0131000D01*
X0332800Y0116000D02*
X0339200Y0116000D01*
X0339200Y0106000D02*
X0332800Y0106000D01*
X0332800Y0096000D02*
X0339200Y0096000D01*
X0339200Y0086000D02*
X0332800Y0086000D01*
X0332800Y0076000D02*
X0339200Y0076000D01*
X0339200Y0066000D02*
X0332800Y0066000D01*
X0332800Y0056000D02*
X0339200Y0056000D01*
X0339200Y0046000D02*
X0332800Y0046000D01*
X0332800Y0191000D02*
X0339200Y0191000D01*
X0339200Y0201000D02*
X0332800Y0201000D01*
X0332800Y0211000D02*
X0339200Y0211000D01*
X0339200Y0221000D02*
X0332800Y0221000D01*
D11*
X0291000Y0031000D03*
X0281000Y0031000D03*
X0271000Y0031000D03*
X0261000Y0031000D03*
X0251000Y0031000D03*
X0241000Y0031000D03*
X0096000Y0031000D03*
X0086000Y0031000D03*
X0076000Y0031000D03*
X0066000Y0031000D03*
X0056000Y0031000D03*
X0046000Y0031000D03*
D12*
X0046000Y0021000D03*
X0056000Y0021000D03*
X0066000Y0021000D03*
X0076000Y0021000D03*
X0086000Y0021000D03*
X0096000Y0021000D03*
X0096000Y0011000D03*
X0086000Y0011000D03*
X0076000Y0011000D03*
X0066000Y0011000D03*
X0056000Y0011000D03*
X0046000Y0011000D03*
X0021000Y0101000D03*
X0011000Y0101000D03*
X0011000Y0111000D03*
X0021000Y0111000D03*
X0021000Y0121000D03*
X0011000Y0121000D03*
X0011000Y0131000D03*
X0021000Y0131000D03*
X0021000Y0141000D03*
X0011000Y0141000D03*
X0241000Y0021000D03*
X0251000Y0021000D03*
X0261000Y0021000D03*
X0271000Y0021000D03*
X0281000Y0021000D03*
X0291000Y0021000D03*
X0291000Y0011000D03*
X0281000Y0011000D03*
X0271000Y0011000D03*
X0261000Y0011000D03*
X0251000Y0011000D03*
X0241000Y0011000D03*
D13*
X0040000Y0017500D02*
X0040000Y0038500D01*
X0047500Y0037000D02*
X0113500Y0037000D01*
X0115000Y0035500D01*
X0128500Y0035500D02*
X0154000Y0035500D01*
X0166000Y0023500D01*
X0166000Y0021000D01*
X0166000Y0022000D01*
X0173500Y0029500D01*
X0205000Y0029500D01*
X0224500Y0049000D01*
X0218500Y0055000D02*
X0209500Y0046000D01*
X0146000Y0046000D01*
X0139000Y0050500D02*
X0145000Y0056500D01*
X0146000Y0056000D01*
X0146500Y0056500D01*
X0191500Y0056500D01*
X0202000Y0067000D01*
X0221500Y0067000D01*
X0224500Y0070000D02*
X0226000Y0068500D01*
X0226000Y0056500D01*
X0209500Y0040000D01*
X0056500Y0040000D01*
X0005500Y0091000D01*
X0005500Y0116500D01*
X0010000Y0121000D01*
X0011000Y0121000D01*
X0021000Y0121000D02*
X0047500Y0121000D01*
X0052000Y0116500D01*
X0100000Y0116500D01*
X0101000Y0116000D01*
X0095500Y0121000D02*
X0094000Y0119500D01*
X0065500Y0119500D01*
X0064000Y0121000D01*
X0056500Y0121000D01*
X0067000Y0124000D02*
X0046000Y0145000D01*
X0041500Y0145000D01*
X0041000Y0146000D01*
X0035500Y0151000D02*
X0071500Y0151000D01*
X0095500Y0175000D01*
X0100000Y0175000D01*
X0101000Y0176000D01*
X0100000Y0196000D02*
X0080500Y0176500D01*
X0080500Y0166000D01*
X0101000Y0156000D02*
X0101500Y0157000D01*
X0108400Y0157000D01*
X0122500Y0157000D01*
X0134500Y0169000D01*
X0134500Y0185500D01*
X0164500Y0215500D01*
X0166000Y0220000D02*
X0104500Y0220000D01*
X0101500Y0217000D01*
X0101000Y0216000D01*
X0095500Y0211000D02*
X0107500Y0211000D01*
X0130000Y0188500D01*
X0130000Y0170500D01*
X0137500Y0167500D02*
X0116500Y0146500D01*
X0101500Y0146500D01*
X0101000Y0146000D01*
X0100000Y0136000D02*
X0086500Y0149500D01*
X0076000Y0149500D01*
X0100000Y0136000D02*
X0101000Y0136000D01*
X0112000Y0121000D02*
X0119500Y0128500D01*
X0128500Y0125500D02*
X0128500Y0091000D01*
X0182500Y0091000D01*
X0188500Y0091000D02*
X0158500Y0061000D01*
X0140500Y0061000D01*
X0136000Y0056500D01*
X0139000Y0050500D02*
X0086500Y0050500D01*
X0082000Y0049000D02*
X0086500Y0044500D01*
X0100000Y0044500D01*
X0109000Y0055000D02*
X0047500Y0055000D01*
X0035500Y0055000D02*
X0022000Y0068500D01*
X0016000Y0068500D02*
X0047500Y0037000D01*
X0046000Y0031000D02*
X0056000Y0031000D01*
X0066000Y0031000D01*
X0076000Y0031000D01*
X0086000Y0031000D01*
X0096000Y0031000D01*
X0146500Y0031000D01*
X0155500Y0022000D01*
X0156000Y0021000D01*
X0146000Y0021000D02*
X0145000Y0020500D01*
X0097000Y0020500D01*
X0096000Y0021000D01*
X0091000Y0016000D02*
X0091000Y0026500D01*
X0086000Y0021000D02*
X0085000Y0020500D01*
X0076000Y0020500D01*
X0076000Y0021000D01*
X0076000Y0020500D02*
X0067000Y0020500D01*
X0066000Y0021000D01*
X0065500Y0020500D01*
X0056500Y0020500D01*
X0056000Y0021000D01*
X0055000Y0020500D01*
X0046000Y0020500D01*
X0046000Y0021000D01*
X0040000Y0017500D02*
X0046000Y0011500D01*
X0046000Y0011000D01*
X0076000Y0011000D02*
X0076000Y0010000D01*
X0079000Y0010000D01*
X0083500Y0005500D01*
X0311500Y0005500D01*
X0347500Y0041500D01*
X0347500Y0130000D01*
X0337000Y0140500D01*
X0336000Y0141000D01*
X0326500Y0130000D02*
X0326500Y0193000D01*
X0329500Y0196000D01*
X0341500Y0196000D01*
X0344500Y0199000D01*
X0344500Y0214000D01*
X0337000Y0221500D01*
X0336000Y0221000D01*
X0347500Y0220000D02*
X0347500Y0191500D01*
X0337000Y0181000D01*
X0336000Y0181000D01*
X0310000Y0175000D02*
X0310000Y0131500D01*
X0335500Y0106000D01*
X0336000Y0106000D01*
X0344500Y0118000D02*
X0337000Y0125500D01*
X0331000Y0125500D01*
X0326500Y0130000D01*
X0344500Y0118000D02*
X0344500Y0043000D01*
X0313000Y0011500D01*
X0292000Y0011500D01*
X0291000Y0011000D01*
X0293500Y0016000D02*
X0296500Y0019000D01*
X0296500Y0043000D01*
X0268000Y0071500D01*
X0271000Y0074500D02*
X0289000Y0056500D01*
X0335500Y0056500D01*
X0336000Y0056000D01*
X0335500Y0085000D02*
X0336000Y0086000D01*
X0335500Y0085000D02*
X0275500Y0085000D01*
X0262000Y0071500D01*
X0258250Y0067750D02*
X0257500Y0067000D01*
X0258250Y0067750D02*
X0286000Y0040000D01*
X0281000Y0031000D02*
X0271000Y0031000D01*
X0261000Y0031000D01*
X0253000Y0031000D01*
X0251000Y0031000D01*
X0241000Y0031000D01*
X0253000Y0031000D02*
X0253000Y0106000D01*
X0176500Y0106000D01*
X0157000Y0125500D01*
X0146500Y0125500D01*
X0146000Y0126000D01*
X0145000Y0125500D01*
X0136000Y0116500D01*
X0146000Y0116000D02*
X0146500Y0115000D01*
X0163000Y0115000D01*
X0179500Y0098500D01*
X0208000Y0098500D01*
X0233500Y0073000D01*
X0233500Y0050500D01*
X0215500Y0058000D02*
X0199000Y0058000D01*
X0224500Y0070000D02*
X0224500Y0071500D01*
X0229000Y0073000D02*
X0206500Y0095500D01*
X0146500Y0095500D01*
X0146000Y0096000D01*
X0128500Y0091000D02*
X0128500Y0079000D01*
X0109000Y0059500D01*
X0061000Y0059500D01*
X0082000Y0068500D02*
X0085750Y0072250D01*
X0086500Y0071500D01*
X0088000Y0071500D01*
X0085750Y0072250D02*
X0100000Y0086500D01*
X0101000Y0086000D01*
X0089500Y0091000D02*
X0115000Y0091000D01*
X0119500Y0091000D02*
X0119500Y0089500D01*
X0106000Y0076000D01*
X0101000Y0076000D01*
X0107500Y0064000D02*
X0083500Y0064000D01*
X0082000Y0068500D02*
X0037000Y0068500D01*
X0031000Y0074500D01*
X0029500Y0079000D02*
X0037000Y0079000D01*
X0040000Y0076000D01*
X0041000Y0076000D01*
X0058000Y0076000D01*
X0070000Y0073000D02*
X0070000Y0086500D01*
X0074500Y0088000D02*
X0074500Y0073000D01*
X0074500Y0088000D02*
X0071500Y0091000D01*
X0065500Y0091000D01*
X0059500Y0091000D02*
X0035500Y0091000D01*
X0032500Y0088000D01*
X0029500Y0088000D01*
X0026500Y0091000D01*
X0026500Y0103000D01*
X0023500Y0106000D01*
X0016000Y0106000D01*
X0011000Y0111000D01*
X0021000Y0111000D02*
X0022000Y0110500D01*
X0023500Y0110500D01*
X0031000Y0103000D01*
X0031000Y0092500D01*
X0041000Y0096000D02*
X0041500Y0095500D01*
X0100000Y0095500D01*
X0101000Y0096000D01*
X0101500Y0095500D01*
X0124000Y0118000D01*
X0124000Y0145000D01*
X0145000Y0166000D01*
X0146000Y0166000D01*
X0149500Y0172000D02*
X0151000Y0172000D01*
X0155500Y0167500D01*
X0155500Y0154000D01*
X0146500Y0145000D01*
X0146000Y0146000D01*
X0148000Y0145000D01*
X0178000Y0115000D01*
X0178000Y0110500D01*
X0184000Y0113500D02*
X0184000Y0212500D01*
X0169000Y0227500D01*
X0041500Y0227500D01*
X0037000Y0220000D02*
X0031000Y0220000D01*
X0011500Y0200500D01*
X0011500Y0142000D01*
X0011000Y0141000D01*
X0016000Y0136000D02*
X0023500Y0136000D01*
X0032500Y0145000D01*
X0032500Y0148000D01*
X0035500Y0151000D01*
X0016000Y0161500D02*
X0035500Y0181000D01*
X0053500Y0181000D01*
X0032500Y0184000D02*
X0032500Y0215500D01*
X0037000Y0220000D02*
X0041000Y0216000D01*
X0029500Y0223000D02*
X0169000Y0223000D01*
X0175000Y0217000D01*
X0175000Y0203500D01*
X0174250Y0202750D01*
X0179500Y0197500D01*
X0174250Y0202750D02*
X0152500Y0181000D01*
X0140500Y0181000D01*
X0137500Y0178000D01*
X0137500Y0167500D01*
X0146500Y0175000D02*
X0146000Y0176000D01*
X0146500Y0175000D02*
X0149500Y0172000D01*
X0188500Y0155500D02*
X0188500Y0110500D01*
X0146000Y0126000D02*
X0146000Y0136000D01*
X0112000Y0121000D02*
X0095500Y0121000D01*
X0100000Y0106000D02*
X0101000Y0106000D01*
X0100000Y0106000D02*
X0095500Y0101500D01*
X0062500Y0101500D01*
X0041000Y0086000D02*
X0040000Y0085000D01*
X0028000Y0085000D01*
X0022000Y0091000D01*
X0022000Y0100000D01*
X0021000Y0101000D01*
X0011500Y0100000D02*
X0011500Y0097000D01*
X0029500Y0079000D01*
X0011500Y0100000D02*
X0011000Y0101000D01*
X0011000Y0131000D02*
X0016000Y0136000D01*
X0100000Y0196000D02*
X0101000Y0196000D01*
X0091000Y0206500D02*
X0095500Y0211000D01*
X0091000Y0206500D02*
X0041500Y0206500D01*
X0041000Y0206000D01*
X0029500Y0223000D02*
X0005500Y0199000D01*
X0166000Y0220000D02*
X0170500Y0215500D01*
X0272500Y0151000D02*
X0280000Y0151000D01*
X0329500Y0200500D01*
X0335500Y0200500D01*
X0336000Y0201000D01*
X0336000Y0211000D02*
X0326500Y0211000D01*
X0257500Y0142000D01*
X0257500Y0068500D01*
X0258250Y0067750D01*
X0229000Y0073000D02*
X0229000Y0023500D01*
X0241000Y0011500D01*
X0241000Y0011000D01*
X0251000Y0011000D02*
X0256000Y0016000D01*
X0293500Y0016000D01*
X0290500Y0020500D02*
X0291000Y0021000D01*
X0290500Y0020500D02*
X0281500Y0020500D01*
X0281000Y0021000D01*
X0271000Y0021000D01*
X0261000Y0021000D01*
X0251000Y0021000D01*
X0241000Y0021000D01*
X0281000Y0031000D02*
X0291000Y0031000D01*
X0253000Y0106000D02*
X0253000Y0143500D01*
X0299500Y0190000D01*
X0124000Y0095500D02*
X0119500Y0091000D01*
X0119500Y0076000D02*
X0107500Y0064000D01*
X0109000Y0055000D02*
X0119500Y0065500D01*
X0145000Y0065500D01*
X0146000Y0066000D01*
X0091000Y0016000D02*
X0086000Y0011000D01*
D14*
X0091000Y0026500D03*
X0115000Y0035500D03*
X0128500Y0035500D03*
X0100000Y0044500D03*
X0086500Y0050500D03*
X0082000Y0049000D03*
X0061000Y0059500D03*
X0047500Y0055000D03*
X0035500Y0055000D03*
X0022000Y0068500D03*
X0016000Y0068500D03*
X0031000Y0074500D03*
X0031000Y0092500D03*
X0059500Y0091000D03*
X0065500Y0091000D03*
X0070000Y0086500D03*
X0058000Y0076000D03*
X0070000Y0073000D03*
X0074500Y0073000D03*
X0083500Y0064000D03*
X0088000Y0071500D03*
X0119500Y0076000D03*
X0115000Y0091000D03*
X0124000Y0095500D03*
X0136000Y0116500D03*
X0128500Y0125500D03*
X0119500Y0128500D03*
X0076000Y0149500D03*
X0080500Y0166000D03*
X0053500Y0181000D03*
X0032500Y0184000D03*
X0005500Y0199000D03*
X0032500Y0215500D03*
X0041500Y0227500D03*
X0130000Y0170500D03*
X0179500Y0197500D03*
X0170500Y0215500D03*
X0164500Y0215500D03*
X0188500Y0155500D03*
X0184000Y0113500D03*
X0188500Y0110500D03*
X0178000Y0110500D03*
X0182500Y0091000D03*
X0188500Y0091000D03*
X0203800Y0074800D03*
X0221500Y0067000D03*
X0224500Y0071500D03*
X0236800Y0074800D03*
X0257500Y0067000D03*
X0262000Y0071500D03*
X0268000Y0071500D03*
X0271000Y0074500D03*
X0249400Y0051400D03*
X0233500Y0050500D03*
X0224500Y0049000D03*
X0218500Y0055000D03*
X0215500Y0058000D03*
X0199000Y0058000D03*
X0169000Y0066400D03*
X0136000Y0056500D03*
X0089500Y0091000D03*
X0062500Y0101500D03*
X0056500Y0121000D03*
X0067000Y0124000D03*
X0016000Y0161500D03*
X0040000Y0038500D03*
X0272500Y0151000D03*
X0310000Y0175000D03*
X0299500Y0190000D03*
X0347500Y0220000D03*
X0286000Y0040000D03*
D15*
X0249400Y0051400D02*
X0249400Y0062200D01*
X0236800Y0074800D01*
X0203800Y0074800D02*
X0177400Y0074800D01*
X0169000Y0066400D01*
X0066000Y0011000D02*
X0065800Y0010600D01*
X0061600Y0010600D01*
X0057400Y0006400D01*
X0044800Y0006400D01*
X0003400Y0047800D01*
X0003400Y0129400D01*
X0010600Y0136600D01*
X0012400Y0136600D01*
X0016600Y0140800D01*
X0016600Y0142600D01*
X0035800Y0161800D01*
X0057400Y0161800D01*
X0095800Y0200200D01*
X0106000Y0200200D01*
X0108400Y0197800D01*
X0108400Y0157000D01*
M02*
