G75*
%MOIN*%
%OFA0B0*%
%FSLAX25Y25*%
%IPPOS*%
%LPD*%
%AMOC8*
5,1,8,0,0,1.08239X$1,22.5*
%
%ADD10C,0.00000*%
D10*
X0015142Y0001000D02*
X0356445Y0001000D01*
X0356765Y0001004D01*
X0357085Y0001015D01*
X0357405Y0001035D01*
X0357724Y0001062D01*
X0358043Y0001097D01*
X0358360Y0001139D01*
X0358677Y0001189D01*
X0358992Y0001247D01*
X0359305Y0001312D01*
X0359617Y0001385D01*
X0359927Y0001466D01*
X0360235Y0001553D01*
X0360541Y0001649D01*
X0360844Y0001751D01*
X0361145Y0001861D01*
X0361443Y0001979D01*
X0361739Y0002103D01*
X0362031Y0002234D01*
X0362320Y0002373D01*
X0362605Y0002518D01*
X0362887Y0002671D01*
X0363165Y0002830D01*
X0363439Y0002995D01*
X0363709Y0003168D01*
X0363975Y0003346D01*
X0364236Y0003531D01*
X0364493Y0003723D01*
X0364745Y0003920D01*
X0364992Y0004124D01*
X0365235Y0004333D01*
X0365472Y0004549D01*
X0365704Y0004770D01*
X0365930Y0004996D01*
X0366151Y0005228D01*
X0366367Y0005465D01*
X0366576Y0005708D01*
X0366780Y0005955D01*
X0366977Y0006207D01*
X0367169Y0006464D01*
X0367354Y0006725D01*
X0367532Y0006991D01*
X0367705Y0007261D01*
X0367870Y0007535D01*
X0368029Y0007813D01*
X0368182Y0008095D01*
X0368327Y0008380D01*
X0368466Y0008669D01*
X0368597Y0008961D01*
X0368721Y0009257D01*
X0368839Y0009555D01*
X0368949Y0009856D01*
X0369051Y0010159D01*
X0369147Y0010465D01*
X0369234Y0010773D01*
X0369315Y0011083D01*
X0369388Y0011395D01*
X0369453Y0011708D01*
X0369511Y0012023D01*
X0369561Y0012340D01*
X0369603Y0012657D01*
X0369638Y0012976D01*
X0369665Y0013295D01*
X0369685Y0013615D01*
X0369696Y0013935D01*
X0369700Y0014255D01*
X0369701Y0014255D02*
X0369701Y0220335D01*
X0369698Y0220592D01*
X0369689Y0220848D01*
X0369673Y0221105D01*
X0369651Y0221361D01*
X0369624Y0221616D01*
X0369589Y0221870D01*
X0369549Y0222124D01*
X0369503Y0222377D01*
X0369451Y0222628D01*
X0369392Y0222878D01*
X0369328Y0223127D01*
X0369257Y0223373D01*
X0369181Y0223619D01*
X0369099Y0223862D01*
X0369010Y0224103D01*
X0368917Y0224342D01*
X0368817Y0224579D01*
X0368711Y0224813D01*
X0368600Y0225044D01*
X0368484Y0225273D01*
X0368362Y0225499D01*
X0368234Y0225722D01*
X0368101Y0225942D01*
X0367963Y0226158D01*
X0367820Y0226371D01*
X0367672Y0226581D01*
X0367518Y0226787D01*
X0367360Y0226989D01*
X0367197Y0227187D01*
X0367029Y0227381D01*
X0366856Y0227571D01*
X0366679Y0227757D01*
X0366497Y0227939D01*
X0366311Y0228116D01*
X0366121Y0228289D01*
X0365927Y0228457D01*
X0365729Y0228620D01*
X0365527Y0228778D01*
X0365321Y0228932D01*
X0365111Y0229080D01*
X0364898Y0229223D01*
X0364682Y0229361D01*
X0364462Y0229494D01*
X0364239Y0229622D01*
X0364013Y0229744D01*
X0363784Y0229860D01*
X0363553Y0229971D01*
X0363319Y0230077D01*
X0363082Y0230177D01*
X0362843Y0230270D01*
X0362602Y0230359D01*
X0362359Y0230441D01*
X0362113Y0230517D01*
X0361867Y0230588D01*
X0361618Y0230652D01*
X0361368Y0230711D01*
X0361117Y0230763D01*
X0360864Y0230809D01*
X0360610Y0230849D01*
X0360356Y0230884D01*
X0360101Y0230911D01*
X0359845Y0230933D01*
X0359588Y0230949D01*
X0359332Y0230958D01*
X0359075Y0230961D01*
X0012163Y0230961D01*
X0011893Y0230958D01*
X0011624Y0230948D01*
X0011354Y0230932D01*
X0011086Y0230909D01*
X0010817Y0230880D01*
X0010550Y0230844D01*
X0010284Y0230802D01*
X0010018Y0230753D01*
X0009754Y0230698D01*
X0009492Y0230637D01*
X0009230Y0230569D01*
X0008971Y0230495D01*
X0008713Y0230415D01*
X0008458Y0230328D01*
X0008205Y0230236D01*
X0007953Y0230137D01*
X0007705Y0230032D01*
X0007459Y0229921D01*
X0007216Y0229805D01*
X0006975Y0229682D01*
X0006738Y0229554D01*
X0006504Y0229420D01*
X0006273Y0229281D01*
X0006046Y0229136D01*
X0005822Y0228985D01*
X0005602Y0228829D01*
X0005385Y0228668D01*
X0005173Y0228502D01*
X0004965Y0228330D01*
X0004761Y0228154D01*
X0004561Y0227972D01*
X0004366Y0227786D01*
X0004175Y0227595D01*
X0003989Y0227400D01*
X0003807Y0227200D01*
X0003631Y0226996D01*
X0003459Y0226788D01*
X0003293Y0226576D01*
X0003132Y0226359D01*
X0002976Y0226139D01*
X0002825Y0225915D01*
X0002680Y0225688D01*
X0002541Y0225457D01*
X0002407Y0225223D01*
X0002279Y0224986D01*
X0002156Y0224745D01*
X0002040Y0224502D01*
X0001929Y0224256D01*
X0001824Y0224008D01*
X0001725Y0223756D01*
X0001633Y0223503D01*
X0001546Y0223248D01*
X0001466Y0222990D01*
X0001392Y0222731D01*
X0001324Y0222469D01*
X0001263Y0222207D01*
X0001208Y0221943D01*
X0001159Y0221677D01*
X0001117Y0221411D01*
X0001081Y0221144D01*
X0001052Y0220875D01*
X0001029Y0220607D01*
X0001013Y0220337D01*
X0001003Y0220068D01*
X0001000Y0219798D01*
X0001000Y0015142D01*
X0001004Y0014800D01*
X0001017Y0014459D01*
X0001037Y0014118D01*
X0001066Y0013777D01*
X0001103Y0013437D01*
X0001148Y0013099D01*
X0001202Y0012761D01*
X0001263Y0012425D01*
X0001333Y0012090D01*
X0001411Y0011758D01*
X0001497Y0011427D01*
X0001590Y0011098D01*
X0001692Y0010772D01*
X0001802Y0010448D01*
X0001919Y0010127D01*
X0002044Y0009809D01*
X0002177Y0009494D01*
X0002317Y0009183D01*
X0002465Y0008874D01*
X0002620Y0008570D01*
X0002782Y0008269D01*
X0002952Y0007973D01*
X0003129Y0007680D01*
X0003313Y0007392D01*
X0003503Y0007108D01*
X0003701Y0006830D01*
X0003905Y0006556D01*
X0004116Y0006286D01*
X0004333Y0006023D01*
X0004557Y0005764D01*
X0004786Y0005511D01*
X0005022Y0005264D01*
X0005264Y0005022D01*
X0005511Y0004786D01*
X0005764Y0004557D01*
X0006023Y0004333D01*
X0006286Y0004116D01*
X0006556Y0003905D01*
X0006830Y0003701D01*
X0007108Y0003503D01*
X0007392Y0003313D01*
X0007680Y0003129D01*
X0007973Y0002952D01*
X0008269Y0002782D01*
X0008570Y0002620D01*
X0008874Y0002465D01*
X0009183Y0002317D01*
X0009494Y0002177D01*
X0009809Y0002044D01*
X0010127Y0001919D01*
X0010448Y0001802D01*
X0010772Y0001692D01*
X0011098Y0001590D01*
X0011427Y0001497D01*
X0011758Y0001411D01*
X0012090Y0001333D01*
X0012425Y0001263D01*
X0012761Y0001202D01*
X0013099Y0001148D01*
X0013437Y0001103D01*
X0013777Y0001066D01*
X0014118Y0001037D01*
X0014459Y0001017D01*
X0014800Y0001004D01*
X0015142Y0001000D01*
M02*
