G75*
%MOIN*%
%OFA0B0*%
%FSLAX25Y25*%
%IPPOS*%
%LPD*%
%AMOC8*
5,1,8,0,0,1.08239X$1,22.5*
%
%ADD10C,0.00000*%
%ADD11C,0.00600*%
%ADD12C,0.02000*%
%ADD13C,0.01600*%
%ADD14C,0.00800*%
%ADD15C,0.00900*%
%ADD16C,0.01000*%
%ADD17C,0.00500*%
D10*
X0015142Y0001000D02*
X0356445Y0001000D01*
X0356765Y0001004D01*
X0357085Y0001015D01*
X0357405Y0001035D01*
X0357724Y0001062D01*
X0358043Y0001097D01*
X0358360Y0001139D01*
X0358677Y0001189D01*
X0358992Y0001247D01*
X0359305Y0001312D01*
X0359617Y0001385D01*
X0359927Y0001466D01*
X0360235Y0001553D01*
X0360541Y0001649D01*
X0360844Y0001751D01*
X0361145Y0001861D01*
X0361443Y0001979D01*
X0361739Y0002103D01*
X0362031Y0002234D01*
X0362320Y0002373D01*
X0362605Y0002518D01*
X0362887Y0002671D01*
X0363165Y0002830D01*
X0363439Y0002995D01*
X0363709Y0003168D01*
X0363975Y0003346D01*
X0364236Y0003531D01*
X0364493Y0003723D01*
X0364745Y0003920D01*
X0364992Y0004124D01*
X0365235Y0004333D01*
X0365472Y0004549D01*
X0365704Y0004770D01*
X0365930Y0004996D01*
X0366151Y0005228D01*
X0366367Y0005465D01*
X0366576Y0005708D01*
X0366780Y0005955D01*
X0366977Y0006207D01*
X0367169Y0006464D01*
X0367354Y0006725D01*
X0367532Y0006991D01*
X0367705Y0007261D01*
X0367870Y0007535D01*
X0368029Y0007813D01*
X0368182Y0008095D01*
X0368327Y0008380D01*
X0368466Y0008669D01*
X0368597Y0008961D01*
X0368721Y0009257D01*
X0368839Y0009555D01*
X0368949Y0009856D01*
X0369051Y0010159D01*
X0369147Y0010465D01*
X0369234Y0010773D01*
X0369315Y0011083D01*
X0369388Y0011395D01*
X0369453Y0011708D01*
X0369511Y0012023D01*
X0369561Y0012340D01*
X0369603Y0012657D01*
X0369638Y0012976D01*
X0369665Y0013295D01*
X0369685Y0013615D01*
X0369696Y0013935D01*
X0369700Y0014255D01*
X0369701Y0014255D02*
X0369701Y0220335D01*
X0369698Y0220592D01*
X0369689Y0220848D01*
X0369673Y0221105D01*
X0369651Y0221361D01*
X0369624Y0221616D01*
X0369589Y0221870D01*
X0369549Y0222124D01*
X0369503Y0222377D01*
X0369451Y0222628D01*
X0369392Y0222878D01*
X0369328Y0223127D01*
X0369257Y0223373D01*
X0369181Y0223619D01*
X0369099Y0223862D01*
X0369010Y0224103D01*
X0368917Y0224342D01*
X0368817Y0224579D01*
X0368711Y0224813D01*
X0368600Y0225044D01*
X0368484Y0225273D01*
X0368362Y0225499D01*
X0368234Y0225722D01*
X0368101Y0225942D01*
X0367963Y0226158D01*
X0367820Y0226371D01*
X0367672Y0226581D01*
X0367518Y0226787D01*
X0367360Y0226989D01*
X0367197Y0227187D01*
X0367029Y0227381D01*
X0366856Y0227571D01*
X0366679Y0227757D01*
X0366497Y0227939D01*
X0366311Y0228116D01*
X0366121Y0228289D01*
X0365927Y0228457D01*
X0365729Y0228620D01*
X0365527Y0228778D01*
X0365321Y0228932D01*
X0365111Y0229080D01*
X0364898Y0229223D01*
X0364682Y0229361D01*
X0364462Y0229494D01*
X0364239Y0229622D01*
X0364013Y0229744D01*
X0363784Y0229860D01*
X0363553Y0229971D01*
X0363319Y0230077D01*
X0363082Y0230177D01*
X0362843Y0230270D01*
X0362602Y0230359D01*
X0362359Y0230441D01*
X0362113Y0230517D01*
X0361867Y0230588D01*
X0361618Y0230652D01*
X0361368Y0230711D01*
X0361117Y0230763D01*
X0360864Y0230809D01*
X0360610Y0230849D01*
X0360356Y0230884D01*
X0360101Y0230911D01*
X0359845Y0230933D01*
X0359588Y0230949D01*
X0359332Y0230958D01*
X0359075Y0230961D01*
X0012163Y0230961D01*
X0011893Y0230958D01*
X0011624Y0230948D01*
X0011354Y0230932D01*
X0011086Y0230909D01*
X0010817Y0230880D01*
X0010550Y0230844D01*
X0010284Y0230802D01*
X0010018Y0230753D01*
X0009754Y0230698D01*
X0009492Y0230637D01*
X0009230Y0230569D01*
X0008971Y0230495D01*
X0008713Y0230415D01*
X0008458Y0230328D01*
X0008205Y0230236D01*
X0007953Y0230137D01*
X0007705Y0230032D01*
X0007459Y0229921D01*
X0007216Y0229805D01*
X0006975Y0229682D01*
X0006738Y0229554D01*
X0006504Y0229420D01*
X0006273Y0229281D01*
X0006046Y0229136D01*
X0005822Y0228985D01*
X0005602Y0228829D01*
X0005385Y0228668D01*
X0005173Y0228502D01*
X0004965Y0228330D01*
X0004761Y0228154D01*
X0004561Y0227972D01*
X0004366Y0227786D01*
X0004175Y0227595D01*
X0003989Y0227400D01*
X0003807Y0227200D01*
X0003631Y0226996D01*
X0003459Y0226788D01*
X0003293Y0226576D01*
X0003132Y0226359D01*
X0002976Y0226139D01*
X0002825Y0225915D01*
X0002680Y0225688D01*
X0002541Y0225457D01*
X0002407Y0225223D01*
X0002279Y0224986D01*
X0002156Y0224745D01*
X0002040Y0224502D01*
X0001929Y0224256D01*
X0001824Y0224008D01*
X0001725Y0223756D01*
X0001633Y0223503D01*
X0001546Y0223248D01*
X0001466Y0222990D01*
X0001392Y0222731D01*
X0001324Y0222469D01*
X0001263Y0222207D01*
X0001208Y0221943D01*
X0001159Y0221677D01*
X0001117Y0221411D01*
X0001081Y0221144D01*
X0001052Y0220875D01*
X0001029Y0220607D01*
X0001013Y0220337D01*
X0001003Y0220068D01*
X0001000Y0219798D01*
X0001000Y0015142D01*
X0001004Y0014800D01*
X0001017Y0014459D01*
X0001037Y0014118D01*
X0001066Y0013777D01*
X0001103Y0013437D01*
X0001148Y0013099D01*
X0001202Y0012761D01*
X0001263Y0012425D01*
X0001333Y0012090D01*
X0001411Y0011758D01*
X0001497Y0011427D01*
X0001590Y0011098D01*
X0001692Y0010772D01*
X0001802Y0010448D01*
X0001919Y0010127D01*
X0002044Y0009809D01*
X0002177Y0009494D01*
X0002317Y0009183D01*
X0002465Y0008874D01*
X0002620Y0008570D01*
X0002782Y0008269D01*
X0002952Y0007973D01*
X0003129Y0007680D01*
X0003313Y0007392D01*
X0003503Y0007108D01*
X0003701Y0006830D01*
X0003905Y0006556D01*
X0004116Y0006286D01*
X0004333Y0006023D01*
X0004557Y0005764D01*
X0004786Y0005511D01*
X0005022Y0005264D01*
X0005264Y0005022D01*
X0005511Y0004786D01*
X0005764Y0004557D01*
X0006023Y0004333D01*
X0006286Y0004116D01*
X0006556Y0003905D01*
X0006830Y0003701D01*
X0007108Y0003503D01*
X0007392Y0003313D01*
X0007680Y0003129D01*
X0007973Y0002952D01*
X0008269Y0002782D01*
X0008570Y0002620D01*
X0008874Y0002465D01*
X0009183Y0002317D01*
X0009494Y0002177D01*
X0009809Y0002044D01*
X0010127Y0001919D01*
X0010448Y0001802D01*
X0010772Y0001692D01*
X0011098Y0001590D01*
X0011427Y0001497D01*
X0011758Y0001411D01*
X0012090Y0001333D01*
X0012425Y0001263D01*
X0012761Y0001202D01*
X0013099Y0001148D01*
X0013437Y0001103D01*
X0013777Y0001066D01*
X0014118Y0001037D01*
X0014459Y0001017D01*
X0014800Y0001004D01*
X0015142Y0001000D01*
D11*
X0012368Y0007800D02*
X0011300Y0008868D01*
X0012368Y0007800D02*
X0014503Y0007800D01*
X0015570Y0008868D01*
X0015570Y0009935D01*
X0014503Y0011003D01*
X0012368Y0011003D01*
X0011300Y0012070D01*
X0011300Y0013138D01*
X0012368Y0014205D01*
X0014503Y0014205D01*
X0015570Y0013138D01*
X0017745Y0014205D02*
X0019881Y0014205D01*
X0018813Y0014205D02*
X0018813Y0007800D01*
X0017745Y0007800D02*
X0019881Y0007800D01*
X0022042Y0008868D02*
X0023110Y0007800D01*
X0025245Y0007800D01*
X0026313Y0008868D01*
X0026313Y0011003D01*
X0024178Y0011003D01*
X0026313Y0013138D02*
X0025245Y0014205D01*
X0023110Y0014205D01*
X0022042Y0013138D01*
X0022042Y0008868D01*
X0020948Y0017800D02*
X0022016Y0018868D01*
X0020948Y0017800D02*
X0018813Y0017800D01*
X0017745Y0018868D01*
X0017745Y0023138D01*
X0018813Y0024205D01*
X0020948Y0024205D01*
X0022016Y0023138D01*
X0024191Y0023138D02*
X0024191Y0018868D01*
X0025259Y0017800D01*
X0027394Y0017800D01*
X0028461Y0018868D01*
X0028461Y0023138D02*
X0027394Y0024205D01*
X0025259Y0024205D01*
X0024191Y0023138D01*
X0024191Y0027800D02*
X0027394Y0027800D01*
X0028461Y0028868D01*
X0028461Y0033138D01*
X0027394Y0034205D01*
X0024191Y0034205D01*
X0024191Y0027800D01*
X0022016Y0027800D02*
X0022016Y0034205D01*
X0017745Y0034205D02*
X0022016Y0027800D01*
X0017745Y0027800D02*
X0017745Y0034205D01*
X0015570Y0033138D02*
X0014503Y0034205D01*
X0012368Y0034205D01*
X0011300Y0033138D01*
X0011300Y0028868D01*
X0012368Y0027800D01*
X0014503Y0027800D01*
X0015570Y0028868D01*
X0015570Y0031003D01*
X0013435Y0031003D01*
X0011300Y0024205D02*
X0011300Y0019935D01*
X0013435Y0017800D01*
X0015570Y0019935D01*
X0015570Y0024205D01*
X0008500Y0066000D02*
X0006000Y0068500D01*
X0006000Y0073500D01*
X0008500Y0076000D01*
X0023500Y0076000D01*
X0026000Y0078500D01*
X0026000Y0083500D01*
X0023500Y0086000D01*
X0008500Y0086000D01*
X0006000Y0088500D01*
X0006000Y0093500D01*
X0008500Y0096000D01*
X0023500Y0096000D01*
X0026000Y0098500D01*
X0026000Y0103500D01*
X0023500Y0106000D01*
X0008500Y0106000D01*
X0006000Y0108500D01*
X0006000Y0113500D01*
X0008500Y0116000D01*
X0023500Y0116000D01*
X0026000Y0118500D01*
X0026000Y0123500D01*
X0023500Y0126000D01*
X0008500Y0126000D01*
X0006000Y0128500D01*
X0006000Y0133500D01*
X0008500Y0136000D01*
X0023500Y0136000D01*
X0026000Y0133500D01*
X0026000Y0128500D01*
X0023500Y0126000D01*
X0036000Y0123500D02*
X0036000Y0128500D01*
X0038500Y0131000D01*
X0036000Y0133500D01*
X0036000Y0138500D01*
X0038500Y0141000D01*
X0036000Y0143500D01*
X0036000Y0148500D01*
X0038500Y0151000D01*
X0043500Y0151000D01*
X0046000Y0148500D01*
X0046000Y0143500D01*
X0043500Y0141000D01*
X0046000Y0138500D01*
X0046000Y0133500D01*
X0043500Y0131000D01*
X0046000Y0128500D01*
X0046000Y0123500D01*
X0043500Y0121000D01*
X0046000Y0118500D01*
X0046000Y0113500D01*
X0043500Y0111000D01*
X0046000Y0108500D01*
X0046000Y0103500D01*
X0043500Y0101000D01*
X0046000Y0098500D01*
X0046000Y0093500D01*
X0043500Y0091000D01*
X0046000Y0088500D01*
X0046000Y0083500D01*
X0043500Y0081000D01*
X0046000Y0078500D01*
X0046000Y0073500D01*
X0043500Y0071000D01*
X0038500Y0071000D01*
X0036000Y0073500D01*
X0036000Y0078500D01*
X0038500Y0081000D01*
X0036000Y0083500D01*
X0036000Y0088500D01*
X0038500Y0091000D01*
X0043500Y0091000D01*
X0038500Y0091000D02*
X0036000Y0093500D01*
X0036000Y0098500D01*
X0038500Y0101000D01*
X0036000Y0103500D01*
X0036000Y0108500D01*
X0038500Y0111000D01*
X0036000Y0113500D01*
X0036000Y0118500D01*
X0038500Y0121000D01*
X0043500Y0121000D01*
X0038500Y0121000D02*
X0036000Y0123500D01*
X0038500Y0131000D02*
X0043500Y0131000D01*
X0051300Y0132800D02*
X0051300Y0137070D01*
X0053435Y0139205D01*
X0055570Y0137070D01*
X0055570Y0132800D01*
X0057745Y0132800D02*
X0060948Y0132800D01*
X0062016Y0133868D01*
X0062016Y0138138D01*
X0060948Y0139205D01*
X0057745Y0139205D01*
X0057745Y0132800D01*
X0055570Y0136003D02*
X0051300Y0136003D01*
X0043500Y0141000D02*
X0038500Y0141000D01*
X0051300Y0142800D02*
X0051300Y0147070D01*
X0053435Y0149205D01*
X0055570Y0147070D01*
X0055570Y0142800D01*
X0057745Y0142800D02*
X0060948Y0142800D01*
X0062016Y0143868D01*
X0062016Y0148138D01*
X0060948Y0149205D01*
X0057745Y0149205D01*
X0057745Y0142800D01*
X0055570Y0146003D02*
X0051300Y0146003D01*
X0051300Y0152800D02*
X0051300Y0157070D01*
X0053435Y0159205D01*
X0055570Y0157070D01*
X0055570Y0152800D01*
X0057745Y0152800D02*
X0060948Y0152800D01*
X0062016Y0153868D01*
X0062016Y0158138D01*
X0060948Y0159205D01*
X0057745Y0159205D01*
X0057745Y0152800D01*
X0055570Y0156003D02*
X0051300Y0156003D01*
X0046000Y0158500D02*
X0046000Y0153500D01*
X0043500Y0151000D01*
X0038500Y0151000D02*
X0036000Y0153500D01*
X0036000Y0158500D01*
X0038500Y0161000D01*
X0036000Y0163500D01*
X0036000Y0168500D01*
X0038500Y0171000D01*
X0036000Y0173500D01*
X0036000Y0178500D01*
X0038500Y0181000D01*
X0043500Y0181000D01*
X0046000Y0178500D01*
X0046000Y0173500D01*
X0043500Y0171000D01*
X0046000Y0168500D01*
X0046000Y0163500D01*
X0043500Y0161000D01*
X0046000Y0158500D01*
X0043500Y0161000D02*
X0038500Y0161000D01*
X0051300Y0162800D02*
X0051300Y0167070D01*
X0053435Y0169205D01*
X0055570Y0167070D01*
X0055570Y0162800D01*
X0057745Y0162800D02*
X0060948Y0162800D01*
X0062016Y0163868D01*
X0062016Y0168138D01*
X0060948Y0169205D01*
X0057745Y0169205D01*
X0057745Y0162800D01*
X0055570Y0166003D02*
X0051300Y0166003D01*
X0043500Y0171000D02*
X0038500Y0171000D01*
X0051300Y0172800D02*
X0051300Y0177070D01*
X0053435Y0179205D01*
X0055570Y0177070D01*
X0055570Y0172800D01*
X0057745Y0172800D02*
X0060948Y0172800D01*
X0062016Y0173868D01*
X0062016Y0178138D01*
X0060948Y0179205D01*
X0057745Y0179205D01*
X0057745Y0172800D01*
X0055570Y0176003D02*
X0051300Y0176003D01*
X0051300Y0182800D02*
X0051300Y0187070D01*
X0053435Y0189205D01*
X0055570Y0187070D01*
X0055570Y0182800D01*
X0057745Y0182800D02*
X0060948Y0182800D01*
X0062016Y0183868D01*
X0062016Y0188138D01*
X0060948Y0189205D01*
X0057745Y0189205D01*
X0057745Y0182800D01*
X0055570Y0186003D02*
X0051300Y0186003D01*
X0046000Y0188500D02*
X0046000Y0183500D01*
X0043500Y0181000D01*
X0038500Y0181000D02*
X0036000Y0183500D01*
X0036000Y0188500D01*
X0038500Y0191000D01*
X0036000Y0193500D01*
X0036000Y0198500D01*
X0038500Y0201000D01*
X0036000Y0203500D01*
X0036000Y0208500D01*
X0038500Y0211000D01*
X0036000Y0213500D01*
X0036000Y0218500D01*
X0038500Y0221000D01*
X0043500Y0221000D01*
X0046000Y0218500D01*
X0046000Y0213500D01*
X0043500Y0211000D01*
X0046000Y0208500D01*
X0046000Y0203500D01*
X0043500Y0201000D01*
X0046000Y0198500D01*
X0046000Y0193500D01*
X0043500Y0191000D01*
X0046000Y0188500D01*
X0043500Y0191000D02*
X0038500Y0191000D01*
X0051300Y0192800D02*
X0051300Y0199205D01*
X0054503Y0199205D01*
X0055570Y0198138D01*
X0055570Y0196003D01*
X0054503Y0194935D01*
X0051300Y0194935D01*
X0053435Y0194935D02*
X0055570Y0192800D01*
X0057745Y0192800D02*
X0062016Y0192800D01*
X0064191Y0192800D02*
X0064191Y0199205D01*
X0068461Y0199205D01*
X0066326Y0196003D02*
X0064191Y0196003D01*
X0062016Y0199205D02*
X0057745Y0199205D01*
X0057745Y0192800D01*
X0057745Y0196003D02*
X0059881Y0196003D01*
X0059881Y0202800D02*
X0062016Y0204935D01*
X0062016Y0209205D01*
X0064191Y0208138D02*
X0065259Y0209205D01*
X0067394Y0209205D01*
X0068461Y0208138D01*
X0068461Y0207070D01*
X0067394Y0206003D01*
X0068461Y0204935D01*
X0068461Y0203868D01*
X0067394Y0202800D01*
X0065259Y0202800D01*
X0064191Y0203868D01*
X0066326Y0206003D02*
X0067394Y0206003D01*
X0059881Y0202800D02*
X0057745Y0204935D01*
X0057745Y0209205D01*
X0055570Y0208138D02*
X0055570Y0207070D01*
X0054503Y0206003D01*
X0055570Y0204935D01*
X0055570Y0203868D01*
X0054503Y0202800D01*
X0052368Y0202800D01*
X0051300Y0203868D01*
X0053435Y0206003D02*
X0054503Y0206003D01*
X0055570Y0208138D02*
X0054503Y0209205D01*
X0052368Y0209205D01*
X0051300Y0208138D01*
X0051300Y0212800D02*
X0054503Y0212800D01*
X0055570Y0213868D01*
X0055570Y0218138D01*
X0054503Y0219205D01*
X0051300Y0219205D01*
X0051300Y0212800D01*
X0057745Y0212800D02*
X0062016Y0212800D01*
X0059881Y0212800D02*
X0059881Y0219205D01*
X0057745Y0217070D01*
X0064191Y0218138D02*
X0065259Y0219205D01*
X0067394Y0219205D01*
X0068461Y0218138D01*
X0068461Y0217070D01*
X0067394Y0216003D01*
X0068461Y0214935D01*
X0068461Y0213868D01*
X0067394Y0212800D01*
X0065259Y0212800D01*
X0064191Y0213868D01*
X0066326Y0216003D02*
X0067394Y0216003D01*
X0076300Y0219205D02*
X0076300Y0212800D01*
X0079503Y0212800D01*
X0080570Y0213868D01*
X0080570Y0218138D01*
X0079503Y0219205D01*
X0076300Y0219205D01*
X0082745Y0217070D02*
X0084881Y0219205D01*
X0084881Y0212800D01*
X0087016Y0212800D02*
X0082745Y0212800D01*
X0084881Y0209205D02*
X0084881Y0202800D01*
X0087016Y0202800D02*
X0082745Y0202800D01*
X0080570Y0203868D02*
X0080570Y0208138D01*
X0079503Y0209205D01*
X0076300Y0209205D01*
X0076300Y0202800D01*
X0079503Y0202800D01*
X0080570Y0203868D01*
X0082745Y0207070D02*
X0084881Y0209205D01*
X0089191Y0207070D02*
X0091326Y0209205D01*
X0091326Y0202800D01*
X0089191Y0202800D02*
X0093461Y0202800D01*
X0096000Y0203500D02*
X0096000Y0208500D01*
X0098500Y0211000D01*
X0096000Y0213500D01*
X0096000Y0218500D01*
X0098500Y0221000D01*
X0103500Y0221000D01*
X0106000Y0218500D01*
X0106000Y0213500D01*
X0103500Y0211000D01*
X0106000Y0208500D01*
X0106000Y0203500D01*
X0103500Y0201000D01*
X0106000Y0198500D01*
X0106000Y0193500D01*
X0103500Y0191000D01*
X0106000Y0188500D01*
X0106000Y0183500D01*
X0103500Y0181000D01*
X0106000Y0178500D01*
X0106000Y0173500D01*
X0103500Y0171000D01*
X0106000Y0168500D01*
X0106000Y0163500D01*
X0103500Y0161000D01*
X0106000Y0158500D01*
X0106000Y0153500D01*
X0103500Y0151000D01*
X0106000Y0148500D01*
X0106000Y0143500D01*
X0103500Y0141000D01*
X0106000Y0138500D01*
X0106000Y0133500D01*
X0103500Y0131000D01*
X0106000Y0128500D01*
X0106000Y0123500D01*
X0103500Y0121000D01*
X0106000Y0118500D01*
X0106000Y0113500D01*
X0103500Y0111000D01*
X0106000Y0108500D01*
X0106000Y0103500D01*
X0103500Y0101000D01*
X0106000Y0098500D01*
X0106000Y0093500D01*
X0103500Y0091000D01*
X0106000Y0088500D01*
X0106000Y0083500D01*
X0103500Y0081000D01*
X0106000Y0078500D01*
X0106000Y0073500D01*
X0103500Y0071000D01*
X0098500Y0071000D01*
X0096000Y0073500D01*
X0096000Y0078500D01*
X0098500Y0081000D01*
X0096000Y0083500D01*
X0096000Y0088500D01*
X0098500Y0091000D01*
X0103500Y0091000D01*
X0098500Y0091000D02*
X0096000Y0093500D01*
X0096000Y0098500D01*
X0098500Y0101000D01*
X0096000Y0103500D01*
X0096000Y0108500D01*
X0098500Y0111000D01*
X0096000Y0113500D01*
X0096000Y0118500D01*
X0098500Y0121000D01*
X0103500Y0121000D01*
X0098500Y0121000D02*
X0096000Y0123500D01*
X0096000Y0128500D01*
X0098500Y0131000D01*
X0096000Y0133500D01*
X0096000Y0138500D01*
X0098500Y0141000D01*
X0096000Y0143500D01*
X0096000Y0148500D01*
X0098500Y0151000D01*
X0103500Y0151000D01*
X0098500Y0151000D02*
X0096000Y0153500D01*
X0096000Y0158500D01*
X0098500Y0161000D01*
X0096000Y0163500D01*
X0096000Y0168500D01*
X0098500Y0171000D01*
X0096000Y0173500D01*
X0096000Y0178500D01*
X0098500Y0181000D01*
X0103500Y0181000D01*
X0098500Y0181000D02*
X0096000Y0183500D01*
X0096000Y0188500D01*
X0098500Y0191000D01*
X0096000Y0193500D01*
X0096000Y0198500D01*
X0098500Y0201000D01*
X0096000Y0203500D01*
X0098500Y0201000D02*
X0103500Y0201000D01*
X0093461Y0198138D02*
X0093461Y0193868D01*
X0092394Y0192800D01*
X0090259Y0192800D01*
X0089191Y0193868D01*
X0093461Y0198138D01*
X0092394Y0199205D01*
X0090259Y0199205D01*
X0089191Y0198138D01*
X0089191Y0193868D01*
X0087016Y0192800D02*
X0082745Y0192800D01*
X0084881Y0192800D02*
X0084881Y0199205D01*
X0082745Y0197070D01*
X0080570Y0198138D02*
X0080570Y0193868D01*
X0079503Y0192800D01*
X0076300Y0192800D01*
X0076300Y0199205D01*
X0079503Y0199205D01*
X0080570Y0198138D01*
X0079503Y0189205D02*
X0076300Y0189205D01*
X0076300Y0182800D01*
X0079503Y0182800D01*
X0080570Y0183868D01*
X0080570Y0188138D01*
X0079503Y0189205D01*
X0082745Y0188138D02*
X0082745Y0187070D01*
X0083813Y0186003D01*
X0087016Y0186003D01*
X0087016Y0188138D02*
X0085948Y0189205D01*
X0083813Y0189205D01*
X0082745Y0188138D01*
X0087016Y0188138D02*
X0087016Y0183868D01*
X0085948Y0182800D01*
X0083813Y0182800D01*
X0082745Y0183868D01*
X0083813Y0179205D02*
X0085948Y0179205D01*
X0087016Y0178138D01*
X0087016Y0177070D01*
X0085948Y0176003D01*
X0083813Y0176003D01*
X0082745Y0177070D01*
X0082745Y0178138D01*
X0083813Y0179205D01*
X0080570Y0178138D02*
X0079503Y0179205D01*
X0076300Y0179205D01*
X0076300Y0172800D01*
X0079503Y0172800D01*
X0080570Y0173868D01*
X0080570Y0178138D01*
X0082745Y0174935D02*
X0083813Y0176003D01*
X0082745Y0174935D02*
X0082745Y0173868D01*
X0083813Y0172800D01*
X0085948Y0172800D01*
X0087016Y0173868D01*
X0087016Y0174935D01*
X0085948Y0176003D01*
X0087016Y0169205D02*
X0082745Y0169205D01*
X0080570Y0168138D02*
X0079503Y0169205D01*
X0076300Y0169205D01*
X0076300Y0162800D01*
X0079503Y0162800D01*
X0080570Y0163868D01*
X0080570Y0168138D01*
X0082745Y0163868D02*
X0082745Y0162800D01*
X0082745Y0163868D02*
X0087016Y0168138D01*
X0087016Y0169205D01*
X0098500Y0171000D02*
X0103500Y0171000D01*
X0103500Y0161000D02*
X0098500Y0161000D01*
X0087016Y0159205D02*
X0084881Y0158138D01*
X0082745Y0156003D01*
X0085948Y0156003D01*
X0087016Y0154935D01*
X0087016Y0153868D01*
X0085948Y0152800D01*
X0083813Y0152800D01*
X0082745Y0153868D01*
X0082745Y0156003D01*
X0080570Y0153868D02*
X0080570Y0158138D01*
X0079503Y0159205D01*
X0076300Y0159205D01*
X0076300Y0152800D01*
X0079503Y0152800D01*
X0080570Y0153868D01*
X0079503Y0149205D02*
X0076300Y0149205D01*
X0076300Y0142800D01*
X0079503Y0142800D01*
X0080570Y0143868D01*
X0080570Y0148138D01*
X0079503Y0149205D01*
X0082745Y0149205D02*
X0082745Y0146003D01*
X0084881Y0147070D01*
X0085948Y0147070D01*
X0087016Y0146003D01*
X0087016Y0143868D01*
X0085948Y0142800D01*
X0083813Y0142800D01*
X0082745Y0143868D01*
X0082745Y0149205D02*
X0087016Y0149205D01*
X0085948Y0139205D02*
X0082745Y0136003D01*
X0087016Y0136003D01*
X0085948Y0139205D02*
X0085948Y0132800D01*
X0080570Y0133868D02*
X0080570Y0138138D01*
X0079503Y0139205D01*
X0076300Y0139205D01*
X0076300Y0132800D01*
X0079503Y0132800D01*
X0080570Y0133868D01*
X0079503Y0129205D02*
X0076300Y0129205D01*
X0076300Y0122800D01*
X0079503Y0122800D01*
X0080570Y0123868D01*
X0080570Y0128138D01*
X0079503Y0129205D01*
X0082745Y0128138D02*
X0083813Y0129205D01*
X0085948Y0129205D01*
X0087016Y0128138D01*
X0087016Y0127070D01*
X0085948Y0126003D01*
X0087016Y0124935D01*
X0087016Y0123868D01*
X0085948Y0122800D01*
X0083813Y0122800D01*
X0082745Y0123868D01*
X0084881Y0126003D02*
X0085948Y0126003D01*
X0085948Y0119205D02*
X0083813Y0119205D01*
X0082745Y0118138D01*
X0080570Y0118138D02*
X0080570Y0113868D01*
X0079503Y0112800D01*
X0076300Y0112800D01*
X0076300Y0119205D01*
X0079503Y0119205D01*
X0080570Y0118138D01*
X0085948Y0119205D02*
X0087016Y0118138D01*
X0087016Y0117070D01*
X0082745Y0112800D01*
X0087016Y0112800D01*
X0087016Y0109205D02*
X0087016Y0102800D01*
X0082745Y0109205D01*
X0082745Y0102800D01*
X0080570Y0103868D02*
X0080570Y0106003D01*
X0078435Y0106003D01*
X0076300Y0108138D02*
X0076300Y0103868D01*
X0077368Y0102800D01*
X0079503Y0102800D01*
X0080570Y0103868D01*
X0080570Y0108138D02*
X0079503Y0109205D01*
X0077368Y0109205D01*
X0076300Y0108138D01*
X0068461Y0118138D02*
X0064191Y0113868D01*
X0064191Y0112800D01*
X0062016Y0113868D02*
X0062016Y0118138D01*
X0060948Y0119205D01*
X0057745Y0119205D01*
X0057745Y0112800D01*
X0060948Y0112800D01*
X0062016Y0113868D01*
X0062016Y0109205D02*
X0062016Y0104935D01*
X0059881Y0102800D01*
X0057745Y0104935D01*
X0057745Y0109205D01*
X0055570Y0109205D02*
X0051300Y0109205D01*
X0051300Y0106003D01*
X0053435Y0107070D01*
X0054503Y0107070D01*
X0055570Y0106003D01*
X0055570Y0103868D01*
X0054503Y0102800D01*
X0052368Y0102800D01*
X0051300Y0103868D01*
X0051300Y0099205D02*
X0054503Y0099205D01*
X0055570Y0098138D01*
X0055570Y0096003D01*
X0054503Y0094935D01*
X0051300Y0094935D01*
X0051300Y0092800D02*
X0051300Y0099205D01*
X0053435Y0094935D02*
X0055570Y0092800D01*
X0057745Y0093868D02*
X0058813Y0092800D01*
X0060948Y0092800D01*
X0062016Y0093868D01*
X0062016Y0094935D01*
X0060948Y0096003D01*
X0058813Y0096003D01*
X0057745Y0097070D01*
X0057745Y0098138D01*
X0058813Y0099205D01*
X0060948Y0099205D01*
X0062016Y0098138D01*
X0064191Y0099205D02*
X0068461Y0099205D01*
X0066326Y0099205D02*
X0066326Y0092800D01*
X0067394Y0089205D02*
X0064191Y0089205D01*
X0064191Y0082800D01*
X0067394Y0082800D01*
X0068461Y0083868D01*
X0068461Y0088138D01*
X0067394Y0089205D01*
X0062016Y0089205D02*
X0062016Y0082800D01*
X0057745Y0089205D01*
X0057745Y0082800D01*
X0055570Y0083868D02*
X0055570Y0086003D01*
X0053435Y0086003D01*
X0051300Y0088138D02*
X0051300Y0083868D01*
X0052368Y0082800D01*
X0054503Y0082800D01*
X0055570Y0083868D01*
X0055570Y0088138D02*
X0054503Y0089205D01*
X0052368Y0089205D01*
X0051300Y0088138D01*
X0051300Y0079205D02*
X0051300Y0074935D01*
X0053435Y0072800D01*
X0055570Y0074935D01*
X0055570Y0079205D01*
X0057745Y0079205D02*
X0059881Y0079205D01*
X0058813Y0079205D02*
X0058813Y0072800D01*
X0057745Y0072800D02*
X0059881Y0072800D01*
X0062042Y0072800D02*
X0062042Y0079205D01*
X0066313Y0072800D01*
X0066313Y0079205D01*
X0076300Y0079205D02*
X0076300Y0072800D01*
X0079503Y0072800D01*
X0080570Y0073868D01*
X0080570Y0078138D01*
X0079503Y0079205D01*
X0076300Y0079205D01*
X0076300Y0082800D02*
X0079503Y0082800D01*
X0080570Y0083868D01*
X0080570Y0088138D01*
X0079503Y0089205D01*
X0076300Y0089205D01*
X0076300Y0082800D01*
X0082745Y0083868D02*
X0082745Y0088138D01*
X0083813Y0089205D01*
X0085948Y0089205D01*
X0087016Y0088138D01*
X0082745Y0083868D01*
X0083813Y0082800D01*
X0085948Y0082800D01*
X0087016Y0083868D01*
X0087016Y0088138D01*
X0085948Y0092800D02*
X0083813Y0092800D01*
X0082745Y0093868D01*
X0083813Y0096003D02*
X0085948Y0096003D01*
X0087016Y0094935D01*
X0087016Y0093868D01*
X0085948Y0092800D01*
X0083813Y0096003D02*
X0082745Y0097070D01*
X0082745Y0098138D01*
X0083813Y0099205D01*
X0085948Y0099205D01*
X0087016Y0098138D01*
X0089191Y0099205D02*
X0093461Y0099205D01*
X0091326Y0099205D02*
X0091326Y0092800D01*
X0080570Y0092800D02*
X0078435Y0094935D01*
X0079503Y0094935D02*
X0076300Y0094935D01*
X0076300Y0092800D02*
X0076300Y0099205D01*
X0079503Y0099205D01*
X0080570Y0098138D01*
X0080570Y0096003D01*
X0079503Y0094935D01*
X0089191Y0102800D02*
X0092394Y0102800D01*
X0093461Y0103868D01*
X0093461Y0108138D01*
X0092394Y0109205D01*
X0089191Y0109205D01*
X0089191Y0102800D01*
X0098500Y0101000D02*
X0103500Y0101000D01*
X0103500Y0111000D02*
X0098500Y0111000D01*
X0121300Y0114935D02*
X0123435Y0112800D01*
X0125570Y0114935D01*
X0125570Y0119205D01*
X0127745Y0119205D02*
X0129881Y0119205D01*
X0128813Y0119205D02*
X0128813Y0112800D01*
X0127745Y0112800D02*
X0129881Y0112800D01*
X0132042Y0112800D02*
X0132042Y0119205D01*
X0136313Y0112800D01*
X0136313Y0119205D01*
X0137394Y0122800D02*
X0134191Y0122800D01*
X0134191Y0129205D01*
X0137394Y0129205D01*
X0138461Y0128138D01*
X0138461Y0123868D01*
X0137394Y0122800D01*
X0141000Y0123500D02*
X0141000Y0128500D01*
X0143500Y0131000D01*
X0141000Y0133500D01*
X0141000Y0138500D01*
X0143500Y0141000D01*
X0141000Y0143500D01*
X0141000Y0148500D01*
X0143500Y0151000D01*
X0141000Y0153500D01*
X0141000Y0158500D01*
X0143500Y0161000D01*
X0141000Y0163500D01*
X0141000Y0168500D01*
X0143500Y0171000D01*
X0141000Y0173500D01*
X0141000Y0178500D01*
X0143500Y0181000D01*
X0141000Y0183500D01*
X0141000Y0188500D01*
X0143500Y0191000D01*
X0148500Y0191000D01*
X0151000Y0188500D01*
X0151000Y0183500D01*
X0148500Y0181000D01*
X0151000Y0178500D01*
X0151000Y0173500D01*
X0148500Y0171000D01*
X0143500Y0171000D01*
X0148500Y0171000D02*
X0151000Y0168500D01*
X0151000Y0163500D01*
X0148500Y0161000D01*
X0151000Y0158500D01*
X0151000Y0153500D01*
X0148500Y0151000D01*
X0151000Y0148500D01*
X0151000Y0143500D01*
X0148500Y0141000D01*
X0143500Y0141000D01*
X0148500Y0141000D02*
X0151000Y0138500D01*
X0151000Y0133500D01*
X0148500Y0131000D01*
X0151000Y0128500D01*
X0151000Y0123500D01*
X0148500Y0121000D01*
X0151000Y0118500D01*
X0151000Y0113500D01*
X0148500Y0111000D01*
X0143500Y0111000D01*
X0141000Y0113500D01*
X0141000Y0118500D01*
X0143500Y0121000D01*
X0141000Y0123500D01*
X0143500Y0121000D02*
X0148500Y0121000D01*
X0148500Y0131000D02*
X0143500Y0131000D01*
X0138461Y0133868D02*
X0138461Y0138138D01*
X0137394Y0139205D01*
X0134191Y0139205D01*
X0134191Y0132800D01*
X0137394Y0132800D01*
X0138461Y0133868D01*
X0132016Y0132800D02*
X0132016Y0139205D01*
X0129881Y0142800D02*
X0132016Y0144935D01*
X0132016Y0149205D01*
X0129881Y0152800D02*
X0132016Y0154935D01*
X0132016Y0159205D01*
X0134191Y0158138D02*
X0135259Y0159205D01*
X0137394Y0159205D01*
X0138461Y0158138D01*
X0138461Y0157070D01*
X0137394Y0156003D01*
X0138461Y0154935D01*
X0138461Y0153868D01*
X0137394Y0152800D01*
X0135259Y0152800D01*
X0134191Y0153868D01*
X0136326Y0156003D02*
X0137394Y0156003D01*
X0143500Y0161000D02*
X0148500Y0161000D01*
X0136326Y0162800D02*
X0136326Y0169205D01*
X0134191Y0169205D02*
X0138461Y0169205D01*
X0132016Y0168138D02*
X0130948Y0169205D01*
X0128813Y0169205D01*
X0127745Y0168138D01*
X0127745Y0167070D01*
X0128813Y0166003D01*
X0130948Y0166003D01*
X0132016Y0164935D01*
X0132016Y0163868D01*
X0130948Y0162800D01*
X0128813Y0162800D01*
X0127745Y0163868D01*
X0125570Y0162800D02*
X0123435Y0164935D01*
X0124503Y0164935D02*
X0121300Y0164935D01*
X0121300Y0162800D02*
X0121300Y0169205D01*
X0124503Y0169205D01*
X0125570Y0168138D01*
X0125570Y0166003D01*
X0124503Y0164935D01*
X0124503Y0159205D02*
X0122368Y0159205D01*
X0121300Y0158138D01*
X0123435Y0156003D02*
X0124503Y0156003D01*
X0125570Y0154935D01*
X0125570Y0153868D01*
X0124503Y0152800D01*
X0122368Y0152800D01*
X0121300Y0153868D01*
X0124503Y0156003D02*
X0125570Y0157070D01*
X0125570Y0158138D01*
X0124503Y0159205D01*
X0127745Y0159205D02*
X0127745Y0154935D01*
X0129881Y0152800D01*
X0127745Y0149205D02*
X0127745Y0144935D01*
X0129881Y0142800D01*
X0127745Y0139205D02*
X0132016Y0132800D01*
X0127745Y0132800D02*
X0127745Y0139205D01*
X0125570Y0138138D02*
X0124503Y0139205D01*
X0122368Y0139205D01*
X0121300Y0138138D01*
X0121300Y0133868D01*
X0122368Y0132800D01*
X0124503Y0132800D01*
X0125570Y0133868D01*
X0125570Y0136003D01*
X0123435Y0136003D01*
X0122368Y0142800D02*
X0121300Y0143868D01*
X0122368Y0142800D02*
X0124503Y0142800D01*
X0125570Y0143868D01*
X0125570Y0146003D01*
X0124503Y0147070D01*
X0123435Y0147070D01*
X0121300Y0146003D01*
X0121300Y0149205D01*
X0125570Y0149205D01*
X0143500Y0151000D02*
X0148500Y0151000D01*
X0129881Y0172800D02*
X0132016Y0174935D01*
X0132016Y0179205D01*
X0127745Y0179205D02*
X0127745Y0174935D01*
X0129881Y0172800D01*
X0125570Y0173868D02*
X0125570Y0176003D01*
X0124503Y0177070D01*
X0123435Y0177070D01*
X0121300Y0176003D01*
X0121300Y0179205D01*
X0125570Y0179205D01*
X0125570Y0173868D02*
X0124503Y0172800D01*
X0122368Y0172800D01*
X0121300Y0173868D01*
X0143500Y0181000D02*
X0148500Y0181000D01*
X0103500Y0191000D02*
X0098500Y0191000D01*
X0098500Y0211000D02*
X0103500Y0211000D01*
X0093461Y0212800D02*
X0089191Y0212800D01*
X0093461Y0217070D01*
X0093461Y0218138D01*
X0092394Y0219205D01*
X0090259Y0219205D01*
X0089191Y0218138D01*
X0043500Y0211000D02*
X0038500Y0211000D01*
X0038500Y0201000D02*
X0043500Y0201000D01*
X0064191Y0188138D02*
X0065259Y0189205D01*
X0067394Y0189205D01*
X0068461Y0188138D01*
X0064191Y0183868D01*
X0065259Y0182800D01*
X0067394Y0182800D01*
X0068461Y0183868D01*
X0068461Y0188138D01*
X0064191Y0188138D02*
X0064191Y0183868D01*
X0066326Y0179205D02*
X0066326Y0172800D01*
X0064191Y0172800D02*
X0068461Y0172800D01*
X0067394Y0169205D02*
X0065259Y0169205D01*
X0064191Y0168138D01*
X0067394Y0169205D02*
X0068461Y0168138D01*
X0068461Y0167070D01*
X0064191Y0162800D01*
X0068461Y0162800D01*
X0067394Y0159205D02*
X0068461Y0158138D01*
X0068461Y0157070D01*
X0067394Y0156003D01*
X0068461Y0154935D01*
X0068461Y0153868D01*
X0067394Y0152800D01*
X0065259Y0152800D01*
X0064191Y0153868D01*
X0066326Y0156003D02*
X0067394Y0156003D01*
X0067394Y0159205D02*
X0065259Y0159205D01*
X0064191Y0158138D01*
X0067394Y0149205D02*
X0064191Y0146003D01*
X0068461Y0146003D01*
X0067394Y0149205D02*
X0067394Y0142800D01*
X0068461Y0139205D02*
X0064191Y0139205D01*
X0064191Y0136003D01*
X0066326Y0137070D01*
X0067394Y0137070D01*
X0068461Y0136003D01*
X0068461Y0133868D01*
X0067394Y0132800D01*
X0065259Y0132800D01*
X0064191Y0133868D01*
X0060948Y0129205D02*
X0057745Y0129205D01*
X0057745Y0122800D01*
X0060948Y0122800D01*
X0062016Y0123868D01*
X0062016Y0128138D01*
X0060948Y0129205D01*
X0064191Y0126003D02*
X0067394Y0126003D01*
X0068461Y0124935D01*
X0068461Y0123868D01*
X0067394Y0122800D01*
X0065259Y0122800D01*
X0064191Y0123868D01*
X0064191Y0126003D01*
X0066326Y0128138D01*
X0068461Y0129205D01*
X0068461Y0119205D02*
X0064191Y0119205D01*
X0068461Y0119205D02*
X0068461Y0118138D01*
X0055570Y0117070D02*
X0055570Y0112800D01*
X0051300Y0112800D02*
X0051300Y0117070D01*
X0053435Y0119205D01*
X0055570Y0117070D01*
X0055570Y0116003D02*
X0051300Y0116003D01*
X0051300Y0122800D02*
X0051300Y0127070D01*
X0053435Y0129205D01*
X0055570Y0127070D01*
X0055570Y0122800D01*
X0055570Y0126003D02*
X0051300Y0126003D01*
X0043500Y0111000D02*
X0038500Y0111000D01*
X0038500Y0101000D02*
X0043500Y0101000D01*
X0026000Y0093500D02*
X0026000Y0088500D01*
X0023500Y0086000D01*
X0026000Y0093500D02*
X0023500Y0096000D01*
X0023500Y0106000D02*
X0026000Y0108500D01*
X0026000Y0113500D01*
X0023500Y0116000D01*
X0008500Y0116000D02*
X0006000Y0118500D01*
X0006000Y0123500D01*
X0008500Y0126000D01*
X0008500Y0136000D02*
X0006000Y0138500D01*
X0006000Y0143500D01*
X0008500Y0146000D01*
X0023500Y0146000D01*
X0026000Y0143500D01*
X0026000Y0138500D01*
X0023500Y0136000D01*
X0023500Y0146000D02*
X0026000Y0148500D01*
X0026000Y0153500D01*
X0023500Y0156000D01*
X0026000Y0158500D01*
X0026000Y0163500D01*
X0023500Y0166000D01*
X0008500Y0166000D01*
X0006000Y0163500D01*
X0006000Y0158500D01*
X0008500Y0156000D01*
X0023500Y0156000D01*
X0008500Y0156000D02*
X0006000Y0153500D01*
X0006000Y0148500D01*
X0008500Y0146000D01*
X0064191Y0177070D02*
X0066326Y0179205D01*
X0098500Y0141000D02*
X0103500Y0141000D01*
X0103500Y0131000D02*
X0098500Y0131000D01*
X0121300Y0128138D02*
X0121300Y0123868D01*
X0122368Y0122800D01*
X0124503Y0122800D01*
X0125570Y0123868D01*
X0125570Y0126003D01*
X0123435Y0126003D01*
X0121300Y0128138D02*
X0122368Y0129205D01*
X0124503Y0129205D01*
X0125570Y0128138D01*
X0127745Y0129205D02*
X0132016Y0122800D01*
X0132016Y0129205D01*
X0127745Y0129205D02*
X0127745Y0122800D01*
X0121300Y0119205D02*
X0121300Y0114935D01*
X0141000Y0098500D02*
X0143500Y0101000D01*
X0148500Y0101000D01*
X0151000Y0098500D01*
X0151000Y0093500D01*
X0148500Y0091000D01*
X0151000Y0088500D01*
X0151000Y0083500D01*
X0148500Y0081000D01*
X0143500Y0081000D01*
X0141000Y0083500D01*
X0141000Y0088500D01*
X0143500Y0091000D01*
X0141000Y0093500D01*
X0141000Y0098500D01*
X0138461Y0098138D02*
X0134191Y0093868D01*
X0135259Y0092800D01*
X0137394Y0092800D01*
X0138461Y0093868D01*
X0138461Y0098138D01*
X0137394Y0099205D01*
X0135259Y0099205D01*
X0134191Y0098138D01*
X0134191Y0093868D01*
X0132016Y0093868D02*
X0132016Y0098138D01*
X0130948Y0099205D01*
X0127745Y0099205D01*
X0127745Y0092800D01*
X0130948Y0092800D01*
X0132016Y0093868D01*
X0130948Y0089205D02*
X0127745Y0089205D01*
X0127745Y0082800D01*
X0130948Y0082800D01*
X0132016Y0083868D01*
X0132016Y0088138D01*
X0130948Y0089205D01*
X0134191Y0087070D02*
X0136326Y0089205D01*
X0136326Y0082800D01*
X0134191Y0082800D02*
X0138461Y0082800D01*
X0137394Y0079205D02*
X0135259Y0079205D01*
X0134191Y0078138D01*
X0132016Y0078138D02*
X0130948Y0079205D01*
X0127745Y0079205D01*
X0127745Y0072800D01*
X0130948Y0072800D01*
X0132016Y0073868D01*
X0132016Y0078138D01*
X0137394Y0079205D02*
X0138461Y0078138D01*
X0138461Y0077070D01*
X0134191Y0072800D01*
X0138461Y0072800D01*
X0141000Y0073500D02*
X0141000Y0078500D01*
X0143500Y0081000D01*
X0148500Y0081000D02*
X0151000Y0078500D01*
X0151000Y0073500D01*
X0148500Y0071000D01*
X0151000Y0068500D01*
X0151000Y0063500D01*
X0148500Y0061000D01*
X0151000Y0058500D01*
X0151000Y0053500D01*
X0148500Y0051000D01*
X0151000Y0048500D01*
X0151000Y0043500D01*
X0148500Y0041000D01*
X0143500Y0041000D01*
X0141000Y0043500D01*
X0141000Y0048500D01*
X0143500Y0051000D01*
X0141000Y0053500D01*
X0141000Y0058500D01*
X0143500Y0061000D01*
X0141000Y0063500D01*
X0141000Y0068500D01*
X0143500Y0071000D01*
X0141000Y0073500D01*
X0143500Y0071000D02*
X0148500Y0071000D01*
X0138461Y0068138D02*
X0138461Y0067070D01*
X0137394Y0066003D01*
X0138461Y0064935D01*
X0138461Y0063868D01*
X0137394Y0062800D01*
X0135259Y0062800D01*
X0134191Y0063868D01*
X0132016Y0063868D02*
X0132016Y0068138D01*
X0130948Y0069205D01*
X0127745Y0069205D01*
X0127745Y0062800D01*
X0130948Y0062800D01*
X0132016Y0063868D01*
X0136326Y0066003D02*
X0137394Y0066003D01*
X0138461Y0068138D02*
X0137394Y0069205D01*
X0135259Y0069205D01*
X0134191Y0068138D01*
X0125570Y0067070D02*
X0125570Y0062800D01*
X0125570Y0066003D02*
X0121300Y0066003D01*
X0121300Y0067070D02*
X0123435Y0069205D01*
X0125570Y0067070D01*
X0121300Y0067070D02*
X0121300Y0062800D01*
X0123435Y0059205D02*
X0125570Y0057070D01*
X0125570Y0052800D01*
X0127745Y0052800D02*
X0130948Y0052800D01*
X0132016Y0053868D01*
X0132016Y0058138D01*
X0130948Y0059205D01*
X0127745Y0059205D01*
X0127745Y0052800D01*
X0127745Y0049205D02*
X0130948Y0049205D01*
X0132016Y0048138D01*
X0132016Y0043868D01*
X0130948Y0042800D01*
X0127745Y0042800D01*
X0127745Y0049205D01*
X0125570Y0047070D02*
X0125570Y0042800D01*
X0125570Y0046003D02*
X0121300Y0046003D01*
X0121300Y0047070D02*
X0121300Y0042800D01*
X0121300Y0047070D02*
X0123435Y0049205D01*
X0125570Y0047070D01*
X0121300Y0052800D02*
X0121300Y0057070D01*
X0123435Y0059205D01*
X0121300Y0056003D02*
X0125570Y0056003D01*
X0134191Y0056003D02*
X0138461Y0056003D01*
X0137394Y0059205D02*
X0134191Y0056003D01*
X0137394Y0052800D02*
X0137394Y0059205D01*
X0143500Y0061000D02*
X0148500Y0061000D01*
X0148500Y0051000D02*
X0143500Y0051000D01*
X0138461Y0049205D02*
X0134191Y0049205D01*
X0134191Y0046003D01*
X0136326Y0047070D01*
X0137394Y0047070D01*
X0138461Y0046003D01*
X0138461Y0043868D01*
X0137394Y0042800D01*
X0135259Y0042800D01*
X0134191Y0043868D01*
X0125570Y0072800D02*
X0125570Y0077070D01*
X0123435Y0079205D01*
X0121300Y0077070D01*
X0121300Y0072800D01*
X0121300Y0076003D02*
X0125570Y0076003D01*
X0125570Y0082800D02*
X0125570Y0087070D01*
X0123435Y0089205D01*
X0121300Y0087070D01*
X0121300Y0082800D01*
X0121300Y0086003D02*
X0125570Y0086003D01*
X0125570Y0092800D02*
X0125570Y0097070D01*
X0123435Y0099205D01*
X0121300Y0097070D01*
X0121300Y0092800D01*
X0121300Y0096003D02*
X0125570Y0096003D01*
X0143500Y0091000D02*
X0148500Y0091000D01*
X0103500Y0081000D02*
X0098500Y0081000D01*
X0087016Y0072800D02*
X0082745Y0072800D01*
X0084881Y0072800D02*
X0084881Y0079205D01*
X0082745Y0077070D01*
X0043500Y0081000D02*
X0038500Y0081000D01*
X0026000Y0073500D02*
X0026000Y0068500D01*
X0023500Y0066000D01*
X0008500Y0066000D01*
X0008500Y0076000D02*
X0006000Y0078500D01*
X0006000Y0083500D01*
X0008500Y0086000D01*
X0008500Y0096000D02*
X0006000Y0098500D01*
X0006000Y0103500D01*
X0008500Y0106000D01*
X0023500Y0076000D02*
X0026000Y0073500D01*
X0206300Y0033138D02*
X0206300Y0028868D01*
X0207368Y0027800D01*
X0209503Y0027800D01*
X0210570Y0028868D01*
X0210570Y0031003D01*
X0208435Y0031003D01*
X0206300Y0033138D02*
X0207368Y0034205D01*
X0209503Y0034205D01*
X0210570Y0033138D01*
X0212745Y0034205D02*
X0217016Y0027800D01*
X0217016Y0034205D01*
X0219191Y0034205D02*
X0222394Y0034205D01*
X0223461Y0033138D01*
X0223461Y0028868D01*
X0222394Y0027800D01*
X0219191Y0027800D01*
X0219191Y0034205D01*
X0212745Y0034205D02*
X0212745Y0027800D01*
X0213813Y0024205D02*
X0212745Y0023138D01*
X0212745Y0018868D01*
X0213813Y0017800D01*
X0215948Y0017800D01*
X0217016Y0018868D01*
X0219191Y0018868D02*
X0220259Y0017800D01*
X0222394Y0017800D01*
X0223461Y0018868D01*
X0223461Y0023138D02*
X0222394Y0024205D01*
X0220259Y0024205D01*
X0219191Y0023138D01*
X0219191Y0018868D01*
X0217016Y0023138D02*
X0215948Y0024205D01*
X0213813Y0024205D01*
X0210570Y0024205D02*
X0210570Y0019935D01*
X0208435Y0017800D01*
X0206300Y0019935D01*
X0206300Y0024205D01*
X0207368Y0014205D02*
X0206300Y0013138D01*
X0206300Y0012070D01*
X0207368Y0011003D01*
X0209503Y0011003D01*
X0210570Y0009935D01*
X0210570Y0008868D01*
X0209503Y0007800D01*
X0207368Y0007800D01*
X0206300Y0008868D01*
X0210570Y0013138D02*
X0209503Y0014205D01*
X0207368Y0014205D01*
X0212745Y0014205D02*
X0214881Y0014205D01*
X0213813Y0014205D02*
X0213813Y0007800D01*
X0212745Y0007800D02*
X0214881Y0007800D01*
X0217042Y0008868D02*
X0218110Y0007800D01*
X0220245Y0007800D01*
X0221313Y0008868D01*
X0221313Y0011003D01*
X0219178Y0011003D01*
X0221313Y0013138D02*
X0220245Y0014205D01*
X0218110Y0014205D01*
X0217042Y0013138D01*
X0217042Y0008868D01*
X0316300Y0042800D02*
X0316300Y0049205D01*
X0319503Y0049205D01*
X0320570Y0048138D01*
X0320570Y0046003D01*
X0319503Y0044935D01*
X0316300Y0044935D01*
X0318435Y0044935D02*
X0320570Y0042800D01*
X0322745Y0042800D02*
X0327016Y0049205D01*
X0327016Y0052800D02*
X0322745Y0059205D01*
X0320570Y0059205D02*
X0316300Y0059205D01*
X0318435Y0059205D02*
X0318435Y0052800D01*
X0322745Y0052800D02*
X0327016Y0059205D01*
X0331000Y0058500D02*
X0333500Y0061000D01*
X0338500Y0061000D01*
X0341000Y0058500D01*
X0341000Y0053500D01*
X0338500Y0051000D01*
X0341000Y0048500D01*
X0341000Y0043500D01*
X0338500Y0041000D01*
X0333500Y0041000D01*
X0331000Y0043500D01*
X0331000Y0048500D01*
X0333500Y0051000D01*
X0331000Y0053500D01*
X0331000Y0058500D01*
X0333500Y0061000D02*
X0331000Y0063500D01*
X0331000Y0068500D01*
X0333500Y0071000D01*
X0331000Y0073500D01*
X0331000Y0078500D01*
X0333500Y0081000D01*
X0331000Y0083500D01*
X0331000Y0088500D01*
X0333500Y0091000D01*
X0338500Y0091000D01*
X0341000Y0088500D01*
X0341000Y0083500D01*
X0338500Y0081000D01*
X0341000Y0078500D01*
X0341000Y0073500D01*
X0338500Y0071000D01*
X0341000Y0068500D01*
X0341000Y0063500D01*
X0338500Y0061000D01*
X0346300Y0059205D02*
X0349503Y0059205D01*
X0350570Y0058138D01*
X0350570Y0053868D01*
X0349503Y0052800D01*
X0346300Y0052800D01*
X0346300Y0059205D01*
X0346300Y0062800D02*
X0349503Y0062800D01*
X0350570Y0063868D01*
X0350570Y0068138D01*
X0349503Y0069205D01*
X0346300Y0069205D01*
X0346300Y0062800D01*
X0352745Y0062800D02*
X0357016Y0067070D01*
X0357016Y0068138D01*
X0355948Y0069205D01*
X0353813Y0069205D01*
X0352745Y0068138D01*
X0353813Y0072800D02*
X0352745Y0073868D01*
X0353813Y0072800D02*
X0355948Y0072800D01*
X0357016Y0073868D01*
X0357016Y0074935D01*
X0355948Y0076003D01*
X0354881Y0076003D01*
X0355948Y0076003D02*
X0357016Y0077070D01*
X0357016Y0078138D01*
X0355948Y0079205D01*
X0353813Y0079205D01*
X0352745Y0078138D01*
X0350570Y0078138D02*
X0349503Y0079205D01*
X0346300Y0079205D01*
X0346300Y0072800D01*
X0349503Y0072800D01*
X0350570Y0073868D01*
X0350570Y0078138D01*
X0349503Y0082800D02*
X0346300Y0082800D01*
X0346300Y0089205D01*
X0349503Y0089205D01*
X0350570Y0088138D01*
X0350570Y0083868D01*
X0349503Y0082800D01*
X0355948Y0082800D02*
X0355948Y0089205D01*
X0352745Y0086003D01*
X0357016Y0086003D01*
X0355948Y0092800D02*
X0353813Y0092800D01*
X0352745Y0093868D01*
X0352745Y0096003D02*
X0354881Y0097070D01*
X0355948Y0097070D01*
X0357016Y0096003D01*
X0357016Y0093868D01*
X0355948Y0092800D01*
X0352745Y0096003D02*
X0352745Y0099205D01*
X0357016Y0099205D01*
X0355948Y0102800D02*
X0357016Y0103868D01*
X0357016Y0104935D01*
X0355948Y0106003D01*
X0352745Y0106003D01*
X0352745Y0103868D01*
X0353813Y0102800D01*
X0355948Y0102800D01*
X0352745Y0106003D02*
X0354881Y0108138D01*
X0357016Y0109205D01*
X0352745Y0112800D02*
X0352745Y0113868D01*
X0357016Y0118138D01*
X0357016Y0119205D01*
X0352745Y0119205D01*
X0350570Y0118138D02*
X0349503Y0119205D01*
X0346300Y0119205D01*
X0346300Y0112800D01*
X0349503Y0112800D01*
X0350570Y0113868D01*
X0350570Y0118138D01*
X0349503Y0109205D02*
X0346300Y0109205D01*
X0346300Y0102800D01*
X0349503Y0102800D01*
X0350570Y0103868D01*
X0350570Y0108138D01*
X0349503Y0109205D01*
X0341000Y0108500D02*
X0341000Y0103500D01*
X0338500Y0101000D01*
X0341000Y0098500D01*
X0341000Y0093500D01*
X0338500Y0091000D01*
X0333500Y0091000D02*
X0331000Y0093500D01*
X0331000Y0098500D01*
X0333500Y0101000D01*
X0331000Y0103500D01*
X0331000Y0108500D01*
X0333500Y0111000D01*
X0331000Y0113500D01*
X0331000Y0118500D01*
X0333500Y0121000D01*
X0338500Y0121000D01*
X0341000Y0118500D01*
X0341000Y0113500D01*
X0338500Y0111000D01*
X0341000Y0108500D01*
X0338500Y0111000D02*
X0333500Y0111000D01*
X0333500Y0101000D02*
X0338500Y0101000D01*
X0346300Y0099205D02*
X0349503Y0099205D01*
X0350570Y0098138D01*
X0350570Y0093868D01*
X0349503Y0092800D01*
X0346300Y0092800D01*
X0346300Y0099205D01*
X0338500Y0081000D02*
X0333500Y0081000D01*
X0333500Y0071000D02*
X0338500Y0071000D01*
X0352745Y0062800D02*
X0357016Y0062800D01*
X0354881Y0059205D02*
X0354881Y0052800D01*
X0357016Y0052800D02*
X0352745Y0052800D01*
X0353813Y0049205D02*
X0355948Y0049205D01*
X0357016Y0048138D01*
X0352745Y0043868D01*
X0353813Y0042800D01*
X0355948Y0042800D01*
X0357016Y0043868D01*
X0357016Y0048138D01*
X0353813Y0049205D02*
X0352745Y0048138D01*
X0352745Y0043868D01*
X0350570Y0043868D02*
X0350570Y0048138D01*
X0349503Y0049205D01*
X0346300Y0049205D01*
X0346300Y0042800D01*
X0349503Y0042800D01*
X0350570Y0043868D01*
X0338500Y0051000D02*
X0333500Y0051000D01*
X0327016Y0042800D02*
X0322745Y0049205D01*
X0352745Y0057070D02*
X0354881Y0059205D01*
X0338500Y0126000D02*
X0333500Y0126000D01*
X0331000Y0128500D01*
X0331000Y0133500D01*
X0333500Y0136000D01*
X0331000Y0138500D01*
X0331000Y0143500D01*
X0333500Y0146000D01*
X0338500Y0146000D01*
X0341000Y0143500D01*
X0341000Y0138500D01*
X0338500Y0136000D01*
X0341000Y0133500D01*
X0341000Y0128500D01*
X0338500Y0126000D01*
X0346300Y0127800D02*
X0349503Y0127800D01*
X0350570Y0128868D01*
X0350570Y0133138D01*
X0349503Y0134205D01*
X0346300Y0134205D01*
X0346300Y0127800D01*
X0352745Y0128868D02*
X0352745Y0129935D01*
X0353813Y0131003D01*
X0355948Y0131003D01*
X0357016Y0129935D01*
X0357016Y0128868D01*
X0355948Y0127800D01*
X0353813Y0127800D01*
X0352745Y0128868D01*
X0353813Y0131003D02*
X0352745Y0132070D01*
X0352745Y0133138D01*
X0353813Y0134205D01*
X0355948Y0134205D01*
X0357016Y0133138D01*
X0357016Y0132070D01*
X0355948Y0131003D01*
X0355948Y0137800D02*
X0357016Y0138868D01*
X0357016Y0143138D01*
X0355948Y0144205D01*
X0353813Y0144205D01*
X0352745Y0143138D01*
X0352745Y0142070D01*
X0353813Y0141003D01*
X0357016Y0141003D01*
X0355948Y0137800D02*
X0353813Y0137800D01*
X0352745Y0138868D01*
X0350570Y0138868D02*
X0350570Y0143138D01*
X0349503Y0144205D01*
X0346300Y0144205D01*
X0346300Y0137800D01*
X0349503Y0137800D01*
X0350570Y0138868D01*
X0338500Y0136000D02*
X0333500Y0136000D01*
X0333500Y0146000D02*
X0331000Y0148500D01*
X0331000Y0153500D01*
X0333500Y0156000D01*
X0331000Y0158500D01*
X0331000Y0163500D01*
X0333500Y0166000D01*
X0331000Y0168500D01*
X0331000Y0173500D01*
X0333500Y0176000D01*
X0338500Y0176000D01*
X0341000Y0173500D01*
X0341000Y0168500D01*
X0338500Y0166000D01*
X0341000Y0163500D01*
X0341000Y0158500D01*
X0338500Y0156000D01*
X0341000Y0153500D01*
X0341000Y0148500D01*
X0338500Y0146000D01*
X0346300Y0147800D02*
X0349503Y0147800D01*
X0350570Y0148868D01*
X0350570Y0153138D01*
X0349503Y0154205D01*
X0346300Y0154205D01*
X0346300Y0147800D01*
X0352745Y0147800D02*
X0357016Y0147800D01*
X0354881Y0147800D02*
X0354881Y0154205D01*
X0352745Y0152070D01*
X0359191Y0153138D02*
X0359191Y0148868D01*
X0363461Y0153138D01*
X0363461Y0148868D01*
X0362394Y0147800D01*
X0360259Y0147800D01*
X0359191Y0148868D01*
X0359191Y0153138D02*
X0360259Y0154205D01*
X0362394Y0154205D01*
X0363461Y0153138D01*
X0363461Y0157800D02*
X0359191Y0157800D01*
X0361326Y0157800D02*
X0361326Y0164205D01*
X0359191Y0162070D01*
X0357016Y0157800D02*
X0352745Y0157800D01*
X0354881Y0157800D02*
X0354881Y0164205D01*
X0352745Y0162070D01*
X0350570Y0163138D02*
X0350570Y0158868D01*
X0349503Y0157800D01*
X0346300Y0157800D01*
X0346300Y0164205D01*
X0349503Y0164205D01*
X0350570Y0163138D01*
X0349503Y0167800D02*
X0346300Y0167800D01*
X0346300Y0174205D01*
X0349503Y0174205D01*
X0350570Y0173138D01*
X0350570Y0168868D01*
X0349503Y0167800D01*
X0352745Y0167800D02*
X0357016Y0167800D01*
X0354881Y0167800D02*
X0354881Y0174205D01*
X0352745Y0172070D01*
X0359191Y0173138D02*
X0360259Y0174205D01*
X0362394Y0174205D01*
X0363461Y0173138D01*
X0363461Y0172070D01*
X0359191Y0167800D01*
X0363461Y0167800D01*
X0362394Y0177800D02*
X0360259Y0177800D01*
X0359191Y0178868D01*
X0357016Y0177800D02*
X0352745Y0177800D01*
X0354881Y0177800D02*
X0354881Y0184205D01*
X0352745Y0182070D01*
X0350570Y0183138D02*
X0350570Y0178868D01*
X0349503Y0177800D01*
X0346300Y0177800D01*
X0346300Y0184205D01*
X0349503Y0184205D01*
X0350570Y0183138D01*
X0349503Y0187800D02*
X0347368Y0187800D01*
X0346300Y0188868D01*
X0346300Y0193138D01*
X0347368Y0194205D01*
X0349503Y0194205D01*
X0350570Y0193138D01*
X0350570Y0191003D02*
X0348435Y0191003D01*
X0350570Y0191003D02*
X0350570Y0188868D01*
X0349503Y0187800D01*
X0352745Y0187800D02*
X0352745Y0194205D01*
X0357016Y0187800D01*
X0357016Y0194205D01*
X0359191Y0194205D02*
X0362394Y0194205D01*
X0363461Y0193138D01*
X0363461Y0188868D01*
X0362394Y0187800D01*
X0359191Y0187800D01*
X0359191Y0194205D01*
X0359191Y0197800D02*
X0363461Y0197800D01*
X0365636Y0197800D02*
X0365636Y0204205D01*
X0369907Y0204205D01*
X0367772Y0201003D02*
X0365636Y0201003D01*
X0361326Y0201003D02*
X0359191Y0201003D01*
X0357016Y0201003D02*
X0355948Y0199935D01*
X0352745Y0199935D01*
X0352745Y0197800D02*
X0352745Y0204205D01*
X0355948Y0204205D01*
X0357016Y0203138D01*
X0357016Y0201003D01*
X0354881Y0199935D02*
X0357016Y0197800D01*
X0359191Y0197800D02*
X0359191Y0204205D01*
X0363461Y0204205D01*
X0362394Y0207800D02*
X0362394Y0214205D01*
X0359191Y0211003D01*
X0363461Y0211003D01*
X0357016Y0213138D02*
X0355948Y0214205D01*
X0352745Y0214205D01*
X0352745Y0207800D01*
X0355948Y0207800D01*
X0357016Y0208868D01*
X0357016Y0213138D01*
X0355948Y0217800D02*
X0357016Y0218868D01*
X0357016Y0223138D01*
X0355948Y0224205D01*
X0352745Y0224205D01*
X0352745Y0217800D01*
X0355948Y0217800D01*
X0359191Y0218868D02*
X0360259Y0217800D01*
X0362394Y0217800D01*
X0363461Y0218868D01*
X0363461Y0221003D01*
X0362394Y0222070D01*
X0361326Y0222070D01*
X0359191Y0221003D01*
X0359191Y0224205D01*
X0363461Y0224205D01*
X0350570Y0222070D02*
X0350570Y0217800D01*
X0348435Y0214205D02*
X0350570Y0212070D01*
X0350570Y0207800D01*
X0350570Y0211003D02*
X0346300Y0211003D01*
X0346300Y0212070D02*
X0346300Y0207800D01*
X0348435Y0204205D02*
X0350570Y0202070D01*
X0350570Y0197800D01*
X0350570Y0201003D02*
X0346300Y0201003D01*
X0346300Y0202070D02*
X0346300Y0197800D01*
X0346300Y0202070D02*
X0348435Y0204205D01*
X0341000Y0203500D02*
X0341000Y0198500D01*
X0338500Y0196000D01*
X0341000Y0193500D01*
X0341000Y0188500D01*
X0338500Y0186000D01*
X0341000Y0183500D01*
X0341000Y0178500D01*
X0338500Y0176000D01*
X0333500Y0176000D02*
X0331000Y0178500D01*
X0331000Y0183500D01*
X0333500Y0186000D01*
X0331000Y0188500D01*
X0331000Y0193500D01*
X0333500Y0196000D01*
X0331000Y0198500D01*
X0331000Y0203500D01*
X0333500Y0206000D01*
X0338500Y0206000D01*
X0341000Y0203500D01*
X0338500Y0206000D02*
X0341000Y0208500D01*
X0341000Y0213500D01*
X0338500Y0216000D01*
X0341000Y0218500D01*
X0341000Y0223500D01*
X0338500Y0226000D01*
X0333500Y0226000D01*
X0331000Y0223500D01*
X0331000Y0218500D01*
X0333500Y0216000D01*
X0338500Y0216000D01*
X0333500Y0216000D02*
X0331000Y0213500D01*
X0331000Y0208500D01*
X0333500Y0206000D01*
X0333500Y0196000D02*
X0338500Y0196000D01*
X0338500Y0186000D02*
X0333500Y0186000D01*
X0359191Y0183138D02*
X0360259Y0184205D01*
X0362394Y0184205D01*
X0363461Y0183138D01*
X0363461Y0182070D01*
X0362394Y0181003D01*
X0363461Y0179935D01*
X0363461Y0178868D01*
X0362394Y0177800D01*
X0362394Y0181003D02*
X0361326Y0181003D01*
X0338500Y0166000D02*
X0333500Y0166000D01*
X0333500Y0156000D02*
X0338500Y0156000D01*
X0346300Y0212070D02*
X0348435Y0214205D01*
X0346300Y0217800D02*
X0346300Y0222070D01*
X0348435Y0224205D01*
X0350570Y0222070D01*
X0350570Y0221003D02*
X0346300Y0221003D01*
D12*
X0182613Y0163817D02*
X0182613Y0156010D01*
X0178710Y0152107D01*
X0167000Y0152107D01*
X0174807Y0152107D02*
X0182613Y0144300D01*
X0167000Y0144300D02*
X0167000Y0167720D01*
X0178710Y0167720D01*
X0182613Y0163817D01*
X0172613Y0176010D02*
X0168710Y0172107D01*
X0157000Y0172107D01*
X0157000Y0164300D02*
X0157000Y0187720D01*
X0168710Y0187720D01*
X0172613Y0183817D01*
X0172613Y0176010D01*
X0202000Y0112720D02*
X0213710Y0112720D01*
X0217613Y0108817D01*
X0217613Y0093203D01*
X0213710Y0089300D01*
X0202000Y0089300D01*
X0202000Y0112720D01*
X0225388Y0112720D02*
X0233195Y0112720D01*
X0229291Y0112720D02*
X0229291Y0089300D01*
X0225388Y0089300D02*
X0233195Y0089300D01*
X0240980Y0089300D02*
X0256593Y0089300D01*
X0264368Y0089300D02*
X0279981Y0089300D01*
X0287756Y0093203D02*
X0291659Y0089300D01*
X0299466Y0089300D01*
X0303369Y0093203D01*
X0287756Y0093203D02*
X0287756Y0108817D01*
X0291659Y0112720D01*
X0299466Y0112720D01*
X0303369Y0108817D01*
X0279981Y0112720D02*
X0264368Y0112720D01*
X0264368Y0089300D01*
X0264389Y0077720D02*
X0248776Y0077720D01*
X0248776Y0054300D01*
X0264389Y0054300D01*
X0272164Y0054300D02*
X0283874Y0054300D01*
X0287777Y0058203D01*
X0287777Y0073817D01*
X0283874Y0077720D01*
X0272164Y0077720D01*
X0272164Y0054300D01*
X0256583Y0066010D02*
X0248776Y0066010D01*
X0241001Y0054300D02*
X0241001Y0077720D01*
X0225388Y0077720D02*
X0241001Y0054300D01*
X0225388Y0054300D02*
X0225388Y0077720D01*
X0217613Y0077720D02*
X0217613Y0058203D01*
X0213710Y0054300D01*
X0205903Y0054300D01*
X0202000Y0058203D01*
X0202000Y0077720D01*
X0240980Y0089300D02*
X0240980Y0112720D01*
X0256593Y0112720D01*
X0264368Y0101010D02*
X0272175Y0101010D01*
X0248787Y0101010D02*
X0240980Y0101010D01*
D13*
X0237839Y0141800D02*
X0228631Y0141800D01*
X0228631Y0160216D01*
X0237839Y0160216D01*
X0240909Y0157146D01*
X0240909Y0154077D01*
X0237839Y0151008D01*
X0228631Y0151008D01*
X0222493Y0157146D02*
X0219424Y0160216D01*
X0213285Y0160216D01*
X0210216Y0157146D01*
X0210216Y0144869D01*
X0213285Y0141800D01*
X0219424Y0141800D01*
X0222493Y0144869D01*
X0222493Y0157146D01*
X0237839Y0151008D02*
X0240909Y0147939D01*
X0240909Y0144869D01*
X0237839Y0141800D01*
X0247047Y0144869D02*
X0250116Y0141800D01*
X0256255Y0141800D01*
X0259324Y0144869D01*
X0259324Y0157146D01*
X0256255Y0160216D01*
X0250116Y0160216D01*
X0247047Y0157146D01*
X0247047Y0144869D01*
X0265463Y0160216D02*
X0277740Y0160216D01*
X0283879Y0160216D02*
X0290017Y0160216D01*
X0286948Y0160216D02*
X0286948Y0141800D01*
X0283879Y0141800D02*
X0290017Y0141800D01*
X0296156Y0144869D02*
X0299225Y0141800D01*
X0305364Y0141800D01*
X0308433Y0144869D01*
X0314572Y0141800D02*
X0314572Y0154077D01*
X0320710Y0160216D01*
X0326849Y0154077D01*
X0326849Y0141800D01*
X0326849Y0151008D02*
X0314572Y0151008D01*
X0308433Y0157146D02*
X0305364Y0160216D01*
X0299225Y0160216D01*
X0296156Y0157146D01*
X0296156Y0144869D01*
X0271602Y0141800D02*
X0271602Y0160216D01*
X0277740Y0171800D02*
X0277740Y0184077D01*
X0271602Y0190216D01*
X0265463Y0184077D01*
X0265463Y0171800D01*
X0259324Y0171800D02*
X0247047Y0171800D01*
X0247047Y0174869D01*
X0259324Y0187146D01*
X0259324Y0190216D01*
X0247047Y0190216D01*
X0240909Y0184077D02*
X0240909Y0171800D01*
X0240909Y0181008D02*
X0228631Y0181008D01*
X0228631Y0184077D02*
X0234770Y0190216D01*
X0240909Y0184077D01*
X0228631Y0184077D02*
X0228631Y0171800D01*
X0222493Y0171800D02*
X0210216Y0171800D01*
X0210216Y0190216D01*
X0204077Y0187146D02*
X0204077Y0181008D01*
X0201008Y0177939D01*
X0191800Y0177939D01*
X0191800Y0171800D02*
X0191800Y0190216D01*
X0201008Y0190216D01*
X0204077Y0187146D01*
X0201008Y0160216D02*
X0191800Y0160216D01*
X0191800Y0141800D01*
X0191800Y0147939D02*
X0201008Y0147939D01*
X0204077Y0151008D01*
X0204077Y0157146D01*
X0201008Y0160216D01*
X0197939Y0147939D02*
X0204077Y0141800D01*
X0265463Y0181008D02*
X0277740Y0181008D01*
D14*
X0270656Y0211400D02*
X0264518Y0211400D01*
X0264518Y0220608D01*
X0270656Y0220608D01*
X0267587Y0216004D02*
X0264518Y0216004D01*
X0261449Y0211400D02*
X0255310Y0211400D01*
X0255310Y0220608D01*
X0252241Y0220608D02*
X0252241Y0212935D01*
X0250706Y0211400D01*
X0247637Y0211400D01*
X0246102Y0212935D01*
X0246102Y0220608D01*
X0243033Y0219073D02*
X0241498Y0220608D01*
X0236894Y0220608D01*
X0236894Y0211400D01*
X0241498Y0211400D01*
X0243033Y0212935D01*
X0243033Y0219073D01*
X0233825Y0219073D02*
X0232290Y0220608D01*
X0229221Y0220608D01*
X0227686Y0219073D01*
X0227686Y0212935D01*
X0229221Y0211400D01*
X0232290Y0211400D01*
X0233825Y0212935D01*
X0233825Y0219073D01*
X0224617Y0220608D02*
X0224617Y0211400D01*
X0218479Y0211400D02*
X0218479Y0220608D01*
X0221548Y0217539D01*
X0224617Y0220608D01*
X0206201Y0220608D02*
X0206201Y0219073D01*
X0203132Y0216004D01*
X0203132Y0211400D01*
X0203132Y0216004D02*
X0200063Y0219073D01*
X0200063Y0220608D01*
X0196994Y0219073D02*
X0196994Y0216004D01*
X0195459Y0214469D01*
X0190855Y0214469D01*
X0190855Y0211400D02*
X0190855Y0220608D01*
X0195459Y0220608D01*
X0196994Y0219073D01*
X0193924Y0214469D02*
X0196994Y0211400D01*
X0187786Y0211400D02*
X0187786Y0217539D01*
X0184716Y0220608D01*
X0181647Y0217539D01*
X0181647Y0211400D01*
X0178578Y0212935D02*
X0178578Y0219073D01*
X0177043Y0220608D01*
X0172439Y0220608D01*
X0172439Y0211400D01*
X0177043Y0211400D01*
X0178578Y0212935D01*
X0181647Y0216004D02*
X0187786Y0216004D01*
X0169370Y0211400D02*
X0169370Y0220608D01*
X0163231Y0220608D02*
X0169370Y0211400D01*
X0163231Y0211400D02*
X0163231Y0220608D01*
X0160162Y0219073D02*
X0158628Y0220608D01*
X0155558Y0220608D01*
X0154024Y0219073D01*
X0154024Y0212935D01*
X0155558Y0211400D01*
X0158628Y0211400D01*
X0160162Y0212935D01*
X0160162Y0219073D01*
X0150954Y0219073D02*
X0149420Y0220608D01*
X0146350Y0220608D01*
X0144816Y0219073D01*
X0144816Y0212935D01*
X0146350Y0211400D01*
X0149420Y0211400D01*
X0150954Y0212935D01*
X0141746Y0211400D02*
X0135608Y0211400D01*
X0135608Y0220608D01*
X0141746Y0220608D01*
X0138677Y0216004D02*
X0135608Y0216004D01*
X0132539Y0214469D02*
X0132539Y0212935D01*
X0131004Y0211400D01*
X0127935Y0211400D01*
X0126400Y0212935D01*
X0127935Y0216004D02*
X0126400Y0217539D01*
X0126400Y0219073D01*
X0127935Y0220608D01*
X0131004Y0220608D01*
X0132539Y0219073D01*
X0131004Y0216004D02*
X0132539Y0214469D01*
X0131004Y0216004D02*
X0127935Y0216004D01*
X0282934Y0217539D02*
X0286003Y0211400D01*
X0289072Y0217539D01*
X0292142Y0217539D02*
X0295211Y0220608D01*
X0295211Y0211400D01*
X0292142Y0211400D02*
X0298280Y0211400D01*
X0301349Y0211400D02*
X0302884Y0211400D01*
X0302884Y0212935D01*
X0301349Y0212935D01*
X0301349Y0211400D01*
X0305953Y0211400D02*
X0312092Y0211400D01*
X0309023Y0211400D02*
X0309023Y0220608D01*
X0305953Y0217539D01*
D15*
X0023634Y0184506D02*
X0023634Y0179369D01*
X0019781Y0175303D02*
X0019781Y0171450D01*
X0022350Y0171450D02*
X0014643Y0171450D01*
X0014643Y0175303D01*
X0015928Y0176588D01*
X0018497Y0176588D01*
X0019781Y0175303D01*
X0022350Y0187288D02*
X0014643Y0187288D01*
X0017212Y0189856D01*
X0014643Y0192425D01*
X0022350Y0192425D01*
X0022350Y0195206D02*
X0014643Y0195206D01*
X0017212Y0197775D01*
X0014643Y0200344D01*
X0022350Y0200344D01*
D16*
X0036000Y0036000D02*
X0036000Y0006000D01*
X0046000Y0006000D01*
X0046000Y0026000D01*
X0036000Y0026000D01*
X0046000Y0026000D02*
X0046000Y0036000D01*
X0036000Y0036000D01*
X0051000Y0036000D02*
X0051000Y0006000D01*
X0061000Y0006000D01*
X0061000Y0026000D01*
X0051000Y0026000D01*
X0061000Y0026000D02*
X0061000Y0036000D01*
X0051000Y0036000D01*
X0066000Y0036000D02*
X0066000Y0006000D01*
X0076000Y0006000D01*
X0076000Y0026000D01*
X0066000Y0026000D01*
X0076000Y0026000D02*
X0076000Y0036000D01*
X0066000Y0036000D01*
X0081000Y0036000D02*
X0081000Y0006000D01*
X0091000Y0006000D01*
X0091000Y0026000D01*
X0081000Y0026000D01*
X0091000Y0026000D02*
X0091000Y0036000D01*
X0081000Y0036000D01*
X0096000Y0036000D02*
X0096000Y0006000D01*
X0106000Y0006000D01*
X0106000Y0026000D01*
X0096000Y0026000D01*
X0106000Y0026000D02*
X0106000Y0036000D01*
X0096000Y0036000D01*
X0111000Y0036000D02*
X0111000Y0006000D01*
X0121000Y0006000D01*
X0121000Y0026000D01*
X0111000Y0026000D01*
X0121000Y0026000D02*
X0121000Y0036000D01*
X0111000Y0036000D01*
X0231000Y0036000D02*
X0231000Y0006000D01*
X0241000Y0006000D01*
X0241000Y0026000D01*
X0231000Y0026000D01*
X0241000Y0026000D02*
X0241000Y0036000D01*
X0231000Y0036000D01*
X0246000Y0036000D02*
X0246000Y0006000D01*
X0256000Y0006000D01*
X0256000Y0026000D01*
X0246000Y0026000D01*
X0256000Y0026000D02*
X0256000Y0036000D01*
X0246000Y0036000D01*
X0261000Y0036000D02*
X0261000Y0006000D01*
X0271000Y0006000D01*
X0271000Y0026000D01*
X0261000Y0026000D01*
X0271000Y0026000D02*
X0271000Y0036000D01*
X0261000Y0036000D01*
X0276000Y0036000D02*
X0276000Y0006000D01*
X0286000Y0006000D01*
X0286000Y0026000D01*
X0276000Y0026000D01*
X0286000Y0026000D02*
X0286000Y0036000D01*
X0276000Y0036000D01*
X0291000Y0036000D02*
X0291000Y0006000D01*
X0301000Y0006000D01*
X0301000Y0026000D01*
X0291000Y0026000D01*
X0301000Y0026000D02*
X0301000Y0036000D01*
X0291000Y0036000D01*
X0306000Y0036000D02*
X0306000Y0006000D01*
X0316000Y0006000D01*
X0316000Y0026000D01*
X0306000Y0026000D01*
X0316000Y0026000D02*
X0316000Y0036000D01*
X0306000Y0036000D01*
D17*
X0305950Y0038450D02*
X0305950Y0041453D01*
X0307451Y0042954D01*
X0308953Y0041453D01*
X0308953Y0038450D01*
X0310554Y0038450D02*
X0312806Y0038450D01*
X0313556Y0039201D01*
X0313556Y0042203D01*
X0312806Y0042954D01*
X0310554Y0042954D01*
X0310554Y0038450D01*
X0308953Y0040702D02*
X0305950Y0040702D01*
X0303160Y0040702D02*
X0300158Y0040702D01*
X0302410Y0042954D01*
X0302410Y0038450D01*
X0298556Y0039201D02*
X0298556Y0042203D01*
X0297806Y0042954D01*
X0295554Y0042954D01*
X0295554Y0038450D01*
X0297806Y0038450D01*
X0298556Y0039201D01*
X0293953Y0038450D02*
X0293953Y0041453D01*
X0292451Y0042954D01*
X0290950Y0041453D01*
X0290950Y0038450D01*
X0290950Y0040702D02*
X0293953Y0040702D01*
X0288160Y0041453D02*
X0287410Y0040702D01*
X0288160Y0039951D01*
X0288160Y0039201D01*
X0287410Y0038450D01*
X0285908Y0038450D01*
X0285158Y0039201D01*
X0283556Y0039201D02*
X0283556Y0042203D01*
X0282806Y0042954D01*
X0280554Y0042954D01*
X0280554Y0038450D01*
X0282806Y0038450D01*
X0283556Y0039201D01*
X0286659Y0040702D02*
X0287410Y0040702D01*
X0288160Y0041453D02*
X0288160Y0042203D01*
X0287410Y0042954D01*
X0285908Y0042954D01*
X0285158Y0042203D01*
X0278953Y0041453D02*
X0278953Y0038450D01*
X0278953Y0040702D02*
X0275950Y0040702D01*
X0275950Y0041453D02*
X0277451Y0042954D01*
X0278953Y0041453D01*
X0275950Y0041453D02*
X0275950Y0038450D01*
X0273160Y0038450D02*
X0270158Y0038450D01*
X0273160Y0041453D01*
X0273160Y0042203D01*
X0272410Y0042954D01*
X0270908Y0042954D01*
X0270158Y0042203D01*
X0268556Y0042203D02*
X0267806Y0042954D01*
X0265554Y0042954D01*
X0265554Y0038450D01*
X0267806Y0038450D01*
X0268556Y0039201D01*
X0268556Y0042203D01*
X0263953Y0041453D02*
X0263953Y0038450D01*
X0263953Y0040702D02*
X0260950Y0040702D01*
X0260950Y0041453D02*
X0262451Y0042954D01*
X0263953Y0041453D01*
X0260950Y0041453D02*
X0260950Y0038450D01*
X0258160Y0038450D02*
X0255158Y0038450D01*
X0256659Y0038450D02*
X0256659Y0042954D01*
X0255158Y0041453D01*
X0253556Y0042203D02*
X0253556Y0039201D01*
X0252806Y0038450D01*
X0250554Y0038450D01*
X0250554Y0042954D01*
X0252806Y0042954D01*
X0253556Y0042203D01*
X0248953Y0041453D02*
X0248953Y0038450D01*
X0248953Y0040702D02*
X0245950Y0040702D01*
X0245950Y0041453D02*
X0247451Y0042954D01*
X0248953Y0041453D01*
X0245950Y0041453D02*
X0245950Y0038450D01*
X0243160Y0039201D02*
X0242410Y0038450D01*
X0240908Y0038450D01*
X0240158Y0039201D01*
X0243160Y0042203D01*
X0243160Y0039201D01*
X0240158Y0039201D02*
X0240158Y0042203D01*
X0240908Y0042954D01*
X0242410Y0042954D01*
X0243160Y0042203D01*
X0238556Y0042203D02*
X0237806Y0042954D01*
X0235554Y0042954D01*
X0235554Y0038450D01*
X0237806Y0038450D01*
X0238556Y0039201D01*
X0238556Y0042203D01*
X0233953Y0041453D02*
X0233953Y0038450D01*
X0233953Y0040702D02*
X0230950Y0040702D01*
X0230950Y0041453D02*
X0232451Y0042954D01*
X0233953Y0041453D01*
X0230950Y0041453D02*
X0230950Y0038450D01*
X0315158Y0039201D02*
X0315908Y0038450D01*
X0317410Y0038450D01*
X0318160Y0039201D01*
X0318160Y0040702D01*
X0317410Y0041453D01*
X0316659Y0041453D01*
X0315158Y0040702D01*
X0315158Y0042954D01*
X0318160Y0042954D01*
X0123160Y0038450D02*
X0120158Y0038450D01*
X0121659Y0038450D02*
X0121659Y0042954D01*
X0120158Y0041453D01*
X0118556Y0038450D02*
X0115554Y0038450D01*
X0117055Y0038450D02*
X0117055Y0042954D01*
X0115554Y0041453D01*
X0113953Y0042203D02*
X0113953Y0039201D01*
X0113202Y0038450D01*
X0110950Y0038450D01*
X0110950Y0042954D01*
X0113202Y0042954D01*
X0113953Y0042203D01*
X0108160Y0042203D02*
X0105158Y0039201D01*
X0105908Y0038450D01*
X0107410Y0038450D01*
X0108160Y0039201D01*
X0108160Y0042203D01*
X0107410Y0042954D01*
X0105908Y0042954D01*
X0105158Y0042203D01*
X0105158Y0039201D01*
X0103556Y0038450D02*
X0100554Y0038450D01*
X0102055Y0038450D02*
X0102055Y0042954D01*
X0100554Y0041453D01*
X0098953Y0042203D02*
X0098953Y0039201D01*
X0098202Y0038450D01*
X0095950Y0038450D01*
X0095950Y0042954D01*
X0098202Y0042954D01*
X0098953Y0042203D01*
X0088556Y0042203D02*
X0088556Y0039201D01*
X0087806Y0038450D01*
X0086305Y0038450D01*
X0085554Y0039201D01*
X0083953Y0039201D02*
X0083953Y0042203D01*
X0083202Y0042954D01*
X0080950Y0042954D01*
X0080950Y0038450D01*
X0083202Y0038450D01*
X0083953Y0039201D01*
X0085554Y0041453D02*
X0086305Y0040702D01*
X0088556Y0040702D01*
X0088556Y0042203D02*
X0087806Y0042954D01*
X0086305Y0042954D01*
X0085554Y0042203D01*
X0085554Y0041453D01*
X0073556Y0042954D02*
X0072055Y0042203D01*
X0070554Y0040702D01*
X0072806Y0040702D01*
X0073556Y0039951D01*
X0073556Y0039201D01*
X0072806Y0038450D01*
X0071305Y0038450D01*
X0070554Y0039201D01*
X0070554Y0040702D01*
X0068953Y0039201D02*
X0068953Y0042203D01*
X0068202Y0042954D01*
X0065950Y0042954D01*
X0065950Y0038450D01*
X0068202Y0038450D01*
X0068953Y0039201D01*
X0058556Y0039201D02*
X0057806Y0038450D01*
X0056305Y0038450D01*
X0055554Y0039201D01*
X0055554Y0040702D02*
X0057055Y0041453D01*
X0057806Y0041453D01*
X0058556Y0040702D01*
X0058556Y0039201D01*
X0055554Y0040702D02*
X0055554Y0042954D01*
X0058556Y0042954D01*
X0053953Y0042203D02*
X0053202Y0042954D01*
X0050950Y0042954D01*
X0050950Y0038450D01*
X0053202Y0038450D01*
X0053953Y0039201D01*
X0053953Y0042203D01*
X0043556Y0042203D02*
X0043556Y0041453D01*
X0042806Y0040702D01*
X0043556Y0039951D01*
X0043556Y0039201D01*
X0042806Y0038450D01*
X0041305Y0038450D01*
X0040554Y0039201D01*
X0038953Y0039201D02*
X0038953Y0042203D01*
X0038202Y0042954D01*
X0035950Y0042954D01*
X0035950Y0038450D01*
X0038202Y0038450D01*
X0038953Y0039201D01*
X0042055Y0040702D02*
X0042806Y0040702D01*
X0043556Y0042203D02*
X0042806Y0042954D01*
X0041305Y0042954D01*
X0040554Y0042203D01*
M02*
