G75*
%MOIN*%
%OFA0B0*%
%FSLAX25Y25*%
%IPPOS*%
%LPD*%
%AMOC8*
5,1,8,0,0,1.08239X$1,22.5*
%
%ADD10C,0.06800*%
%ADD11R,0.06800X0.06800*%
%ADD12OC8,0.06800*%
D10*
X0037800Y0076000D02*
X0044200Y0076000D01*
X0044200Y0086000D02*
X0037800Y0086000D01*
X0037800Y0096000D02*
X0044200Y0096000D01*
X0044200Y0106000D02*
X0037800Y0106000D01*
X0037800Y0116000D02*
X0044200Y0116000D01*
X0044200Y0126000D02*
X0037800Y0126000D01*
X0037800Y0136000D02*
X0044200Y0136000D01*
X0044200Y0146000D02*
X0037800Y0146000D01*
X0037800Y0156000D02*
X0044200Y0156000D01*
X0044200Y0166000D02*
X0037800Y0166000D01*
X0037800Y0176000D02*
X0044200Y0176000D01*
X0044200Y0186000D02*
X0037800Y0186000D01*
X0037800Y0196000D02*
X0044200Y0196000D01*
X0044200Y0206000D02*
X0037800Y0206000D01*
X0037800Y0216000D02*
X0044200Y0216000D01*
X0097800Y0216000D02*
X0104200Y0216000D01*
X0104200Y0206000D02*
X0097800Y0206000D01*
X0097800Y0196000D02*
X0104200Y0196000D01*
X0104200Y0186000D02*
X0097800Y0186000D01*
X0097800Y0176000D02*
X0104200Y0176000D01*
X0104200Y0166000D02*
X0097800Y0166000D01*
X0097800Y0156000D02*
X0104200Y0156000D01*
X0104200Y0146000D02*
X0097800Y0146000D01*
X0097800Y0136000D02*
X0104200Y0136000D01*
X0104200Y0126000D02*
X0097800Y0126000D01*
X0097800Y0116000D02*
X0104200Y0116000D01*
X0104200Y0106000D02*
X0097800Y0106000D01*
X0097800Y0096000D02*
X0104200Y0096000D01*
X0104200Y0086000D02*
X0097800Y0086000D01*
X0097800Y0076000D02*
X0104200Y0076000D01*
X0142800Y0076000D02*
X0149200Y0076000D01*
X0149200Y0066000D02*
X0142800Y0066000D01*
X0142800Y0056000D02*
X0149200Y0056000D01*
X0149200Y0046000D02*
X0142800Y0046000D01*
X0146000Y0024200D02*
X0146000Y0017800D01*
X0156000Y0017800D02*
X0156000Y0024200D01*
X0166000Y0024200D02*
X0166000Y0017800D01*
X0176000Y0017800D02*
X0176000Y0024200D01*
X0149200Y0086000D02*
X0142800Y0086000D01*
X0142800Y0096000D02*
X0149200Y0096000D01*
X0149200Y0116000D02*
X0142800Y0116000D01*
X0142800Y0126000D02*
X0149200Y0126000D01*
X0149200Y0136000D02*
X0142800Y0136000D01*
X0142800Y0146000D02*
X0149200Y0146000D01*
X0149200Y0156000D02*
X0142800Y0156000D01*
X0142800Y0166000D02*
X0149200Y0166000D01*
X0149200Y0176000D02*
X0142800Y0176000D01*
X0142800Y0186000D02*
X0149200Y0186000D01*
X0332800Y0181000D02*
X0339200Y0181000D01*
X0339200Y0171000D02*
X0332800Y0171000D01*
X0332800Y0161000D02*
X0339200Y0161000D01*
X0339200Y0151000D02*
X0332800Y0151000D01*
X0332800Y0141000D02*
X0339200Y0141000D01*
X0339200Y0131000D02*
X0332800Y0131000D01*
X0332800Y0116000D02*
X0339200Y0116000D01*
X0339200Y0106000D02*
X0332800Y0106000D01*
X0332800Y0096000D02*
X0339200Y0096000D01*
X0339200Y0086000D02*
X0332800Y0086000D01*
X0332800Y0076000D02*
X0339200Y0076000D01*
X0339200Y0066000D02*
X0332800Y0066000D01*
X0332800Y0056000D02*
X0339200Y0056000D01*
X0339200Y0046000D02*
X0332800Y0046000D01*
X0332800Y0191000D02*
X0339200Y0191000D01*
X0339200Y0201000D02*
X0332800Y0201000D01*
X0332800Y0211000D02*
X0339200Y0211000D01*
X0339200Y0221000D02*
X0332800Y0221000D01*
D11*
X0291000Y0031000D03*
X0281000Y0031000D03*
X0271000Y0031000D03*
X0261000Y0031000D03*
X0251000Y0031000D03*
X0241000Y0031000D03*
X0096000Y0031000D03*
X0086000Y0031000D03*
X0076000Y0031000D03*
X0066000Y0031000D03*
X0056000Y0031000D03*
X0046000Y0031000D03*
D12*
X0046000Y0011000D03*
X0056000Y0011000D03*
X0066000Y0011000D03*
X0076000Y0011000D03*
X0086000Y0011000D03*
X0096000Y0011000D03*
X0096000Y0021000D03*
X0086000Y0021000D03*
X0076000Y0021000D03*
X0066000Y0021000D03*
X0056000Y0021000D03*
X0046000Y0021000D03*
X0021000Y0101000D03*
X0011000Y0101000D03*
X0011000Y0111000D03*
X0021000Y0111000D03*
X0021000Y0121000D03*
X0011000Y0121000D03*
X0011000Y0131000D03*
X0021000Y0131000D03*
X0021000Y0141000D03*
X0011000Y0141000D03*
X0241000Y0021000D03*
X0251000Y0021000D03*
X0261000Y0021000D03*
X0271000Y0021000D03*
X0281000Y0021000D03*
X0291000Y0021000D03*
X0291000Y0011000D03*
X0281000Y0011000D03*
X0271000Y0011000D03*
X0261000Y0011000D03*
X0251000Y0011000D03*
X0241000Y0011000D03*
M02*
