G75*
%MOIN*%
%OFA0B0*%
%FSLAX25Y25*%
%IPPOS*%
%LPD*%
%AMOC8*
5,1,8,0,0,1.08239X$1,22.5*
%
%ADD10OC8,0.06400*%
%ADD11C,0.06400*%
%ADD12R,0.06400X0.06400*%
%ADD13C,0.02400*%
%ADD14C,0.02800*%
D10*
X0046000Y0011000D03*
X0056000Y0011000D03*
X0066000Y0011000D03*
X0076000Y0011000D03*
X0086000Y0011000D03*
X0096000Y0011000D03*
X0096000Y0021000D03*
X0086000Y0021000D03*
X0076000Y0021000D03*
X0066000Y0021000D03*
X0056000Y0021000D03*
X0046000Y0021000D03*
X0021000Y0071000D03*
X0011000Y0071000D03*
X0011000Y0081000D03*
X0021000Y0081000D03*
X0021000Y0091000D03*
X0011000Y0091000D03*
X0011000Y0101000D03*
X0021000Y0101000D03*
X0021000Y0111000D03*
X0011000Y0111000D03*
X0011000Y0121000D03*
X0021000Y0121000D03*
X0021000Y0131000D03*
X0011000Y0131000D03*
X0011000Y0141000D03*
X0021000Y0141000D03*
X0021000Y0151000D03*
X0011000Y0151000D03*
X0011000Y0161000D03*
X0021000Y0161000D03*
X0241000Y0021000D03*
X0251000Y0021000D03*
X0261000Y0021000D03*
X0271000Y0021000D03*
X0281000Y0021000D03*
X0291000Y0021000D03*
X0291000Y0011000D03*
X0281000Y0011000D03*
X0271000Y0011000D03*
X0261000Y0011000D03*
X0251000Y0011000D03*
X0241000Y0011000D03*
D11*
X0176000Y0017800D02*
X0176000Y0024200D01*
X0166000Y0024200D02*
X0166000Y0017800D01*
X0156000Y0017800D02*
X0156000Y0024200D01*
X0146000Y0024200D02*
X0146000Y0017800D01*
X0142800Y0046000D02*
X0149200Y0046000D01*
X0149200Y0056000D02*
X0142800Y0056000D01*
X0142800Y0066000D02*
X0149200Y0066000D01*
X0149200Y0076000D02*
X0142800Y0076000D01*
X0142800Y0086000D02*
X0149200Y0086000D01*
X0149200Y0096000D02*
X0142800Y0096000D01*
X0142800Y0116000D02*
X0149200Y0116000D01*
X0149200Y0126000D02*
X0142800Y0126000D01*
X0142800Y0136000D02*
X0149200Y0136000D01*
X0149200Y0146000D02*
X0142800Y0146000D01*
X0142800Y0156000D02*
X0149200Y0156000D01*
X0149200Y0166000D02*
X0142800Y0166000D01*
X0142800Y0176000D02*
X0149200Y0176000D01*
X0149200Y0186000D02*
X0142800Y0186000D01*
X0104200Y0186000D02*
X0097800Y0186000D01*
X0097800Y0196000D02*
X0104200Y0196000D01*
X0104200Y0206000D02*
X0097800Y0206000D01*
X0097800Y0216000D02*
X0104200Y0216000D01*
X0044200Y0216000D02*
X0037800Y0216000D01*
X0037800Y0206000D02*
X0044200Y0206000D01*
X0044200Y0196000D02*
X0037800Y0196000D01*
X0037800Y0186000D02*
X0044200Y0186000D01*
X0044200Y0176000D02*
X0037800Y0176000D01*
X0037800Y0166000D02*
X0044200Y0166000D01*
X0044200Y0156000D02*
X0037800Y0156000D01*
X0037800Y0146000D02*
X0044200Y0146000D01*
X0044200Y0136000D02*
X0037800Y0136000D01*
X0037800Y0126000D02*
X0044200Y0126000D01*
X0044200Y0116000D02*
X0037800Y0116000D01*
X0037800Y0106000D02*
X0044200Y0106000D01*
X0044200Y0096000D02*
X0037800Y0096000D01*
X0037800Y0086000D02*
X0044200Y0086000D01*
X0044200Y0076000D02*
X0037800Y0076000D01*
X0097800Y0076000D02*
X0104200Y0076000D01*
X0104200Y0086000D02*
X0097800Y0086000D01*
X0097800Y0096000D02*
X0104200Y0096000D01*
X0104200Y0106000D02*
X0097800Y0106000D01*
X0097800Y0116000D02*
X0104200Y0116000D01*
X0104200Y0126000D02*
X0097800Y0126000D01*
X0097800Y0136000D02*
X0104200Y0136000D01*
X0104200Y0146000D02*
X0097800Y0146000D01*
X0097800Y0156000D02*
X0104200Y0156000D01*
X0104200Y0166000D02*
X0097800Y0166000D01*
X0097800Y0176000D02*
X0104200Y0176000D01*
X0332800Y0171000D02*
X0339200Y0171000D01*
X0339200Y0161000D02*
X0332800Y0161000D01*
X0332800Y0151000D02*
X0339200Y0151000D01*
X0339200Y0141000D02*
X0332800Y0141000D01*
X0332800Y0131000D02*
X0339200Y0131000D01*
X0339200Y0116000D02*
X0332800Y0116000D01*
X0332800Y0106000D02*
X0339200Y0106000D01*
X0339200Y0096000D02*
X0332800Y0096000D01*
X0332800Y0086000D02*
X0339200Y0086000D01*
X0339200Y0076000D02*
X0332800Y0076000D01*
X0332800Y0066000D02*
X0339200Y0066000D01*
X0339200Y0056000D02*
X0332800Y0056000D01*
X0332800Y0046000D02*
X0339200Y0046000D01*
X0339200Y0181000D02*
X0332800Y0181000D01*
X0332800Y0191000D02*
X0339200Y0191000D01*
X0339200Y0201000D02*
X0332800Y0201000D01*
X0332800Y0211000D02*
X0339200Y0211000D01*
X0339200Y0221000D02*
X0332800Y0221000D01*
D12*
X0291000Y0031000D03*
X0281000Y0031000D03*
X0271000Y0031000D03*
X0261000Y0031000D03*
X0251000Y0031000D03*
X0241000Y0031000D03*
X0096000Y0031000D03*
X0086000Y0031000D03*
X0076000Y0031000D03*
X0066000Y0031000D03*
X0056000Y0031000D03*
X0046000Y0031000D03*
D13*
X0041000Y0016000D02*
X0041000Y0058500D01*
X0049750Y0067250D01*
X0049750Y0078500D01*
X0047250Y0081000D01*
X0029750Y0081000D01*
X0029750Y0101000D01*
X0032250Y0103500D02*
X0032250Y0108500D01*
X0034750Y0111000D01*
X0053500Y0111000D01*
X0053500Y0092250D01*
X0049750Y0088500D02*
X0049750Y0098500D01*
X0047250Y0101000D01*
X0041000Y0096000D02*
X0033500Y0096000D01*
X0033500Y0102250D01*
X0032250Y0103500D01*
X0026000Y0104750D02*
X0026000Y0079750D01*
X0029750Y0076000D01*
X0041000Y0076000D01*
X0041000Y0063500D01*
X0037250Y0063500D01*
X0037250Y0041000D01*
X0046000Y0031000D02*
X0053500Y0031000D01*
X0056000Y0031000D01*
X0053500Y0031000D02*
X0053500Y0079750D01*
X0047250Y0086000D01*
X0041000Y0086000D01*
X0024750Y0076000D02*
X0033500Y0067250D01*
X0037250Y0067250D01*
X0037250Y0063500D02*
X0018500Y0063500D01*
X0011000Y0071000D01*
X0006000Y0068500D02*
X0006000Y0086000D01*
X0011000Y0091000D01*
X0011000Y0101000D02*
X0006000Y0106000D01*
X0006000Y0192250D01*
X0042250Y0228500D01*
X0342487Y0228500D01*
X0337250Y0221000D02*
X0336000Y0221000D01*
X0337250Y0221000D02*
X0348500Y0209750D01*
X0348500Y0027008D01*
X0348495Y0026621D01*
X0348481Y0026235D01*
X0348458Y0025848D01*
X0348425Y0025463D01*
X0348383Y0025078D01*
X0348332Y0024695D01*
X0348272Y0024313D01*
X0348202Y0023932D01*
X0348123Y0023554D01*
X0348035Y0023177D01*
X0347938Y0022803D01*
X0347832Y0022431D01*
X0347717Y0022061D01*
X0347593Y0021695D01*
X0347460Y0021331D01*
X0347318Y0020971D01*
X0347168Y0020615D01*
X0347009Y0020262D01*
X0346842Y0019913D01*
X0346666Y0019569D01*
X0346482Y0019228D01*
X0346290Y0018893D01*
X0346090Y0018562D01*
X0345882Y0018235D01*
X0345666Y0017914D01*
X0345443Y0017599D01*
X0345212Y0017289D01*
X0344973Y0016984D01*
X0344727Y0016685D01*
X0344474Y0016393D01*
X0344214Y0016106D01*
X0343947Y0015826D01*
X0343674Y0015553D01*
X0343394Y0015286D01*
X0343107Y0015026D01*
X0342815Y0014773D01*
X0342516Y0014527D01*
X0342211Y0014288D01*
X0341901Y0014057D01*
X0341586Y0013834D01*
X0341265Y0013618D01*
X0340938Y0013410D01*
X0340607Y0013210D01*
X0340272Y0013018D01*
X0339931Y0012834D01*
X0339587Y0012658D01*
X0339238Y0012491D01*
X0338885Y0012332D01*
X0338529Y0012182D01*
X0338169Y0012040D01*
X0337805Y0011907D01*
X0337439Y0011783D01*
X0337069Y0011668D01*
X0336697Y0011562D01*
X0336323Y0011465D01*
X0335946Y0011377D01*
X0335568Y0011298D01*
X0335187Y0011228D01*
X0334805Y0011168D01*
X0334422Y0011117D01*
X0334037Y0011075D01*
X0333652Y0011042D01*
X0333265Y0011019D01*
X0332879Y0011005D01*
X0332492Y0011000D01*
X0291000Y0011000D01*
X0286000Y0016000D02*
X0286000Y0064750D01*
X0233500Y0064750D01*
X0212250Y0049750D02*
X0212250Y0098500D01*
X0166000Y0144750D01*
X0168500Y0147250D02*
X0179750Y0136000D01*
X0279750Y0136000D01*
X0303500Y0148500D02*
X0303500Y0164750D01*
X0318500Y0171000D02*
X0318500Y0179750D01*
X0318500Y0171000D02*
X0336000Y0171000D01*
X0336000Y0191000D02*
X0344750Y0191000D01*
X0344750Y0043500D01*
X0332250Y0031000D01*
X0291000Y0031000D01*
X0281000Y0031000D02*
X0271000Y0031000D01*
X0261000Y0031000D01*
X0251000Y0031000D01*
X0241000Y0031000D01*
X0241000Y0021000D02*
X0212250Y0049750D01*
X0208500Y0046000D02*
X0238500Y0016000D01*
X0251000Y0016000D01*
X0251000Y0011000D01*
X0253500Y0003500D02*
X0253681Y0003502D01*
X0253862Y0003509D01*
X0254043Y0003520D01*
X0254224Y0003535D01*
X0254404Y0003555D01*
X0254584Y0003579D01*
X0254763Y0003607D01*
X0254941Y0003640D01*
X0255118Y0003677D01*
X0255295Y0003718D01*
X0255470Y0003763D01*
X0255645Y0003813D01*
X0255818Y0003867D01*
X0255989Y0003925D01*
X0256160Y0003987D01*
X0256328Y0004054D01*
X0256495Y0004124D01*
X0256661Y0004198D01*
X0256824Y0004277D01*
X0256985Y0004359D01*
X0257145Y0004445D01*
X0257302Y0004535D01*
X0257457Y0004629D01*
X0257610Y0004726D01*
X0257760Y0004828D01*
X0257908Y0004932D01*
X0258054Y0005041D01*
X0258196Y0005152D01*
X0258336Y0005268D01*
X0258473Y0005386D01*
X0258608Y0005508D01*
X0258739Y0005633D01*
X0258867Y0005761D01*
X0258992Y0005892D01*
X0259114Y0006027D01*
X0259232Y0006164D01*
X0259348Y0006304D01*
X0259459Y0006446D01*
X0259568Y0006592D01*
X0259672Y0006740D01*
X0259774Y0006890D01*
X0259871Y0007043D01*
X0259965Y0007198D01*
X0260055Y0007355D01*
X0260141Y0007515D01*
X0260223Y0007676D01*
X0260302Y0007839D01*
X0260376Y0008005D01*
X0260446Y0008172D01*
X0260513Y0008340D01*
X0260575Y0008511D01*
X0260633Y0008682D01*
X0260687Y0008855D01*
X0260737Y0009030D01*
X0260782Y0009205D01*
X0260823Y0009382D01*
X0260860Y0009559D01*
X0260893Y0009737D01*
X0260921Y0009916D01*
X0260945Y0010096D01*
X0260965Y0010276D01*
X0260980Y0010457D01*
X0260991Y0010638D01*
X0260998Y0010819D01*
X0261000Y0011000D01*
X0253500Y0003500D02*
X0226000Y0003500D01*
X0204750Y0024750D01*
X0204750Y0076000D01*
X0146000Y0076000D01*
X0139750Y0071000D02*
X0186000Y0071000D01*
X0174750Y0067250D02*
X0156000Y0067250D01*
X0147250Y0066000D02*
X0146000Y0066000D01*
X0147250Y0066000D02*
X0154750Y0058500D01*
X0154750Y0051000D01*
X0186000Y0051000D01*
X0191000Y0056000D02*
X0158500Y0056000D01*
X0154750Y0051000D02*
X0139750Y0051000D01*
X0137250Y0048500D01*
X0137250Y0016000D01*
X0119750Y0016000D01*
X0114750Y0021000D01*
X0114750Y0046000D01*
X0092250Y0068500D01*
X0092250Y0131000D01*
X0084750Y0138500D01*
X0084750Y0178500D01*
X0078500Y0184750D01*
X0076000Y0182250D02*
X0079750Y0178500D01*
X0079750Y0092250D01*
X0076000Y0089750D02*
X0076000Y0177250D01*
X0072250Y0181000D01*
X0072250Y0188500D01*
X0089750Y0206000D01*
X0101000Y0206000D01*
X0094750Y0211000D02*
X0144672Y0211000D01*
X0154246Y0221000D02*
X0154439Y0220998D01*
X0154633Y0220991D01*
X0154826Y0220979D01*
X0155018Y0220963D01*
X0155211Y0220942D01*
X0155402Y0220916D01*
X0155594Y0220886D01*
X0155784Y0220851D01*
X0155973Y0220811D01*
X0156161Y0220767D01*
X0156349Y0220719D01*
X0156535Y0220666D01*
X0156719Y0220608D01*
X0156903Y0220546D01*
X0157084Y0220480D01*
X0157264Y0220409D01*
X0157443Y0220334D01*
X0157619Y0220255D01*
X0157793Y0220171D01*
X0157966Y0220083D01*
X0158136Y0219991D01*
X0158304Y0219895D01*
X0158469Y0219795D01*
X0158632Y0219691D01*
X0158793Y0219583D01*
X0158951Y0219471D01*
X0159106Y0219356D01*
X0159258Y0219237D01*
X0159407Y0219114D01*
X0159554Y0218987D01*
X0159697Y0218857D01*
X0159837Y0218724D01*
X0159974Y0218587D01*
X0160107Y0218447D01*
X0160237Y0218304D01*
X0160364Y0218157D01*
X0160487Y0218008D01*
X0160606Y0217856D01*
X0160721Y0217701D01*
X0160833Y0217543D01*
X0160941Y0217382D01*
X0161045Y0217219D01*
X0161145Y0217054D01*
X0161241Y0216886D01*
X0161333Y0216716D01*
X0161421Y0216543D01*
X0161505Y0216369D01*
X0161584Y0216193D01*
X0161659Y0216014D01*
X0161730Y0215834D01*
X0161796Y0215653D01*
X0161858Y0215469D01*
X0161916Y0215285D01*
X0161969Y0215099D01*
X0162017Y0214911D01*
X0162061Y0214723D01*
X0162101Y0214534D01*
X0162136Y0214344D01*
X0162166Y0214152D01*
X0162192Y0213961D01*
X0162213Y0213768D01*
X0162229Y0213576D01*
X0162241Y0213383D01*
X0162248Y0213189D01*
X0162250Y0212996D01*
X0162250Y0114750D01*
X0163500Y0113500D01*
X0163500Y0086000D01*
X0146000Y0086000D01*
X0146000Y0096000D02*
X0142250Y0096000D01*
X0126000Y0112250D01*
X0146000Y0102250D02*
X0146000Y0096000D01*
X0146000Y0102250D02*
X0156000Y0102250D01*
X0163500Y0086000D02*
X0208500Y0086000D01*
X0208500Y0046000D01*
X0196000Y0051000D02*
X0182250Y0037250D01*
X0159750Y0037250D01*
X0161000Y0031000D02*
X0161000Y0009750D01*
X0172250Y0006000D02*
X0066000Y0006000D01*
X0066000Y0011000D01*
X0061000Y0016000D02*
X0061000Y0121000D01*
X0057250Y0121000D02*
X0057250Y0067250D01*
X0072250Y0081000D02*
X0084750Y0068500D01*
X0084750Y0057250D01*
X0087250Y0054750D01*
X0091000Y0064750D02*
X0088500Y0067250D01*
X0088500Y0077250D01*
X0076000Y0089750D01*
X0086000Y0084750D02*
X0088500Y0087250D01*
X0088500Y0113500D01*
X0068500Y0109750D02*
X0068500Y0174750D01*
X0062250Y0176000D02*
X0068500Y0182250D01*
X0068500Y0194750D01*
X0094750Y0221000D01*
X0154246Y0221000D01*
X0124750Y0206000D02*
X0118500Y0206000D01*
X0118500Y0197250D01*
X0107250Y0186000D01*
X0101000Y0186000D01*
X0101000Y0196000D02*
X0099750Y0196000D01*
X0093500Y0202250D01*
X0091000Y0202250D01*
X0122250Y0198500D02*
X0122250Y0188500D01*
X0109750Y0176000D01*
X0109750Y0173500D01*
X0102250Y0166000D01*
X0101000Y0166000D01*
X0114750Y0168500D02*
X0114750Y0096000D01*
X0101000Y0096000D01*
X0072250Y0081000D02*
X0072250Y0148500D01*
X0064750Y0152250D02*
X0064750Y0141000D01*
X0064750Y0042250D01*
X0071000Y0036000D01*
X0071000Y0016000D01*
X0076000Y0011000D01*
X0061000Y0016000D02*
X0056000Y0011000D01*
X0046000Y0011000D02*
X0041000Y0016000D01*
X0046000Y0021000D02*
X0056000Y0021000D01*
X0091000Y0016000D02*
X0091000Y0064750D01*
X0101000Y0074750D02*
X0101000Y0076000D01*
X0101000Y0074750D02*
X0114750Y0061000D01*
X0133500Y0052250D02*
X0137250Y0056000D01*
X0137250Y0068500D01*
X0139750Y0071000D01*
X0137250Y0056000D02*
X0146000Y0056000D01*
X0133500Y0052250D02*
X0133500Y0019750D01*
X0121000Y0019750D01*
X0118500Y0022250D01*
X0118500Y0179750D01*
X0122250Y0181000D02*
X0122250Y0023500D01*
X0096000Y0011000D02*
X0091000Y0016000D01*
X0146000Y0046000D02*
X0161000Y0031000D01*
X0172250Y0006000D02*
X0199750Y0033500D01*
X0199750Y0067250D01*
X0201000Y0068500D01*
X0241000Y0021000D02*
X0251000Y0021000D01*
X0261000Y0021000D01*
X0271000Y0021000D01*
X0281000Y0021000D01*
X0286000Y0016000D02*
X0281000Y0011000D01*
X0286000Y0064750D02*
X0286000Y0152250D01*
X0329750Y0196000D01*
X0344750Y0196000D01*
X0344750Y0203500D01*
X0337250Y0211000D01*
X0336000Y0211000D01*
X0327250Y0208500D02*
X0334750Y0201000D01*
X0336000Y0201000D01*
X0327250Y0208500D02*
X0327250Y0224750D01*
X0074750Y0224750D01*
X0052250Y0202250D01*
X0052250Y0196000D01*
X0041000Y0196000D01*
X0049750Y0189750D02*
X0049750Y0181000D01*
X0034750Y0181000D01*
X0032250Y0178500D01*
X0032250Y0147250D01*
X0026000Y0141000D01*
X0026000Y0136000D01*
X0016000Y0136000D01*
X0011000Y0131000D01*
X0016000Y0126000D02*
X0032250Y0126000D01*
X0032250Y0128500D01*
X0034750Y0131000D01*
X0061000Y0131000D01*
X0061000Y0134750D01*
X0064750Y0141000D02*
X0034750Y0141000D01*
X0029750Y0136000D01*
X0029750Y0131000D01*
X0021000Y0131000D01*
X0016000Y0126000D02*
X0011000Y0121000D01*
X0016000Y0116000D02*
X0032250Y0116000D01*
X0032250Y0118500D01*
X0034750Y0121000D01*
X0057250Y0121000D01*
X0057250Y0122250D01*
X0061000Y0126000D01*
X0083500Y0131000D02*
X0083500Y0134750D01*
X0083500Y0131000D02*
X0088500Y0126000D01*
X0058500Y0156000D02*
X0041000Y0156000D01*
X0028500Y0154750D02*
X0028500Y0148500D01*
X0021000Y0141000D01*
X0016000Y0146000D02*
X0016000Y0177250D01*
X0041000Y0166000D02*
X0054750Y0166000D01*
X0054750Y0189750D01*
X0058500Y0193500D02*
X0058500Y0156000D01*
X0016000Y0146000D02*
X0011000Y0141000D01*
X0021000Y0121000D02*
X0029750Y0121000D01*
X0029750Y0122250D01*
X0016000Y0116000D02*
X0011000Y0111000D01*
X0021000Y0111000D02*
X0029750Y0111000D01*
X0029750Y0112250D01*
X0011000Y0081000D02*
X0016000Y0076000D01*
X0024750Y0076000D01*
X0146000Y0126000D02*
X0146000Y0136000D01*
X0146000Y0146000D02*
X0144750Y0146000D01*
X0137250Y0153500D01*
X0137250Y0176000D01*
X0146000Y0176000D01*
X0154750Y0163500D02*
X0147250Y0156000D01*
X0146000Y0156000D01*
X0154750Y0163500D02*
X0154750Y0200922D01*
X0154747Y0201166D01*
X0154738Y0201409D01*
X0154724Y0201652D01*
X0154703Y0201895D01*
X0154677Y0202137D01*
X0154644Y0202378D01*
X0154606Y0202619D01*
X0154562Y0202858D01*
X0154513Y0203097D01*
X0154457Y0203334D01*
X0154396Y0203570D01*
X0154329Y0203804D01*
X0154257Y0204036D01*
X0154179Y0204267D01*
X0154095Y0204496D01*
X0154006Y0204722D01*
X0153911Y0204947D01*
X0153811Y0205169D01*
X0153706Y0205388D01*
X0153596Y0205605D01*
X0153480Y0205820D01*
X0153359Y0206031D01*
X0153233Y0206240D01*
X0153102Y0206445D01*
X0152966Y0206647D01*
X0152825Y0206846D01*
X0152680Y0207041D01*
X0152530Y0207233D01*
X0152375Y0207421D01*
X0152215Y0207605D01*
X0152052Y0207785D01*
X0151884Y0207962D01*
X0151712Y0208134D01*
X0151535Y0208302D01*
X0151355Y0208465D01*
X0151171Y0208625D01*
X0150983Y0208780D01*
X0150791Y0208930D01*
X0150596Y0209075D01*
X0150397Y0209216D01*
X0150195Y0209352D01*
X0149990Y0209483D01*
X0149781Y0209609D01*
X0149570Y0209730D01*
X0149355Y0209846D01*
X0149138Y0209956D01*
X0148919Y0210061D01*
X0148697Y0210161D01*
X0148472Y0210256D01*
X0148246Y0210345D01*
X0148017Y0210429D01*
X0147786Y0210507D01*
X0147554Y0210579D01*
X0147320Y0210646D01*
X0147084Y0210707D01*
X0146847Y0210763D01*
X0146608Y0210812D01*
X0146369Y0210856D01*
X0146128Y0210894D01*
X0145887Y0210927D01*
X0145645Y0210953D01*
X0145402Y0210974D01*
X0145159Y0210988D01*
X0144916Y0210997D01*
X0144672Y0211000D01*
X0168500Y0164750D02*
X0168500Y0151000D01*
X0264750Y0151000D01*
X0303500Y0148500D02*
X0336000Y0116000D01*
X0336000Y0106000D02*
X0289750Y0106000D01*
X0352250Y0101000D02*
X0352250Y0218737D01*
X0352247Y0218973D01*
X0352239Y0219209D01*
X0352224Y0219444D01*
X0352204Y0219679D01*
X0352179Y0219914D01*
X0352148Y0220148D01*
X0352111Y0220381D01*
X0352068Y0220613D01*
X0352020Y0220844D01*
X0351966Y0221073D01*
X0351907Y0221302D01*
X0351842Y0221529D01*
X0351772Y0221754D01*
X0351697Y0221977D01*
X0351616Y0222199D01*
X0351529Y0222419D01*
X0351438Y0222636D01*
X0351341Y0222851D01*
X0351239Y0223064D01*
X0351132Y0223274D01*
X0351020Y0223482D01*
X0350902Y0223686D01*
X0350780Y0223888D01*
X0350653Y0224087D01*
X0350522Y0224283D01*
X0350385Y0224476D01*
X0350244Y0224665D01*
X0350099Y0224850D01*
X0349949Y0225033D01*
X0349795Y0225211D01*
X0349636Y0225386D01*
X0349473Y0225557D01*
X0349307Y0225723D01*
X0349136Y0225886D01*
X0348961Y0226045D01*
X0348783Y0226199D01*
X0348600Y0226349D01*
X0348415Y0226494D01*
X0348226Y0226635D01*
X0348033Y0226772D01*
X0347837Y0226903D01*
X0347638Y0227030D01*
X0347436Y0227152D01*
X0347232Y0227270D01*
X0347024Y0227382D01*
X0346814Y0227489D01*
X0346601Y0227591D01*
X0346386Y0227688D01*
X0346169Y0227779D01*
X0345949Y0227866D01*
X0345727Y0227947D01*
X0345504Y0228022D01*
X0345279Y0228092D01*
X0345052Y0228157D01*
X0344823Y0228216D01*
X0344594Y0228270D01*
X0344363Y0228318D01*
X0344131Y0228361D01*
X0343898Y0228398D01*
X0343664Y0228429D01*
X0343429Y0228454D01*
X0343194Y0228474D01*
X0342959Y0228489D01*
X0342723Y0228497D01*
X0342487Y0228500D01*
X0049750Y0224750D02*
X0041000Y0216000D01*
D14*
X0049750Y0224750D03*
X0091000Y0202250D03*
X0094750Y0211000D03*
X0122250Y0198500D03*
X0124750Y0206000D03*
X0122250Y0181000D03*
X0118500Y0179750D03*
X0114750Y0168500D03*
X0078500Y0184750D03*
X0076000Y0182250D03*
X0068500Y0174750D03*
X0062250Y0176000D03*
X0054750Y0189750D03*
X0049750Y0189750D03*
X0058500Y0193500D03*
X0016000Y0177250D03*
X0028500Y0154750D03*
X0061000Y0134750D03*
X0061000Y0126000D03*
X0061000Y0121000D03*
X0068500Y0109750D03*
X0088500Y0113500D03*
X0088500Y0126000D03*
X0083500Y0134750D03*
X0072250Y0148500D03*
X0064750Y0152250D03*
X0029750Y0122250D03*
X0029750Y0112250D03*
X0026000Y0104750D03*
X0029750Y0101000D03*
X0047250Y0101000D03*
X0053500Y0092250D03*
X0049750Y0088500D03*
X0079750Y0092250D03*
X0086000Y0084750D03*
X0057250Y0067250D03*
X0037250Y0067250D03*
X0006000Y0068500D03*
X0037250Y0041000D03*
X0087250Y0054750D03*
X0114750Y0061000D03*
X0156000Y0067250D03*
X0158500Y0056000D03*
X0174750Y0067250D03*
X0186000Y0071000D03*
X0201000Y0068500D03*
X0191000Y0056000D03*
X0186000Y0051000D03*
X0196000Y0051000D03*
X0159750Y0037250D03*
X0122250Y0023500D03*
X0161000Y0009750D03*
X0233500Y0064750D03*
X0289750Y0106000D03*
X0279750Y0136000D03*
X0264750Y0151000D03*
X0303500Y0164750D03*
X0318500Y0179750D03*
X0352250Y0101000D03*
X0168500Y0147250D03*
X0166000Y0144750D03*
X0168500Y0164750D03*
X0126000Y0112250D03*
X0156000Y0102250D03*
M02*
