G75*
%MOIN*%
%OFA0B0*%
%FSLAX25Y25*%
%IPPOS*%
%LPD*%
%AMOC8*
5,1,8,0,0,1.08239X$1,22.5*
%
%ADD10C,0.00000*%
%ADD11C,0.00600*%
%ADD12C,0.02000*%
%ADD13C,0.01600*%
%ADD14C,0.00800*%
%ADD15C,0.00500*%
%ADD16C,0.01000*%
D10*
X0015142Y0001000D02*
X0381445Y0001000D01*
X0381765Y0001004D01*
X0382085Y0001015D01*
X0382405Y0001035D01*
X0382724Y0001062D01*
X0383043Y0001097D01*
X0383360Y0001139D01*
X0383677Y0001189D01*
X0383992Y0001247D01*
X0384305Y0001312D01*
X0384617Y0001385D01*
X0384927Y0001466D01*
X0385235Y0001553D01*
X0385541Y0001649D01*
X0385844Y0001751D01*
X0386145Y0001861D01*
X0386443Y0001979D01*
X0386739Y0002103D01*
X0387031Y0002234D01*
X0387320Y0002373D01*
X0387605Y0002518D01*
X0387887Y0002671D01*
X0388165Y0002830D01*
X0388439Y0002995D01*
X0388709Y0003168D01*
X0388975Y0003346D01*
X0389236Y0003531D01*
X0389493Y0003723D01*
X0389745Y0003920D01*
X0389992Y0004124D01*
X0390235Y0004333D01*
X0390472Y0004549D01*
X0390704Y0004770D01*
X0390930Y0004996D01*
X0391151Y0005228D01*
X0391367Y0005465D01*
X0391576Y0005708D01*
X0391780Y0005955D01*
X0391977Y0006207D01*
X0392169Y0006464D01*
X0392354Y0006725D01*
X0392532Y0006991D01*
X0392705Y0007261D01*
X0392870Y0007535D01*
X0393029Y0007813D01*
X0393182Y0008095D01*
X0393327Y0008380D01*
X0393466Y0008669D01*
X0393597Y0008961D01*
X0393721Y0009257D01*
X0393839Y0009555D01*
X0393949Y0009856D01*
X0394051Y0010159D01*
X0394147Y0010465D01*
X0394234Y0010773D01*
X0394315Y0011083D01*
X0394388Y0011395D01*
X0394453Y0011708D01*
X0394511Y0012023D01*
X0394561Y0012340D01*
X0394603Y0012657D01*
X0394638Y0012976D01*
X0394665Y0013295D01*
X0394685Y0013615D01*
X0394696Y0013935D01*
X0394700Y0014255D01*
X0394701Y0014255D02*
X0394701Y0265945D01*
X0394698Y0266187D01*
X0394689Y0266429D01*
X0394675Y0266671D01*
X0394654Y0266912D01*
X0394628Y0267152D01*
X0394596Y0267392D01*
X0394558Y0267631D01*
X0394514Y0267869D01*
X0394465Y0268106D01*
X0394410Y0268342D01*
X0394349Y0268576D01*
X0394283Y0268809D01*
X0394211Y0269040D01*
X0394133Y0269269D01*
X0394050Y0269497D01*
X0393962Y0269722D01*
X0393868Y0269945D01*
X0393768Y0270166D01*
X0393664Y0270384D01*
X0393554Y0270600D01*
X0393439Y0270813D01*
X0393318Y0271023D01*
X0393193Y0271230D01*
X0393063Y0271434D01*
X0392928Y0271635D01*
X0392788Y0271832D01*
X0392643Y0272026D01*
X0392494Y0272217D01*
X0392340Y0272404D01*
X0392182Y0272587D01*
X0392019Y0272766D01*
X0391852Y0272941D01*
X0391681Y0273112D01*
X0391506Y0273279D01*
X0391327Y0273442D01*
X0391144Y0273600D01*
X0390957Y0273754D01*
X0390766Y0273903D01*
X0390572Y0274048D01*
X0390375Y0274188D01*
X0390174Y0274323D01*
X0389970Y0274453D01*
X0389763Y0274578D01*
X0389553Y0274699D01*
X0389340Y0274814D01*
X0389124Y0274924D01*
X0388906Y0275028D01*
X0388685Y0275128D01*
X0388462Y0275222D01*
X0388237Y0275310D01*
X0388009Y0275393D01*
X0387780Y0275471D01*
X0387549Y0275543D01*
X0387316Y0275609D01*
X0387082Y0275670D01*
X0386846Y0275725D01*
X0386609Y0275774D01*
X0386371Y0275818D01*
X0386132Y0275856D01*
X0385892Y0275888D01*
X0385652Y0275914D01*
X0385411Y0275935D01*
X0385169Y0275949D01*
X0384927Y0275958D01*
X0384685Y0275961D01*
X0012163Y0275961D01*
X0011893Y0275958D01*
X0011624Y0275948D01*
X0011354Y0275932D01*
X0011086Y0275909D01*
X0010817Y0275880D01*
X0010550Y0275844D01*
X0010284Y0275802D01*
X0010018Y0275753D01*
X0009754Y0275698D01*
X0009492Y0275637D01*
X0009230Y0275569D01*
X0008971Y0275495D01*
X0008713Y0275415D01*
X0008458Y0275328D01*
X0008205Y0275236D01*
X0007953Y0275137D01*
X0007705Y0275032D01*
X0007459Y0274921D01*
X0007216Y0274805D01*
X0006975Y0274682D01*
X0006738Y0274554D01*
X0006504Y0274420D01*
X0006273Y0274281D01*
X0006046Y0274136D01*
X0005822Y0273985D01*
X0005602Y0273829D01*
X0005385Y0273668D01*
X0005173Y0273502D01*
X0004965Y0273330D01*
X0004761Y0273154D01*
X0004561Y0272972D01*
X0004366Y0272786D01*
X0004175Y0272595D01*
X0003989Y0272400D01*
X0003807Y0272200D01*
X0003631Y0271996D01*
X0003459Y0271788D01*
X0003293Y0271576D01*
X0003132Y0271359D01*
X0002976Y0271139D01*
X0002825Y0270915D01*
X0002680Y0270688D01*
X0002541Y0270457D01*
X0002407Y0270223D01*
X0002279Y0269986D01*
X0002156Y0269745D01*
X0002040Y0269502D01*
X0001929Y0269256D01*
X0001824Y0269008D01*
X0001725Y0268756D01*
X0001633Y0268503D01*
X0001546Y0268248D01*
X0001466Y0267990D01*
X0001392Y0267731D01*
X0001324Y0267469D01*
X0001263Y0267207D01*
X0001208Y0266943D01*
X0001159Y0266677D01*
X0001117Y0266411D01*
X0001081Y0266144D01*
X0001052Y0265875D01*
X0001029Y0265607D01*
X0001013Y0265337D01*
X0001003Y0265068D01*
X0001000Y0264798D01*
X0001000Y0015142D01*
X0001004Y0014800D01*
X0001017Y0014459D01*
X0001037Y0014118D01*
X0001066Y0013777D01*
X0001103Y0013437D01*
X0001148Y0013099D01*
X0001202Y0012761D01*
X0001263Y0012425D01*
X0001333Y0012090D01*
X0001411Y0011758D01*
X0001497Y0011427D01*
X0001590Y0011098D01*
X0001692Y0010772D01*
X0001802Y0010448D01*
X0001919Y0010127D01*
X0002044Y0009809D01*
X0002177Y0009494D01*
X0002317Y0009183D01*
X0002465Y0008874D01*
X0002620Y0008570D01*
X0002782Y0008269D01*
X0002952Y0007973D01*
X0003129Y0007680D01*
X0003313Y0007392D01*
X0003503Y0007108D01*
X0003701Y0006830D01*
X0003905Y0006556D01*
X0004116Y0006286D01*
X0004333Y0006023D01*
X0004557Y0005764D01*
X0004786Y0005511D01*
X0005022Y0005264D01*
X0005264Y0005022D01*
X0005511Y0004786D01*
X0005764Y0004557D01*
X0006023Y0004333D01*
X0006286Y0004116D01*
X0006556Y0003905D01*
X0006830Y0003701D01*
X0007108Y0003503D01*
X0007392Y0003313D01*
X0007680Y0003129D01*
X0007973Y0002952D01*
X0008269Y0002782D01*
X0008570Y0002620D01*
X0008874Y0002465D01*
X0009183Y0002317D01*
X0009494Y0002177D01*
X0009809Y0002044D01*
X0010127Y0001919D01*
X0010448Y0001802D01*
X0010772Y0001692D01*
X0011098Y0001590D01*
X0011427Y0001497D01*
X0011758Y0001411D01*
X0012090Y0001333D01*
X0012425Y0001263D01*
X0012761Y0001202D01*
X0013099Y0001148D01*
X0013437Y0001103D01*
X0013777Y0001066D01*
X0014118Y0001037D01*
X0014459Y0001017D01*
X0014800Y0001004D01*
X0015142Y0001000D01*
D11*
X0008500Y0091000D02*
X0006000Y0093500D01*
X0006000Y0098500D01*
X0008500Y0101000D01*
X0023500Y0101000D01*
X0026000Y0103500D01*
X0026000Y0108500D01*
X0023500Y0111000D01*
X0008500Y0111000D01*
X0006000Y0113500D01*
X0006000Y0118500D01*
X0008500Y0121000D01*
X0023500Y0121000D01*
X0026000Y0123500D01*
X0026000Y0128500D01*
X0023500Y0131000D01*
X0008500Y0131000D01*
X0006000Y0133500D01*
X0006000Y0138500D01*
X0008500Y0141000D01*
X0023500Y0141000D01*
X0026000Y0143500D01*
X0026000Y0148500D01*
X0023500Y0151000D01*
X0008500Y0151000D01*
X0006000Y0153500D01*
X0006000Y0158500D01*
X0008500Y0161000D01*
X0023500Y0161000D01*
X0026000Y0158500D01*
X0026000Y0153500D01*
X0023500Y0151000D01*
X0036000Y0148500D02*
X0038500Y0146000D01*
X0043500Y0146000D01*
X0046000Y0148500D01*
X0046000Y0153500D01*
X0043500Y0156000D01*
X0046000Y0158500D01*
X0046000Y0163500D01*
X0043500Y0166000D01*
X0038500Y0166000D01*
X0036000Y0163500D01*
X0036000Y0158500D01*
X0038500Y0156000D01*
X0043500Y0156000D01*
X0038500Y0156000D02*
X0036000Y0153500D01*
X0036000Y0148500D01*
X0038500Y0146000D02*
X0036000Y0143500D01*
X0036000Y0138500D01*
X0038500Y0136000D01*
X0043500Y0136000D01*
X0046000Y0133500D01*
X0046000Y0128500D01*
X0043500Y0126000D01*
X0046000Y0123500D01*
X0046000Y0118500D01*
X0043500Y0116000D01*
X0038500Y0116000D01*
X0036000Y0118500D01*
X0036000Y0123500D01*
X0038500Y0126000D01*
X0036000Y0128500D01*
X0036000Y0133500D01*
X0038500Y0136000D01*
X0043500Y0136000D02*
X0046000Y0138500D01*
X0046000Y0143500D01*
X0043500Y0146000D01*
X0051300Y0144205D02*
X0054503Y0144205D01*
X0055570Y0143138D01*
X0055570Y0141003D01*
X0054503Y0139935D01*
X0051300Y0139935D01*
X0051300Y0137800D02*
X0051300Y0144205D01*
X0052368Y0147800D02*
X0051300Y0148868D01*
X0052368Y0147800D02*
X0054503Y0147800D01*
X0055570Y0148868D01*
X0055570Y0151003D01*
X0054503Y0152070D01*
X0053435Y0152070D01*
X0051300Y0151003D01*
X0051300Y0154205D01*
X0055570Y0154205D01*
X0057745Y0154205D02*
X0057745Y0149935D01*
X0059881Y0147800D01*
X0062016Y0149935D01*
X0062016Y0154205D01*
X0060948Y0157800D02*
X0057745Y0157800D01*
X0057745Y0164205D01*
X0060948Y0164205D01*
X0062016Y0163138D01*
X0062016Y0158868D01*
X0060948Y0157800D01*
X0064191Y0157800D02*
X0064191Y0158868D01*
X0068461Y0163138D01*
X0068461Y0164205D01*
X0064191Y0164205D01*
X0065259Y0167800D02*
X0064191Y0168868D01*
X0064191Y0171003D01*
X0067394Y0171003D01*
X0068461Y0169935D01*
X0068461Y0168868D01*
X0067394Y0167800D01*
X0065259Y0167800D01*
X0064191Y0171003D02*
X0066326Y0173138D01*
X0068461Y0174205D01*
X0067394Y0177800D02*
X0065259Y0177800D01*
X0064191Y0178868D01*
X0064191Y0181003D02*
X0066326Y0182070D01*
X0067394Y0182070D01*
X0068461Y0181003D01*
X0068461Y0178868D01*
X0067394Y0177800D01*
X0064191Y0181003D02*
X0064191Y0184205D01*
X0068461Y0184205D01*
X0067394Y0187800D02*
X0067394Y0194205D01*
X0064191Y0191003D01*
X0068461Y0191003D01*
X0062016Y0193138D02*
X0060948Y0194205D01*
X0057745Y0194205D01*
X0057745Y0187800D01*
X0060948Y0187800D01*
X0062016Y0188868D01*
X0062016Y0193138D01*
X0060948Y0197800D02*
X0057745Y0197800D01*
X0057745Y0204205D01*
X0060948Y0204205D01*
X0062016Y0203138D01*
X0062016Y0198868D01*
X0060948Y0197800D01*
X0064191Y0198868D02*
X0065259Y0197800D01*
X0067394Y0197800D01*
X0068461Y0198868D01*
X0068461Y0199935D01*
X0067394Y0201003D01*
X0066326Y0201003D01*
X0067394Y0201003D02*
X0068461Y0202070D01*
X0068461Y0203138D01*
X0067394Y0204205D01*
X0065259Y0204205D01*
X0064191Y0203138D01*
X0064191Y0207800D02*
X0068461Y0212070D01*
X0068461Y0213138D01*
X0067394Y0214205D01*
X0065259Y0214205D01*
X0064191Y0213138D01*
X0062016Y0213138D02*
X0060948Y0214205D01*
X0057745Y0214205D01*
X0057745Y0207800D01*
X0060948Y0207800D01*
X0062016Y0208868D01*
X0062016Y0213138D01*
X0064191Y0207800D02*
X0068461Y0207800D01*
X0068461Y0217800D02*
X0064191Y0217800D01*
X0066326Y0217800D02*
X0066326Y0224205D01*
X0064191Y0222070D01*
X0062016Y0223138D02*
X0060948Y0224205D01*
X0057745Y0224205D01*
X0057745Y0217800D01*
X0060948Y0217800D01*
X0062016Y0218868D01*
X0062016Y0223138D01*
X0060948Y0227800D02*
X0057745Y0227800D01*
X0057745Y0234205D01*
X0060948Y0234205D01*
X0062016Y0233138D01*
X0062016Y0228868D01*
X0060948Y0227800D01*
X0064191Y0228868D02*
X0068461Y0233138D01*
X0068461Y0228868D01*
X0067394Y0227800D01*
X0065259Y0227800D01*
X0064191Y0228868D01*
X0064191Y0233138D01*
X0065259Y0234205D01*
X0067394Y0234205D01*
X0068461Y0233138D01*
X0064191Y0237800D02*
X0064191Y0244205D01*
X0068461Y0244205D01*
X0067394Y0247800D02*
X0065259Y0247800D01*
X0064191Y0248868D01*
X0062016Y0249935D02*
X0062016Y0254205D01*
X0064191Y0253138D02*
X0065259Y0254205D01*
X0067394Y0254205D01*
X0068461Y0253138D01*
X0068461Y0252070D01*
X0067394Y0251003D01*
X0068461Y0249935D01*
X0068461Y0248868D01*
X0067394Y0247800D01*
X0067394Y0251003D02*
X0066326Y0251003D01*
X0062016Y0249935D02*
X0059881Y0247800D01*
X0057745Y0249935D01*
X0057745Y0254205D01*
X0055570Y0253138D02*
X0055570Y0252070D01*
X0054503Y0251003D01*
X0055570Y0249935D01*
X0055570Y0248868D01*
X0054503Y0247800D01*
X0052368Y0247800D01*
X0051300Y0248868D01*
X0053435Y0251003D02*
X0054503Y0251003D01*
X0055570Y0253138D02*
X0054503Y0254205D01*
X0052368Y0254205D01*
X0051300Y0253138D01*
X0046000Y0253500D02*
X0046000Y0248500D01*
X0043500Y0246000D01*
X0046000Y0243500D01*
X0046000Y0238500D01*
X0043500Y0236000D01*
X0046000Y0233500D01*
X0046000Y0228500D01*
X0043500Y0226000D01*
X0046000Y0223500D01*
X0046000Y0218500D01*
X0043500Y0216000D01*
X0046000Y0213500D01*
X0046000Y0208500D01*
X0043500Y0206000D01*
X0046000Y0203500D01*
X0046000Y0198500D01*
X0043500Y0196000D01*
X0046000Y0193500D01*
X0046000Y0188500D01*
X0043500Y0186000D01*
X0046000Y0183500D01*
X0046000Y0178500D01*
X0043500Y0176000D01*
X0046000Y0173500D01*
X0046000Y0168500D01*
X0043500Y0166000D01*
X0038500Y0166000D02*
X0036000Y0168500D01*
X0036000Y0173500D01*
X0038500Y0176000D01*
X0036000Y0178500D01*
X0036000Y0183500D01*
X0038500Y0186000D01*
X0036000Y0188500D01*
X0036000Y0193500D01*
X0038500Y0196000D01*
X0043500Y0196000D01*
X0038500Y0196000D02*
X0036000Y0198500D01*
X0036000Y0203500D01*
X0038500Y0206000D01*
X0036000Y0208500D01*
X0036000Y0213500D01*
X0038500Y0216000D01*
X0036000Y0218500D01*
X0036000Y0223500D01*
X0038500Y0226000D01*
X0043500Y0226000D01*
X0038500Y0226000D02*
X0036000Y0228500D01*
X0036000Y0233500D01*
X0038500Y0236000D01*
X0036000Y0238500D01*
X0036000Y0243500D01*
X0038500Y0246000D01*
X0036000Y0248500D01*
X0036000Y0253500D01*
X0038500Y0256000D01*
X0036000Y0258500D01*
X0036000Y0263500D01*
X0038500Y0266000D01*
X0043500Y0266000D01*
X0046000Y0263500D01*
X0046000Y0258500D01*
X0043500Y0256000D01*
X0046000Y0253500D01*
X0043500Y0256000D02*
X0038500Y0256000D01*
X0051300Y0257800D02*
X0051300Y0264205D01*
X0054503Y0264205D01*
X0055570Y0263138D01*
X0055570Y0258868D01*
X0054503Y0257800D01*
X0051300Y0257800D01*
X0057745Y0257800D02*
X0062016Y0257800D01*
X0059881Y0257800D02*
X0059881Y0264205D01*
X0057745Y0262070D01*
X0064191Y0263138D02*
X0065259Y0264205D01*
X0067394Y0264205D01*
X0068461Y0263138D01*
X0068461Y0262070D01*
X0067394Y0261003D01*
X0068461Y0259935D01*
X0068461Y0258868D01*
X0067394Y0257800D01*
X0065259Y0257800D01*
X0064191Y0258868D01*
X0066326Y0261003D02*
X0067394Y0261003D01*
X0062016Y0244205D02*
X0057745Y0244205D01*
X0057745Y0237800D01*
X0062016Y0237800D01*
X0059881Y0241003D02*
X0057745Y0241003D01*
X0055570Y0241003D02*
X0054503Y0239935D01*
X0051300Y0239935D01*
X0051300Y0237800D02*
X0051300Y0244205D01*
X0054503Y0244205D01*
X0055570Y0243138D01*
X0055570Y0241003D01*
X0053435Y0239935D02*
X0055570Y0237800D01*
X0053435Y0234205D02*
X0055570Y0232070D01*
X0055570Y0227800D01*
X0055570Y0231003D02*
X0051300Y0231003D01*
X0051300Y0232070D02*
X0053435Y0234205D01*
X0051300Y0232070D02*
X0051300Y0227800D01*
X0053435Y0224205D02*
X0051300Y0222070D01*
X0051300Y0217800D01*
X0051300Y0221003D02*
X0055570Y0221003D01*
X0055570Y0222070D02*
X0055570Y0217800D01*
X0053435Y0214205D02*
X0055570Y0212070D01*
X0055570Y0207800D01*
X0055570Y0211003D02*
X0051300Y0211003D01*
X0051300Y0212070D02*
X0053435Y0214205D01*
X0051300Y0212070D02*
X0051300Y0207800D01*
X0053435Y0204205D02*
X0055570Y0202070D01*
X0055570Y0197800D01*
X0055570Y0201003D02*
X0051300Y0201003D01*
X0051300Y0202070D02*
X0053435Y0204205D01*
X0051300Y0202070D02*
X0051300Y0197800D01*
X0053435Y0194205D02*
X0055570Y0192070D01*
X0055570Y0187800D01*
X0055570Y0191003D02*
X0051300Y0191003D01*
X0051300Y0192070D02*
X0051300Y0187800D01*
X0053435Y0184205D02*
X0055570Y0182070D01*
X0055570Y0177800D01*
X0057745Y0177800D02*
X0060948Y0177800D01*
X0062016Y0178868D01*
X0062016Y0183138D01*
X0060948Y0184205D01*
X0057745Y0184205D01*
X0057745Y0177800D01*
X0055570Y0181003D02*
X0051300Y0181003D01*
X0051300Y0182070D02*
X0053435Y0184205D01*
X0051300Y0182070D02*
X0051300Y0177800D01*
X0053435Y0174205D02*
X0051300Y0172070D01*
X0051300Y0167800D01*
X0051300Y0171003D02*
X0055570Y0171003D01*
X0055570Y0172070D02*
X0055570Y0167800D01*
X0057745Y0167800D02*
X0060948Y0167800D01*
X0062016Y0168868D01*
X0062016Y0173138D01*
X0060948Y0174205D01*
X0057745Y0174205D01*
X0057745Y0167800D01*
X0053435Y0164205D02*
X0055570Y0162070D01*
X0055570Y0157800D01*
X0051300Y0157800D02*
X0051300Y0162070D01*
X0053435Y0164205D01*
X0051300Y0161003D02*
X0055570Y0161003D01*
X0055570Y0172070D02*
X0053435Y0174205D01*
X0043500Y0176000D02*
X0038500Y0176000D01*
X0026000Y0173500D02*
X0026000Y0178500D01*
X0023500Y0181000D01*
X0026000Y0183500D01*
X0026000Y0188500D01*
X0023500Y0191000D01*
X0008500Y0191000D01*
X0006000Y0188500D01*
X0006000Y0183500D01*
X0008500Y0181000D01*
X0023500Y0181000D01*
X0026000Y0173500D02*
X0023500Y0171000D01*
X0008500Y0171000D01*
X0006000Y0173500D01*
X0006000Y0178500D01*
X0008500Y0181000D01*
X0008500Y0171000D02*
X0006000Y0168500D01*
X0006000Y0163500D01*
X0008500Y0161000D01*
X0023500Y0161000D02*
X0026000Y0163500D01*
X0026000Y0168500D01*
X0023500Y0171000D01*
X0038500Y0186000D02*
X0043500Y0186000D01*
X0051300Y0192070D02*
X0053435Y0194205D01*
X0043500Y0206000D02*
X0038500Y0206000D01*
X0038500Y0216000D02*
X0043500Y0216000D01*
X0053435Y0224205D02*
X0055570Y0222070D01*
X0043500Y0236000D02*
X0038500Y0236000D01*
X0038500Y0246000D02*
X0043500Y0246000D01*
X0064191Y0241003D02*
X0066326Y0241003D01*
X0096300Y0244205D02*
X0096300Y0237800D01*
X0099503Y0237800D01*
X0100570Y0238868D01*
X0100570Y0243138D01*
X0099503Y0244205D01*
X0096300Y0244205D01*
X0096300Y0247800D02*
X0099503Y0247800D01*
X0100570Y0248868D01*
X0100570Y0253138D01*
X0099503Y0254205D01*
X0096300Y0254205D01*
X0096300Y0247800D01*
X0102745Y0247800D02*
X0107016Y0247800D01*
X0104881Y0247800D02*
X0104881Y0254205D01*
X0102745Y0252070D01*
X0102745Y0257800D02*
X0107016Y0257800D01*
X0104881Y0257800D02*
X0104881Y0264205D01*
X0102745Y0262070D01*
X0100570Y0263138D02*
X0099503Y0264205D01*
X0096300Y0264205D01*
X0096300Y0257800D01*
X0099503Y0257800D01*
X0100570Y0258868D01*
X0100570Y0263138D01*
X0109191Y0263138D02*
X0110259Y0264205D01*
X0112394Y0264205D01*
X0113461Y0263138D01*
X0113461Y0262070D01*
X0109191Y0257800D01*
X0113461Y0257800D01*
X0116000Y0258500D02*
X0116000Y0263500D01*
X0118500Y0266000D01*
X0123500Y0266000D01*
X0126000Y0263500D01*
X0126000Y0258500D01*
X0123500Y0256000D01*
X0126000Y0253500D01*
X0126000Y0248500D01*
X0123500Y0246000D01*
X0126000Y0243500D01*
X0126000Y0238500D01*
X0123500Y0236000D01*
X0126000Y0233500D01*
X0126000Y0228500D01*
X0123500Y0226000D01*
X0126000Y0223500D01*
X0126000Y0218500D01*
X0123500Y0216000D01*
X0126000Y0213500D01*
X0126000Y0208500D01*
X0123500Y0206000D01*
X0126000Y0203500D01*
X0126000Y0198500D01*
X0123500Y0196000D01*
X0126000Y0193500D01*
X0126000Y0188500D01*
X0123500Y0186000D01*
X0126000Y0183500D01*
X0126000Y0178500D01*
X0123500Y0176000D01*
X0126000Y0173500D01*
X0126000Y0168500D01*
X0123500Y0166000D01*
X0126000Y0163500D01*
X0126000Y0158500D01*
X0123500Y0156000D01*
X0126000Y0153500D01*
X0126000Y0148500D01*
X0123500Y0146000D01*
X0126000Y0143500D01*
X0126000Y0138500D01*
X0123500Y0136000D01*
X0126000Y0133500D01*
X0126000Y0128500D01*
X0123500Y0126000D01*
X0126000Y0123500D01*
X0126000Y0118500D01*
X0123500Y0116000D01*
X0118500Y0116000D01*
X0116000Y0118500D01*
X0116000Y0123500D01*
X0118500Y0126000D01*
X0116000Y0128500D01*
X0116000Y0133500D01*
X0118500Y0136000D01*
X0123500Y0136000D01*
X0118500Y0136000D02*
X0116000Y0138500D01*
X0116000Y0143500D01*
X0118500Y0146000D01*
X0116000Y0148500D01*
X0116000Y0153500D01*
X0118500Y0156000D01*
X0116000Y0158500D01*
X0116000Y0163500D01*
X0118500Y0166000D01*
X0123500Y0166000D01*
X0118500Y0166000D02*
X0116000Y0168500D01*
X0116000Y0173500D01*
X0118500Y0176000D01*
X0116000Y0178500D01*
X0116000Y0183500D01*
X0118500Y0186000D01*
X0116000Y0188500D01*
X0116000Y0193500D01*
X0118500Y0196000D01*
X0123500Y0196000D01*
X0118500Y0196000D02*
X0116000Y0198500D01*
X0116000Y0203500D01*
X0118500Y0206000D01*
X0116000Y0208500D01*
X0116000Y0213500D01*
X0118500Y0216000D01*
X0116000Y0218500D01*
X0116000Y0223500D01*
X0118500Y0226000D01*
X0123500Y0226000D01*
X0118500Y0226000D02*
X0116000Y0228500D01*
X0116000Y0233500D01*
X0118500Y0236000D01*
X0116000Y0238500D01*
X0116000Y0243500D01*
X0118500Y0246000D01*
X0116000Y0248500D01*
X0116000Y0253500D01*
X0118500Y0256000D01*
X0116000Y0258500D01*
X0118500Y0256000D02*
X0123500Y0256000D01*
X0111326Y0254205D02*
X0111326Y0247800D01*
X0109191Y0247800D02*
X0113461Y0247800D01*
X0112394Y0244205D02*
X0113461Y0243138D01*
X0109191Y0238868D01*
X0110259Y0237800D01*
X0112394Y0237800D01*
X0113461Y0238868D01*
X0113461Y0243138D01*
X0112394Y0244205D02*
X0110259Y0244205D01*
X0109191Y0243138D01*
X0109191Y0238868D01*
X0107016Y0237800D02*
X0102745Y0237800D01*
X0104881Y0237800D02*
X0104881Y0244205D01*
X0102745Y0242070D01*
X0103813Y0234205D02*
X0102745Y0233138D01*
X0102745Y0232070D01*
X0103813Y0231003D01*
X0107016Y0231003D01*
X0107016Y0228868D02*
X0107016Y0233138D01*
X0105948Y0234205D01*
X0103813Y0234205D01*
X0100570Y0233138D02*
X0099503Y0234205D01*
X0096300Y0234205D01*
X0096300Y0227800D01*
X0099503Y0227800D01*
X0100570Y0228868D01*
X0100570Y0233138D01*
X0102745Y0228868D02*
X0103813Y0227800D01*
X0105948Y0227800D01*
X0107016Y0228868D01*
X0105948Y0224205D02*
X0103813Y0224205D01*
X0102745Y0223138D01*
X0102745Y0222070D01*
X0103813Y0221003D01*
X0105948Y0221003D01*
X0107016Y0219935D01*
X0107016Y0218868D01*
X0105948Y0217800D01*
X0103813Y0217800D01*
X0102745Y0218868D01*
X0102745Y0219935D01*
X0103813Y0221003D01*
X0105948Y0221003D02*
X0107016Y0222070D01*
X0107016Y0223138D01*
X0105948Y0224205D01*
X0100570Y0223138D02*
X0100570Y0218868D01*
X0099503Y0217800D01*
X0096300Y0217800D01*
X0096300Y0224205D01*
X0099503Y0224205D01*
X0100570Y0223138D01*
X0099503Y0214205D02*
X0096300Y0214205D01*
X0096300Y0207800D01*
X0099503Y0207800D01*
X0100570Y0208868D01*
X0100570Y0213138D01*
X0099503Y0214205D01*
X0102745Y0214205D02*
X0107016Y0214205D01*
X0107016Y0213138D01*
X0102745Y0208868D01*
X0102745Y0207800D01*
X0099503Y0204205D02*
X0096300Y0204205D01*
X0096300Y0197800D01*
X0099503Y0197800D01*
X0100570Y0198868D01*
X0100570Y0203138D01*
X0099503Y0204205D01*
X0102745Y0201003D02*
X0105948Y0201003D01*
X0107016Y0199935D01*
X0107016Y0198868D01*
X0105948Y0197800D01*
X0103813Y0197800D01*
X0102745Y0198868D01*
X0102745Y0201003D01*
X0104881Y0203138D01*
X0107016Y0204205D01*
X0107016Y0194205D02*
X0102745Y0194205D01*
X0102745Y0191003D01*
X0104881Y0192070D01*
X0105948Y0192070D01*
X0107016Y0191003D01*
X0107016Y0188868D01*
X0105948Y0187800D01*
X0103813Y0187800D01*
X0102745Y0188868D01*
X0100570Y0188868D02*
X0100570Y0193138D01*
X0099503Y0194205D01*
X0096300Y0194205D01*
X0096300Y0187800D01*
X0099503Y0187800D01*
X0100570Y0188868D01*
X0099503Y0184205D02*
X0096300Y0184205D01*
X0096300Y0177800D01*
X0099503Y0177800D01*
X0100570Y0178868D01*
X0100570Y0183138D01*
X0099503Y0184205D01*
X0102745Y0181003D02*
X0107016Y0181003D01*
X0105948Y0184205D02*
X0105948Y0177800D01*
X0102745Y0181003D02*
X0105948Y0184205D01*
X0118500Y0186000D02*
X0123500Y0186000D01*
X0136300Y0183868D02*
X0137368Y0182800D01*
X0139503Y0182800D01*
X0140570Y0183868D01*
X0140570Y0186003D01*
X0138435Y0186003D01*
X0136300Y0188138D02*
X0136300Y0183868D01*
X0136300Y0188138D02*
X0137368Y0189205D01*
X0139503Y0189205D01*
X0140570Y0188138D01*
X0142745Y0189205D02*
X0142745Y0182800D01*
X0147016Y0182800D02*
X0147016Y0189205D01*
X0149191Y0189205D02*
X0152394Y0189205D01*
X0153461Y0188138D01*
X0153461Y0183868D01*
X0152394Y0182800D01*
X0149191Y0182800D01*
X0149191Y0189205D01*
X0144881Y0192800D02*
X0147016Y0194935D01*
X0147016Y0199205D01*
X0142745Y0199205D02*
X0142745Y0194935D01*
X0144881Y0192800D01*
X0142745Y0189205D02*
X0147016Y0182800D01*
X0147016Y0179205D02*
X0147016Y0172800D01*
X0142745Y0179205D01*
X0142745Y0172800D01*
X0140570Y0173868D02*
X0140570Y0176003D01*
X0138435Y0176003D01*
X0136300Y0178138D02*
X0136300Y0173868D01*
X0137368Y0172800D01*
X0139503Y0172800D01*
X0140570Y0173868D01*
X0140570Y0169205D02*
X0140570Y0164935D01*
X0138435Y0162800D01*
X0136300Y0164935D01*
X0136300Y0169205D01*
X0142745Y0169205D02*
X0144881Y0169205D01*
X0143813Y0169205D02*
X0143813Y0162800D01*
X0142745Y0162800D02*
X0144881Y0162800D01*
X0147042Y0162800D02*
X0147042Y0169205D01*
X0151313Y0162800D01*
X0151313Y0169205D01*
X0152394Y0172800D02*
X0153461Y0173868D01*
X0153461Y0178138D01*
X0152394Y0179205D01*
X0149191Y0179205D01*
X0149191Y0172800D01*
X0152394Y0172800D01*
X0156000Y0173500D02*
X0156000Y0178500D01*
X0158500Y0181000D01*
X0156000Y0183500D01*
X0156000Y0188500D01*
X0158500Y0191000D01*
X0156000Y0193500D01*
X0156000Y0198500D01*
X0158500Y0201000D01*
X0156000Y0203500D01*
X0156000Y0208500D01*
X0158500Y0211000D01*
X0156000Y0213500D01*
X0156000Y0218500D01*
X0158500Y0221000D01*
X0156000Y0223500D01*
X0156000Y0228500D01*
X0158500Y0231000D01*
X0156000Y0233500D01*
X0156000Y0238500D01*
X0158500Y0241000D01*
X0163500Y0241000D01*
X0166000Y0238500D01*
X0166000Y0233500D01*
X0163500Y0231000D01*
X0166000Y0228500D01*
X0166000Y0223500D01*
X0163500Y0221000D01*
X0158500Y0221000D01*
X0163500Y0221000D02*
X0166000Y0218500D01*
X0166000Y0213500D01*
X0163500Y0211000D01*
X0166000Y0208500D01*
X0166000Y0203500D01*
X0163500Y0201000D01*
X0166000Y0198500D01*
X0166000Y0193500D01*
X0163500Y0191000D01*
X0158500Y0191000D01*
X0163500Y0191000D02*
X0166000Y0188500D01*
X0166000Y0183500D01*
X0163500Y0181000D01*
X0166000Y0178500D01*
X0166000Y0173500D01*
X0163500Y0171000D01*
X0166000Y0168500D01*
X0166000Y0163500D01*
X0163500Y0161000D01*
X0158500Y0161000D01*
X0156000Y0163500D01*
X0156000Y0168500D01*
X0158500Y0171000D01*
X0156000Y0173500D01*
X0158500Y0171000D02*
X0163500Y0171000D01*
X0163500Y0181000D02*
X0158500Y0181000D01*
X0140570Y0178138D02*
X0139503Y0179205D01*
X0137368Y0179205D01*
X0136300Y0178138D01*
X0123500Y0176000D02*
X0118500Y0176000D01*
X0107016Y0173138D02*
X0107016Y0172070D01*
X0105948Y0171003D01*
X0107016Y0169935D01*
X0107016Y0168868D01*
X0105948Y0167800D01*
X0103813Y0167800D01*
X0102745Y0168868D01*
X0100570Y0168868D02*
X0100570Y0173138D01*
X0099503Y0174205D01*
X0096300Y0174205D01*
X0096300Y0167800D01*
X0099503Y0167800D01*
X0100570Y0168868D01*
X0099503Y0164205D02*
X0096300Y0164205D01*
X0096300Y0157800D01*
X0099503Y0157800D01*
X0100570Y0158868D01*
X0100570Y0163138D01*
X0099503Y0164205D01*
X0102745Y0163138D02*
X0103813Y0164205D01*
X0105948Y0164205D01*
X0107016Y0163138D01*
X0107016Y0162070D01*
X0102745Y0157800D01*
X0107016Y0157800D01*
X0107016Y0154205D02*
X0107016Y0147800D01*
X0102745Y0154205D01*
X0102745Y0147800D01*
X0100570Y0148868D02*
X0100570Y0151003D01*
X0098435Y0151003D01*
X0096300Y0153138D02*
X0096300Y0148868D01*
X0097368Y0147800D01*
X0099503Y0147800D01*
X0100570Y0148868D01*
X0099503Y0144205D02*
X0100570Y0143138D01*
X0100570Y0141003D01*
X0099503Y0139935D01*
X0096300Y0139935D01*
X0096300Y0137800D02*
X0096300Y0144205D01*
X0099503Y0144205D01*
X0102745Y0143138D02*
X0102745Y0142070D01*
X0103813Y0141003D01*
X0105948Y0141003D01*
X0107016Y0139935D01*
X0107016Y0138868D01*
X0105948Y0137800D01*
X0103813Y0137800D01*
X0102745Y0138868D01*
X0100570Y0137800D02*
X0098435Y0139935D01*
X0102745Y0143138D02*
X0103813Y0144205D01*
X0105948Y0144205D01*
X0107016Y0143138D01*
X0109191Y0144205D02*
X0113461Y0144205D01*
X0111326Y0144205D02*
X0111326Y0137800D01*
X0107016Y0133138D02*
X0102745Y0128868D01*
X0103813Y0127800D01*
X0105948Y0127800D01*
X0107016Y0128868D01*
X0107016Y0133138D01*
X0105948Y0134205D01*
X0103813Y0134205D01*
X0102745Y0133138D01*
X0102745Y0128868D01*
X0100570Y0128868D02*
X0100570Y0133138D01*
X0099503Y0134205D01*
X0096300Y0134205D01*
X0096300Y0127800D01*
X0099503Y0127800D01*
X0100570Y0128868D01*
X0099503Y0124205D02*
X0096300Y0124205D01*
X0096300Y0117800D01*
X0099503Y0117800D01*
X0100570Y0118868D01*
X0100570Y0123138D01*
X0099503Y0124205D01*
X0102745Y0122070D02*
X0104881Y0124205D01*
X0104881Y0117800D01*
X0107016Y0117800D02*
X0102745Y0117800D01*
X0118500Y0126000D02*
X0123500Y0126000D01*
X0136300Y0126003D02*
X0140570Y0126003D01*
X0140570Y0127070D02*
X0140570Y0122800D01*
X0142745Y0122800D02*
X0145948Y0122800D01*
X0147016Y0123868D01*
X0147016Y0128138D01*
X0145948Y0129205D01*
X0142745Y0129205D01*
X0142745Y0122800D01*
X0142745Y0119205D02*
X0145948Y0119205D01*
X0147016Y0118138D01*
X0147016Y0113868D01*
X0145948Y0112800D01*
X0142745Y0112800D01*
X0142745Y0119205D01*
X0140570Y0117070D02*
X0140570Y0112800D01*
X0140570Y0116003D02*
X0136300Y0116003D01*
X0136300Y0117070D02*
X0136300Y0112800D01*
X0138435Y0109205D02*
X0140570Y0107070D01*
X0140570Y0102800D01*
X0142745Y0102800D02*
X0145948Y0102800D01*
X0147016Y0103868D01*
X0147016Y0108138D01*
X0145948Y0109205D01*
X0142745Y0109205D01*
X0142745Y0102800D01*
X0140570Y0106003D02*
X0136300Y0106003D01*
X0136300Y0107070D02*
X0138435Y0109205D01*
X0136300Y0107070D02*
X0136300Y0102800D01*
X0138435Y0099205D02*
X0136300Y0097070D01*
X0136300Y0092800D01*
X0136300Y0096003D02*
X0140570Y0096003D01*
X0140570Y0097070D02*
X0138435Y0099205D01*
X0140570Y0097070D02*
X0140570Y0092800D01*
X0142745Y0092800D02*
X0145948Y0092800D01*
X0147016Y0093868D01*
X0147016Y0098138D01*
X0145948Y0099205D01*
X0142745Y0099205D01*
X0142745Y0092800D01*
X0149191Y0093868D02*
X0150259Y0092800D01*
X0152394Y0092800D01*
X0153461Y0093868D01*
X0153461Y0096003D01*
X0152394Y0097070D01*
X0151326Y0097070D01*
X0149191Y0096003D01*
X0149191Y0099205D01*
X0153461Y0099205D01*
X0156000Y0098500D02*
X0156000Y0093500D01*
X0158500Y0091000D01*
X0163500Y0091000D01*
X0166000Y0093500D01*
X0166000Y0098500D01*
X0163500Y0101000D01*
X0158500Y0101000D01*
X0156000Y0098500D01*
X0158500Y0101000D02*
X0156000Y0103500D01*
X0156000Y0108500D01*
X0158500Y0111000D01*
X0156000Y0113500D01*
X0156000Y0118500D01*
X0158500Y0121000D01*
X0156000Y0123500D01*
X0156000Y0128500D01*
X0158500Y0131000D01*
X0156000Y0133500D01*
X0156000Y0138500D01*
X0158500Y0141000D01*
X0156000Y0143500D01*
X0156000Y0148500D01*
X0158500Y0151000D01*
X0163500Y0151000D01*
X0166000Y0148500D01*
X0166000Y0143500D01*
X0163500Y0141000D01*
X0166000Y0138500D01*
X0166000Y0133500D01*
X0163500Y0131000D01*
X0158500Y0131000D01*
X0163500Y0131000D02*
X0166000Y0128500D01*
X0166000Y0123500D01*
X0163500Y0121000D01*
X0166000Y0118500D01*
X0166000Y0113500D01*
X0163500Y0111000D01*
X0166000Y0108500D01*
X0166000Y0103500D01*
X0163500Y0101000D01*
X0153461Y0106003D02*
X0149191Y0106003D01*
X0152394Y0109205D01*
X0152394Y0102800D01*
X0152394Y0112800D02*
X0150259Y0112800D01*
X0149191Y0113868D01*
X0151326Y0116003D02*
X0152394Y0116003D01*
X0153461Y0114935D01*
X0153461Y0113868D01*
X0152394Y0112800D01*
X0152394Y0116003D02*
X0153461Y0117070D01*
X0153461Y0118138D01*
X0152394Y0119205D01*
X0150259Y0119205D01*
X0149191Y0118138D01*
X0149191Y0122800D02*
X0153461Y0127070D01*
X0153461Y0128138D01*
X0152394Y0129205D01*
X0150259Y0129205D01*
X0149191Y0128138D01*
X0149191Y0132800D02*
X0153461Y0132800D01*
X0151326Y0132800D02*
X0151326Y0139205D01*
X0149191Y0137070D01*
X0147016Y0138138D02*
X0147016Y0133868D01*
X0145948Y0132800D01*
X0142745Y0132800D01*
X0142745Y0139205D01*
X0145948Y0139205D01*
X0147016Y0138138D01*
X0140570Y0137070D02*
X0140570Y0132800D01*
X0138435Y0129205D02*
X0140570Y0127070D01*
X0138435Y0129205D02*
X0136300Y0127070D01*
X0136300Y0122800D01*
X0138435Y0119205D02*
X0140570Y0117070D01*
X0138435Y0119205D02*
X0136300Y0117070D01*
X0149191Y0122800D02*
X0153461Y0122800D01*
X0158500Y0121000D02*
X0163500Y0121000D01*
X0163500Y0111000D02*
X0158500Y0111000D01*
X0136300Y0132800D02*
X0136300Y0137070D01*
X0138435Y0139205D01*
X0140570Y0137070D01*
X0140570Y0136003D02*
X0136300Y0136003D01*
X0136300Y0142800D02*
X0136300Y0147070D01*
X0138435Y0149205D01*
X0140570Y0147070D01*
X0140570Y0142800D01*
X0142745Y0142800D02*
X0145948Y0142800D01*
X0147016Y0143868D01*
X0147016Y0148138D01*
X0145948Y0149205D01*
X0142745Y0149205D01*
X0142745Y0142800D01*
X0140570Y0146003D02*
X0136300Y0146003D01*
X0123500Y0146000D02*
X0118500Y0146000D01*
X0113461Y0148868D02*
X0113461Y0153138D01*
X0112394Y0154205D01*
X0109191Y0154205D01*
X0109191Y0147800D01*
X0112394Y0147800D01*
X0113461Y0148868D01*
X0118500Y0156000D02*
X0123500Y0156000D01*
X0105948Y0171003D02*
X0104881Y0171003D01*
X0107016Y0173138D02*
X0105948Y0174205D01*
X0103813Y0174205D01*
X0102745Y0173138D01*
X0099503Y0154205D02*
X0097368Y0154205D01*
X0096300Y0153138D01*
X0099503Y0154205D02*
X0100570Y0153138D01*
X0068461Y0144205D02*
X0064191Y0144205D01*
X0066326Y0144205D02*
X0066326Y0137800D01*
X0067394Y0134205D02*
X0064191Y0134205D01*
X0064191Y0127800D01*
X0067394Y0127800D01*
X0068461Y0128868D01*
X0068461Y0133138D01*
X0067394Y0134205D01*
X0062016Y0134205D02*
X0062016Y0127800D01*
X0057745Y0134205D01*
X0057745Y0127800D01*
X0055570Y0128868D02*
X0055570Y0131003D01*
X0053435Y0131003D01*
X0051300Y0133138D02*
X0051300Y0128868D01*
X0052368Y0127800D01*
X0054503Y0127800D01*
X0055570Y0128868D01*
X0055570Y0133138D02*
X0054503Y0134205D01*
X0052368Y0134205D01*
X0051300Y0133138D01*
X0055570Y0137800D02*
X0053435Y0139935D01*
X0057745Y0138868D02*
X0058813Y0137800D01*
X0060948Y0137800D01*
X0062016Y0138868D01*
X0062016Y0139935D01*
X0060948Y0141003D01*
X0058813Y0141003D01*
X0057745Y0142070D01*
X0057745Y0143138D01*
X0058813Y0144205D01*
X0060948Y0144205D01*
X0062016Y0143138D01*
X0043500Y0126000D02*
X0038500Y0126000D01*
X0051300Y0124205D02*
X0051300Y0119935D01*
X0053435Y0117800D01*
X0055570Y0119935D01*
X0055570Y0124205D01*
X0057745Y0124205D02*
X0059881Y0124205D01*
X0058813Y0124205D02*
X0058813Y0117800D01*
X0057745Y0117800D02*
X0059881Y0117800D01*
X0062042Y0117800D02*
X0062042Y0124205D01*
X0066313Y0117800D01*
X0066313Y0124205D01*
X0026000Y0118500D02*
X0026000Y0113500D01*
X0023500Y0111000D01*
X0026000Y0118500D02*
X0023500Y0121000D01*
X0008500Y0121000D02*
X0006000Y0123500D01*
X0006000Y0128500D01*
X0008500Y0131000D01*
X0008500Y0141000D02*
X0006000Y0143500D01*
X0006000Y0148500D01*
X0008500Y0151000D01*
X0023500Y0141000D02*
X0026000Y0138500D01*
X0026000Y0133500D01*
X0023500Y0131000D01*
X0008500Y0111000D02*
X0006000Y0108500D01*
X0006000Y0103500D01*
X0008500Y0101000D01*
X0023500Y0101000D02*
X0026000Y0098500D01*
X0026000Y0093500D01*
X0023500Y0091000D01*
X0008500Y0091000D01*
X0149191Y0143868D02*
X0153461Y0148138D01*
X0153461Y0143868D01*
X0152394Y0142800D01*
X0150259Y0142800D01*
X0149191Y0143868D01*
X0149191Y0148138D01*
X0150259Y0149205D01*
X0152394Y0149205D01*
X0153461Y0148138D01*
X0158500Y0141000D02*
X0163500Y0141000D01*
X0139503Y0192800D02*
X0137368Y0192800D01*
X0136300Y0193868D01*
X0136300Y0196003D02*
X0138435Y0197070D01*
X0139503Y0197070D01*
X0140570Y0196003D01*
X0140570Y0193868D01*
X0139503Y0192800D01*
X0136300Y0196003D02*
X0136300Y0199205D01*
X0140570Y0199205D01*
X0139503Y0202800D02*
X0137368Y0202800D01*
X0136300Y0203868D01*
X0138435Y0206003D02*
X0139503Y0206003D01*
X0140570Y0204935D01*
X0140570Y0203868D01*
X0139503Y0202800D01*
X0139503Y0206003D02*
X0140570Y0207070D01*
X0140570Y0208138D01*
X0139503Y0209205D01*
X0137368Y0209205D01*
X0136300Y0208138D01*
X0136300Y0212800D02*
X0136300Y0219205D01*
X0139503Y0219205D01*
X0140570Y0218138D01*
X0140570Y0216003D01*
X0139503Y0214935D01*
X0136300Y0214935D01*
X0138435Y0214935D02*
X0140570Y0212800D01*
X0142745Y0213868D02*
X0143813Y0212800D01*
X0145948Y0212800D01*
X0147016Y0213868D01*
X0147016Y0214935D01*
X0145948Y0216003D01*
X0143813Y0216003D01*
X0142745Y0217070D01*
X0142745Y0218138D01*
X0143813Y0219205D01*
X0145948Y0219205D01*
X0147016Y0218138D01*
X0149191Y0219205D02*
X0153461Y0219205D01*
X0151326Y0219205D02*
X0151326Y0212800D01*
X0150259Y0209205D02*
X0152394Y0209205D01*
X0153461Y0208138D01*
X0153461Y0207070D01*
X0152394Y0206003D01*
X0153461Y0204935D01*
X0153461Y0203868D01*
X0152394Y0202800D01*
X0150259Y0202800D01*
X0149191Y0203868D01*
X0147016Y0204935D02*
X0147016Y0209205D01*
X0149191Y0208138D02*
X0150259Y0209205D01*
X0151326Y0206003D02*
X0152394Y0206003D01*
X0147016Y0204935D02*
X0144881Y0202800D01*
X0142745Y0204935D01*
X0142745Y0209205D01*
X0158500Y0211000D02*
X0163500Y0211000D01*
X0163500Y0201000D02*
X0158500Y0201000D01*
X0144881Y0222800D02*
X0147016Y0224935D01*
X0147016Y0229205D01*
X0142745Y0229205D02*
X0142745Y0224935D01*
X0144881Y0222800D01*
X0140570Y0223868D02*
X0140570Y0226003D01*
X0139503Y0227070D01*
X0138435Y0227070D01*
X0136300Y0226003D01*
X0136300Y0229205D01*
X0140570Y0229205D01*
X0140570Y0223868D02*
X0139503Y0222800D01*
X0137368Y0222800D01*
X0136300Y0223868D01*
X0123500Y0216000D02*
X0118500Y0216000D01*
X0118500Y0206000D02*
X0123500Y0206000D01*
X0158500Y0231000D02*
X0163500Y0231000D01*
X0123500Y0236000D02*
X0118500Y0236000D01*
X0118500Y0246000D02*
X0123500Y0246000D01*
X0111326Y0254205D02*
X0109191Y0252070D01*
X0351000Y0253500D02*
X0351000Y0258500D01*
X0353500Y0261000D01*
X0351000Y0263500D01*
X0351000Y0268500D01*
X0353500Y0271000D01*
X0358500Y0271000D01*
X0361000Y0268500D01*
X0361000Y0263500D01*
X0358500Y0261000D01*
X0361000Y0258500D01*
X0361000Y0253500D01*
X0358500Y0251000D01*
X0361000Y0248500D01*
X0361000Y0243500D01*
X0358500Y0241000D01*
X0361000Y0238500D01*
X0361000Y0233500D01*
X0358500Y0231000D01*
X0361000Y0228500D01*
X0361000Y0223500D01*
X0358500Y0221000D01*
X0361000Y0218500D01*
X0361000Y0213500D01*
X0358500Y0211000D01*
X0361000Y0208500D01*
X0361000Y0203500D01*
X0358500Y0201000D01*
X0361000Y0198500D01*
X0361000Y0193500D01*
X0358500Y0191000D01*
X0361000Y0188500D01*
X0361000Y0183500D01*
X0358500Y0181000D01*
X0361000Y0178500D01*
X0361000Y0173500D01*
X0358500Y0171000D01*
X0353500Y0171000D01*
X0351000Y0173500D01*
X0351000Y0178500D01*
X0353500Y0181000D01*
X0351000Y0183500D01*
X0351000Y0188500D01*
X0353500Y0191000D01*
X0358500Y0191000D01*
X0353500Y0191000D02*
X0351000Y0193500D01*
X0351000Y0198500D01*
X0353500Y0201000D01*
X0351000Y0203500D01*
X0351000Y0208500D01*
X0353500Y0211000D01*
X0351000Y0213500D01*
X0351000Y0218500D01*
X0353500Y0221000D01*
X0358500Y0221000D01*
X0353500Y0221000D02*
X0351000Y0223500D01*
X0351000Y0228500D01*
X0353500Y0231000D01*
X0351000Y0233500D01*
X0351000Y0238500D01*
X0353500Y0241000D01*
X0351000Y0243500D01*
X0351000Y0248500D01*
X0353500Y0251000D01*
X0358500Y0251000D01*
X0353500Y0251000D02*
X0351000Y0253500D01*
X0353500Y0261000D02*
X0358500Y0261000D01*
X0366300Y0262800D02*
X0366300Y0267070D01*
X0368435Y0269205D01*
X0370570Y0267070D01*
X0370570Y0262800D01*
X0372745Y0262800D02*
X0375948Y0262800D01*
X0377016Y0263868D01*
X0377016Y0268138D01*
X0375948Y0269205D01*
X0372745Y0269205D01*
X0372745Y0262800D01*
X0372745Y0259205D02*
X0375948Y0259205D01*
X0377016Y0258138D01*
X0377016Y0253868D01*
X0375948Y0252800D01*
X0372745Y0252800D01*
X0372745Y0259205D01*
X0370570Y0257070D02*
X0370570Y0252800D01*
X0370570Y0256003D02*
X0366300Y0256003D01*
X0366300Y0257070D02*
X0368435Y0259205D01*
X0370570Y0257070D01*
X0366300Y0257070D02*
X0366300Y0252800D01*
X0368435Y0249205D02*
X0370570Y0247070D01*
X0370570Y0242800D01*
X0372745Y0242800D02*
X0372745Y0249205D01*
X0375948Y0249205D01*
X0377016Y0248138D01*
X0377016Y0246003D01*
X0375948Y0244935D01*
X0372745Y0244935D01*
X0374881Y0244935D02*
X0377016Y0242800D01*
X0379191Y0242800D02*
X0383461Y0242800D01*
X0385636Y0242800D02*
X0385636Y0249205D01*
X0389907Y0249205D01*
X0387772Y0246003D02*
X0385636Y0246003D01*
X0383461Y0249205D02*
X0379191Y0249205D01*
X0379191Y0242800D01*
X0379191Y0246003D02*
X0381326Y0246003D01*
X0382394Y0239205D02*
X0379191Y0239205D01*
X0379191Y0232800D01*
X0382394Y0232800D01*
X0383461Y0233868D01*
X0383461Y0238138D01*
X0382394Y0239205D01*
X0377016Y0239205D02*
X0377016Y0232800D01*
X0372745Y0239205D01*
X0372745Y0232800D01*
X0370570Y0233868D02*
X0370570Y0236003D01*
X0368435Y0236003D01*
X0366300Y0238138D02*
X0366300Y0233868D01*
X0367368Y0232800D01*
X0369503Y0232800D01*
X0370570Y0233868D01*
X0370570Y0238138D02*
X0369503Y0239205D01*
X0367368Y0239205D01*
X0366300Y0238138D01*
X0366300Y0242800D02*
X0366300Y0247070D01*
X0368435Y0249205D01*
X0366300Y0246003D02*
X0370570Y0246003D01*
X0358500Y0241000D02*
X0353500Y0241000D01*
X0353500Y0231000D02*
X0358500Y0231000D01*
X0366300Y0229205D02*
X0369503Y0229205D01*
X0370570Y0228138D01*
X0370570Y0223868D01*
X0369503Y0222800D01*
X0366300Y0222800D01*
X0366300Y0229205D01*
X0372745Y0227070D02*
X0374881Y0229205D01*
X0374881Y0222800D01*
X0377016Y0222800D02*
X0372745Y0222800D01*
X0374881Y0219205D02*
X0374881Y0212800D01*
X0377016Y0212800D02*
X0372745Y0212800D01*
X0370570Y0213868D02*
X0369503Y0212800D01*
X0366300Y0212800D01*
X0366300Y0219205D01*
X0369503Y0219205D01*
X0370570Y0218138D01*
X0370570Y0213868D01*
X0372745Y0217070D02*
X0374881Y0219205D01*
X0379191Y0218138D02*
X0380259Y0219205D01*
X0382394Y0219205D01*
X0383461Y0218138D01*
X0383461Y0217070D01*
X0379191Y0212800D01*
X0383461Y0212800D01*
X0381326Y0209205D02*
X0381326Y0202800D01*
X0379191Y0202800D02*
X0383461Y0202800D01*
X0379191Y0207070D02*
X0381326Y0209205D01*
X0374881Y0209205D02*
X0374881Y0202800D01*
X0377016Y0202800D02*
X0372745Y0202800D01*
X0370570Y0203868D02*
X0370570Y0208138D01*
X0369503Y0209205D01*
X0366300Y0209205D01*
X0366300Y0202800D01*
X0369503Y0202800D01*
X0370570Y0203868D01*
X0372745Y0207070D02*
X0374881Y0209205D01*
X0374881Y0199205D02*
X0372745Y0197070D01*
X0370570Y0198138D02*
X0369503Y0199205D01*
X0366300Y0199205D01*
X0366300Y0192800D01*
X0369503Y0192800D01*
X0370570Y0193868D01*
X0370570Y0198138D01*
X0374881Y0199205D02*
X0374881Y0192800D01*
X0377016Y0192800D02*
X0372745Y0192800D01*
X0373813Y0189205D02*
X0372745Y0188138D01*
X0372745Y0187070D01*
X0373813Y0186003D01*
X0377016Y0186003D01*
X0377016Y0188138D02*
X0375948Y0189205D01*
X0373813Y0189205D01*
X0377016Y0188138D02*
X0377016Y0183868D01*
X0375948Y0182800D01*
X0373813Y0182800D01*
X0372745Y0183868D01*
X0370570Y0183868D02*
X0370570Y0188138D01*
X0369503Y0189205D01*
X0366300Y0189205D01*
X0366300Y0182800D01*
X0369503Y0182800D01*
X0370570Y0183868D01*
X0369503Y0179205D02*
X0366300Y0179205D01*
X0366300Y0172800D01*
X0369503Y0172800D01*
X0370570Y0173868D01*
X0370570Y0178138D01*
X0369503Y0179205D01*
X0372745Y0178138D02*
X0372745Y0177070D01*
X0373813Y0176003D01*
X0375948Y0176003D01*
X0377016Y0174935D01*
X0377016Y0173868D01*
X0375948Y0172800D01*
X0373813Y0172800D01*
X0372745Y0173868D01*
X0372745Y0174935D01*
X0373813Y0176003D01*
X0375948Y0176003D02*
X0377016Y0177070D01*
X0377016Y0178138D01*
X0375948Y0179205D01*
X0373813Y0179205D01*
X0372745Y0178138D01*
X0358500Y0181000D02*
X0353500Y0181000D01*
X0353500Y0166000D02*
X0351000Y0163500D01*
X0351000Y0158500D01*
X0353500Y0156000D01*
X0358500Y0156000D01*
X0361000Y0158500D01*
X0361000Y0163500D01*
X0358500Y0166000D01*
X0353500Y0166000D01*
X0353500Y0156000D02*
X0351000Y0153500D01*
X0351000Y0148500D01*
X0353500Y0146000D01*
X0358500Y0146000D01*
X0361000Y0148500D01*
X0361000Y0153500D01*
X0358500Y0156000D01*
X0366300Y0154205D02*
X0369503Y0154205D01*
X0370570Y0153138D01*
X0370570Y0148868D01*
X0369503Y0147800D01*
X0366300Y0147800D01*
X0366300Y0154205D01*
X0366300Y0157800D02*
X0369503Y0157800D01*
X0370570Y0158868D01*
X0370570Y0163138D01*
X0369503Y0164205D01*
X0366300Y0164205D01*
X0366300Y0157800D01*
X0372745Y0157800D02*
X0372745Y0158868D01*
X0377016Y0163138D01*
X0377016Y0164205D01*
X0372745Y0164205D01*
X0377016Y0154205D02*
X0374881Y0153138D01*
X0372745Y0151003D01*
X0375948Y0151003D01*
X0377016Y0149935D01*
X0377016Y0148868D01*
X0375948Y0147800D01*
X0373813Y0147800D01*
X0372745Y0148868D01*
X0372745Y0151003D01*
X0372745Y0144205D02*
X0372745Y0141003D01*
X0374881Y0142070D01*
X0375948Y0142070D01*
X0377016Y0141003D01*
X0377016Y0138868D01*
X0375948Y0137800D01*
X0373813Y0137800D01*
X0372745Y0138868D01*
X0370570Y0138868D02*
X0370570Y0143138D01*
X0369503Y0144205D01*
X0366300Y0144205D01*
X0366300Y0137800D01*
X0369503Y0137800D01*
X0370570Y0138868D01*
X0369503Y0134205D02*
X0366300Y0134205D01*
X0366300Y0127800D01*
X0369503Y0127800D01*
X0370570Y0128868D01*
X0370570Y0133138D01*
X0369503Y0134205D01*
X0372745Y0131003D02*
X0377016Y0131003D01*
X0375948Y0134205D02*
X0375948Y0127800D01*
X0372745Y0131003D02*
X0375948Y0134205D01*
X0375948Y0124205D02*
X0377016Y0123138D01*
X0377016Y0122070D01*
X0375948Y0121003D01*
X0377016Y0119935D01*
X0377016Y0118868D01*
X0375948Y0117800D01*
X0373813Y0117800D01*
X0372745Y0118868D01*
X0370570Y0118868D02*
X0370570Y0123138D01*
X0369503Y0124205D01*
X0366300Y0124205D01*
X0366300Y0117800D01*
X0369503Y0117800D01*
X0370570Y0118868D01*
X0369503Y0114205D02*
X0366300Y0114205D01*
X0366300Y0107800D01*
X0369503Y0107800D01*
X0370570Y0108868D01*
X0370570Y0113138D01*
X0369503Y0114205D01*
X0372745Y0113138D02*
X0373813Y0114205D01*
X0375948Y0114205D01*
X0377016Y0113138D01*
X0377016Y0112070D01*
X0372745Y0107800D01*
X0377016Y0107800D01*
X0374881Y0104205D02*
X0374881Y0097800D01*
X0377016Y0097800D02*
X0372745Y0097800D01*
X0370570Y0098868D02*
X0370570Y0103138D01*
X0369503Y0104205D01*
X0366300Y0104205D01*
X0366300Y0097800D01*
X0369503Y0097800D01*
X0370570Y0098868D01*
X0372745Y0102070D02*
X0374881Y0104205D01*
X0379191Y0097800D02*
X0383461Y0104205D01*
X0385636Y0104205D02*
X0389907Y0104205D01*
X0387772Y0104205D02*
X0387772Y0097800D01*
X0388839Y0094205D02*
X0389907Y0093138D01*
X0389907Y0091003D01*
X0388839Y0089935D01*
X0385636Y0089935D01*
X0385636Y0087800D02*
X0385636Y0094205D01*
X0388839Y0094205D01*
X0392082Y0094205D02*
X0396352Y0087800D01*
X0392082Y0087800D02*
X0396352Y0094205D01*
X0396352Y0097800D02*
X0392082Y0104205D01*
X0396352Y0104205D02*
X0392082Y0097800D01*
X0383461Y0094205D02*
X0379191Y0087800D01*
X0377016Y0088868D02*
X0375948Y0087800D01*
X0373813Y0087800D01*
X0372745Y0088868D01*
X0377016Y0093138D01*
X0377016Y0088868D01*
X0377016Y0093138D02*
X0375948Y0094205D01*
X0373813Y0094205D01*
X0372745Y0093138D01*
X0372745Y0088868D01*
X0370570Y0088868D02*
X0370570Y0093138D01*
X0369503Y0094205D01*
X0366300Y0094205D01*
X0366300Y0087800D01*
X0369503Y0087800D01*
X0370570Y0088868D01*
X0361000Y0088500D02*
X0361000Y0093500D01*
X0358500Y0096000D01*
X0361000Y0098500D01*
X0361000Y0103500D01*
X0358500Y0106000D01*
X0353500Y0106000D01*
X0351000Y0103500D01*
X0351000Y0098500D01*
X0353500Y0096000D01*
X0358500Y0096000D01*
X0353500Y0096000D02*
X0351000Y0093500D01*
X0351000Y0088500D01*
X0353500Y0086000D01*
X0358500Y0086000D01*
X0361000Y0088500D01*
X0358500Y0106000D02*
X0361000Y0108500D01*
X0361000Y0113500D01*
X0358500Y0116000D01*
X0361000Y0118500D01*
X0361000Y0123500D01*
X0358500Y0126000D01*
X0361000Y0128500D01*
X0361000Y0133500D01*
X0358500Y0136000D01*
X0353500Y0136000D01*
X0351000Y0133500D01*
X0351000Y0128500D01*
X0353500Y0126000D01*
X0358500Y0126000D01*
X0353500Y0126000D02*
X0351000Y0123500D01*
X0351000Y0118500D01*
X0353500Y0116000D01*
X0358500Y0116000D01*
X0353500Y0116000D02*
X0351000Y0113500D01*
X0351000Y0108500D01*
X0353500Y0106000D01*
X0374881Y0121003D02*
X0375948Y0121003D01*
X0375948Y0124205D02*
X0373813Y0124205D01*
X0372745Y0123138D01*
X0358500Y0136000D02*
X0361000Y0138500D01*
X0361000Y0143500D01*
X0358500Y0146000D01*
X0353500Y0146000D02*
X0351000Y0143500D01*
X0351000Y0138500D01*
X0353500Y0136000D01*
X0372745Y0144205D02*
X0377016Y0144205D01*
X0380259Y0192800D02*
X0379191Y0193868D01*
X0383461Y0198138D01*
X0383461Y0193868D01*
X0382394Y0192800D01*
X0380259Y0192800D01*
X0379191Y0193868D02*
X0379191Y0198138D01*
X0380259Y0199205D01*
X0382394Y0199205D01*
X0383461Y0198138D01*
X0358500Y0201000D02*
X0353500Y0201000D01*
X0353500Y0211000D02*
X0358500Y0211000D01*
X0379191Y0223868D02*
X0380259Y0222800D01*
X0382394Y0222800D01*
X0383461Y0223868D01*
X0383461Y0224935D01*
X0382394Y0226003D01*
X0381326Y0226003D01*
X0382394Y0226003D02*
X0383461Y0227070D01*
X0383461Y0228138D01*
X0382394Y0229205D01*
X0380259Y0229205D01*
X0379191Y0228138D01*
X0382394Y0252800D02*
X0382394Y0259205D01*
X0379191Y0256003D01*
X0383461Y0256003D01*
X0382394Y0262800D02*
X0380259Y0262800D01*
X0379191Y0263868D01*
X0379191Y0266003D02*
X0381326Y0267070D01*
X0382394Y0267070D01*
X0383461Y0266003D01*
X0383461Y0263868D01*
X0382394Y0262800D01*
X0379191Y0266003D02*
X0379191Y0269205D01*
X0383461Y0269205D01*
X0370570Y0266003D02*
X0366300Y0266003D01*
X0387772Y0089935D02*
X0389907Y0087800D01*
D12*
X0323369Y0138203D02*
X0319466Y0134300D01*
X0311659Y0134300D01*
X0307756Y0138203D01*
X0307756Y0153817D01*
X0311659Y0157720D01*
X0319466Y0157720D01*
X0323369Y0153817D01*
X0299981Y0157720D02*
X0284368Y0157720D01*
X0284368Y0134300D01*
X0299981Y0134300D01*
X0303874Y0122720D02*
X0292164Y0122720D01*
X0292164Y0099300D01*
X0303874Y0099300D01*
X0307777Y0103203D01*
X0307777Y0118817D01*
X0303874Y0122720D01*
X0284389Y0122720D02*
X0268776Y0122720D01*
X0268776Y0099300D01*
X0284389Y0099300D01*
X0276583Y0111010D02*
X0268776Y0111010D01*
X0261001Y0099300D02*
X0261001Y0122720D01*
X0245388Y0122720D02*
X0261001Y0099300D01*
X0245388Y0099300D02*
X0245388Y0122720D01*
X0237613Y0122720D02*
X0237613Y0103203D01*
X0233710Y0099300D01*
X0225903Y0099300D01*
X0222000Y0103203D01*
X0222000Y0122720D01*
X0222000Y0134300D02*
X0233710Y0134300D01*
X0237613Y0138203D01*
X0237613Y0153817D01*
X0233710Y0157720D01*
X0222000Y0157720D01*
X0222000Y0134300D01*
X0245388Y0134300D02*
X0253195Y0134300D01*
X0249291Y0134300D02*
X0249291Y0157720D01*
X0245388Y0157720D02*
X0253195Y0157720D01*
X0260980Y0157720D02*
X0260980Y0134300D01*
X0276593Y0134300D01*
X0284368Y0146010D02*
X0292175Y0146010D01*
X0276593Y0157720D02*
X0260980Y0157720D01*
X0260980Y0146010D02*
X0268787Y0146010D01*
X0202613Y0189300D02*
X0194807Y0197107D01*
X0198710Y0197107D02*
X0187000Y0197107D01*
X0187000Y0189300D02*
X0187000Y0212720D01*
X0198710Y0212720D01*
X0202613Y0208817D01*
X0202613Y0201010D01*
X0198710Y0197107D01*
X0177000Y0209300D02*
X0177000Y0232720D01*
X0188710Y0232720D01*
X0192613Y0228817D01*
X0192613Y0221010D01*
X0188710Y0217107D01*
X0177000Y0217107D01*
D13*
X0211800Y0216800D02*
X0211800Y0235216D01*
X0221008Y0235216D01*
X0224077Y0232146D01*
X0224077Y0226008D01*
X0221008Y0222939D01*
X0211800Y0222939D01*
X0230216Y0216800D02*
X0242493Y0216800D01*
X0248631Y0216800D02*
X0248631Y0229077D01*
X0254770Y0235216D01*
X0260909Y0229077D01*
X0260909Y0216800D01*
X0267047Y0216800D02*
X0279324Y0216800D01*
X0285463Y0216800D02*
X0285463Y0229077D01*
X0291602Y0235216D01*
X0297740Y0229077D01*
X0297740Y0216800D01*
X0297740Y0226008D02*
X0285463Y0226008D01*
X0279324Y0232146D02*
X0267047Y0219869D01*
X0267047Y0216800D01*
X0260909Y0226008D02*
X0248631Y0226008D01*
X0230216Y0235216D02*
X0230216Y0216800D01*
X0233285Y0205216D02*
X0230216Y0202146D01*
X0230216Y0189869D01*
X0233285Y0186800D01*
X0239424Y0186800D01*
X0242493Y0189869D01*
X0242493Y0202146D01*
X0239424Y0205216D01*
X0233285Y0205216D01*
X0224077Y0202146D02*
X0224077Y0196008D01*
X0221008Y0192939D01*
X0211800Y0192939D01*
X0217939Y0192939D02*
X0224077Y0186800D01*
X0211800Y0186800D02*
X0211800Y0205216D01*
X0221008Y0205216D01*
X0224077Y0202146D01*
X0248631Y0205216D02*
X0248631Y0186800D01*
X0257839Y0186800D01*
X0260909Y0189869D01*
X0260909Y0192939D01*
X0257839Y0196008D01*
X0248631Y0196008D01*
X0257839Y0196008D02*
X0260909Y0199077D01*
X0260909Y0202146D01*
X0257839Y0205216D01*
X0248631Y0205216D01*
X0267047Y0202146D02*
X0267047Y0189869D01*
X0270116Y0186800D01*
X0276255Y0186800D01*
X0279324Y0189869D01*
X0279324Y0202146D01*
X0276255Y0205216D01*
X0270116Y0205216D01*
X0267047Y0202146D01*
X0285463Y0205216D02*
X0297740Y0205216D01*
X0303879Y0205216D02*
X0310017Y0205216D01*
X0306948Y0205216D02*
X0306948Y0186800D01*
X0303879Y0186800D02*
X0310017Y0186800D01*
X0316156Y0189869D02*
X0319225Y0186800D01*
X0325364Y0186800D01*
X0328433Y0189869D01*
X0334572Y0186800D02*
X0334572Y0199077D01*
X0340710Y0205216D01*
X0346849Y0199077D01*
X0346849Y0186800D01*
X0346849Y0196008D02*
X0334572Y0196008D01*
X0328433Y0202146D02*
X0325364Y0205216D01*
X0319225Y0205216D01*
X0316156Y0202146D01*
X0316156Y0189869D01*
X0291602Y0186800D02*
X0291602Y0205216D01*
X0279324Y0232146D02*
X0279324Y0235216D01*
X0267047Y0235216D01*
D14*
X0268479Y0085608D02*
X0271548Y0082539D01*
X0274617Y0085608D01*
X0274617Y0076400D01*
X0277686Y0077935D02*
X0279221Y0076400D01*
X0282290Y0076400D01*
X0283825Y0077935D01*
X0283825Y0084073D01*
X0282290Y0085608D01*
X0279221Y0085608D01*
X0277686Y0084073D01*
X0277686Y0077935D01*
X0286894Y0076400D02*
X0286894Y0085608D01*
X0291498Y0085608D01*
X0293033Y0084073D01*
X0293033Y0077935D01*
X0291498Y0076400D01*
X0286894Y0076400D01*
X0296102Y0077935D02*
X0297637Y0076400D01*
X0300706Y0076400D01*
X0302241Y0077935D01*
X0302241Y0085608D01*
X0305310Y0085608D02*
X0305310Y0076400D01*
X0311449Y0076400D01*
X0314518Y0076400D02*
X0320656Y0076400D01*
X0314518Y0076400D02*
X0314518Y0085608D01*
X0320656Y0085608D01*
X0317587Y0081004D02*
X0314518Y0081004D01*
X0332934Y0082539D02*
X0336003Y0076400D01*
X0339072Y0082539D01*
X0342142Y0082539D02*
X0345211Y0085608D01*
X0345211Y0076400D01*
X0342142Y0076400D02*
X0348280Y0076400D01*
X0351349Y0076400D02*
X0351349Y0077935D01*
X0352884Y0077935D01*
X0352884Y0076400D01*
X0351349Y0076400D01*
X0355953Y0077935D02*
X0362092Y0084073D01*
X0362092Y0077935D01*
X0360557Y0076400D01*
X0357488Y0076400D01*
X0355953Y0077935D01*
X0355953Y0084073D01*
X0357488Y0085608D01*
X0360557Y0085608D01*
X0362092Y0084073D01*
X0296102Y0085608D02*
X0296102Y0077935D01*
X0268479Y0076400D02*
X0268479Y0085608D01*
X0256201Y0085608D02*
X0256201Y0084073D01*
X0253132Y0081004D01*
X0253132Y0076400D01*
X0253132Y0081004D02*
X0250063Y0084073D01*
X0250063Y0085608D01*
X0246994Y0084073D02*
X0246994Y0081004D01*
X0245459Y0079469D01*
X0240855Y0079469D01*
X0240855Y0076400D02*
X0240855Y0085608D01*
X0245459Y0085608D01*
X0246994Y0084073D01*
X0243924Y0079469D02*
X0246994Y0076400D01*
X0237786Y0076400D02*
X0237786Y0082539D01*
X0234716Y0085608D01*
X0231647Y0082539D01*
X0231647Y0076400D01*
X0228578Y0077935D02*
X0228578Y0084073D01*
X0227043Y0085608D01*
X0222439Y0085608D01*
X0222439Y0076400D01*
X0227043Y0076400D01*
X0228578Y0077935D01*
X0231647Y0081004D02*
X0237786Y0081004D01*
X0219370Y0076400D02*
X0219370Y0085608D01*
X0213231Y0085608D02*
X0219370Y0076400D01*
X0213231Y0076400D02*
X0213231Y0085608D01*
X0210162Y0084073D02*
X0208628Y0085608D01*
X0205558Y0085608D01*
X0204024Y0084073D01*
X0204024Y0077935D01*
X0205558Y0076400D01*
X0208628Y0076400D01*
X0210162Y0077935D01*
X0210162Y0084073D01*
X0200954Y0084073D02*
X0199420Y0085608D01*
X0196350Y0085608D01*
X0194816Y0084073D01*
X0194816Y0077935D01*
X0196350Y0076400D01*
X0199420Y0076400D01*
X0200954Y0077935D01*
X0191746Y0076400D02*
X0185608Y0076400D01*
X0185608Y0085608D01*
X0191746Y0085608D01*
X0188677Y0081004D02*
X0185608Y0081004D01*
X0182539Y0079469D02*
X0182539Y0077935D01*
X0181004Y0076400D01*
X0177935Y0076400D01*
X0176400Y0077935D01*
X0177935Y0081004D02*
X0176400Y0082539D01*
X0176400Y0084073D01*
X0177935Y0085608D01*
X0181004Y0085608D01*
X0182539Y0084073D01*
X0181004Y0081004D02*
X0177935Y0081004D01*
X0181004Y0081004D02*
X0182539Y0079469D01*
D15*
X0190950Y0067954D02*
X0193202Y0067954D01*
X0193953Y0067203D01*
X0193953Y0064201D01*
X0193202Y0063450D01*
X0190950Y0063450D01*
X0190950Y0067954D01*
X0195554Y0066453D02*
X0197055Y0067954D01*
X0197055Y0063450D01*
X0195554Y0063450D02*
X0198556Y0063450D01*
X0200158Y0063450D02*
X0203160Y0063450D01*
X0201659Y0063450D02*
X0201659Y0067954D01*
X0200158Y0066453D01*
X0220950Y0066453D02*
X0220950Y0063450D01*
X0220950Y0065702D02*
X0223953Y0065702D01*
X0223953Y0066453D02*
X0223953Y0063450D01*
X0225554Y0063450D02*
X0227806Y0063450D01*
X0228556Y0064201D01*
X0228556Y0067203D01*
X0227806Y0067954D01*
X0225554Y0067954D01*
X0225554Y0063450D01*
X0223953Y0066453D02*
X0222451Y0067954D01*
X0220950Y0066453D01*
X0230158Y0067203D02*
X0230158Y0064201D01*
X0233160Y0067203D01*
X0233160Y0064201D01*
X0232410Y0063450D01*
X0230908Y0063450D01*
X0230158Y0064201D01*
X0230158Y0067203D02*
X0230908Y0067954D01*
X0232410Y0067954D01*
X0233160Y0067203D01*
X0250950Y0066453D02*
X0250950Y0063450D01*
X0250950Y0065702D02*
X0253953Y0065702D01*
X0253953Y0066453D02*
X0253953Y0063450D01*
X0255554Y0063450D02*
X0257806Y0063450D01*
X0258556Y0064201D01*
X0258556Y0067203D01*
X0257806Y0067954D01*
X0255554Y0067954D01*
X0255554Y0063450D01*
X0253953Y0066453D02*
X0252451Y0067954D01*
X0250950Y0066453D01*
X0260158Y0066453D02*
X0261659Y0067954D01*
X0261659Y0063450D01*
X0260158Y0063450D02*
X0263160Y0063450D01*
X0280950Y0063450D02*
X0280950Y0066453D01*
X0282451Y0067954D01*
X0283953Y0066453D01*
X0283953Y0063450D01*
X0285554Y0063450D02*
X0287806Y0063450D01*
X0288556Y0064201D01*
X0288556Y0067203D01*
X0287806Y0067954D01*
X0285554Y0067954D01*
X0285554Y0063450D01*
X0283953Y0065702D02*
X0280950Y0065702D01*
X0290158Y0067203D02*
X0290908Y0067954D01*
X0292410Y0067954D01*
X0293160Y0067203D01*
X0293160Y0066453D01*
X0290158Y0063450D01*
X0293160Y0063450D01*
X0310950Y0063450D02*
X0310950Y0066453D01*
X0312451Y0067954D01*
X0313953Y0066453D01*
X0313953Y0063450D01*
X0315554Y0063450D02*
X0317806Y0063450D01*
X0318556Y0064201D01*
X0318556Y0067203D01*
X0317806Y0067954D01*
X0315554Y0067954D01*
X0315554Y0063450D01*
X0313953Y0065702D02*
X0310950Y0065702D01*
X0320158Y0067203D02*
X0320908Y0067954D01*
X0322410Y0067954D01*
X0323160Y0067203D01*
X0323160Y0066453D01*
X0322410Y0065702D01*
X0323160Y0064951D01*
X0323160Y0064201D01*
X0322410Y0063450D01*
X0320908Y0063450D01*
X0320158Y0064201D01*
X0321659Y0065702D02*
X0322410Y0065702D01*
X0340950Y0065702D02*
X0343953Y0065702D01*
X0343953Y0066453D02*
X0343953Y0063450D01*
X0345554Y0063450D02*
X0347806Y0063450D01*
X0348556Y0064201D01*
X0348556Y0067203D01*
X0347806Y0067954D01*
X0345554Y0067954D01*
X0345554Y0063450D01*
X0343953Y0066453D02*
X0342451Y0067954D01*
X0340950Y0066453D01*
X0340950Y0063450D01*
X0350158Y0065702D02*
X0353160Y0065702D01*
X0352410Y0067954D02*
X0350158Y0065702D01*
X0352410Y0063450D02*
X0352410Y0067954D01*
X0370950Y0066453D02*
X0370950Y0063450D01*
X0370950Y0065702D02*
X0373953Y0065702D01*
X0373953Y0066453D02*
X0373953Y0063450D01*
X0375554Y0063450D02*
X0377806Y0063450D01*
X0378556Y0064201D01*
X0378556Y0067203D01*
X0377806Y0067954D01*
X0375554Y0067954D01*
X0375554Y0063450D01*
X0373953Y0066453D02*
X0372451Y0067954D01*
X0370950Y0066453D01*
X0380158Y0065702D02*
X0381659Y0066453D01*
X0382410Y0066453D01*
X0383160Y0065702D01*
X0383160Y0064201D01*
X0382410Y0063450D01*
X0380908Y0063450D01*
X0380158Y0064201D01*
X0380158Y0065702D02*
X0380158Y0067954D01*
X0383160Y0067954D01*
X0173160Y0067203D02*
X0173160Y0064201D01*
X0172410Y0063450D01*
X0170908Y0063450D01*
X0170158Y0064201D01*
X0173160Y0067203D01*
X0172410Y0067954D01*
X0170908Y0067954D01*
X0170158Y0067203D01*
X0170158Y0064201D01*
X0168556Y0063450D02*
X0165554Y0063450D01*
X0167055Y0063450D02*
X0167055Y0067954D01*
X0165554Y0066453D01*
X0163953Y0067203D02*
X0163202Y0067954D01*
X0160950Y0067954D01*
X0160950Y0063450D01*
X0163202Y0063450D01*
X0163953Y0064201D01*
X0163953Y0067203D01*
X0138556Y0067203D02*
X0138556Y0064201D01*
X0137806Y0063450D01*
X0136305Y0063450D01*
X0135554Y0064201D01*
X0133953Y0064201D02*
X0133953Y0067203D01*
X0133202Y0067954D01*
X0130950Y0067954D01*
X0130950Y0063450D01*
X0133202Y0063450D01*
X0133953Y0064201D01*
X0135554Y0066453D02*
X0136305Y0065702D01*
X0138556Y0065702D01*
X0138556Y0067203D02*
X0137806Y0067954D01*
X0136305Y0067954D01*
X0135554Y0067203D01*
X0135554Y0066453D01*
X0108556Y0067954D02*
X0107055Y0067203D01*
X0105554Y0065702D01*
X0107806Y0065702D01*
X0108556Y0064951D01*
X0108556Y0064201D01*
X0107806Y0063450D01*
X0106305Y0063450D01*
X0105554Y0064201D01*
X0105554Y0065702D01*
X0103953Y0067203D02*
X0103202Y0067954D01*
X0100950Y0067954D01*
X0100950Y0063450D01*
X0103202Y0063450D01*
X0103953Y0064201D01*
X0103953Y0067203D01*
X0078556Y0067954D02*
X0075554Y0067954D01*
X0075554Y0065702D01*
X0077055Y0066453D01*
X0077806Y0066453D01*
X0078556Y0065702D01*
X0078556Y0064201D01*
X0077806Y0063450D01*
X0076305Y0063450D01*
X0075554Y0064201D01*
X0073953Y0064201D02*
X0073953Y0067203D01*
X0073202Y0067954D01*
X0070950Y0067954D01*
X0070950Y0063450D01*
X0073202Y0063450D01*
X0073953Y0064201D01*
X0048556Y0064201D02*
X0047806Y0063450D01*
X0046305Y0063450D01*
X0045554Y0064201D01*
X0043953Y0064201D02*
X0043202Y0063450D01*
X0040950Y0063450D01*
X0040950Y0067954D01*
X0043202Y0067954D01*
X0043953Y0067203D01*
X0043953Y0064201D01*
X0045554Y0067203D02*
X0046305Y0067954D01*
X0047806Y0067954D01*
X0048556Y0067203D01*
X0048556Y0066453D01*
X0047806Y0065702D01*
X0048556Y0064951D01*
X0048556Y0064201D01*
X0047806Y0065702D02*
X0047055Y0065702D01*
X0024649Y0193750D02*
X0024649Y0198254D01*
X0023147Y0196753D01*
X0021646Y0198254D01*
X0021646Y0193750D01*
X0020045Y0193750D02*
X0020045Y0198254D01*
X0018543Y0196753D01*
X0017042Y0198254D01*
X0017042Y0193750D01*
X0015441Y0192999D02*
X0012438Y0192999D01*
X0010086Y0195251D02*
X0007834Y0195251D01*
X0007834Y0193750D02*
X0007834Y0198254D01*
X0010086Y0198254D01*
X0010837Y0197503D01*
X0010837Y0196002D01*
X0010086Y0195251D01*
D16*
X0041000Y0061000D02*
X0041000Y0031000D01*
X0051000Y0031000D01*
X0051000Y0051000D01*
X0041000Y0051000D01*
X0051000Y0051000D02*
X0051000Y0061000D01*
X0041000Y0061000D01*
X0071000Y0061000D02*
X0071000Y0031000D01*
X0081000Y0031000D01*
X0081000Y0051000D01*
X0071000Y0051000D01*
X0081000Y0051000D02*
X0081000Y0061000D01*
X0071000Y0061000D01*
X0101000Y0061000D02*
X0101000Y0031000D01*
X0111000Y0031000D01*
X0111000Y0051000D01*
X0101000Y0051000D01*
X0111000Y0051000D02*
X0111000Y0061000D01*
X0101000Y0061000D01*
X0131000Y0061000D02*
X0131000Y0031000D01*
X0141000Y0031000D01*
X0141000Y0051000D01*
X0131000Y0051000D01*
X0141000Y0051000D02*
X0141000Y0061000D01*
X0131000Y0061000D01*
X0161000Y0061000D02*
X0161000Y0031000D01*
X0171000Y0031000D01*
X0171000Y0051000D01*
X0161000Y0051000D01*
X0171000Y0051000D02*
X0171000Y0061000D01*
X0161000Y0061000D01*
X0191000Y0061000D02*
X0191000Y0031000D01*
X0201000Y0031000D01*
X0201000Y0051000D01*
X0191000Y0051000D01*
X0201000Y0051000D02*
X0201000Y0061000D01*
X0191000Y0061000D01*
X0221000Y0061000D02*
X0221000Y0031000D01*
X0231000Y0031000D01*
X0231000Y0051000D01*
X0221000Y0051000D01*
X0231000Y0051000D02*
X0231000Y0061000D01*
X0221000Y0061000D01*
X0251000Y0061000D02*
X0251000Y0031000D01*
X0261000Y0031000D01*
X0261000Y0051000D01*
X0251000Y0051000D01*
X0261000Y0051000D02*
X0261000Y0061000D01*
X0251000Y0061000D01*
X0281000Y0061000D02*
X0281000Y0031000D01*
X0291000Y0031000D01*
X0291000Y0051000D01*
X0281000Y0051000D01*
X0291000Y0051000D02*
X0291000Y0061000D01*
X0281000Y0061000D01*
X0311000Y0061000D02*
X0311000Y0031000D01*
X0321000Y0031000D01*
X0321000Y0051000D01*
X0311000Y0051000D01*
X0321000Y0051000D02*
X0321000Y0061000D01*
X0311000Y0061000D01*
X0341000Y0061000D02*
X0341000Y0031000D01*
X0351000Y0031000D01*
X0351000Y0051000D01*
X0341000Y0051000D01*
X0351000Y0051000D02*
X0351000Y0061000D01*
X0341000Y0061000D01*
X0371000Y0061000D02*
X0371000Y0031000D01*
X0381000Y0031000D01*
X0381000Y0051000D01*
X0371000Y0051000D01*
X0381000Y0051000D02*
X0381000Y0061000D01*
X0371000Y0061000D01*
M02*
