G75*
%MOIN*%
%OFA0B0*%
%FSLAX25Y25*%
%IPPOS*%
%LPD*%
%AMOC8*
5,1,8,0,0,1.08239X$1,22.5*
%
%ADD10OC8,0.06400*%
%ADD11C,0.06400*%
%ADD12R,0.06400X0.06400*%
%ADD13C,0.02400*%
%ADD14C,0.02800*%
D10*
X0046000Y0036000D03*
X0046000Y0046000D03*
X0076000Y0046000D03*
X0076000Y0036000D03*
X0106000Y0036000D03*
X0106000Y0046000D03*
X0136000Y0046000D03*
X0136000Y0036000D03*
X0166000Y0036000D03*
X0166000Y0046000D03*
X0196000Y0046000D03*
X0196000Y0036000D03*
X0226000Y0036000D03*
X0226000Y0046000D03*
X0256000Y0046000D03*
X0256000Y0036000D03*
X0286000Y0036000D03*
X0286000Y0046000D03*
X0316000Y0046000D03*
X0316000Y0036000D03*
X0346000Y0036000D03*
X0346000Y0046000D03*
X0376000Y0046000D03*
X0376000Y0036000D03*
X0021000Y0096000D03*
X0011000Y0096000D03*
X0011000Y0106000D03*
X0011000Y0116000D03*
X0021000Y0116000D03*
X0021000Y0106000D03*
X0021000Y0126000D03*
X0011000Y0126000D03*
X0011000Y0136000D03*
X0011000Y0146000D03*
X0021000Y0146000D03*
X0021000Y0136000D03*
X0021000Y0156000D03*
X0021000Y0166000D03*
X0011000Y0166000D03*
X0011000Y0156000D03*
X0011000Y0176000D03*
X0021000Y0176000D03*
X0021000Y0186000D03*
X0011000Y0186000D03*
D11*
X0037800Y0181000D02*
X0044200Y0181000D01*
X0044200Y0191000D02*
X0037800Y0191000D01*
X0037800Y0201000D02*
X0044200Y0201000D01*
X0044200Y0211000D02*
X0037800Y0211000D01*
X0037800Y0221000D02*
X0044200Y0221000D01*
X0044200Y0231000D02*
X0037800Y0231000D01*
X0037800Y0241000D02*
X0044200Y0241000D01*
X0044200Y0251000D02*
X0037800Y0251000D01*
X0037800Y0261000D02*
X0044200Y0261000D01*
X0117800Y0261000D02*
X0124200Y0261000D01*
X0124200Y0251000D02*
X0117800Y0251000D01*
X0117800Y0241000D02*
X0124200Y0241000D01*
X0124200Y0231000D02*
X0117800Y0231000D01*
X0117800Y0221000D02*
X0124200Y0221000D01*
X0124200Y0211000D02*
X0117800Y0211000D01*
X0117800Y0201000D02*
X0124200Y0201000D01*
X0124200Y0191000D02*
X0117800Y0191000D01*
X0117800Y0181000D02*
X0124200Y0181000D01*
X0124200Y0171000D02*
X0117800Y0171000D01*
X0117800Y0161000D02*
X0124200Y0161000D01*
X0124200Y0151000D02*
X0117800Y0151000D01*
X0117800Y0141000D02*
X0124200Y0141000D01*
X0124200Y0131000D02*
X0117800Y0131000D01*
X0117800Y0121000D02*
X0124200Y0121000D01*
X0157800Y0116000D02*
X0164200Y0116000D01*
X0164200Y0106000D02*
X0157800Y0106000D01*
X0157800Y0096000D02*
X0164200Y0096000D01*
X0164200Y0126000D02*
X0157800Y0126000D01*
X0157800Y0136000D02*
X0164200Y0136000D01*
X0164200Y0146000D02*
X0157800Y0146000D01*
X0157800Y0166000D02*
X0164200Y0166000D01*
X0164200Y0176000D02*
X0157800Y0176000D01*
X0157800Y0186000D02*
X0164200Y0186000D01*
X0164200Y0196000D02*
X0157800Y0196000D01*
X0157800Y0206000D02*
X0164200Y0206000D01*
X0164200Y0216000D02*
X0157800Y0216000D01*
X0157800Y0226000D02*
X0164200Y0226000D01*
X0164200Y0236000D02*
X0157800Y0236000D01*
X0044200Y0171000D02*
X0037800Y0171000D01*
X0037800Y0161000D02*
X0044200Y0161000D01*
X0044200Y0151000D02*
X0037800Y0151000D01*
X0037800Y0141000D02*
X0044200Y0141000D01*
X0044200Y0131000D02*
X0037800Y0131000D01*
X0037800Y0121000D02*
X0044200Y0121000D01*
X0352800Y0121000D02*
X0359200Y0121000D01*
X0359200Y0111000D02*
X0352800Y0111000D01*
X0352800Y0101000D02*
X0359200Y0101000D01*
X0359200Y0091000D02*
X0352800Y0091000D01*
X0352800Y0131000D02*
X0359200Y0131000D01*
X0359200Y0141000D02*
X0352800Y0141000D01*
X0352800Y0151000D02*
X0359200Y0151000D01*
X0359200Y0161000D02*
X0352800Y0161000D01*
X0352800Y0176000D02*
X0359200Y0176000D01*
X0359200Y0186000D02*
X0352800Y0186000D01*
X0352800Y0196000D02*
X0359200Y0196000D01*
X0359200Y0206000D02*
X0352800Y0206000D01*
X0352800Y0216000D02*
X0359200Y0216000D01*
X0359200Y0226000D02*
X0352800Y0226000D01*
X0352800Y0236000D02*
X0359200Y0236000D01*
X0359200Y0246000D02*
X0352800Y0246000D01*
X0352800Y0256000D02*
X0359200Y0256000D01*
X0359200Y0266000D02*
X0352800Y0266000D01*
D12*
X0346000Y0056000D03*
X0376000Y0056000D03*
X0316000Y0056000D03*
X0286000Y0056000D03*
X0256000Y0056000D03*
X0226000Y0056000D03*
X0196000Y0056000D03*
X0166000Y0056000D03*
X0136000Y0056000D03*
X0106000Y0056000D03*
X0076000Y0056000D03*
X0046000Y0056000D03*
D13*
X0061000Y0056000D01*
X0021000Y0096000D01*
X0021000Y0106000D02*
X0022250Y0107250D01*
X0049750Y0107250D01*
X0054750Y0112250D01*
X0054750Y0117250D02*
X0048500Y0111000D01*
X0016000Y0111000D01*
X0011000Y0106000D01*
X0021000Y0116000D02*
X0048500Y0116000D01*
X0053500Y0121000D01*
X0121000Y0121000D01*
X0151000Y0091000D01*
X0167250Y0091000D01*
X0172250Y0096000D01*
X0351000Y0096000D01*
X0356000Y0101000D01*
X0349750Y0106000D02*
X0381000Y0106000D01*
X0381000Y0041000D01*
X0376000Y0036000D01*
X0376000Y0046000D02*
X0346000Y0046000D01*
X0316000Y0046000D01*
X0286000Y0046000D01*
X0256000Y0046000D01*
X0226000Y0046000D01*
X0196000Y0046000D01*
X0166000Y0046000D01*
X0136000Y0046000D01*
X0106000Y0046000D01*
X0076000Y0046000D01*
X0046000Y0046000D01*
X0043500Y0041000D02*
X0006000Y0078500D01*
X0006000Y0136000D01*
X0011000Y0136000D01*
X0013500Y0141000D02*
X0008500Y0141000D01*
X0006000Y0143500D01*
X0011000Y0146000D02*
X0006000Y0151000D01*
X0006000Y0248929D01*
X0013071Y0256000D01*
X0062250Y0256000D01*
X0046000Y0266000D02*
X0041000Y0261000D01*
X0046000Y0266000D02*
X0153500Y0266000D01*
X0158500Y0261000D01*
X0363500Y0261000D01*
X0364750Y0259750D01*
X0364750Y0233500D01*
X0362250Y0231000D01*
X0361000Y0231000D01*
X0356000Y0226000D01*
X0356000Y0246000D02*
X0114750Y0246000D01*
X0111000Y0242250D01*
X0042250Y0242250D01*
X0041000Y0241000D01*
X0046000Y0236000D02*
X0149750Y0236000D01*
X0154750Y0231000D01*
X0167250Y0231000D01*
X0181000Y0217250D01*
X0167250Y0221000D02*
X0121000Y0221000D01*
X0097250Y0221000D01*
X0096000Y0222250D01*
X0089750Y0226000D02*
X0127250Y0226000D01*
X0143500Y0216000D02*
X0148500Y0211000D01*
X0167250Y0211000D01*
X0188500Y0189750D01*
X0197250Y0191000D02*
X0167250Y0221000D01*
X0161000Y0216000D02*
X0148500Y0216000D01*
X0143500Y0216000D02*
X0084750Y0216000D01*
X0074750Y0206000D01*
X0046000Y0206000D01*
X0041000Y0201000D01*
X0036000Y0196000D02*
X0034750Y0196000D01*
X0032250Y0198500D01*
X0032250Y0246000D01*
X0104750Y0246000D01*
X0114750Y0256000D01*
X0356000Y0256000D01*
X0356000Y0266000D02*
X0369820Y0266000D01*
X0381000Y0254820D01*
X0381000Y0106000D01*
X0356000Y0091000D02*
X0352250Y0087250D01*
X0136000Y0087250D01*
X0106000Y0117250D01*
X0054750Y0117250D01*
X0064750Y0126000D02*
X0072250Y0133500D01*
X0077250Y0133500D01*
X0082250Y0137250D02*
X0071000Y0137250D01*
X0069750Y0136000D01*
X0033500Y0136000D01*
X0032250Y0134750D01*
X0041000Y0131000D02*
X0016000Y0131000D01*
X0016000Y0138500D01*
X0013500Y0141000D01*
X0021000Y0146000D02*
X0022250Y0147250D01*
X0026000Y0147250D01*
X0034750Y0156000D01*
X0057250Y0156000D01*
X0064750Y0163500D01*
X0072250Y0163500D01*
X0084750Y0176000D01*
X0127250Y0176000D01*
X0128500Y0177250D01*
X0144750Y0177250D01*
X0151000Y0171000D01*
X0167250Y0171000D01*
X0171000Y0167250D01*
X0349750Y0167250D01*
X0356000Y0161000D01*
X0364750Y0171000D02*
X0177250Y0171000D01*
X0167250Y0181000D01*
X0121000Y0181000D01*
X0137250Y0173500D02*
X0142250Y0168500D01*
X0148500Y0168500D01*
X0159750Y0164750D02*
X0128500Y0164750D01*
X0127250Y0166000D01*
X0079750Y0166000D01*
X0067250Y0153500D01*
X0059750Y0153500D01*
X0061000Y0149750D02*
X0042250Y0149750D01*
X0041000Y0151000D01*
X0031000Y0146000D02*
X0096000Y0146000D01*
X0127250Y0146000D01*
X0132250Y0141000D01*
X0356000Y0141000D01*
X0361000Y0136000D02*
X0362250Y0136000D01*
X0364750Y0138500D01*
X0364750Y0171000D01*
X0356000Y0176000D02*
X0361000Y0181000D01*
X0362250Y0181000D01*
X0364750Y0183500D01*
X0364750Y0191000D01*
X0197250Y0191000D01*
X0174750Y0194750D02*
X0162250Y0194750D01*
X0161000Y0196000D01*
X0154750Y0191000D02*
X0173500Y0191000D01*
X0169750Y0186000D02*
X0356000Y0186000D01*
X0356000Y0196000D02*
X0354750Y0196000D01*
X0309750Y0241000D01*
X0121000Y0241000D01*
X0121000Y0261000D02*
X0153500Y0261000D01*
X0089750Y0226000D02*
X0079750Y0216000D01*
X0046000Y0216000D01*
X0041000Y0211000D01*
X0036000Y0196000D02*
X0041000Y0191000D01*
X0041000Y0181000D02*
X0046000Y0176000D01*
X0064750Y0176000D01*
X0068500Y0167250D02*
X0068500Y0196000D01*
X0086000Y0212250D02*
X0092250Y0206000D01*
X0161000Y0206000D01*
X0149750Y0196000D02*
X0154750Y0191000D01*
X0149750Y0196000D02*
X0126000Y0196000D01*
X0121000Y0201000D01*
X0159750Y0164750D02*
X0161000Y0166000D01*
X0181000Y0151000D02*
X0174750Y0144750D01*
X0162250Y0144750D01*
X0161000Y0146000D01*
X0161000Y0136000D02*
X0174750Y0136000D01*
X0177250Y0133500D01*
X0168500Y0129750D02*
X0167250Y0131000D01*
X0132250Y0131000D01*
X0129750Y0126000D02*
X0158500Y0097250D01*
X0161000Y0097250D01*
X0161000Y0096000D01*
X0166000Y0101000D01*
X0344750Y0101000D01*
X0349750Y0106000D01*
X0356000Y0121000D02*
X0351000Y0126000D01*
X0211000Y0126000D01*
X0207250Y0129750D01*
X0168500Y0129750D01*
X0161000Y0126000D02*
X0206000Y0126000D01*
X0212250Y0119750D01*
X0217250Y0116000D02*
X0161000Y0116000D01*
X0161000Y0106000D02*
X0286000Y0106000D01*
X0308500Y0144750D02*
X0292250Y0161000D01*
X0121000Y0161000D01*
X0106000Y0161000D01*
X0101000Y0156000D01*
X0121000Y0141000D02*
X0041000Y0141000D01*
X0031000Y0146000D02*
X0021000Y0136000D01*
X0011000Y0126000D02*
X0016000Y0121000D01*
X0029750Y0121000D01*
X0034750Y0126000D01*
X0064750Y0126000D01*
X0069750Y0126000D02*
X0129750Y0126000D01*
X0114750Y0136000D02*
X0161000Y0136000D01*
X0174750Y0144750D02*
X0177250Y0144750D01*
X0114750Y0136000D02*
X0108500Y0129750D01*
X0073500Y0129750D01*
X0032250Y0159750D02*
X0023500Y0151000D01*
X0016000Y0151000D01*
X0011000Y0156000D01*
X0011000Y0166000D02*
X0016000Y0171000D01*
X0016000Y0247250D01*
X0016000Y0252250D02*
X0026000Y0252250D01*
X0026000Y0171000D01*
X0021000Y0166000D01*
X0031000Y0166000D02*
X0049750Y0166000D01*
X0031000Y0166000D02*
X0021000Y0156000D01*
X0041000Y0231000D02*
X0046000Y0236000D01*
X0061000Y0056000D02*
X0076000Y0056000D01*
X0106000Y0056000D01*
X0136000Y0056000D01*
X0166000Y0056000D01*
X0196000Y0056000D01*
X0226000Y0056000D01*
X0256000Y0056000D01*
X0286000Y0056000D01*
X0316000Y0056000D01*
X0346000Y0056000D01*
X0376000Y0056000D01*
X0356000Y0131000D02*
X0361000Y0136000D01*
X0106000Y0036000D02*
X0101000Y0041000D01*
X0043500Y0041000D01*
D14*
X0054750Y0112250D03*
X0069750Y0126000D03*
X0073500Y0129750D03*
X0077250Y0133500D03*
X0082250Y0137250D03*
X0096000Y0146000D03*
X0101000Y0156000D03*
X0072250Y0163500D03*
X0068500Y0167250D03*
X0064750Y0176000D03*
X0049750Y0166000D03*
X0059750Y0153500D03*
X0061000Y0149750D03*
X0032250Y0159750D03*
X0006000Y0143500D03*
X0032250Y0134750D03*
X0106000Y0117250D03*
X0132250Y0131000D03*
X0177250Y0133500D03*
X0177250Y0144750D03*
X0181000Y0151000D03*
X0148500Y0168500D03*
X0137250Y0173500D03*
X0169750Y0186000D03*
X0173500Y0191000D03*
X0174750Y0194750D03*
X0188500Y0189750D03*
X0181000Y0217250D03*
X0148500Y0216000D03*
X0127250Y0226000D03*
X0096000Y0222250D03*
X0086000Y0212250D03*
X0068500Y0196000D03*
X0016000Y0247250D03*
X0016000Y0252250D03*
X0062250Y0256000D03*
X0153500Y0261000D03*
X0308500Y0144750D03*
X0286000Y0106000D03*
X0217250Y0116000D03*
X0212250Y0119750D03*
M02*
