%
M48
M72
T01C0.01200
T02C0.04000
%
T01
X93500Y63500
X89750Y81000
X61000Y67250
X23500Y96000
X23500Y106000
X23500Y116000
X53500Y116000
X54750Y112250
X54750Y107250
X61000Y99750
X64750Y102250
X58500Y121000
X68500Y136000
X63500Y141000
X49750Y137250
X53500Y151000
X88500Y156000
X111000Y174750
X129750Y181000
X131000Y192250
X158500Y191000
X162250Y198500
X192250Y214750
X166000Y164750
X173500Y161000
X186000Y158500
X186000Y153500
X177250Y151000
X181000Y141000
X133500Y157250
X129750Y137250
X113500Y119750
X133500Y114750
X123500Y104750
X144750Y106000
X162250Y98500
X166000Y92250
X173500Y91000
X173500Y67250
X119750Y89750
X16000Y148500
X92250Y184750
T02
X41000Y11000
X56000Y11000
X71000Y11000
X86000Y11000
X101000Y11000
X116000Y11000
X116000Y21000
X116000Y31000
X101000Y31000
X101000Y21000
X86000Y21000
X86000Y31000
X71000Y31000
X71000Y21000
X56000Y21000
X56000Y31000
X41000Y31000
X41000Y21000
X21000Y71000
X11000Y71000
X11000Y81000
X21000Y81000
X21000Y91000
X11000Y91000
X11000Y101000
X21000Y101000
X21000Y111000
X11000Y111000
X11000Y121000
X21000Y121000
X21000Y131000
X11000Y131000
X11000Y141000
X21000Y141000
X21000Y151000
X11000Y151000
X11000Y161000
X21000Y161000
X41000Y156000
X41000Y166000
X41000Y176000
X41000Y186000
X41000Y196000
X41000Y206000
X41000Y216000
X101000Y216000
X101000Y206000
X101000Y196000
X101000Y186000
X101000Y176000
X101000Y166000
X101000Y156000
X101000Y146000
X101000Y136000
X101000Y126000
X101000Y116000
X101000Y106000
X101000Y96000
X101000Y86000
X101000Y76000
X146000Y76000
X146000Y66000
X146000Y56000
X146000Y46000
X146000Y86000
X146000Y96000
X146000Y116000
X146000Y126000
X146000Y136000
X146000Y146000
X146000Y156000
X146000Y166000
X146000Y176000
X146000Y186000
X41000Y146000
X41000Y136000
X41000Y126000
X41000Y116000
X41000Y106000
X41000Y96000
X41000Y86000
X41000Y76000
X236000Y31000
X236000Y21000
X251000Y21000
X251000Y31000
X266000Y31000
X266000Y21000
X281000Y21000
X281000Y31000
X296000Y31000
X296000Y21000
X311000Y21000
X311000Y31000
X336000Y46000
X336000Y56000
X336000Y66000
X336000Y76000
X336000Y86000
X336000Y96000
X336000Y106000
X336000Y116000
X336000Y131000
X336000Y141000
X336000Y151000
X336000Y161000
X336000Y171000
X336000Y181000
X336000Y191000
X336000Y201000
X336000Y211000
X336000Y221000
X311000Y11000
X296000Y11000
X281000Y11000
X266000Y11000
X251000Y11000
X236000Y11000
M30
