%
M48
M72
T01C0.02400
T02C0.04000
%
T01
X71625Y49125
X91000Y58500
X107250Y29750
X116000Y29750
X51000Y58500
X41000Y58500
X119125Y125375
X145375Y136625
X133500Y152875
X120375Y157250
X130375Y174750
X142250Y197875
X145375Y201625
X141000Y211625
X145375Y217875
X151000Y216000
X155375Y213500
X136000Y227250
X126000Y222250
X116000Y223500
X135375Y206000
X106000Y196625
X99750Y201625
X86000Y215375
X86000Y224125
X78500Y234125
X67250Y228500
X67250Y222875
X56625Y230375
X46000Y251625
X63500Y276625
X50375Y279125
X36000Y287875
X17250Y291000
X6000Y279750
X86000Y283500
X87250Y291000
X100375Y286625
X96000Y273500
X117250Y277875
X125375Y286000
X139750Y282875
X139750Y271000
X158500Y267875
X179125Y260375
X182875Y251000
X197250Y245375
X203500Y239125
X206625Y242875
X215375Y221000
X229125Y216625
X241625Y225375
X248500Y221625
X239750Y234125
X234750Y242875
X256000Y262875
X246625Y263500
X262250Y276000
X256625Y281625
X275375Y289125
X276000Y280375
X276625Y269750
X290375Y271000
X296000Y271000
X296625Y280375
X315375Y275375
X324125Y278500
X325375Y246000
X335375Y246000
X341000Y234125
X336625Y229750
X336625Y214125
X316625Y211625
X316000Y216625
X315375Y221625
X307250Y229125
X286625Y246000
X277250Y246000
X283500Y214125
X280375Y205375
X298500Y196625
X298500Y161000
X310375Y156625
X304125Y144750
X298500Y144750
X319750Y145375
X249125Y144750
X243500Y144750
X237250Y144125
X236625Y149125
X214125Y171625
X209125Y171000
X179750Y181000
X160375Y185375
X166000Y197250
X172875Y201625
X181625Y197250
X181625Y206000
X186000Y219750
X155375Y236000
X186000Y278500
X194750Y281625
X218500Y311000
X126625Y305375
X123500Y301000
X119125Y310375
X46000Y203500
X41625Y196625
X67250Y174750
X79125Y181000
X86000Y176625
X79750Y161625
X58500Y152250
X56000Y143500
X49125Y131000
X41000Y153500
X46625Y167875
X41625Y168500
X51000Y170375
X145375Y111000
X149750Y117250
X172875Y105375
X181625Y105375
X184750Y117250
X186000Y87250
X201625Y81000
X216000Y83500
X222250Y95375
X168500Y87250
X141000Y91625
X136000Y92250
X167250Y152875
X251625Y49750
X252250Y30375
X262250Y26000
X277875Y16000
X311000Y45375
X328500Y33500
X345375Y30375
X361000Y24750
X301000Y72875
X373500Y79125
X386000Y206000
T02
X21000Y11000
X31000Y11000
X31000Y21000
X21000Y21000
X41000Y21000
X51000Y21000
X51000Y11000
X41000Y11000
X61000Y11000
X71000Y11000
X71000Y21000
X61000Y21000
X81000Y21000
X91000Y21000
X91000Y11000
X81000Y11000
X101000Y11000
X111000Y11000
X111000Y21000
X101000Y21000
X101000Y66000
X111000Y66000
X111000Y76000
X101000Y76000
X91000Y76000
X81000Y76000
X81000Y66000
X91000Y66000
X71000Y66000
X61000Y66000
X61000Y76000
X71000Y76000
X51000Y76000
X41000Y76000
X41000Y66000
X51000Y66000
X11000Y66000
X11000Y56000
X11000Y96000
X11000Y106000
X11000Y116000
X11000Y126000
X11000Y136000
X21000Y136000
X21000Y126000
X21000Y116000
X21000Y106000
X21000Y96000
X21000Y146000
X21000Y156000
X21000Y166000
X21000Y176000
X21000Y186000
X21000Y196000
X21000Y206000
X11000Y206000
X11000Y196000
X11000Y186000
X11000Y176000
X11000Y166000
X11000Y156000
X11000Y146000
X86000Y166000
X96000Y166000
X106000Y166000
X116000Y166000
X191000Y166000
X191000Y156000
X191000Y146000
X201000Y146000
X201000Y156000
X201000Y166000
X201000Y176000
X201000Y186000
X201000Y196000
X201000Y206000
X191000Y206000
X191000Y196000
X191000Y186000
X191000Y176000
X191000Y136000
X191000Y126000
X191000Y116000
X191000Y106000
X191000Y96000
X201000Y96000
X201000Y106000
X201000Y116000
X201000Y126000
X201000Y136000
X171000Y76000
X161000Y76000
X161000Y66000
X171000Y66000
X151000Y66000
X141000Y66000
X141000Y76000
X151000Y76000
X131000Y76000
X121000Y76000
X121000Y66000
X131000Y66000
X246000Y66000
X256000Y66000
X266000Y66000
X276000Y66000
X286000Y66000
X296000Y66000
X306000Y66000
X316000Y66000
X336000Y66000
X346000Y66000
X356000Y66000
X366000Y66000
X376000Y66000
X386000Y66000
X376000Y21000
X376000Y11000
X366000Y11000
X356000Y11000
X356000Y21000
X366000Y21000
X346000Y21000
X336000Y21000
X336000Y11000
X346000Y11000
X326000Y11000
X316000Y11000
X316000Y21000
X326000Y21000
X306000Y21000
X296000Y21000
X296000Y11000
X306000Y11000
X286000Y11000
X286000Y21000
X201000Y216000
X201000Y226000
X191000Y226000
X191000Y216000
X171000Y246000
X161000Y246000
X161000Y256000
X171000Y256000
X151000Y256000
X141000Y256000
X141000Y246000
X151000Y246000
X131000Y246000
X121000Y246000
X121000Y256000
X131000Y256000
X111000Y256000
X101000Y256000
X101000Y246000
X111000Y246000
X91000Y246000
X81000Y246000
X81000Y256000
X91000Y256000
X71000Y256000
X61000Y256000
X61000Y246000
X71000Y246000
X51000Y246000
X41000Y246000
X41000Y256000
X51000Y256000
X21000Y226000
X21000Y216000
X11000Y216000
X11000Y226000
X21000Y296000
X31000Y296000
X31000Y306000
X21000Y306000
X41000Y306000
X51000Y306000
X51000Y296000
X41000Y296000
X61000Y296000
X71000Y296000
X71000Y306000
X61000Y306000
X81000Y306000
X91000Y306000
X91000Y296000
X81000Y296000
X101000Y296000
X111000Y296000
X111000Y306000
X101000Y306000
X211000Y256000
X221000Y256000
X231000Y256000
X241000Y256000
X251000Y256000
X261000Y256000
X271000Y256000
X281000Y256000
X291000Y256000
X301000Y256000
X316000Y256000
X326000Y256000
X336000Y256000
X346000Y256000
X356000Y256000
X366000Y256000
X376000Y256000
X386000Y256000
X376000Y296000
X376000Y306000
X366000Y306000
X356000Y306000
X356000Y296000
X366000Y296000
X346000Y296000
X336000Y296000
X336000Y306000
X346000Y306000
X326000Y306000
X316000Y306000
X316000Y296000
X326000Y296000
X306000Y296000
X296000Y296000
X296000Y306000
X306000Y306000
X286000Y306000
X286000Y296000
M30
