G75*
%MOIN*%
%OFA0B0*%
%FSLAX25Y25*%
%IPPOS*%
%LPD*%
%AMOC8*
5,1,8,0,0,1.08239X$1,22.5*
%
%ADD10C,0.06800*%
%ADD11OC8,0.06800*%
D10*
X0007800Y0056000D02*
X0014200Y0056000D01*
X0014200Y0066000D02*
X0007800Y0066000D01*
X0086000Y0162800D02*
X0086000Y0169200D01*
X0096000Y0169200D02*
X0096000Y0162800D01*
X0106000Y0162800D02*
X0106000Y0169200D01*
X0116000Y0169200D02*
X0116000Y0162800D01*
X0211000Y0252800D02*
X0211000Y0259200D01*
X0221000Y0259200D02*
X0221000Y0252800D01*
X0231000Y0252800D02*
X0231000Y0259200D01*
X0241000Y0259200D02*
X0241000Y0252800D01*
X0251000Y0252800D02*
X0251000Y0259200D01*
X0261000Y0259200D02*
X0261000Y0252800D01*
X0271000Y0252800D02*
X0271000Y0259200D01*
X0281000Y0259200D02*
X0281000Y0252800D01*
X0291000Y0252800D02*
X0291000Y0259200D01*
X0301000Y0259200D02*
X0301000Y0252800D01*
X0316000Y0252800D02*
X0316000Y0259200D01*
X0326000Y0259200D02*
X0326000Y0252800D01*
X0336000Y0252800D02*
X0336000Y0259200D01*
X0346000Y0259200D02*
X0346000Y0252800D01*
X0356000Y0252800D02*
X0356000Y0259200D01*
X0366000Y0259200D02*
X0366000Y0252800D01*
X0376000Y0252800D02*
X0376000Y0259200D01*
X0386000Y0259200D02*
X0386000Y0252800D01*
X0386000Y0069200D02*
X0386000Y0062800D01*
X0376000Y0062800D02*
X0376000Y0069200D01*
X0366000Y0069200D02*
X0366000Y0062800D01*
X0356000Y0062800D02*
X0356000Y0069200D01*
X0346000Y0069200D02*
X0346000Y0062800D01*
X0336000Y0062800D02*
X0336000Y0069200D01*
X0316000Y0069200D02*
X0316000Y0062800D01*
X0306000Y0062800D02*
X0306000Y0069200D01*
X0296000Y0069200D02*
X0296000Y0062800D01*
X0286000Y0062800D02*
X0286000Y0069200D01*
X0276000Y0069200D02*
X0276000Y0062800D01*
X0266000Y0062800D02*
X0266000Y0069200D01*
X0256000Y0069200D02*
X0256000Y0062800D01*
X0246000Y0062800D02*
X0246000Y0069200D01*
D11*
X0011000Y0011000D03*
X0011000Y0021000D03*
X0021000Y0021000D03*
X0031000Y0021000D03*
X0031000Y0011000D03*
X0021000Y0011000D03*
X0041000Y0011000D03*
X0051000Y0011000D03*
X0051000Y0021000D03*
X0041000Y0021000D03*
X0061000Y0021000D03*
X0071000Y0021000D03*
X0071000Y0011000D03*
X0061000Y0011000D03*
X0081000Y0011000D03*
X0091000Y0011000D03*
X0091000Y0021000D03*
X0081000Y0021000D03*
X0101000Y0021000D03*
X0101000Y0011000D03*
X0101000Y0066000D03*
X0111000Y0066000D03*
X0111000Y0076000D03*
X0101000Y0076000D03*
X0091000Y0076000D03*
X0081000Y0076000D03*
X0081000Y0066000D03*
X0091000Y0066000D03*
X0071000Y0066000D03*
X0061000Y0066000D03*
X0061000Y0076000D03*
X0071000Y0076000D03*
X0051000Y0076000D03*
X0041000Y0076000D03*
X0041000Y0066000D03*
X0051000Y0066000D03*
X0021000Y0096000D03*
X0021000Y0106000D03*
X0021000Y0116000D03*
X0021000Y0126000D03*
X0021000Y0136000D03*
X0011000Y0136000D03*
X0011000Y0126000D03*
X0011000Y0116000D03*
X0011000Y0106000D03*
X0011000Y0096000D03*
X0011000Y0146000D03*
X0011000Y0156000D03*
X0011000Y0166000D03*
X0011000Y0176000D03*
X0011000Y0186000D03*
X0011000Y0196000D03*
X0011000Y0206000D03*
X0021000Y0206000D03*
X0021000Y0196000D03*
X0021000Y0186000D03*
X0021000Y0176000D03*
X0021000Y0166000D03*
X0021000Y0156000D03*
X0021000Y0146000D03*
X0021000Y0216000D03*
X0021000Y0226000D03*
X0011000Y0226000D03*
X0011000Y0216000D03*
X0041000Y0251000D03*
X0051000Y0251000D03*
X0051000Y0261000D03*
X0041000Y0261000D03*
X0061000Y0261000D03*
X0071000Y0261000D03*
X0071000Y0251000D03*
X0061000Y0251000D03*
X0081000Y0251000D03*
X0091000Y0251000D03*
X0091000Y0261000D03*
X0081000Y0261000D03*
X0101000Y0261000D03*
X0111000Y0261000D03*
X0111000Y0251000D03*
X0101000Y0251000D03*
X0121000Y0251000D03*
X0131000Y0251000D03*
X0131000Y0261000D03*
X0121000Y0261000D03*
X0141000Y0261000D03*
X0151000Y0261000D03*
X0151000Y0251000D03*
X0141000Y0251000D03*
X0161000Y0251000D03*
X0171000Y0251000D03*
X0171000Y0261000D03*
X0161000Y0261000D03*
X0196000Y0231000D03*
X0206000Y0231000D03*
X0206000Y0221000D03*
X0196000Y0221000D03*
X0196000Y0211000D03*
X0206000Y0211000D03*
X0206000Y0201000D03*
X0196000Y0201000D03*
X0196000Y0191000D03*
X0206000Y0191000D03*
X0206000Y0181000D03*
X0196000Y0181000D03*
X0196000Y0171000D03*
X0206000Y0171000D03*
X0206000Y0161000D03*
X0196000Y0161000D03*
X0196000Y0151000D03*
X0206000Y0151000D03*
X0206000Y0141000D03*
X0196000Y0141000D03*
X0196000Y0131000D03*
X0206000Y0131000D03*
X0206000Y0121000D03*
X0196000Y0121000D03*
X0196000Y0111000D03*
X0206000Y0111000D03*
X0206000Y0101000D03*
X0196000Y0101000D03*
X0171000Y0076000D03*
X0161000Y0076000D03*
X0161000Y0066000D03*
X0171000Y0066000D03*
X0151000Y0066000D03*
X0141000Y0066000D03*
X0141000Y0076000D03*
X0151000Y0076000D03*
X0131000Y0076000D03*
X0121000Y0076000D03*
X0121000Y0066000D03*
X0131000Y0066000D03*
X0296000Y0021000D03*
X0306000Y0021000D03*
X0306000Y0011000D03*
X0296000Y0011000D03*
X0316000Y0011000D03*
X0326000Y0011000D03*
X0326000Y0021000D03*
X0316000Y0021000D03*
X0336000Y0021000D03*
X0346000Y0021000D03*
X0346000Y0011000D03*
X0336000Y0011000D03*
X0356000Y0011000D03*
X0366000Y0011000D03*
X0366000Y0021000D03*
X0356000Y0021000D03*
X0376000Y0021000D03*
X0386000Y0021000D03*
X0386000Y0011000D03*
X0376000Y0011000D03*
X0376000Y0296000D03*
X0386000Y0296000D03*
X0386000Y0306000D03*
X0376000Y0306000D03*
X0366000Y0306000D03*
X0356000Y0306000D03*
X0356000Y0296000D03*
X0366000Y0296000D03*
X0346000Y0296000D03*
X0336000Y0296000D03*
X0336000Y0306000D03*
X0346000Y0306000D03*
X0326000Y0306000D03*
X0316000Y0306000D03*
X0316000Y0296000D03*
X0326000Y0296000D03*
X0306000Y0296000D03*
X0296000Y0296000D03*
X0296000Y0306000D03*
X0306000Y0306000D03*
X0101000Y0306000D03*
X0101000Y0296000D03*
X0091000Y0296000D03*
X0081000Y0296000D03*
X0081000Y0306000D03*
X0091000Y0306000D03*
X0071000Y0306000D03*
X0061000Y0306000D03*
X0061000Y0296000D03*
X0071000Y0296000D03*
X0051000Y0296000D03*
X0041000Y0296000D03*
X0041000Y0306000D03*
X0051000Y0306000D03*
X0031000Y0306000D03*
X0021000Y0306000D03*
X0021000Y0296000D03*
X0031000Y0296000D03*
X0011000Y0296000D03*
X0011000Y0306000D03*
M02*
