G75*
%MOIN*%
%OFA0B0*%
%FSLAX25Y25*%
%IPPOS*%
%LPD*%
%AMOC8*
5,1,8,0,0,1.08239X$1,22.5*
%
%ADD10C,0.06400*%
%ADD11OC8,0.06400*%
%ADD12C,0.02400*%
%ADD13C,0.04000*%
D10*
X0007800Y0056000D02*
X0014200Y0056000D01*
X0014200Y0066000D02*
X0007800Y0066000D01*
X0086000Y0162800D02*
X0086000Y0169200D01*
X0096000Y0169200D02*
X0096000Y0162800D01*
X0106000Y0162800D02*
X0106000Y0169200D01*
X0116000Y0169200D02*
X0116000Y0162800D01*
X0211000Y0252800D02*
X0211000Y0259200D01*
X0221000Y0259200D02*
X0221000Y0252800D01*
X0231000Y0252800D02*
X0231000Y0259200D01*
X0241000Y0259200D02*
X0241000Y0252800D01*
X0251000Y0252800D02*
X0251000Y0259200D01*
X0261000Y0259200D02*
X0261000Y0252800D01*
X0271000Y0252800D02*
X0271000Y0259200D01*
X0281000Y0259200D02*
X0281000Y0252800D01*
X0291000Y0252800D02*
X0291000Y0259200D01*
X0301000Y0259200D02*
X0301000Y0252800D01*
X0316000Y0252800D02*
X0316000Y0259200D01*
X0326000Y0259200D02*
X0326000Y0252800D01*
X0336000Y0252800D02*
X0336000Y0259200D01*
X0346000Y0259200D02*
X0346000Y0252800D01*
X0356000Y0252800D02*
X0356000Y0259200D01*
X0366000Y0259200D02*
X0366000Y0252800D01*
X0376000Y0252800D02*
X0376000Y0259200D01*
X0386000Y0259200D02*
X0386000Y0252800D01*
X0386000Y0069200D02*
X0386000Y0062800D01*
X0376000Y0062800D02*
X0376000Y0069200D01*
X0366000Y0069200D02*
X0366000Y0062800D01*
X0356000Y0062800D02*
X0356000Y0069200D01*
X0346000Y0069200D02*
X0346000Y0062800D01*
X0336000Y0062800D02*
X0336000Y0069200D01*
X0316000Y0069200D02*
X0316000Y0062800D01*
X0306000Y0062800D02*
X0306000Y0069200D01*
X0296000Y0069200D02*
X0296000Y0062800D01*
X0286000Y0062800D02*
X0286000Y0069200D01*
X0276000Y0069200D02*
X0276000Y0062800D01*
X0266000Y0062800D02*
X0266000Y0069200D01*
X0256000Y0069200D02*
X0256000Y0062800D01*
X0246000Y0062800D02*
X0246000Y0069200D01*
D11*
X0021000Y0011000D03*
X0031000Y0011000D03*
X0031000Y0021000D03*
X0021000Y0021000D03*
X0041000Y0021000D03*
X0051000Y0021000D03*
X0051000Y0011000D03*
X0041000Y0011000D03*
X0061000Y0011000D03*
X0071000Y0011000D03*
X0071000Y0021000D03*
X0061000Y0021000D03*
X0081000Y0021000D03*
X0091000Y0021000D03*
X0091000Y0011000D03*
X0081000Y0011000D03*
X0101000Y0011000D03*
X0111000Y0011000D03*
X0111000Y0021000D03*
X0101000Y0021000D03*
X0101000Y0066000D03*
X0111000Y0066000D03*
X0111000Y0076000D03*
X0101000Y0076000D03*
X0091000Y0076000D03*
X0081000Y0076000D03*
X0081000Y0066000D03*
X0091000Y0066000D03*
X0071000Y0066000D03*
X0061000Y0066000D03*
X0061000Y0076000D03*
X0071000Y0076000D03*
X0051000Y0076000D03*
X0041000Y0076000D03*
X0041000Y0066000D03*
X0051000Y0066000D03*
X0021000Y0096000D03*
X0021000Y0106000D03*
X0021000Y0116000D03*
X0021000Y0126000D03*
X0021000Y0136000D03*
X0011000Y0136000D03*
X0011000Y0126000D03*
X0011000Y0116000D03*
X0011000Y0106000D03*
X0011000Y0096000D03*
X0011000Y0146000D03*
X0011000Y0156000D03*
X0011000Y0166000D03*
X0011000Y0176000D03*
X0011000Y0186000D03*
X0011000Y0196000D03*
X0011000Y0206000D03*
X0021000Y0206000D03*
X0021000Y0196000D03*
X0021000Y0186000D03*
X0021000Y0176000D03*
X0021000Y0166000D03*
X0021000Y0156000D03*
X0021000Y0146000D03*
X0021000Y0216000D03*
X0021000Y0226000D03*
X0011000Y0226000D03*
X0011000Y0216000D03*
X0041000Y0246000D03*
X0051000Y0246000D03*
X0051000Y0256000D03*
X0041000Y0256000D03*
X0061000Y0256000D03*
X0071000Y0256000D03*
X0071000Y0246000D03*
X0061000Y0246000D03*
X0081000Y0246000D03*
X0091000Y0246000D03*
X0091000Y0256000D03*
X0081000Y0256000D03*
X0101000Y0256000D03*
X0111000Y0256000D03*
X0111000Y0246000D03*
X0101000Y0246000D03*
X0121000Y0246000D03*
X0131000Y0246000D03*
X0131000Y0256000D03*
X0121000Y0256000D03*
X0141000Y0256000D03*
X0151000Y0256000D03*
X0151000Y0246000D03*
X0141000Y0246000D03*
X0161000Y0246000D03*
X0171000Y0246000D03*
X0171000Y0256000D03*
X0161000Y0256000D03*
X0191000Y0226000D03*
X0191000Y0216000D03*
X0201000Y0216000D03*
X0201000Y0226000D03*
X0201000Y0206000D03*
X0201000Y0196000D03*
X0201000Y0186000D03*
X0201000Y0176000D03*
X0201000Y0166000D03*
X0201000Y0156000D03*
X0201000Y0146000D03*
X0191000Y0146000D03*
X0191000Y0156000D03*
X0191000Y0166000D03*
X0191000Y0176000D03*
X0191000Y0186000D03*
X0191000Y0196000D03*
X0191000Y0206000D03*
X0191000Y0136000D03*
X0191000Y0126000D03*
X0191000Y0116000D03*
X0191000Y0106000D03*
X0191000Y0096000D03*
X0201000Y0096000D03*
X0201000Y0106000D03*
X0201000Y0116000D03*
X0201000Y0126000D03*
X0201000Y0136000D03*
X0171000Y0076000D03*
X0161000Y0076000D03*
X0161000Y0066000D03*
X0171000Y0066000D03*
X0151000Y0066000D03*
X0141000Y0066000D03*
X0141000Y0076000D03*
X0151000Y0076000D03*
X0131000Y0076000D03*
X0121000Y0076000D03*
X0121000Y0066000D03*
X0131000Y0066000D03*
X0286000Y0021000D03*
X0286000Y0011000D03*
X0296000Y0011000D03*
X0306000Y0011000D03*
X0306000Y0021000D03*
X0296000Y0021000D03*
X0316000Y0021000D03*
X0326000Y0021000D03*
X0326000Y0011000D03*
X0316000Y0011000D03*
X0336000Y0011000D03*
X0346000Y0011000D03*
X0346000Y0021000D03*
X0336000Y0021000D03*
X0356000Y0021000D03*
X0366000Y0021000D03*
X0366000Y0011000D03*
X0356000Y0011000D03*
X0376000Y0011000D03*
X0376000Y0021000D03*
X0376000Y0296000D03*
X0376000Y0306000D03*
X0366000Y0306000D03*
X0356000Y0306000D03*
X0356000Y0296000D03*
X0366000Y0296000D03*
X0346000Y0296000D03*
X0336000Y0296000D03*
X0336000Y0306000D03*
X0346000Y0306000D03*
X0326000Y0306000D03*
X0316000Y0306000D03*
X0316000Y0296000D03*
X0326000Y0296000D03*
X0306000Y0296000D03*
X0296000Y0296000D03*
X0296000Y0306000D03*
X0306000Y0306000D03*
X0286000Y0306000D03*
X0286000Y0296000D03*
X0111000Y0296000D03*
X0101000Y0296000D03*
X0101000Y0306000D03*
X0111000Y0306000D03*
X0091000Y0306000D03*
X0081000Y0306000D03*
X0081000Y0296000D03*
X0091000Y0296000D03*
X0071000Y0296000D03*
X0061000Y0296000D03*
X0061000Y0306000D03*
X0071000Y0306000D03*
X0051000Y0306000D03*
X0041000Y0306000D03*
X0041000Y0296000D03*
X0051000Y0296000D03*
X0031000Y0296000D03*
X0021000Y0296000D03*
X0021000Y0306000D03*
X0031000Y0306000D03*
D12*
X0036000Y0301000D01*
X0043500Y0301000D01*
X0046000Y0298500D01*
X0046000Y0293500D01*
X0059125Y0280375D01*
X0059125Y0275375D01*
X0061000Y0273500D01*
X0061000Y0256000D01*
X0056000Y0253500D02*
X0056000Y0279125D01*
X0041000Y0294125D01*
X0041000Y0296000D01*
X0033500Y0296000D02*
X0031000Y0296000D01*
X0033500Y0296000D02*
X0050375Y0279125D01*
X0046000Y0277875D02*
X0036000Y0287875D01*
X0046000Y0277875D02*
X0046000Y0251625D01*
X0041000Y0256000D02*
X0011000Y0226000D01*
X0021000Y0226000D01*
X0041000Y0246000D02*
X0056625Y0230375D01*
X0059750Y0222875D02*
X0067250Y0222875D01*
X0067250Y0228500D02*
X0122875Y0172875D01*
X0116000Y0166000D01*
X0116000Y0165375D01*
X0100375Y0149750D01*
X0170375Y0079750D01*
X0170375Y0076625D01*
X0171000Y0076000D01*
X0171000Y0066000D01*
X0173500Y0061000D02*
X0157250Y0061000D01*
X0156625Y0061625D01*
X0116000Y0021000D01*
X0111000Y0021000D01*
X0106000Y0018500D02*
X0106000Y0025375D01*
X0102875Y0028500D01*
X0102875Y0057875D01*
X0111000Y0066000D01*
X0113500Y0071000D02*
X0096000Y0071000D01*
X0091000Y0076000D01*
X0091000Y0066000D02*
X0086000Y0061000D01*
X0086000Y0018500D01*
X0081000Y0013500D01*
X0081000Y0011000D01*
X0076000Y0018500D02*
X0076000Y0061000D01*
X0081000Y0066000D01*
X0091000Y0058500D02*
X0091000Y0021000D01*
X0096000Y0018500D02*
X0091000Y0013500D01*
X0091000Y0011000D01*
X0096000Y0018500D02*
X0096000Y0061000D01*
X0101000Y0066000D01*
X0107250Y0054750D02*
X0116000Y0063500D01*
X0116000Y0068500D01*
X0113500Y0071000D01*
X0117875Y0071000D02*
X0112875Y0076000D01*
X0111000Y0076000D01*
X0117875Y0071000D02*
X0123500Y0071000D01*
X0126000Y0068500D01*
X0126000Y0063500D01*
X0116000Y0053500D01*
X0116000Y0029750D01*
X0107250Y0029750D02*
X0107250Y0054750D01*
X0121000Y0076000D02*
X0121000Y0123500D01*
X0119125Y0125375D01*
X0145375Y0136625D02*
X0145375Y0111000D01*
X0149750Y0117250D02*
X0149750Y0122250D01*
X0191000Y0163500D01*
X0191000Y0166000D01*
X0188500Y0171000D02*
X0203500Y0171000D01*
X0272875Y0240375D01*
X0272875Y0247250D01*
X0276000Y0250375D01*
X0276000Y0261625D01*
X0281000Y0266625D01*
X0301000Y0266625D01*
X0314125Y0279750D01*
X0322875Y0279750D01*
X0324125Y0278500D01*
X0328500Y0279750D02*
X0328500Y0275375D01*
X0321000Y0267875D01*
X0321000Y0237250D01*
X0298500Y0214750D01*
X0298500Y0196625D01*
X0298500Y0191000D02*
X0311000Y0203500D01*
X0311000Y0222875D01*
X0325375Y0237250D01*
X0325375Y0246000D01*
X0331000Y0238500D02*
X0331000Y0269125D01*
X0356000Y0294125D01*
X0356000Y0296000D01*
X0361000Y0293500D02*
X0361000Y0308500D01*
X0358500Y0311000D01*
X0341000Y0311000D01*
X0336000Y0306000D01*
X0341000Y0301000D02*
X0346000Y0306000D01*
X0341000Y0301000D02*
X0293500Y0301000D01*
X0291000Y0298500D01*
X0291000Y0289750D01*
X0269750Y0268500D01*
X0252875Y0268500D01*
X0247875Y0263500D01*
X0246625Y0263500D01*
X0251000Y0256000D02*
X0251000Y0253500D01*
X0235375Y0237875D01*
X0235375Y0224125D01*
X0229125Y0217875D01*
X0229125Y0216625D01*
X0230375Y0223500D02*
X0230375Y0255375D01*
X0231000Y0256000D01*
X0234750Y0249125D02*
X0241000Y0255375D01*
X0241000Y0256000D01*
X0234750Y0249125D02*
X0234750Y0242875D01*
X0239750Y0234125D02*
X0256000Y0250375D01*
X0256000Y0262875D01*
X0267250Y0271625D02*
X0276000Y0280375D01*
X0275375Y0289125D02*
X0262250Y0276000D01*
X0257875Y0281625D02*
X0277250Y0301000D01*
X0289125Y0301000D01*
X0294125Y0306000D01*
X0296000Y0306000D01*
X0296000Y0296000D02*
X0296000Y0290375D01*
X0289125Y0283500D01*
X0289125Y0277875D01*
X0296000Y0271000D01*
X0295375Y0276000D02*
X0292250Y0279125D01*
X0292250Y0282250D01*
X0306000Y0296000D01*
X0308500Y0291000D02*
X0348500Y0291000D01*
X0351000Y0293500D01*
X0351000Y0301000D01*
X0356000Y0306000D01*
X0361000Y0293500D02*
X0351000Y0283500D01*
X0351000Y0238500D01*
X0342250Y0229750D01*
X0336625Y0229750D01*
X0332250Y0231000D02*
X0332250Y0227250D01*
X0316625Y0211625D01*
X0316000Y0216625D02*
X0329125Y0229750D01*
X0329125Y0232250D01*
X0335375Y0238500D01*
X0335375Y0246000D01*
X0339750Y0252250D02*
X0339750Y0238500D01*
X0332250Y0231000D01*
X0341000Y0234125D02*
X0341000Y0235375D01*
X0346000Y0240375D01*
X0346000Y0256000D01*
X0339750Y0252250D02*
X0336000Y0256000D01*
X0331000Y0238500D02*
X0315375Y0222875D01*
X0315375Y0221625D01*
X0307250Y0229125D02*
X0304125Y0232250D01*
X0304125Y0248500D01*
X0307875Y0252250D01*
X0307875Y0267875D01*
X0315375Y0275375D01*
X0325375Y0282875D02*
X0304750Y0282875D01*
X0297875Y0276000D01*
X0295375Y0276000D01*
X0296625Y0280375D02*
X0297875Y0280375D01*
X0308500Y0291000D01*
X0325375Y0282875D02*
X0328500Y0279750D01*
X0316000Y0306000D02*
X0311000Y0311000D01*
X0225375Y0311000D01*
X0196000Y0281625D01*
X0194750Y0281625D01*
X0199125Y0274750D02*
X0174437Y0250062D01*
X0199125Y0225375D01*
X0201000Y0226000D01*
X0191000Y0216000D01*
X0186000Y0219750D02*
X0186000Y0193500D01*
X0191000Y0188500D01*
X0191000Y0186000D01*
X0196000Y0193500D02*
X0196000Y0198500D01*
X0198500Y0201000D01*
X0203500Y0201000D01*
X0211000Y0208500D01*
X0211000Y0256000D01*
X0215375Y0249750D02*
X0221000Y0255375D01*
X0221000Y0256000D01*
X0215375Y0249750D02*
X0215375Y0221000D01*
X0207875Y0215375D02*
X0207875Y0241625D01*
X0206625Y0242875D01*
X0203500Y0239125D02*
X0197250Y0245375D01*
X0195375Y0251000D02*
X0216000Y0271625D01*
X0267250Y0271625D01*
X0276625Y0269750D02*
X0289125Y0269750D01*
X0290375Y0271000D01*
X0291000Y0256000D02*
X0291000Y0142250D01*
X0296000Y0137250D01*
X0305375Y0137250D01*
X0371000Y0071625D01*
X0371000Y0071000D01*
X0376000Y0066000D01*
X0381000Y0071000D02*
X0381000Y0071625D01*
X0377875Y0074750D01*
X0372250Y0074750D01*
X0306625Y0140375D01*
X0297250Y0140375D01*
X0294125Y0143500D01*
X0294125Y0248500D01*
X0301000Y0255375D01*
X0301000Y0256000D01*
X0287875Y0244750D02*
X0286625Y0246000D01*
X0287875Y0244750D02*
X0287875Y0186000D01*
X0249125Y0147250D01*
X0249125Y0144750D01*
X0243500Y0144750D02*
X0243500Y0146000D01*
X0284750Y0187250D01*
X0284750Y0212875D01*
X0283500Y0214125D01*
X0280375Y0205375D02*
X0280375Y0187250D01*
X0237250Y0144125D01*
X0236625Y0149125D02*
X0214125Y0171625D01*
X0209125Y0172250D02*
X0209125Y0171000D01*
X0209125Y0172250D02*
X0277250Y0240375D01*
X0277250Y0246000D01*
X0271000Y0254750D02*
X0241625Y0225375D01*
X0248500Y0221625D02*
X0207875Y0181000D01*
X0179750Y0181000D01*
X0185375Y0174125D02*
X0171625Y0174125D01*
X0160375Y0185375D01*
X0166000Y0197250D02*
X0181625Y0197250D01*
X0181625Y0206000D02*
X0162875Y0206000D01*
X0131625Y0174750D01*
X0130375Y0174750D01*
X0122875Y0172875D02*
X0176000Y0226000D01*
X0191000Y0226000D01*
X0203500Y0211000D02*
X0207875Y0215375D01*
X0203500Y0211000D02*
X0198500Y0211000D01*
X0196000Y0208500D01*
X0196000Y0203500D01*
X0191000Y0198500D01*
X0191000Y0196000D01*
X0196000Y0193500D02*
X0201000Y0188500D01*
X0201000Y0186000D01*
X0201000Y0196000D02*
X0202875Y0196000D01*
X0230375Y0223500D01*
X0195375Y0251000D02*
X0182875Y0251000D01*
X0174437Y0250062D02*
X0171625Y0247250D01*
X0171000Y0246000D01*
X0171000Y0256000D01*
X0170375Y0256625D01*
X0170375Y0261625D01*
X0126625Y0305375D01*
X0123500Y0301000D02*
X0123500Y0292250D01*
X0121000Y0289750D01*
X0121000Y0279750D01*
X0126000Y0274750D01*
X0126000Y0222250D01*
X0131000Y0216000D02*
X0145375Y0201625D01*
X0142250Y0197875D02*
X0135375Y0204750D01*
X0135375Y0206000D01*
X0141000Y0211625D02*
X0141000Y0246000D01*
X0145375Y0242875D02*
X0146000Y0243500D01*
X0146000Y0259125D01*
X0125375Y0279750D01*
X0125375Y0286000D01*
X0119125Y0292250D02*
X0119125Y0310375D01*
X0111000Y0306000D02*
X0111000Y0303500D01*
X0116000Y0298500D01*
X0116000Y0293500D01*
X0096000Y0273500D01*
X0095375Y0269125D02*
X0094750Y0269125D01*
X0071000Y0292875D01*
X0071000Y0296000D01*
X0066000Y0293500D02*
X0066000Y0301000D01*
X0061000Y0306000D01*
X0056000Y0301000D02*
X0051000Y0306000D01*
X0056000Y0301000D02*
X0056000Y0293500D01*
X0058500Y0291000D01*
X0059125Y0291000D01*
X0086000Y0264125D01*
X0086000Y0243500D01*
X0078500Y0236000D01*
X0078500Y0234125D01*
X0076000Y0243500D02*
X0076000Y0269750D01*
X0057875Y0287875D01*
X0057250Y0287875D01*
X0051000Y0294125D01*
X0051000Y0296000D01*
X0066000Y0293500D02*
X0096000Y0263500D01*
X0096000Y0243500D01*
X0099750Y0239750D01*
X0099750Y0201625D01*
X0106000Y0196625D02*
X0106000Y0258500D01*
X0095375Y0269125D01*
X0086000Y0283500D02*
X0096000Y0293500D01*
X0096000Y0301000D01*
X0091000Y0306000D01*
X0086000Y0301000D02*
X0081000Y0306000D01*
X0086000Y0301000D02*
X0086000Y0293500D01*
X0087250Y0292250D01*
X0087250Y0291000D01*
X0100375Y0295375D02*
X0100375Y0286625D01*
X0100375Y0295375D02*
X0101000Y0296000D01*
X0106000Y0303500D02*
X0106000Y0308500D01*
X0103500Y0311000D01*
X0026000Y0311000D01*
X0021000Y0306000D01*
X0021000Y0296000D02*
X0021000Y0292875D01*
X0041000Y0272875D01*
X0041000Y0256000D01*
X0056000Y0253500D02*
X0061000Y0248500D01*
X0061000Y0246000D01*
X0066000Y0253500D02*
X0066000Y0274125D01*
X0063500Y0276625D01*
X0066000Y0253500D02*
X0071000Y0248500D01*
X0071000Y0246000D01*
X0076000Y0243500D02*
X0038500Y0206000D01*
X0021000Y0206000D01*
X0018500Y0201000D02*
X0037875Y0201000D01*
X0059750Y0222875D01*
X0046000Y0203500D02*
X0041625Y0199125D01*
X0041625Y0196625D01*
X0041000Y0182250D02*
X0077875Y0182250D01*
X0079125Y0181000D01*
X0075375Y0179125D02*
X0077875Y0176625D01*
X0086000Y0176625D01*
X0086625Y0186000D02*
X0021000Y0186000D01*
X0016000Y0183500D02*
X0016000Y0198500D01*
X0018500Y0201000D01*
X0011000Y0186000D02*
X0006000Y0181000D01*
X0006000Y0113500D01*
X0011000Y0108500D01*
X0011000Y0106000D01*
X0018500Y0111000D02*
X0023500Y0111000D01*
X0051000Y0138500D01*
X0051000Y0170375D01*
X0046625Y0167875D02*
X0042875Y0164125D01*
X0041625Y0164125D01*
X0033500Y0156000D01*
X0033500Y0141000D01*
X0021000Y0128500D01*
X0021000Y0126000D01*
X0021000Y0136000D02*
X0011000Y0136000D01*
X0011000Y0146000D02*
X0013500Y0146000D01*
X0018500Y0151000D01*
X0024125Y0151000D01*
X0041625Y0168500D01*
X0042250Y0174750D02*
X0067250Y0174750D01*
X0075375Y0179125D02*
X0042250Y0179125D01*
X0024125Y0161000D01*
X0018500Y0161000D01*
X0013500Y0156000D01*
X0011000Y0156000D01*
X0021000Y0156000D02*
X0023500Y0156000D01*
X0042250Y0174750D01*
X0041000Y0182250D02*
X0024750Y0166000D01*
X0021000Y0166000D01*
X0021000Y0176000D02*
X0021000Y0178500D01*
X0016000Y0183500D01*
X0041000Y0153500D02*
X0041000Y0134125D01*
X0022875Y0116000D01*
X0021000Y0116000D01*
X0018500Y0111000D02*
X0013500Y0116000D01*
X0011000Y0116000D01*
X0011000Y0096000D02*
X0021000Y0096000D01*
X0021625Y0096625D01*
X0047250Y0096625D01*
X0100375Y0149750D01*
X0106000Y0166000D02*
X0101000Y0171000D01*
X0101000Y0171625D01*
X0086625Y0186000D01*
X0079750Y0161625D02*
X0049125Y0131000D01*
X0056000Y0143500D02*
X0058500Y0146000D01*
X0058500Y0152250D01*
X0120375Y0157250D02*
X0164750Y0201625D01*
X0172875Y0201625D01*
X0155375Y0213500D02*
X0155375Y0236000D01*
X0145375Y0242875D02*
X0145375Y0217875D01*
X0151000Y0216000D02*
X0151000Y0246000D01*
X0161000Y0256000D02*
X0161000Y0265375D01*
X0158500Y0267875D01*
X0139750Y0271000D02*
X0139750Y0282875D01*
X0121000Y0274125D02*
X0117250Y0277875D01*
X0112875Y0276625D02*
X0116000Y0273500D01*
X0116000Y0223500D01*
X0131000Y0216000D02*
X0131000Y0246000D01*
X0136000Y0248500D02*
X0131000Y0253500D01*
X0131000Y0256000D01*
X0136000Y0248500D02*
X0136000Y0227250D01*
X0121000Y0256000D02*
X0121000Y0274125D01*
X0112875Y0276625D02*
X0112875Y0286000D01*
X0119125Y0292250D01*
X0111000Y0296000D02*
X0111000Y0298500D01*
X0106000Y0303500D01*
X0179125Y0260375D02*
X0224750Y0306000D01*
X0286000Y0306000D01*
X0286000Y0296000D02*
X0276625Y0296000D01*
X0255375Y0274750D01*
X0199125Y0274750D01*
X0186000Y0278500D02*
X0218500Y0311000D01*
X0256625Y0281625D02*
X0257875Y0281625D01*
X0271000Y0256000D02*
X0271000Y0254750D01*
X0336625Y0215375D02*
X0376000Y0254750D01*
X0376000Y0256000D01*
X0381000Y0261625D02*
X0377875Y0264750D01*
X0374125Y0264750D01*
X0366000Y0256625D01*
X0366000Y0256000D01*
X0356000Y0256000D02*
X0356000Y0239125D01*
X0309125Y0192250D01*
X0309125Y0166000D01*
X0298500Y0155375D01*
X0298500Y0144750D01*
X0304125Y0144750D02*
X0304125Y0156625D01*
X0381000Y0233500D01*
X0381000Y0261625D01*
X0386000Y0256000D02*
X0386000Y0206000D01*
X0336625Y0214125D02*
X0336625Y0215375D01*
X0298500Y0191000D02*
X0298500Y0161000D01*
X0310375Y0156625D02*
X0310375Y0143500D01*
X0373500Y0080375D01*
X0373500Y0079125D01*
X0381000Y0071000D02*
X0386000Y0066000D01*
X0391000Y0060375D02*
X0391000Y0074125D01*
X0319750Y0145375D01*
X0328500Y0104125D02*
X0271625Y0104125D01*
X0214750Y0161000D01*
X0198500Y0161000D01*
X0193500Y0156000D01*
X0191000Y0156000D01*
X0198500Y0151000D02*
X0203500Y0151000D01*
X0220375Y0134125D01*
X0220375Y0116000D01*
X0238500Y0097875D01*
X0314750Y0097875D01*
X0341000Y0071625D01*
X0341000Y0054750D01*
X0345375Y0050375D01*
X0345375Y0030375D01*
X0341000Y0018500D02*
X0341000Y0050375D01*
X0331000Y0060375D01*
X0331000Y0074750D01*
X0311000Y0094750D01*
X0237250Y0094750D01*
X0217250Y0114750D01*
X0217250Y0131625D01*
X0202875Y0146000D01*
X0201000Y0146000D01*
X0198500Y0151000D02*
X0193500Y0146000D01*
X0191000Y0146000D01*
X0198500Y0141000D02*
X0203500Y0141000D01*
X0214125Y0130375D01*
X0214125Y0113500D01*
X0236000Y0091625D01*
X0309750Y0091625D01*
X0327875Y0073500D01*
X0327875Y0034125D01*
X0328500Y0033500D01*
X0324125Y0032250D02*
X0324125Y0072875D01*
X0308500Y0088500D01*
X0234750Y0088500D01*
X0209125Y0114125D01*
X0209125Y0127875D01*
X0201000Y0136000D01*
X0198500Y0141000D02*
X0193500Y0136000D01*
X0191000Y0136000D01*
X0201000Y0126000D02*
X0206000Y0121000D01*
X0206000Y0112875D01*
X0212250Y0106625D01*
X0212250Y0099750D01*
X0220375Y0091625D01*
X0220375Y0081000D01*
X0251625Y0049750D01*
X0252250Y0030375D02*
X0201625Y0081000D01*
X0206000Y0087875D02*
X0206000Y0101000D01*
X0201000Y0106000D01*
X0201000Y0113500D02*
X0201000Y0116000D01*
X0201000Y0113500D02*
X0209125Y0105375D01*
X0209125Y0098500D01*
X0216000Y0091625D01*
X0216000Y0083500D01*
X0206000Y0087875D02*
X0277875Y0016000D01*
X0286000Y0013500D02*
X0286000Y0011000D01*
X0285375Y0011625D01*
X0257875Y0011625D01*
X0191000Y0078500D01*
X0173500Y0061000D01*
X0161000Y0066000D02*
X0161000Y0076000D01*
X0161000Y0066000D02*
X0156625Y0061625D01*
X0141000Y0066000D02*
X0141000Y0068500D01*
X0136000Y0073500D01*
X0136000Y0092250D01*
X0141000Y0091625D02*
X0141000Y0076000D01*
X0168500Y0087250D02*
X0168500Y0092250D01*
X0181625Y0105375D01*
X0186000Y0108500D02*
X0186000Y0087250D01*
X0191000Y0078500D02*
X0191000Y0096000D01*
X0196000Y0098500D02*
X0191000Y0103500D01*
X0191000Y0106000D01*
X0186000Y0108500D02*
X0191000Y0113500D01*
X0191000Y0116000D01*
X0184750Y0117250D02*
X0172875Y0105375D01*
X0196000Y0098500D02*
X0196000Y0092250D01*
X0262250Y0026000D01*
X0286000Y0021000D02*
X0286000Y0055375D01*
X0291000Y0060375D01*
X0291000Y0071625D01*
X0296625Y0077250D01*
X0305375Y0077250D01*
X0316000Y0066625D01*
X0316000Y0066000D01*
X0321000Y0071625D02*
X0321000Y0026000D01*
X0316000Y0021000D01*
X0311000Y0018500D02*
X0316000Y0013500D01*
X0316000Y0011000D01*
X0311000Y0018500D02*
X0311000Y0045375D01*
X0324125Y0032250D02*
X0331000Y0025375D01*
X0331000Y0018500D01*
X0326000Y0013500D01*
X0326000Y0011000D01*
X0336000Y0011000D02*
X0336000Y0013500D01*
X0341000Y0018500D01*
X0346000Y0013500D02*
X0351000Y0018500D01*
X0351000Y0071625D01*
X0321625Y0101000D01*
X0257875Y0101000D01*
X0202875Y0156000D01*
X0201000Y0156000D01*
X0188500Y0171000D02*
X0185375Y0174125D01*
X0167250Y0152875D02*
X0133500Y0152875D01*
X0086000Y0215375D02*
X0086000Y0224125D01*
X0017250Y0291000D02*
X0006000Y0279750D01*
X0222250Y0095375D02*
X0223500Y0095375D01*
X0238500Y0080375D01*
X0312250Y0080375D01*
X0321000Y0071625D01*
X0301000Y0072875D02*
X0301000Y0018500D01*
X0306000Y0013500D01*
X0306000Y0011000D01*
X0291000Y0006000D02*
X0286000Y0011000D01*
X0286000Y0013500D02*
X0291000Y0018500D01*
X0291000Y0056000D01*
X0296000Y0061000D01*
X0296000Y0066000D01*
X0328500Y0104125D02*
X0361000Y0071625D01*
X0361000Y0024750D01*
X0371000Y0018500D02*
X0371000Y0040375D01*
X0391000Y0060375D01*
X0376000Y0021000D02*
X0376000Y0018500D01*
X0371000Y0013500D01*
X0371000Y0008500D01*
X0368500Y0006000D01*
X0291000Y0006000D01*
X0346000Y0011000D02*
X0346000Y0013500D01*
X0366000Y0013500D02*
X0366000Y0011000D01*
X0366000Y0013500D02*
X0371000Y0018500D01*
X0106000Y0018500D02*
X0101000Y0013500D01*
X0101000Y0011000D01*
X0076000Y0018500D02*
X0071000Y0013500D01*
X0071000Y0011000D01*
X0066000Y0018500D02*
X0066000Y0061000D01*
X0071000Y0066000D01*
X0061000Y0066000D02*
X0056000Y0061000D01*
X0056000Y0018500D01*
X0051000Y0013500D01*
X0051000Y0011000D01*
X0053500Y0006000D02*
X0028500Y0006000D01*
X0026000Y0008500D01*
X0026000Y0068500D01*
X0038500Y0081000D01*
X0066000Y0081000D01*
X0071000Y0076000D01*
X0051000Y0066000D02*
X0046000Y0061000D01*
X0046000Y0018500D01*
X0041000Y0013500D01*
X0041000Y0011000D01*
X0036000Y0018500D02*
X0036000Y0061000D01*
X0041000Y0066000D01*
X0041000Y0058500D02*
X0041000Y0021000D01*
X0036000Y0018500D02*
X0031000Y0013500D01*
X0031000Y0011000D01*
X0021000Y0011000D02*
X0021000Y0013500D01*
X0016000Y0018500D01*
X0016000Y0050375D01*
X0019750Y0054125D01*
X0019750Y0057875D01*
X0011625Y0066000D01*
X0011000Y0066000D01*
X0031000Y0066000D02*
X0041000Y0076000D01*
X0031000Y0066000D02*
X0031000Y0021000D01*
X0051000Y0021000D02*
X0051000Y0058500D01*
X0071625Y0049125D02*
X0071625Y0028500D01*
X0071000Y0027875D01*
X0071000Y0021000D01*
X0066000Y0018500D02*
X0061000Y0013500D01*
X0061000Y0011000D01*
X0056000Y0008500D02*
X0053500Y0006000D01*
X0056000Y0008500D02*
X0056000Y0013500D01*
X0061000Y0018500D01*
X0061000Y0021000D01*
D13*
X0071625Y0049125D03*
X0091000Y0058500D03*
X0107250Y0029750D03*
X0116000Y0029750D03*
X0051000Y0058500D03*
X0041000Y0058500D03*
X0119125Y0125375D03*
X0145375Y0136625D03*
X0133500Y0152875D03*
X0120375Y0157250D03*
X0130375Y0174750D03*
X0142250Y0197875D03*
X0145375Y0201625D03*
X0141000Y0211625D03*
X0145375Y0217875D03*
X0151000Y0216000D03*
X0155375Y0213500D03*
X0136000Y0227250D03*
X0126000Y0222250D03*
X0116000Y0223500D03*
X0135375Y0206000D03*
X0106000Y0196625D03*
X0099750Y0201625D03*
X0086000Y0215375D03*
X0086000Y0224125D03*
X0078500Y0234125D03*
X0067250Y0228500D03*
X0067250Y0222875D03*
X0056625Y0230375D03*
X0046000Y0251625D03*
X0063500Y0276625D03*
X0050375Y0279125D03*
X0036000Y0287875D03*
X0017250Y0291000D03*
X0006000Y0279750D03*
X0086000Y0283500D03*
X0087250Y0291000D03*
X0100375Y0286625D03*
X0096000Y0273500D03*
X0117250Y0277875D03*
X0125375Y0286000D03*
X0139750Y0282875D03*
X0139750Y0271000D03*
X0158500Y0267875D03*
X0179125Y0260375D03*
X0182875Y0251000D03*
X0197250Y0245375D03*
X0203500Y0239125D03*
X0206625Y0242875D03*
X0215375Y0221000D03*
X0229125Y0216625D03*
X0241625Y0225375D03*
X0248500Y0221625D03*
X0239750Y0234125D03*
X0234750Y0242875D03*
X0256000Y0262875D03*
X0246625Y0263500D03*
X0262250Y0276000D03*
X0256625Y0281625D03*
X0275375Y0289125D03*
X0276000Y0280375D03*
X0276625Y0269750D03*
X0290375Y0271000D03*
X0296000Y0271000D03*
X0296625Y0280375D03*
X0315375Y0275375D03*
X0324125Y0278500D03*
X0325375Y0246000D03*
X0335375Y0246000D03*
X0341000Y0234125D03*
X0336625Y0229750D03*
X0336625Y0214125D03*
X0316625Y0211625D03*
X0316000Y0216625D03*
X0315375Y0221625D03*
X0307250Y0229125D03*
X0286625Y0246000D03*
X0277250Y0246000D03*
X0283500Y0214125D03*
X0280375Y0205375D03*
X0298500Y0196625D03*
X0298500Y0161000D03*
X0310375Y0156625D03*
X0304125Y0144750D03*
X0298500Y0144750D03*
X0319750Y0145375D03*
X0249125Y0144750D03*
X0243500Y0144750D03*
X0237250Y0144125D03*
X0236625Y0149125D03*
X0214125Y0171625D03*
X0209125Y0171000D03*
X0179750Y0181000D03*
X0160375Y0185375D03*
X0166000Y0197250D03*
X0172875Y0201625D03*
X0181625Y0197250D03*
X0181625Y0206000D03*
X0186000Y0219750D03*
X0155375Y0236000D03*
X0186000Y0278500D03*
X0194750Y0281625D03*
X0218500Y0311000D03*
X0126625Y0305375D03*
X0123500Y0301000D03*
X0119125Y0310375D03*
X0046000Y0203500D03*
X0041625Y0196625D03*
X0067250Y0174750D03*
X0079125Y0181000D03*
X0086000Y0176625D03*
X0079750Y0161625D03*
X0058500Y0152250D03*
X0056000Y0143500D03*
X0049125Y0131000D03*
X0041000Y0153500D03*
X0046625Y0167875D03*
X0041625Y0168500D03*
X0051000Y0170375D03*
X0145375Y0111000D03*
X0149750Y0117250D03*
X0172875Y0105375D03*
X0181625Y0105375D03*
X0184750Y0117250D03*
X0186000Y0087250D03*
X0201625Y0081000D03*
X0216000Y0083500D03*
X0222250Y0095375D03*
X0168500Y0087250D03*
X0141000Y0091625D03*
X0136000Y0092250D03*
X0167250Y0152875D03*
X0251625Y0049750D03*
X0252250Y0030375D03*
X0262250Y0026000D03*
X0277875Y0016000D03*
X0311000Y0045375D03*
X0328500Y0033500D03*
X0345375Y0030375D03*
X0361000Y0024750D03*
X0301000Y0072875D03*
X0373500Y0079125D03*
X0386000Y0206000D03*
M02*
