G75*
%MOIN*%
%OFA0B0*%
%FSLAX25Y25*%
%IPPOS*%
%LPD*%
%AMOC8*
5,1,8,0,0,1.08239X$1,22.5*
%
%ADD10C,0.06800*%
%ADD11OC8,0.06800*%
%ADD12R,0.01778X0.04140*%
D10*
X0007800Y0056000D02*
X0014200Y0056000D01*
X0014200Y0066000D02*
X0007800Y0066000D01*
X0086000Y0162800D02*
X0086000Y0169200D01*
X0096000Y0169200D02*
X0096000Y0162800D01*
X0106000Y0162800D02*
X0106000Y0169200D01*
X0116000Y0169200D02*
X0116000Y0162800D01*
X0019200Y0266000D02*
X0012800Y0266000D01*
X0012800Y0276000D02*
X0019200Y0276000D01*
X0202800Y0056000D02*
X0209200Y0056000D01*
X0209200Y0046000D02*
X0202800Y0046000D01*
D11*
X0051000Y0016000D03*
X0051000Y0026000D03*
X0061000Y0026000D03*
X0071000Y0026000D03*
X0071000Y0016000D03*
X0061000Y0016000D03*
X0081000Y0016000D03*
X0091000Y0016000D03*
X0091000Y0026000D03*
X0081000Y0026000D03*
X0081000Y0066000D03*
X0091000Y0066000D03*
X0091000Y0076000D03*
X0081000Y0076000D03*
X0071000Y0076000D03*
X0061000Y0076000D03*
X0061000Y0066000D03*
X0071000Y0066000D03*
X0051000Y0066000D03*
X0041000Y0066000D03*
X0041000Y0076000D03*
X0051000Y0076000D03*
X0021000Y0096000D03*
X0021000Y0106000D03*
X0021000Y0116000D03*
X0021000Y0126000D03*
X0021000Y0136000D03*
X0011000Y0136000D03*
X0011000Y0126000D03*
X0011000Y0116000D03*
X0011000Y0106000D03*
X0011000Y0096000D03*
X0011000Y0146000D03*
X0011000Y0156000D03*
X0011000Y0166000D03*
X0011000Y0176000D03*
X0011000Y0186000D03*
X0011000Y0196000D03*
X0011000Y0206000D03*
X0021000Y0206000D03*
X0021000Y0196000D03*
X0021000Y0186000D03*
X0021000Y0176000D03*
X0021000Y0166000D03*
X0021000Y0156000D03*
X0021000Y0146000D03*
X0021000Y0216000D03*
X0021000Y0226000D03*
X0011000Y0226000D03*
X0011000Y0216000D03*
X0041000Y0246000D03*
X0051000Y0246000D03*
X0051000Y0256000D03*
X0041000Y0256000D03*
X0061000Y0256000D03*
X0071000Y0256000D03*
X0071000Y0246000D03*
X0061000Y0246000D03*
X0081000Y0246000D03*
X0091000Y0246000D03*
X0091000Y0256000D03*
X0081000Y0256000D03*
X0101000Y0256000D03*
X0111000Y0256000D03*
X0111000Y0246000D03*
X0101000Y0246000D03*
X0121000Y0246000D03*
X0131000Y0246000D03*
X0131000Y0256000D03*
X0121000Y0256000D03*
X0141000Y0256000D03*
X0151000Y0256000D03*
X0151000Y0246000D03*
X0141000Y0246000D03*
X0161000Y0246000D03*
X0171000Y0246000D03*
X0171000Y0256000D03*
X0161000Y0256000D03*
X0191000Y0226000D03*
X0191000Y0216000D03*
X0201000Y0216000D03*
X0201000Y0226000D03*
X0201000Y0206000D03*
X0201000Y0196000D03*
X0201000Y0186000D03*
X0201000Y0176000D03*
X0201000Y0166000D03*
X0201000Y0156000D03*
X0201000Y0146000D03*
X0191000Y0146000D03*
X0191000Y0156000D03*
X0191000Y0166000D03*
X0191000Y0176000D03*
X0191000Y0186000D03*
X0191000Y0196000D03*
X0191000Y0206000D03*
X0191000Y0136000D03*
X0191000Y0126000D03*
X0191000Y0116000D03*
X0191000Y0106000D03*
X0191000Y0096000D03*
X0201000Y0096000D03*
X0201000Y0106000D03*
X0201000Y0116000D03*
X0201000Y0126000D03*
X0201000Y0136000D03*
X0171000Y0076000D03*
X0161000Y0076000D03*
X0161000Y0066000D03*
X0171000Y0066000D03*
X0151000Y0066000D03*
X0141000Y0066000D03*
X0141000Y0076000D03*
X0151000Y0076000D03*
X0131000Y0076000D03*
X0121000Y0076000D03*
X0121000Y0066000D03*
X0131000Y0066000D03*
X0111000Y0066000D03*
X0101000Y0066000D03*
X0101000Y0076000D03*
X0111000Y0076000D03*
X0306000Y0026000D03*
X0306000Y0016000D03*
X0316000Y0016000D03*
X0326000Y0016000D03*
X0326000Y0026000D03*
X0316000Y0026000D03*
X0336000Y0026000D03*
X0346000Y0026000D03*
X0346000Y0016000D03*
X0336000Y0016000D03*
X0336000Y0291000D03*
X0346000Y0291000D03*
X0346000Y0301000D03*
X0336000Y0301000D03*
X0326000Y0301000D03*
X0316000Y0301000D03*
X0316000Y0291000D03*
X0326000Y0291000D03*
X0306000Y0291000D03*
X0306000Y0301000D03*
X0091000Y0301000D03*
X0081000Y0301000D03*
X0081000Y0291000D03*
X0091000Y0291000D03*
X0071000Y0291000D03*
X0061000Y0291000D03*
X0061000Y0301000D03*
X0071000Y0301000D03*
X0051000Y0301000D03*
X0051000Y0291000D03*
D12*
X0126886Y0283303D03*
X0129445Y0283303D03*
X0132004Y0283303D03*
X0134563Y0283303D03*
X0137122Y0283303D03*
X0139681Y0283303D03*
X0142240Y0283303D03*
X0144799Y0283303D03*
X0147358Y0283303D03*
X0149917Y0283303D03*
X0149917Y0306335D03*
X0147358Y0306335D03*
X0144799Y0306335D03*
X0142240Y0306335D03*
X0139681Y0306335D03*
X0137122Y0306335D03*
X0134563Y0306335D03*
X0132004Y0306335D03*
X0129445Y0306335D03*
X0126886Y0306335D03*
X0252083Y0308697D03*
X0254642Y0308697D03*
X0257201Y0308697D03*
X0259760Y0308697D03*
X0262319Y0308697D03*
X0264878Y0308697D03*
X0267437Y0308697D03*
X0269996Y0308697D03*
X0272555Y0308697D03*
X0275114Y0308697D03*
X0275114Y0285665D03*
X0272555Y0285665D03*
X0269996Y0285665D03*
X0267437Y0285665D03*
X0264878Y0285665D03*
X0262319Y0285665D03*
X0259760Y0285665D03*
X0257201Y0285665D03*
X0254642Y0285665D03*
X0252083Y0285665D03*
X0252083Y0033697D03*
X0254642Y0033697D03*
X0257201Y0033697D03*
X0259760Y0033697D03*
X0262319Y0033697D03*
X0264878Y0033697D03*
X0267437Y0033697D03*
X0269996Y0033697D03*
X0272555Y0033697D03*
X0275114Y0033697D03*
X0275114Y0010665D03*
X0272555Y0010665D03*
X0269996Y0010665D03*
X0267437Y0010665D03*
X0264878Y0010665D03*
X0262319Y0010665D03*
X0259760Y0010665D03*
X0257201Y0010665D03*
X0254642Y0010665D03*
X0252083Y0010665D03*
X0150114Y0010665D03*
X0147555Y0010665D03*
X0144996Y0010665D03*
X0142437Y0010665D03*
X0139878Y0010665D03*
X0137319Y0010665D03*
X0134760Y0010665D03*
X0132201Y0010665D03*
X0129642Y0010665D03*
X0127083Y0010665D03*
X0127083Y0033697D03*
X0129642Y0033697D03*
X0132201Y0033697D03*
X0134760Y0033697D03*
X0137319Y0033697D03*
X0139878Y0033697D03*
X0142437Y0033697D03*
X0144996Y0033697D03*
X0147555Y0033697D03*
X0150114Y0033697D03*
M02*
