G75*
%MOIN*%
%OFA0B0*%
%FSLAX25Y25*%
%IPPOS*%
%LPD*%
%AMOC8*
5,1,8,0,0,1.08239X$1,22.5*
%
%ADD10C,0.06400*%
%ADD11OC8,0.06400*%
%ADD12C,0.02400*%
%ADD13C,0.04000*%
D10*
X0007800Y0056000D02*
X0014200Y0056000D01*
X0014200Y0066000D02*
X0007800Y0066000D01*
X0086000Y0162800D02*
X0086000Y0169200D01*
X0096000Y0169200D02*
X0096000Y0162800D01*
X0106000Y0162800D02*
X0106000Y0169200D01*
X0116000Y0169200D02*
X0116000Y0162800D01*
X0211000Y0252800D02*
X0211000Y0259200D01*
X0221000Y0259200D02*
X0221000Y0252800D01*
X0231000Y0252800D02*
X0231000Y0259200D01*
X0241000Y0259200D02*
X0241000Y0252800D01*
X0251000Y0252800D02*
X0251000Y0259200D01*
X0261000Y0259200D02*
X0261000Y0252800D01*
X0271000Y0252800D02*
X0271000Y0259200D01*
X0281000Y0259200D02*
X0281000Y0252800D01*
X0291000Y0252800D02*
X0291000Y0259200D01*
X0301000Y0259200D02*
X0301000Y0252800D01*
X0316000Y0252800D02*
X0316000Y0259200D01*
X0326000Y0259200D02*
X0326000Y0252800D01*
X0336000Y0252800D02*
X0336000Y0259200D01*
X0346000Y0259200D02*
X0346000Y0252800D01*
X0356000Y0252800D02*
X0356000Y0259200D01*
X0366000Y0259200D02*
X0366000Y0252800D01*
X0376000Y0252800D02*
X0376000Y0259200D01*
X0386000Y0259200D02*
X0386000Y0252800D01*
X0386000Y0069200D02*
X0386000Y0062800D01*
X0376000Y0062800D02*
X0376000Y0069200D01*
X0366000Y0069200D02*
X0366000Y0062800D01*
X0356000Y0062800D02*
X0356000Y0069200D01*
X0346000Y0069200D02*
X0346000Y0062800D01*
X0336000Y0062800D02*
X0336000Y0069200D01*
X0316000Y0069200D02*
X0316000Y0062800D01*
X0306000Y0062800D02*
X0306000Y0069200D01*
X0296000Y0069200D02*
X0296000Y0062800D01*
X0286000Y0062800D02*
X0286000Y0069200D01*
X0276000Y0069200D02*
X0276000Y0062800D01*
X0266000Y0062800D02*
X0266000Y0069200D01*
X0256000Y0069200D02*
X0256000Y0062800D01*
X0246000Y0062800D02*
X0246000Y0069200D01*
D11*
X0021000Y0011000D03*
X0031000Y0011000D03*
X0031000Y0021000D03*
X0021000Y0021000D03*
X0041000Y0021000D03*
X0051000Y0021000D03*
X0051000Y0011000D03*
X0041000Y0011000D03*
X0061000Y0011000D03*
X0071000Y0011000D03*
X0071000Y0021000D03*
X0061000Y0021000D03*
X0081000Y0021000D03*
X0091000Y0021000D03*
X0091000Y0011000D03*
X0081000Y0011000D03*
X0101000Y0011000D03*
X0111000Y0011000D03*
X0111000Y0021000D03*
X0101000Y0021000D03*
X0101000Y0066000D03*
X0111000Y0066000D03*
X0111000Y0076000D03*
X0101000Y0076000D03*
X0091000Y0076000D03*
X0081000Y0076000D03*
X0081000Y0066000D03*
X0091000Y0066000D03*
X0071000Y0066000D03*
X0061000Y0066000D03*
X0061000Y0076000D03*
X0071000Y0076000D03*
X0051000Y0076000D03*
X0041000Y0076000D03*
X0041000Y0066000D03*
X0051000Y0066000D03*
X0021000Y0096000D03*
X0021000Y0106000D03*
X0021000Y0116000D03*
X0021000Y0126000D03*
X0021000Y0136000D03*
X0011000Y0136000D03*
X0011000Y0126000D03*
X0011000Y0116000D03*
X0011000Y0106000D03*
X0011000Y0096000D03*
X0011000Y0146000D03*
X0011000Y0156000D03*
X0011000Y0166000D03*
X0011000Y0176000D03*
X0011000Y0186000D03*
X0011000Y0196000D03*
X0011000Y0206000D03*
X0021000Y0206000D03*
X0021000Y0196000D03*
X0021000Y0186000D03*
X0021000Y0176000D03*
X0021000Y0166000D03*
X0021000Y0156000D03*
X0021000Y0146000D03*
X0021000Y0216000D03*
X0021000Y0226000D03*
X0011000Y0226000D03*
X0011000Y0216000D03*
X0041000Y0246000D03*
X0051000Y0246000D03*
X0051000Y0256000D03*
X0041000Y0256000D03*
X0061000Y0256000D03*
X0071000Y0256000D03*
X0071000Y0246000D03*
X0061000Y0246000D03*
X0081000Y0246000D03*
X0091000Y0246000D03*
X0091000Y0256000D03*
X0081000Y0256000D03*
X0101000Y0256000D03*
X0111000Y0256000D03*
X0111000Y0246000D03*
X0101000Y0246000D03*
X0121000Y0246000D03*
X0131000Y0246000D03*
X0131000Y0256000D03*
X0121000Y0256000D03*
X0141000Y0256000D03*
X0151000Y0256000D03*
X0151000Y0246000D03*
X0141000Y0246000D03*
X0161000Y0246000D03*
X0171000Y0246000D03*
X0171000Y0256000D03*
X0161000Y0256000D03*
X0191000Y0226000D03*
X0191000Y0216000D03*
X0201000Y0216000D03*
X0201000Y0226000D03*
X0201000Y0206000D03*
X0201000Y0196000D03*
X0201000Y0186000D03*
X0201000Y0176000D03*
X0201000Y0166000D03*
X0201000Y0156000D03*
X0201000Y0146000D03*
X0191000Y0146000D03*
X0191000Y0156000D03*
X0191000Y0166000D03*
X0191000Y0176000D03*
X0191000Y0186000D03*
X0191000Y0196000D03*
X0191000Y0206000D03*
X0191000Y0136000D03*
X0191000Y0126000D03*
X0191000Y0116000D03*
X0191000Y0106000D03*
X0191000Y0096000D03*
X0201000Y0096000D03*
X0201000Y0106000D03*
X0201000Y0116000D03*
X0201000Y0126000D03*
X0201000Y0136000D03*
X0171000Y0076000D03*
X0161000Y0076000D03*
X0161000Y0066000D03*
X0171000Y0066000D03*
X0151000Y0066000D03*
X0141000Y0066000D03*
X0141000Y0076000D03*
X0151000Y0076000D03*
X0131000Y0076000D03*
X0121000Y0076000D03*
X0121000Y0066000D03*
X0131000Y0066000D03*
X0286000Y0021000D03*
X0286000Y0011000D03*
X0296000Y0011000D03*
X0306000Y0011000D03*
X0306000Y0021000D03*
X0296000Y0021000D03*
X0316000Y0021000D03*
X0326000Y0021000D03*
X0326000Y0011000D03*
X0316000Y0011000D03*
X0336000Y0011000D03*
X0346000Y0011000D03*
X0346000Y0021000D03*
X0336000Y0021000D03*
X0356000Y0021000D03*
X0366000Y0021000D03*
X0366000Y0011000D03*
X0356000Y0011000D03*
X0376000Y0011000D03*
X0376000Y0021000D03*
X0376000Y0296000D03*
X0376000Y0306000D03*
X0366000Y0306000D03*
X0356000Y0306000D03*
X0356000Y0296000D03*
X0366000Y0296000D03*
X0346000Y0296000D03*
X0336000Y0296000D03*
X0336000Y0306000D03*
X0346000Y0306000D03*
X0326000Y0306000D03*
X0316000Y0306000D03*
X0316000Y0296000D03*
X0326000Y0296000D03*
X0306000Y0296000D03*
X0296000Y0296000D03*
X0296000Y0306000D03*
X0306000Y0306000D03*
X0286000Y0306000D03*
X0286000Y0296000D03*
X0111000Y0296000D03*
X0101000Y0296000D03*
X0101000Y0306000D03*
X0111000Y0306000D03*
X0091000Y0306000D03*
X0081000Y0306000D03*
X0081000Y0296000D03*
X0091000Y0296000D03*
X0071000Y0296000D03*
X0061000Y0296000D03*
X0061000Y0306000D03*
X0071000Y0306000D03*
X0051000Y0306000D03*
X0041000Y0306000D03*
X0041000Y0296000D03*
X0051000Y0296000D03*
X0031000Y0296000D03*
X0021000Y0296000D03*
X0021000Y0306000D03*
X0031000Y0306000D03*
D12*
X0036000Y0311000D02*
X0041000Y0306000D01*
X0036000Y0311000D02*
X0018500Y0311000D01*
X0017875Y0310375D01*
X0009750Y0310375D01*
X0009750Y0288500D01*
X0014750Y0283500D01*
X0026000Y0283500D01*
X0026000Y0221000D01*
X0021000Y0216000D01*
X0016000Y0221000D02*
X0016000Y0196625D01*
X0020375Y0196625D01*
X0021000Y0196000D01*
X0021000Y0186000D01*
X0011000Y0186000D01*
X0006000Y0171000D02*
X0006000Y0279750D01*
X0012875Y0289750D02*
X0012875Y0301000D01*
X0094125Y0301000D01*
X0099125Y0306000D01*
X0101000Y0306000D01*
X0098500Y0301000D02*
X0093500Y0296000D01*
X0091000Y0296000D01*
X0087250Y0291000D02*
X0120375Y0291000D01*
X0125375Y0286000D01*
X0121000Y0281625D02*
X0132875Y0281625D01*
X0144750Y0293500D01*
X0281000Y0293500D01*
X0283500Y0291000D01*
X0308500Y0291000D01*
X0311000Y0293500D01*
X0311000Y0299125D01*
X0311625Y0299125D01*
X0313500Y0301000D01*
X0318500Y0301000D01*
X0323500Y0306000D01*
X0326000Y0306000D01*
X0322875Y0301000D02*
X0317875Y0296000D01*
X0316000Y0296000D01*
X0322875Y0301000D02*
X0331000Y0301000D01*
X0331000Y0293500D01*
X0328500Y0291000D01*
X0326625Y0291000D01*
X0320375Y0284750D01*
X0274125Y0284750D01*
X0272875Y0286000D01*
X0142875Y0286000D01*
X0139750Y0282875D01*
X0126000Y0275375D02*
X0183500Y0275375D01*
X0184750Y0274125D01*
X0187250Y0274125D01*
X0194750Y0281625D01*
X0186000Y0278500D02*
X0123500Y0278500D01*
X0101000Y0256000D01*
X0096000Y0251000D02*
X0096000Y0231625D01*
X0170375Y0231625D01*
X0172875Y0234125D01*
X0239750Y0234125D01*
X0237250Y0231000D02*
X0238500Y0229750D01*
X0302250Y0229750D01*
X0306000Y0233500D01*
X0332875Y0233500D01*
X0336625Y0229750D01*
X0341000Y0234125D02*
X0341000Y0181625D01*
X0311625Y0152250D01*
X0309125Y0152250D01*
X0307875Y0153500D01*
X0235375Y0153500D01*
X0222875Y0141000D01*
X0184750Y0141000D01*
X0136000Y0092250D01*
X0141000Y0091625D02*
X0180375Y0131000D01*
X0224125Y0131000D01*
X0237250Y0144125D01*
X0243500Y0144750D02*
X0219750Y0121000D01*
X0188500Y0121000D01*
X0184750Y0117250D01*
X0187250Y0111000D02*
X0215375Y0111000D01*
X0249125Y0144750D01*
X0236625Y0149125D02*
X0316000Y0149125D01*
X0319750Y0145375D01*
X0321000Y0141000D02*
X0386000Y0206000D01*
X0391625Y0238500D02*
X0204125Y0238500D01*
X0203500Y0239125D01*
X0199125Y0241000D02*
X0205375Y0247250D01*
X0264750Y0247250D01*
X0270375Y0241625D01*
X0352250Y0241625D01*
X0361000Y0250375D01*
X0361000Y0289125D01*
X0366000Y0294125D01*
X0366000Y0296000D01*
X0361000Y0293500D02*
X0361000Y0306000D01*
X0366000Y0306000D01*
X0371000Y0311000D02*
X0376000Y0306000D01*
X0371000Y0311000D02*
X0311000Y0311000D01*
X0311000Y0303500D01*
X0308500Y0301000D01*
X0291000Y0301000D01*
X0286000Y0296000D01*
X0276625Y0296625D02*
X0111625Y0296625D01*
X0111000Y0296000D01*
X0111625Y0305375D02*
X0126625Y0305375D01*
X0123500Y0301000D02*
X0098500Y0301000D01*
X0111000Y0306000D02*
X0111625Y0305375D01*
X0118500Y0311000D02*
X0076000Y0311000D01*
X0071000Y0306000D01*
X0061000Y0296000D02*
X0056000Y0291000D01*
X0038500Y0291000D01*
X0037250Y0292250D01*
X0034750Y0292250D01*
X0033500Y0291000D01*
X0017250Y0291000D01*
X0012875Y0289750D02*
X0016000Y0286625D01*
X0029125Y0286625D01*
X0029125Y0206625D01*
X0036000Y0199750D01*
X0036000Y0168500D01*
X0040375Y0164125D01*
X0041000Y0164125D01*
X0041000Y0153500D01*
X0046625Y0167875D02*
X0046625Y0199125D01*
X0044750Y0199125D01*
X0036000Y0207875D01*
X0036000Y0283500D01*
X0086000Y0283500D01*
X0081000Y0296000D02*
X0072875Y0287875D01*
X0036000Y0287875D01*
X0050375Y0279125D02*
X0061000Y0279125D01*
X0063500Y0276625D01*
X0064750Y0272250D02*
X0049125Y0256625D01*
X0051000Y0256000D01*
X0051000Y0246000D01*
X0051000Y0241000D02*
X0063500Y0241000D01*
X0066000Y0243500D01*
X0066000Y0269125D01*
X0097250Y0269125D01*
X0100375Y0272250D01*
X0100375Y0286625D01*
X0096000Y0273500D02*
X0094750Y0272250D01*
X0064750Y0272250D01*
X0051000Y0256000D02*
X0041000Y0256000D01*
X0046000Y0251625D02*
X0046000Y0203500D01*
X0041625Y0196625D02*
X0041625Y0168500D01*
X0051000Y0170375D02*
X0051000Y0241000D01*
X0056625Y0230375D02*
X0058500Y0228500D01*
X0067250Y0228500D01*
X0067250Y0222875D02*
X0078500Y0234125D01*
X0086000Y0224125D02*
X0086000Y0251000D01*
X0081000Y0256000D01*
X0091000Y0256000D02*
X0096000Y0251000D01*
X0091000Y0246000D02*
X0091000Y0219750D01*
X0084750Y0219750D01*
X0058500Y0193500D01*
X0058500Y0152250D01*
X0062875Y0152875D02*
X0133500Y0152875D01*
X0137875Y0151625D02*
X0137875Y0177875D01*
X0133500Y0177875D01*
X0127875Y0183500D01*
X0127875Y0217875D01*
X0145375Y0217875D01*
X0151000Y0216000D02*
X0137875Y0202875D01*
X0137875Y0181000D01*
X0179750Y0181000D01*
X0181000Y0176625D02*
X0170375Y0176625D01*
X0119125Y0125375D01*
X0142875Y0115375D02*
X0106000Y0078500D01*
X0106000Y0037250D01*
X0307250Y0037250D01*
X0321000Y0023500D01*
X0321000Y0016000D01*
X0351000Y0016000D01*
X0356000Y0021000D01*
X0359750Y0026000D02*
X0361000Y0024750D01*
X0359750Y0026000D02*
X0351000Y0026000D01*
X0346000Y0021000D01*
X0345375Y0030375D02*
X0336000Y0021000D01*
X0328500Y0021000D02*
X0326000Y0021000D01*
X0328500Y0021000D02*
X0328500Y0033500D01*
X0311000Y0045375D02*
X0306625Y0049750D01*
X0251625Y0049750D01*
X0256000Y0066000D02*
X0256000Y0074750D01*
X0277875Y0074750D01*
X0286000Y0066625D01*
X0286000Y0066000D01*
X0276000Y0066000D02*
X0276000Y0057250D01*
X0179750Y0057250D01*
X0171000Y0066000D01*
X0151000Y0066000D02*
X0146000Y0061000D01*
X0128500Y0061000D01*
X0126000Y0063500D01*
X0126000Y0087250D01*
X0153500Y0087250D01*
X0171625Y0105375D01*
X0172875Y0105375D01*
X0177250Y0101000D02*
X0216625Y0101000D01*
X0222250Y0095375D01*
X0214750Y0087875D02*
X0247250Y0087875D01*
X0304125Y0144750D01*
X0311000Y0141000D02*
X0321000Y0141000D01*
X0311000Y0141000D02*
X0311000Y0060375D01*
X0304750Y0054125D01*
X0121000Y0054125D01*
X0121000Y0066000D01*
X0131000Y0066000D02*
X0136000Y0071000D01*
X0197875Y0071000D01*
X0214750Y0087875D01*
X0216000Y0083500D02*
X0290375Y0083500D01*
X0301000Y0072875D01*
X0296000Y0066000D02*
X0306000Y0066000D01*
X0316000Y0066000D02*
X0333500Y0083500D01*
X0391625Y0083500D01*
X0391625Y0238500D01*
X0391625Y0280375D01*
X0376000Y0296000D01*
X0361000Y0293500D02*
X0338500Y0271000D01*
X0314125Y0271000D01*
X0309750Y0275375D01*
X0294750Y0275375D01*
X0290375Y0271000D01*
X0296000Y0271000D02*
X0300375Y0266625D01*
X0321000Y0266625D01*
X0321000Y0250375D01*
X0325375Y0246000D01*
X0326000Y0255375D02*
X0335375Y0246000D01*
X0326000Y0255375D02*
X0326000Y0256000D01*
X0316000Y0256000D02*
X0307250Y0247250D01*
X0287875Y0247250D01*
X0286625Y0246000D01*
X0277250Y0246000D02*
X0276000Y0247250D01*
X0269125Y0247250D01*
X0261000Y0255375D01*
X0261000Y0256000D01*
X0256000Y0262875D02*
X0257875Y0264750D01*
X0277250Y0264750D01*
X0281000Y0268500D01*
X0281000Y0276000D01*
X0267875Y0276000D01*
X0262250Y0281625D01*
X0256625Y0281625D01*
X0262250Y0276000D02*
X0257250Y0271000D01*
X0161000Y0271000D01*
X0159750Y0272250D01*
X0154750Y0272250D01*
X0149125Y0266625D01*
X0136000Y0266625D01*
X0136000Y0253500D01*
X0133500Y0251000D01*
X0126000Y0251000D01*
X0121000Y0246000D01*
X0116000Y0251000D02*
X0116000Y0261000D01*
X0126000Y0261000D01*
X0136000Y0271000D01*
X0139750Y0271000D01*
X0148500Y0263500D02*
X0176625Y0263500D01*
X0177875Y0264750D01*
X0245375Y0264750D01*
X0246625Y0263500D01*
X0234750Y0242875D02*
X0206625Y0242875D01*
X0199125Y0241000D02*
X0166000Y0241000D01*
X0161000Y0246000D01*
X0156000Y0251000D02*
X0182875Y0251000D01*
X0179125Y0260375D02*
X0194125Y0245375D01*
X0197250Y0245375D01*
X0188500Y0231000D02*
X0186000Y0228500D01*
X0137250Y0228500D01*
X0136000Y0227250D01*
X0126000Y0222250D02*
X0080375Y0176625D01*
X0079750Y0176625D01*
X0079750Y0161625D01*
X0086000Y0166000D02*
X0086000Y0172250D01*
X0091625Y0172250D01*
X0094125Y0174750D01*
X0130375Y0174750D01*
X0120375Y0157250D02*
X0096000Y0157250D01*
X0096000Y0166000D01*
X0086000Y0176625D02*
X0106000Y0196625D01*
X0099750Y0201625D02*
X0079125Y0181000D01*
X0067250Y0174750D02*
X0116000Y0223500D01*
X0111000Y0236000D02*
X0155375Y0236000D01*
X0156000Y0251000D02*
X0151000Y0256000D01*
X0148500Y0263500D02*
X0141000Y0256000D01*
X0158500Y0267875D02*
X0274750Y0267875D01*
X0276625Y0269750D01*
X0276000Y0280375D02*
X0296625Y0280375D01*
X0315375Y0275375D02*
X0327875Y0287875D01*
X0329750Y0287875D01*
X0336000Y0294125D01*
X0336000Y0296000D01*
X0346000Y0296000D02*
X0334750Y0284750D01*
X0330375Y0284750D01*
X0324125Y0278500D01*
X0317875Y0287875D02*
X0326000Y0296000D01*
X0317875Y0287875D02*
X0276625Y0287875D01*
X0275375Y0289125D01*
X0276625Y0296625D02*
X0286000Y0306000D01*
X0301000Y0311000D02*
X0306000Y0306000D01*
X0301000Y0311000D02*
X0218500Y0311000D01*
X0126000Y0275375D02*
X0112250Y0261625D01*
X0111000Y0261625D01*
X0111000Y0256000D01*
X0116000Y0251000D02*
X0111000Y0246000D01*
X0111000Y0236000D02*
X0101000Y0246000D01*
X0086000Y0215375D02*
X0062875Y0192250D01*
X0062875Y0152875D01*
X0056000Y0143500D02*
X0078500Y0121000D01*
X0148500Y0121000D01*
X0188500Y0161000D01*
X0298500Y0161000D01*
X0301000Y0166000D02*
X0201000Y0166000D01*
X0209125Y0171000D02*
X0185375Y0171000D01*
X0167250Y0152875D01*
X0182875Y0174125D02*
X0145375Y0136625D01*
X0134125Y0147875D02*
X0137875Y0151625D01*
X0134125Y0147875D02*
X0022875Y0147875D01*
X0021000Y0146000D01*
X0016000Y0131000D02*
X0049125Y0131000D01*
X0016000Y0131000D02*
X0011000Y0126000D01*
X0011000Y0106000D02*
X0021000Y0106000D01*
X0026625Y0106000D01*
X0026625Y0081625D01*
X0011000Y0066000D01*
X0011000Y0056000D02*
X0021000Y0056000D01*
X0021000Y0034125D01*
X0120375Y0034125D01*
X0120375Y0021625D01*
X0285375Y0021625D01*
X0286000Y0021000D01*
X0287875Y0021000D01*
X0292875Y0016000D01*
X0301000Y0016000D01*
X0301000Y0008500D01*
X0303500Y0006000D01*
X0371000Y0006000D01*
X0376000Y0011000D01*
X0371000Y0018500D02*
X0371000Y0079125D01*
X0373500Y0079125D01*
X0350375Y0041000D02*
X0366000Y0025375D01*
X0366000Y0021000D01*
X0368500Y0016000D02*
X0361000Y0016000D01*
X0356000Y0011000D01*
X0368500Y0016000D02*
X0371000Y0018500D01*
X0350375Y0041000D02*
X0116000Y0041000D01*
X0116000Y0081625D01*
X0145375Y0111000D01*
X0142875Y0115375D02*
X0147875Y0115375D01*
X0149750Y0117250D01*
X0177250Y0115375D02*
X0177250Y0101000D01*
X0181625Y0105375D02*
X0187250Y0111000D01*
X0177250Y0115375D02*
X0186000Y0124125D01*
X0189125Y0124125D01*
X0191000Y0126000D01*
X0191000Y0096000D02*
X0201000Y0096000D01*
X0188500Y0091000D02*
X0244750Y0091000D01*
X0298500Y0144750D01*
X0310375Y0156625D02*
X0301000Y0166000D01*
X0303500Y0181000D02*
X0336625Y0214125D01*
X0321000Y0210375D02*
X0321000Y0229125D01*
X0307250Y0229125D01*
X0315375Y0221625D02*
X0248500Y0221625D01*
X0241625Y0225375D02*
X0241000Y0226000D01*
X0201000Y0226000D01*
X0201000Y0216000D02*
X0196000Y0211000D01*
X0172875Y0211000D01*
X0172875Y0201625D01*
X0166000Y0197250D02*
X0149750Y0197250D01*
X0145375Y0201625D01*
X0142250Y0197875D02*
X0154750Y0185375D01*
X0160375Y0185375D01*
X0177875Y0191000D02*
X0292875Y0191000D01*
X0298500Y0196625D01*
X0311625Y0201000D02*
X0321000Y0210375D01*
X0316625Y0211625D02*
X0286625Y0211625D01*
X0280375Y0205375D01*
X0283500Y0214125D02*
X0286000Y0216625D01*
X0316000Y0216625D01*
X0311625Y0201000D02*
X0185375Y0201000D01*
X0181625Y0197250D01*
X0177875Y0191000D02*
X0155375Y0213500D01*
X0141000Y0211625D02*
X0135375Y0206000D01*
X0181625Y0206000D02*
X0191000Y0206000D01*
X0201000Y0206000D02*
X0211625Y0216625D01*
X0229125Y0216625D01*
X0215375Y0221000D02*
X0187250Y0221000D01*
X0186000Y0219750D01*
X0188500Y0231000D02*
X0237250Y0231000D01*
X0185375Y0181000D02*
X0303500Y0181000D01*
X0214125Y0171625D02*
X0209750Y0176000D01*
X0201000Y0176000D01*
X0191000Y0176000D02*
X0189125Y0174125D01*
X0182875Y0174125D01*
X0181000Y0176625D02*
X0185375Y0181000D01*
X0187875Y0091625D02*
X0162250Y0091625D01*
X0154750Y0084125D01*
X0139125Y0084125D01*
X0131000Y0076000D01*
X0151000Y0076000D02*
X0162250Y0087250D01*
X0168500Y0087250D01*
X0186000Y0087250D02*
X0192250Y0081000D01*
X0201625Y0081000D01*
X0188500Y0091000D02*
X0187875Y0091625D01*
X0252250Y0030375D02*
X0296625Y0030375D01*
X0306000Y0021000D01*
X0296000Y0021000D02*
X0291000Y0026000D01*
X0262250Y0026000D01*
X0277875Y0016000D02*
X0288500Y0016000D01*
X0291625Y0012875D01*
X0294125Y0012875D01*
X0296000Y0011000D01*
X0120375Y0018500D02*
X0120375Y0021625D01*
X0120375Y0018500D02*
X0114750Y0012875D01*
X0112875Y0012875D01*
X0111000Y0011000D01*
X0113500Y0016000D02*
X0106000Y0016000D01*
X0101000Y0021000D01*
X0096000Y0023500D02*
X0096000Y0016000D01*
X0026000Y0016000D01*
X0021000Y0011000D01*
X0021000Y0021000D02*
X0021000Y0034125D01*
X0041000Y0058500D02*
X0046000Y0063500D01*
X0046000Y0076000D01*
X0051000Y0076000D01*
X0056000Y0076000D02*
X0061000Y0076000D01*
X0056000Y0076000D02*
X0056000Y0063500D01*
X0051000Y0058500D01*
X0071625Y0049125D02*
X0086000Y0063500D01*
X0086000Y0076000D01*
X0081000Y0076000D01*
X0096000Y0076000D02*
X0096000Y0063500D01*
X0091000Y0058500D01*
X0096000Y0076000D02*
X0101000Y0076000D01*
X0107250Y0029750D02*
X0089750Y0029750D01*
X0081000Y0021000D01*
X0096000Y0023500D02*
X0098500Y0026000D01*
X0103500Y0026000D01*
X0104125Y0025375D01*
X0106625Y0025375D01*
X0111000Y0021000D01*
X0116000Y0018500D02*
X0113500Y0016000D01*
X0116000Y0018500D02*
X0116000Y0029750D01*
X0011000Y0166000D02*
X0006000Y0171000D01*
X0016000Y0221000D02*
X0011000Y0226000D01*
X0117250Y0277875D02*
X0121000Y0281625D01*
X0119125Y0310375D02*
X0118500Y0311000D01*
D13*
X0119125Y0310375D03*
X0126625Y0305375D03*
X0123500Y0301000D03*
X0125375Y0286000D03*
X0117250Y0277875D03*
X0100375Y0286625D03*
X0096000Y0273500D03*
X0086000Y0283500D03*
X0087250Y0291000D03*
X0063500Y0276625D03*
X0050375Y0279125D03*
X0036000Y0287875D03*
X0017250Y0291000D03*
X0006000Y0279750D03*
X0046000Y0251625D03*
X0056625Y0230375D03*
X0067250Y0228500D03*
X0067250Y0222875D03*
X0078500Y0234125D03*
X0086000Y0224125D03*
X0086000Y0215375D03*
X0099750Y0201625D03*
X0106000Y0196625D03*
X0086000Y0176625D03*
X0079125Y0181000D03*
X0067250Y0174750D03*
X0051000Y0170375D03*
X0046625Y0167875D03*
X0041625Y0168500D03*
X0041000Y0153500D03*
X0058500Y0152250D03*
X0056000Y0143500D03*
X0049125Y0131000D03*
X0079750Y0161625D03*
X0120375Y0157250D03*
X0133500Y0152875D03*
X0145375Y0136625D03*
X0167250Y0152875D03*
X0179750Y0181000D03*
X0160375Y0185375D03*
X0166000Y0197250D03*
X0172875Y0201625D03*
X0181625Y0197250D03*
X0181625Y0206000D03*
X0186000Y0219750D03*
X0203500Y0239125D03*
X0206625Y0242875D03*
X0197250Y0245375D03*
X0182875Y0251000D03*
X0179125Y0260375D03*
X0186000Y0278500D03*
X0194750Y0281625D03*
X0158500Y0267875D03*
X0139750Y0271000D03*
X0139750Y0282875D03*
X0155375Y0236000D03*
X0136000Y0227250D03*
X0126000Y0222250D03*
X0116000Y0223500D03*
X0135375Y0206000D03*
X0141000Y0211625D03*
X0145375Y0217875D03*
X0151000Y0216000D03*
X0155375Y0213500D03*
X0145375Y0201625D03*
X0142250Y0197875D03*
X0130375Y0174750D03*
X0119125Y0125375D03*
X0145375Y0111000D03*
X0149750Y0117250D03*
X0172875Y0105375D03*
X0181625Y0105375D03*
X0184750Y0117250D03*
X0186000Y0087250D03*
X0201625Y0081000D03*
X0216000Y0083500D03*
X0222250Y0095375D03*
X0168500Y0087250D03*
X0141000Y0091625D03*
X0136000Y0092250D03*
X0091000Y0058500D03*
X0071625Y0049125D03*
X0051000Y0058500D03*
X0041000Y0058500D03*
X0107250Y0029750D03*
X0116000Y0029750D03*
X0251625Y0049750D03*
X0252250Y0030375D03*
X0262250Y0026000D03*
X0277875Y0016000D03*
X0311000Y0045375D03*
X0328500Y0033500D03*
X0345375Y0030375D03*
X0361000Y0024750D03*
X0301000Y0072875D03*
X0373500Y0079125D03*
X0319750Y0145375D03*
X0304125Y0144750D03*
X0298500Y0144750D03*
X0310375Y0156625D03*
X0298500Y0161000D03*
X0298500Y0196625D03*
X0280375Y0205375D03*
X0283500Y0214125D03*
X0307250Y0229125D03*
X0315375Y0221625D03*
X0316000Y0216625D03*
X0316625Y0211625D03*
X0336625Y0214125D03*
X0336625Y0229750D03*
X0341000Y0234125D03*
X0335375Y0246000D03*
X0325375Y0246000D03*
X0296000Y0271000D03*
X0290375Y0271000D03*
X0296625Y0280375D03*
X0315375Y0275375D03*
X0324125Y0278500D03*
X0286625Y0246000D03*
X0277250Y0246000D03*
X0256000Y0262875D03*
X0246625Y0263500D03*
X0262250Y0276000D03*
X0256625Y0281625D03*
X0275375Y0289125D03*
X0276000Y0280375D03*
X0276625Y0269750D03*
X0234750Y0242875D03*
X0239750Y0234125D03*
X0241625Y0225375D03*
X0248500Y0221625D03*
X0229125Y0216625D03*
X0215375Y0221000D03*
X0214125Y0171625D03*
X0209125Y0171000D03*
X0236625Y0149125D03*
X0237250Y0144125D03*
X0243500Y0144750D03*
X0249125Y0144750D03*
X0386000Y0206000D03*
X0218500Y0311000D03*
X0046000Y0203500D03*
X0041625Y0196625D03*
M02*
