G75*
%MOIN*%
%OFA0B0*%
%FSLAX25Y25*%
%IPPOS*%
%LPD*%
%AMOC8*
5,1,8,0,0,1.08239X$1,22.5*
%
%ADD10C,0.00000*%
D10*
X0001000Y0008071D02*
X0001000Y0308917D01*
X0001002Y0309087D01*
X0001008Y0309257D01*
X0001019Y0309427D01*
X0001033Y0309597D01*
X0001051Y0309766D01*
X0001074Y0309935D01*
X0001101Y0310103D01*
X0001131Y0310270D01*
X0001166Y0310437D01*
X0001205Y0310603D01*
X0001247Y0310767D01*
X0001294Y0310931D01*
X0001345Y0311093D01*
X0001399Y0311255D01*
X0001458Y0311414D01*
X0001520Y0311573D01*
X0001586Y0311730D01*
X0001656Y0311885D01*
X0001729Y0312038D01*
X0001807Y0312190D01*
X0001888Y0312340D01*
X0001972Y0312488D01*
X0002060Y0312633D01*
X0002152Y0312777D01*
X0002247Y0312918D01*
X0002345Y0313057D01*
X0002447Y0313193D01*
X0002552Y0313327D01*
X0002660Y0313459D01*
X0002771Y0313587D01*
X0002886Y0313713D01*
X0003003Y0313837D01*
X0003123Y0313957D01*
X0003247Y0314074D01*
X0003373Y0314189D01*
X0003501Y0314300D01*
X0003633Y0314408D01*
X0003767Y0314513D01*
X0003903Y0314615D01*
X0004042Y0314713D01*
X0004183Y0314808D01*
X0004327Y0314900D01*
X0004472Y0314988D01*
X0004620Y0315072D01*
X0004770Y0315153D01*
X0004922Y0315231D01*
X0005075Y0315304D01*
X0005230Y0315374D01*
X0005387Y0315440D01*
X0005546Y0315502D01*
X0005705Y0315561D01*
X0005867Y0315615D01*
X0006029Y0315666D01*
X0006193Y0315713D01*
X0006357Y0315755D01*
X0006523Y0315794D01*
X0006690Y0315829D01*
X0006857Y0315859D01*
X0007025Y0315886D01*
X0007194Y0315909D01*
X0007363Y0315927D01*
X0007533Y0315941D01*
X0007703Y0315952D01*
X0007873Y0315958D01*
X0008043Y0315960D01*
X0008043Y0315961D02*
X0388512Y0315961D01*
X0388666Y0315959D01*
X0388820Y0315953D01*
X0388975Y0315944D01*
X0389128Y0315930D01*
X0389282Y0315913D01*
X0389434Y0315892D01*
X0389587Y0315867D01*
X0389738Y0315838D01*
X0389889Y0315806D01*
X0390039Y0315770D01*
X0390188Y0315730D01*
X0390336Y0315686D01*
X0390483Y0315639D01*
X0390629Y0315588D01*
X0390773Y0315533D01*
X0390916Y0315475D01*
X0391057Y0315413D01*
X0391197Y0315348D01*
X0391335Y0315279D01*
X0391472Y0315207D01*
X0391607Y0315132D01*
X0391739Y0315053D01*
X0391870Y0314971D01*
X0391998Y0314886D01*
X0392125Y0314797D01*
X0392249Y0314705D01*
X0392371Y0314611D01*
X0392490Y0314513D01*
X0392607Y0314412D01*
X0392722Y0314309D01*
X0392833Y0314202D01*
X0392942Y0314093D01*
X0393049Y0313982D01*
X0393152Y0313867D01*
X0393253Y0313750D01*
X0393351Y0313631D01*
X0393445Y0313509D01*
X0393537Y0313385D01*
X0393626Y0313258D01*
X0393711Y0313130D01*
X0393793Y0312999D01*
X0393872Y0312867D01*
X0393947Y0312732D01*
X0394019Y0312595D01*
X0394088Y0312457D01*
X0394153Y0312317D01*
X0394215Y0312176D01*
X0394273Y0312033D01*
X0394328Y0311889D01*
X0394379Y0311743D01*
X0394426Y0311596D01*
X0394470Y0311448D01*
X0394510Y0311299D01*
X0394546Y0311149D01*
X0394578Y0310998D01*
X0394607Y0310847D01*
X0394632Y0310694D01*
X0394653Y0310542D01*
X0394670Y0310388D01*
X0394684Y0310235D01*
X0394693Y0310080D01*
X0394699Y0309926D01*
X0394701Y0309772D01*
X0394701Y0007221D01*
X0394699Y0007066D01*
X0394693Y0006911D01*
X0394684Y0006756D01*
X0394670Y0006602D01*
X0394653Y0006447D01*
X0394632Y0006294D01*
X0394606Y0006141D01*
X0394578Y0005988D01*
X0394545Y0005837D01*
X0394509Y0005686D01*
X0394468Y0005536D01*
X0394425Y0005387D01*
X0394377Y0005240D01*
X0394326Y0005093D01*
X0394271Y0004948D01*
X0394213Y0004805D01*
X0394150Y0004662D01*
X0394085Y0004522D01*
X0394016Y0004383D01*
X0393943Y0004246D01*
X0393868Y0004111D01*
X0393788Y0003977D01*
X0393706Y0003846D01*
X0393620Y0003717D01*
X0393531Y0003590D01*
X0393439Y0003465D01*
X0393344Y0003342D01*
X0393246Y0003222D01*
X0393144Y0003105D01*
X0393040Y0002990D01*
X0392933Y0002877D01*
X0392824Y0002768D01*
X0392711Y0002661D01*
X0392596Y0002557D01*
X0392479Y0002455D01*
X0392359Y0002357D01*
X0392236Y0002262D01*
X0392111Y0002170D01*
X0391984Y0002081D01*
X0391855Y0001995D01*
X0391724Y0001913D01*
X0391591Y0001833D01*
X0391455Y0001758D01*
X0391318Y0001685D01*
X0391179Y0001616D01*
X0391039Y0001551D01*
X0390896Y0001488D01*
X0390753Y0001430D01*
X0390608Y0001375D01*
X0390461Y0001324D01*
X0390314Y0001276D01*
X0390165Y0001233D01*
X0390015Y0001192D01*
X0389864Y0001156D01*
X0389713Y0001123D01*
X0389560Y0001095D01*
X0389407Y0001069D01*
X0389254Y0001048D01*
X0389099Y0001031D01*
X0388945Y0001017D01*
X0388790Y0001008D01*
X0388635Y0001002D01*
X0388480Y0001000D01*
X0008071Y0001000D01*
X0007900Y0001002D01*
X0007729Y0001008D01*
X0007559Y0001019D01*
X0007389Y0001033D01*
X0007219Y0001052D01*
X0007049Y0001074D01*
X0006881Y0001101D01*
X0006712Y0001132D01*
X0006545Y0001167D01*
X0006379Y0001205D01*
X0006213Y0001248D01*
X0006049Y0001295D01*
X0005886Y0001346D01*
X0005724Y0001401D01*
X0005564Y0001460D01*
X0005405Y0001522D01*
X0005247Y0001588D01*
X0005091Y0001658D01*
X0004937Y0001732D01*
X0004785Y0001810D01*
X0004635Y0001891D01*
X0004486Y0001976D01*
X0004340Y0002064D01*
X0004196Y0002156D01*
X0004054Y0002252D01*
X0003915Y0002350D01*
X0003778Y0002453D01*
X0003643Y0002558D01*
X0003511Y0002667D01*
X0003382Y0002778D01*
X0003256Y0002893D01*
X0003132Y0003011D01*
X0003011Y0003132D01*
X0002893Y0003256D01*
X0002778Y0003382D01*
X0002667Y0003511D01*
X0002558Y0003643D01*
X0002453Y0003778D01*
X0002350Y0003915D01*
X0002252Y0004054D01*
X0002156Y0004196D01*
X0002064Y0004340D01*
X0001976Y0004486D01*
X0001891Y0004635D01*
X0001810Y0004785D01*
X0001732Y0004937D01*
X0001658Y0005091D01*
X0001588Y0005247D01*
X0001522Y0005405D01*
X0001460Y0005564D01*
X0001401Y0005724D01*
X0001346Y0005886D01*
X0001295Y0006049D01*
X0001248Y0006213D01*
X0001205Y0006379D01*
X0001167Y0006545D01*
X0001132Y0006712D01*
X0001101Y0006881D01*
X0001074Y0007049D01*
X0001052Y0007219D01*
X0001033Y0007389D01*
X0001019Y0007559D01*
X0001008Y0007729D01*
X0001002Y0007900D01*
X0001000Y0008071D01*
M02*
