G75*
%MOIN*%
%OFA0B0*%
%FSLAX25Y25*%
%IPPOS*%
%LPD*%
%AMOC8*
5,1,8,0,0,1.08239X$1,22.5*
%
%ADD10C,0.06400*%
%ADD11OC8,0.06400*%
%ADD12C,0.02400*%
%ADD13C,0.04000*%
D10*
X0007800Y0056000D02*
X0014200Y0056000D01*
X0014200Y0066000D02*
X0007800Y0066000D01*
X0086000Y0162800D02*
X0086000Y0169200D01*
X0096000Y0169200D02*
X0096000Y0162800D01*
X0106000Y0162800D02*
X0106000Y0169200D01*
X0116000Y0169200D02*
X0116000Y0162800D01*
X0211000Y0252800D02*
X0211000Y0259200D01*
X0221000Y0259200D02*
X0221000Y0252800D01*
X0231000Y0252800D02*
X0231000Y0259200D01*
X0241000Y0259200D02*
X0241000Y0252800D01*
X0251000Y0252800D02*
X0251000Y0259200D01*
X0261000Y0259200D02*
X0261000Y0252800D01*
X0271000Y0252800D02*
X0271000Y0259200D01*
X0281000Y0259200D02*
X0281000Y0252800D01*
X0291000Y0252800D02*
X0291000Y0259200D01*
X0301000Y0259200D02*
X0301000Y0252800D01*
X0316000Y0252800D02*
X0316000Y0259200D01*
X0326000Y0259200D02*
X0326000Y0252800D01*
X0336000Y0252800D02*
X0336000Y0259200D01*
X0346000Y0259200D02*
X0346000Y0252800D01*
X0356000Y0252800D02*
X0356000Y0259200D01*
X0366000Y0259200D02*
X0366000Y0252800D01*
X0376000Y0252800D02*
X0376000Y0259200D01*
X0386000Y0259200D02*
X0386000Y0252800D01*
X0386000Y0069200D02*
X0386000Y0062800D01*
X0376000Y0062800D02*
X0376000Y0069200D01*
X0366000Y0069200D02*
X0366000Y0062800D01*
X0356000Y0062800D02*
X0356000Y0069200D01*
X0346000Y0069200D02*
X0346000Y0062800D01*
X0336000Y0062800D02*
X0336000Y0069200D01*
X0316000Y0069200D02*
X0316000Y0062800D01*
X0306000Y0062800D02*
X0306000Y0069200D01*
X0296000Y0069200D02*
X0296000Y0062800D01*
X0286000Y0062800D02*
X0286000Y0069200D01*
X0276000Y0069200D02*
X0276000Y0062800D01*
X0266000Y0062800D02*
X0266000Y0069200D01*
X0256000Y0069200D02*
X0256000Y0062800D01*
X0246000Y0062800D02*
X0246000Y0069200D01*
X0209200Y0056000D02*
X0202800Y0056000D01*
X0202800Y0046000D02*
X0209200Y0046000D01*
D11*
X0031000Y0021000D03*
X0031000Y0031000D03*
X0041000Y0031000D03*
X0051000Y0031000D03*
X0051000Y0021000D03*
X0041000Y0021000D03*
X0061000Y0021000D03*
X0071000Y0021000D03*
X0071000Y0031000D03*
X0061000Y0031000D03*
X0081000Y0031000D03*
X0091000Y0031000D03*
X0091000Y0021000D03*
X0081000Y0021000D03*
X0101000Y0021000D03*
X0111000Y0021000D03*
X0111000Y0031000D03*
X0101000Y0031000D03*
X0121000Y0031000D03*
X0121000Y0021000D03*
X0121000Y0066000D03*
X0131000Y0066000D03*
X0131000Y0076000D03*
X0121000Y0076000D03*
X0111000Y0076000D03*
X0101000Y0076000D03*
X0101000Y0066000D03*
X0111000Y0066000D03*
X0091000Y0066000D03*
X0081000Y0066000D03*
X0081000Y0076000D03*
X0091000Y0076000D03*
X0071000Y0076000D03*
X0061000Y0076000D03*
X0061000Y0066000D03*
X0071000Y0066000D03*
X0051000Y0066000D03*
X0041000Y0066000D03*
X0041000Y0076000D03*
X0051000Y0076000D03*
X0021000Y0096000D03*
X0021000Y0106000D03*
X0021000Y0116000D03*
X0021000Y0126000D03*
X0021000Y0136000D03*
X0011000Y0136000D03*
X0011000Y0126000D03*
X0011000Y0116000D03*
X0011000Y0106000D03*
X0011000Y0096000D03*
X0011000Y0146000D03*
X0011000Y0156000D03*
X0011000Y0166000D03*
X0011000Y0176000D03*
X0011000Y0186000D03*
X0011000Y0196000D03*
X0011000Y0206000D03*
X0021000Y0206000D03*
X0021000Y0196000D03*
X0021000Y0186000D03*
X0021000Y0176000D03*
X0021000Y0166000D03*
X0021000Y0156000D03*
X0021000Y0146000D03*
X0021000Y0216000D03*
X0021000Y0226000D03*
X0011000Y0226000D03*
X0011000Y0216000D03*
X0041000Y0246000D03*
X0051000Y0246000D03*
X0051000Y0256000D03*
X0041000Y0256000D03*
X0061000Y0256000D03*
X0071000Y0256000D03*
X0071000Y0246000D03*
X0061000Y0246000D03*
X0081000Y0246000D03*
X0091000Y0246000D03*
X0091000Y0256000D03*
X0081000Y0256000D03*
X0101000Y0256000D03*
X0111000Y0256000D03*
X0111000Y0246000D03*
X0101000Y0246000D03*
X0121000Y0246000D03*
X0131000Y0246000D03*
X0131000Y0256000D03*
X0121000Y0256000D03*
X0141000Y0256000D03*
X0151000Y0256000D03*
X0151000Y0246000D03*
X0141000Y0246000D03*
X0161000Y0246000D03*
X0171000Y0246000D03*
X0171000Y0256000D03*
X0161000Y0256000D03*
X0191000Y0226000D03*
X0191000Y0216000D03*
X0201000Y0216000D03*
X0201000Y0226000D03*
X0201000Y0206000D03*
X0201000Y0196000D03*
X0201000Y0186000D03*
X0201000Y0176000D03*
X0201000Y0166000D03*
X0201000Y0156000D03*
X0201000Y0146000D03*
X0191000Y0146000D03*
X0191000Y0156000D03*
X0191000Y0166000D03*
X0191000Y0176000D03*
X0191000Y0186000D03*
X0191000Y0196000D03*
X0191000Y0206000D03*
X0191000Y0136000D03*
X0191000Y0126000D03*
X0191000Y0116000D03*
X0191000Y0106000D03*
X0191000Y0096000D03*
X0201000Y0096000D03*
X0201000Y0106000D03*
X0201000Y0116000D03*
X0201000Y0126000D03*
X0201000Y0136000D03*
X0171000Y0076000D03*
X0161000Y0076000D03*
X0161000Y0066000D03*
X0171000Y0066000D03*
X0151000Y0066000D03*
X0141000Y0066000D03*
X0141000Y0076000D03*
X0151000Y0076000D03*
X0276000Y0031000D03*
X0286000Y0031000D03*
X0286000Y0021000D03*
X0276000Y0021000D03*
X0296000Y0021000D03*
X0306000Y0021000D03*
X0306000Y0031000D03*
X0296000Y0031000D03*
X0316000Y0031000D03*
X0326000Y0031000D03*
X0326000Y0021000D03*
X0316000Y0021000D03*
X0336000Y0021000D03*
X0346000Y0021000D03*
X0346000Y0031000D03*
X0336000Y0031000D03*
X0356000Y0031000D03*
X0366000Y0031000D03*
X0366000Y0021000D03*
X0356000Y0021000D03*
X0356000Y0286000D03*
X0366000Y0286000D03*
X0366000Y0296000D03*
X0356000Y0296000D03*
X0346000Y0296000D03*
X0336000Y0296000D03*
X0336000Y0286000D03*
X0346000Y0286000D03*
X0326000Y0286000D03*
X0316000Y0286000D03*
X0316000Y0296000D03*
X0326000Y0296000D03*
X0306000Y0296000D03*
X0296000Y0296000D03*
X0296000Y0286000D03*
X0306000Y0286000D03*
X0286000Y0286000D03*
X0276000Y0286000D03*
X0276000Y0296000D03*
X0286000Y0296000D03*
X0121000Y0296000D03*
X0121000Y0286000D03*
X0111000Y0286000D03*
X0101000Y0286000D03*
X0101000Y0296000D03*
X0111000Y0296000D03*
X0091000Y0296000D03*
X0081000Y0296000D03*
X0081000Y0286000D03*
X0091000Y0286000D03*
X0071000Y0286000D03*
X0061000Y0286000D03*
X0061000Y0296000D03*
X0071000Y0296000D03*
X0051000Y0296000D03*
X0041000Y0296000D03*
X0041000Y0286000D03*
X0051000Y0286000D03*
X0031000Y0286000D03*
X0031000Y0296000D03*
D12*
X0031000Y0297875D01*
X0046625Y0313500D01*
X0102250Y0313500D01*
X0116000Y0299750D01*
X0116000Y0293500D01*
X0121000Y0288500D01*
X0121000Y0286000D01*
X0116000Y0283500D02*
X0116000Y0289125D01*
X0111000Y0294125D01*
X0111000Y0296000D01*
X0106000Y0304125D02*
X0106000Y0283500D01*
X0131000Y0258500D01*
X0131000Y0256000D01*
X0126000Y0253500D02*
X0126000Y0259125D01*
X0101000Y0284125D01*
X0101000Y0286000D01*
X0096000Y0283500D02*
X0096000Y0292250D01*
X0101000Y0296000D02*
X0089125Y0307875D01*
X0083500Y0307875D01*
X0081625Y0306000D01*
X0070375Y0306000D01*
X0075375Y0301000D02*
X0086000Y0301000D01*
X0091000Y0296000D01*
X0083500Y0291000D02*
X0077875Y0291000D01*
X0072875Y0296000D01*
X0071000Y0296000D01*
X0073500Y0291000D02*
X0066000Y0291000D01*
X0061000Y0296000D01*
X0053500Y0291000D02*
X0046000Y0291000D01*
X0041000Y0296000D01*
X0036000Y0298500D02*
X0036000Y0293500D01*
X0033500Y0291000D01*
X0028500Y0291000D01*
X0016000Y0278500D01*
X0016000Y0223500D01*
X0021000Y0218500D01*
X0021000Y0216000D01*
X0021000Y0226000D02*
X0021000Y0236000D01*
X0041000Y0256000D01*
X0041000Y0271000D01*
X0031000Y0281000D01*
X0031000Y0286000D01*
X0020375Y0292875D02*
X0037875Y0310375D01*
X0038500Y0301000D02*
X0046000Y0301000D01*
X0051000Y0296000D01*
X0053500Y0291000D02*
X0056000Y0288500D01*
X0056000Y0283500D01*
X0061000Y0278500D01*
X0061000Y0256000D01*
X0056000Y0253500D02*
X0056000Y0279125D01*
X0051000Y0284125D01*
X0051000Y0286000D01*
X0046000Y0281000D02*
X0041000Y0286000D01*
X0046000Y0281000D02*
X0046000Y0243500D01*
X0048500Y0241000D01*
X0063500Y0241000D01*
X0068500Y0246000D01*
X0071000Y0246000D01*
X0076000Y0243500D02*
X0076000Y0271000D01*
X0061000Y0286000D01*
X0073500Y0291000D02*
X0076000Y0288500D01*
X0076000Y0283500D01*
X0075375Y0282875D01*
X0075375Y0277875D01*
X0086000Y0267250D01*
X0086000Y0243500D01*
X0021000Y0178500D01*
X0021000Y0176000D01*
X0023500Y0171000D02*
X0018500Y0171000D01*
X0013500Y0166000D01*
X0011000Y0166000D01*
X0006000Y0163500D02*
X0006000Y0254125D01*
X0011625Y0259750D01*
X0021000Y0269125D02*
X0029125Y0277250D01*
X0036000Y0298500D02*
X0038500Y0301000D01*
X0079750Y0279125D02*
X0096000Y0262875D01*
X0096000Y0243500D01*
X0023500Y0171000D01*
X0025375Y0166000D02*
X0021000Y0166000D01*
X0025375Y0166000D02*
X0098500Y0239125D01*
X0101625Y0239125D01*
X0101000Y0246000D02*
X0101000Y0248500D01*
X0106000Y0253500D01*
X0106000Y0262875D01*
X0101625Y0267250D01*
X0101000Y0262250D02*
X0092875Y0270375D01*
X0092875Y0276000D01*
X0093500Y0281000D02*
X0088500Y0281000D01*
X0086000Y0283500D01*
X0086000Y0288500D01*
X0083500Y0291000D01*
X0093500Y0281000D02*
X0116000Y0258500D01*
X0116000Y0253500D01*
X0114750Y0252250D01*
X0114750Y0251000D01*
X0111000Y0253500D02*
X0111000Y0256000D01*
X0111000Y0253500D02*
X0106000Y0248500D01*
X0106000Y0227250D01*
X0116000Y0217250D01*
X0116000Y0208500D01*
X0119125Y0212250D02*
X0135375Y0196000D01*
X0135375Y0190375D02*
X0161000Y0216000D01*
X0161000Y0229750D01*
X0172250Y0241000D01*
X0173500Y0241000D01*
X0176000Y0243500D01*
X0176000Y0258500D01*
X0173500Y0261000D01*
X0171625Y0261000D01*
X0157875Y0274750D01*
X0153500Y0273500D02*
X0171000Y0256000D01*
X0171000Y0246000D01*
X0179125Y0248500D02*
X0179125Y0242250D01*
X0165375Y0228500D01*
X0156000Y0243500D02*
X0156000Y0258500D01*
X0153500Y0261000D01*
X0134125Y0261000D01*
X0111000Y0284125D01*
X0111000Y0286000D01*
X0116000Y0283500D02*
X0122875Y0276625D01*
X0124125Y0276625D01*
X0135375Y0281000D02*
X0135375Y0265375D01*
X0146000Y0265375D02*
X0146000Y0281625D01*
X0137250Y0290375D01*
X0137250Y0296000D02*
X0153500Y0279750D01*
X0153500Y0273500D01*
X0169125Y0276000D02*
X0136000Y0309125D01*
X0137250Y0296000D02*
X0121000Y0296000D01*
X0096000Y0283500D02*
X0121000Y0258500D01*
X0121000Y0256000D01*
X0126000Y0253500D02*
X0128500Y0251000D01*
X0133500Y0251000D01*
X0136000Y0248500D01*
X0136000Y0231000D01*
X0123500Y0218500D01*
X0126000Y0213500D02*
X0156000Y0243500D01*
X0151000Y0244125D02*
X0140375Y0233500D01*
X0131000Y0231625D02*
X0123500Y0224125D01*
X0121000Y0227250D02*
X0119125Y0225375D01*
X0119125Y0212250D01*
X0111000Y0206625D02*
X0111000Y0217875D01*
X0097250Y0231625D01*
X0104750Y0218500D02*
X0074750Y0188500D01*
X0074750Y0182250D01*
X0023500Y0131000D01*
X0018500Y0131000D01*
X0013500Y0126000D01*
X0011000Y0126000D01*
X0018500Y0121000D02*
X0023500Y0121000D01*
X0077875Y0175375D01*
X0077875Y0187250D01*
X0095375Y0204750D01*
X0106625Y0204750D01*
X0111000Y0206625D02*
X0136625Y0181000D01*
X0150375Y0175375D02*
X0180375Y0205375D01*
X0180375Y0211000D02*
X0126625Y0157250D01*
X0127875Y0166000D02*
X0120375Y0166000D01*
X0120375Y0166625D01*
X0104125Y0182875D01*
X0106000Y0166000D02*
X0101000Y0161000D01*
X0101000Y0160375D01*
X0047250Y0106625D01*
X0021625Y0106625D01*
X0021000Y0106000D01*
X0011000Y0106000D01*
X0011000Y0096000D02*
X0021000Y0096000D01*
X0021625Y0096625D01*
X0047250Y0096625D01*
X0100375Y0149750D01*
X0170375Y0079750D01*
X0170375Y0076625D01*
X0171000Y0076000D01*
X0171000Y0066000D01*
X0161000Y0066000D02*
X0161000Y0076000D01*
X0161000Y0066000D02*
X0126000Y0031000D01*
X0121000Y0031000D01*
X0121000Y0021000D02*
X0118500Y0021000D01*
X0113500Y0016000D01*
X0038500Y0016000D01*
X0036000Y0018500D01*
X0036000Y0024125D01*
X0031000Y0029125D01*
X0031000Y0031000D01*
X0036000Y0028500D02*
X0036000Y0061000D01*
X0041000Y0066000D01*
X0046000Y0061000D02*
X0051000Y0066000D01*
X0046000Y0061000D02*
X0046000Y0028500D01*
X0051000Y0023500D01*
X0051000Y0021000D01*
X0056000Y0028500D02*
X0056000Y0061000D01*
X0061000Y0066000D01*
X0066000Y0061000D02*
X0071000Y0066000D01*
X0066000Y0061000D02*
X0066000Y0028500D01*
X0071000Y0023500D01*
X0071000Y0021000D01*
X0076000Y0028500D02*
X0076000Y0061000D01*
X0081000Y0066000D01*
X0086000Y0061000D02*
X0091000Y0066000D01*
X0086000Y0061000D02*
X0086000Y0028500D01*
X0091000Y0023500D01*
X0091000Y0021000D01*
X0096000Y0028500D02*
X0096000Y0061000D01*
X0101000Y0066000D01*
X0106000Y0061000D02*
X0111000Y0066000D01*
X0106000Y0061000D02*
X0106000Y0028500D01*
X0111000Y0023500D01*
X0111000Y0021000D01*
X0101000Y0021000D02*
X0101000Y0023500D01*
X0096000Y0028500D01*
X0081000Y0023500D02*
X0081000Y0021000D01*
X0081000Y0023500D02*
X0076000Y0028500D01*
X0061000Y0023500D02*
X0061000Y0021000D01*
X0061000Y0023500D02*
X0056000Y0028500D01*
X0041000Y0023500D02*
X0041000Y0021000D01*
X0041000Y0023500D02*
X0036000Y0028500D01*
X0116000Y0073500D02*
X0116000Y0109750D01*
X0127875Y0116000D02*
X0136000Y0107875D01*
X0136000Y0073500D01*
X0131000Y0068500D01*
X0131000Y0066000D01*
X0121000Y0066000D02*
X0121000Y0068500D01*
X0116000Y0073500D01*
X0182875Y0051000D02*
X0182875Y0165375D01*
X0188500Y0171000D01*
X0196000Y0171000D01*
X0201000Y0166000D01*
X0206000Y0167875D02*
X0206000Y0171000D01*
X0201000Y0176000D01*
X0206000Y0167875D02*
X0273500Y0100375D01*
X0342250Y0100375D01*
X0371000Y0071625D01*
X0371000Y0028500D01*
X0368500Y0026000D01*
X0363500Y0026000D01*
X0358500Y0021000D01*
X0356000Y0021000D01*
X0363500Y0031000D02*
X0337250Y0057250D01*
X0314125Y0057250D01*
X0306000Y0065375D01*
X0306000Y0066000D01*
X0296000Y0066000D01*
X0296000Y0065375D01*
X0281000Y0050375D01*
X0281000Y0028500D01*
X0276000Y0023500D01*
X0276000Y0021000D01*
X0273500Y0016000D02*
X0281000Y0016000D01*
X0286000Y0021000D01*
X0291000Y0028500D02*
X0291000Y0047875D01*
X0303500Y0043500D02*
X0316000Y0031000D01*
X0321000Y0028500D02*
X0321000Y0052875D01*
X0322250Y0061625D02*
X0322250Y0070375D01*
X0314750Y0077875D01*
X0274750Y0077875D01*
X0206625Y0146000D01*
X0201000Y0146000D01*
X0198500Y0151000D02*
X0208500Y0151000D01*
X0277250Y0082250D01*
X0284125Y0081000D02*
X0209125Y0156000D01*
X0201000Y0156000D01*
X0198500Y0161000D02*
X0208500Y0161000D01*
X0285375Y0084125D01*
X0348500Y0084125D01*
X0361000Y0071625D01*
X0361000Y0044750D01*
X0352875Y0052875D02*
X0352875Y0058500D01*
X0351000Y0060375D01*
X0351000Y0071625D01*
X0341625Y0081000D01*
X0284125Y0081000D01*
X0284125Y0074750D02*
X0307875Y0074750D01*
X0316000Y0066625D01*
X0316000Y0066000D01*
X0341000Y0046625D02*
X0341000Y0028500D01*
X0336000Y0023500D01*
X0336000Y0021000D01*
X0326000Y0021000D02*
X0326000Y0023500D01*
X0321000Y0028500D01*
X0318500Y0021000D02*
X0323500Y0016000D01*
X0368500Y0016000D01*
X0391000Y0038500D01*
X0391000Y0268500D01*
X0370375Y0289125D01*
X0371000Y0289750D01*
X0371000Y0298500D01*
X0356625Y0312875D01*
X0240375Y0312875D01*
X0194750Y0267250D01*
X0194750Y0265375D01*
X0201625Y0261625D02*
X0224750Y0284750D01*
X0247250Y0284750D01*
X0247250Y0281000D01*
X0271000Y0257250D01*
X0271000Y0256000D01*
X0261000Y0256000D02*
X0261000Y0259125D01*
X0241000Y0279125D01*
X0241000Y0280375D01*
X0247250Y0284750D02*
X0247250Y0304125D01*
X0250375Y0307250D01*
X0254750Y0307250D01*
X0276000Y0286000D01*
X0275375Y0287875D01*
X0281000Y0293500D01*
X0281000Y0298500D01*
X0286625Y0304125D01*
X0355375Y0304125D01*
X0363500Y0296000D01*
X0366000Y0296000D01*
X0368500Y0291000D02*
X0361000Y0291000D01*
X0356000Y0296000D01*
X0356000Y0286000D02*
X0344125Y0274125D01*
X0341000Y0271625D02*
X0339750Y0272875D01*
X0339750Y0279750D01*
X0346000Y0286000D01*
X0356625Y0279750D02*
X0359750Y0279750D01*
X0366000Y0286000D01*
X0370375Y0289125D02*
X0368500Y0291000D01*
X0351000Y0272875D02*
X0351000Y0236000D01*
X0296000Y0181000D01*
X0188500Y0181000D01*
X0184125Y0185375D01*
X0191000Y0186000D02*
X0191000Y0188500D01*
X0184750Y0194750D01*
X0184750Y0217250D01*
X0191000Y0216000D02*
X0201000Y0226000D01*
X0201625Y0226625D01*
X0201625Y0242250D01*
X0186625Y0242250D01*
X0183500Y0245375D01*
X0179125Y0248500D02*
X0186000Y0255375D01*
X0190375Y0246625D02*
X0190375Y0296000D01*
X0203500Y0309125D01*
X0187250Y0309125D02*
X0187250Y0288500D01*
X0172875Y0274125D01*
X0172875Y0265375D01*
X0151000Y0246000D02*
X0151000Y0244125D01*
X0131000Y0246000D02*
X0131000Y0231625D01*
X0121000Y0227250D02*
X0121000Y0246000D01*
X0101000Y0256000D02*
X0101000Y0262250D01*
X0076000Y0243500D02*
X0038500Y0206000D01*
X0021000Y0206000D01*
X0021000Y0196000D02*
X0021000Y0186000D01*
X0011000Y0186000D01*
X0030375Y0165375D02*
X0021000Y0156000D01*
X0021000Y0146000D02*
X0043500Y0168500D01*
X0047875Y0165375D02*
X0023500Y0141000D01*
X0018500Y0141000D01*
X0013500Y0146000D01*
X0011000Y0146000D01*
X0011000Y0156000D02*
X0011000Y0158500D01*
X0006000Y0163500D01*
X0011000Y0136000D02*
X0021000Y0136000D01*
X0018500Y0121000D02*
X0013500Y0116000D01*
X0011000Y0116000D01*
X0100375Y0149750D02*
X0116000Y0165375D01*
X0116000Y0166000D01*
X0120375Y0166000D01*
X0127875Y0166000D02*
X0187875Y0226000D01*
X0191000Y0226000D01*
X0206000Y0213500D02*
X0206000Y0261625D01*
X0209125Y0264750D01*
X0232875Y0264750D01*
X0241000Y0256625D01*
X0241000Y0256000D01*
X0251000Y0256000D02*
X0251000Y0255375D01*
X0235375Y0239750D01*
X0235375Y0228500D01*
X0231000Y0224125D02*
X0231000Y0256000D01*
X0221000Y0256000D02*
X0216000Y0251000D01*
X0216000Y0228500D01*
X0231000Y0224125D02*
X0202875Y0196000D01*
X0201000Y0196000D01*
X0198500Y0201000D02*
X0196000Y0198500D01*
X0196000Y0193500D01*
X0201000Y0188500D01*
X0201000Y0186000D01*
X0191000Y0196000D02*
X0191000Y0198500D01*
X0196000Y0203500D01*
X0196000Y0208500D01*
X0198500Y0211000D01*
X0203500Y0211000D01*
X0206000Y0213500D01*
X0211000Y0208500D02*
X0211000Y0256000D01*
X0201625Y0261625D02*
X0201625Y0242250D01*
X0211000Y0208500D02*
X0203500Y0201000D01*
X0198500Y0201000D01*
X0222250Y0186625D02*
X0286000Y0250375D01*
X0286000Y0268500D01*
X0301000Y0283500D01*
X0301000Y0298500D01*
X0298500Y0301000D01*
X0291000Y0301000D01*
X0286000Y0296000D01*
X0283500Y0291000D02*
X0291000Y0291000D01*
X0296000Y0296000D01*
X0306000Y0296000D02*
X0311000Y0301000D01*
X0328500Y0301000D01*
X0331000Y0298500D01*
X0331000Y0283500D01*
X0321000Y0273500D01*
X0321000Y0250375D01*
X0261625Y0191000D01*
X0256625Y0201000D02*
X0311000Y0255375D01*
X0311000Y0271000D01*
X0326000Y0286000D01*
X0316000Y0296000D02*
X0311000Y0291000D01*
X0311000Y0283500D01*
X0307250Y0279750D01*
X0306000Y0284125D02*
X0306000Y0286000D01*
X0306000Y0284125D02*
X0296000Y0274125D01*
X0296000Y0250375D01*
X0286000Y0240375D01*
X0293500Y0228500D02*
X0312250Y0247250D01*
X0317250Y0236625D02*
X0336000Y0255375D01*
X0336000Y0256000D01*
X0341000Y0250375D02*
X0341000Y0271625D01*
X0341000Y0250375D02*
X0346625Y0244750D01*
X0354750Y0229750D02*
X0386000Y0198500D01*
X0386000Y0076625D01*
X0376000Y0066625D01*
X0376000Y0066000D01*
X0366000Y0031000D02*
X0363500Y0031000D01*
X0318500Y0021000D02*
X0316000Y0021000D01*
X0306000Y0021000D02*
X0303500Y0021000D01*
X0292250Y0009750D01*
X0231625Y0009750D01*
X0197250Y0044125D01*
X0197250Y0047875D01*
X0200375Y0051000D01*
X0211625Y0051000D01*
X0227875Y0067250D01*
X0227875Y0099125D01*
X0226625Y0106000D02*
X0261000Y0071625D01*
X0261000Y0028500D01*
X0273500Y0016000D01*
X0276000Y0031000D02*
X0276000Y0055375D01*
X0281000Y0060375D01*
X0281000Y0071625D01*
X0284125Y0074750D01*
X0276000Y0071000D02*
X0267875Y0079125D01*
X0267875Y0074750D02*
X0262250Y0074750D01*
X0226000Y0111000D01*
X0198500Y0111000D01*
X0193500Y0106000D01*
X0191000Y0106000D01*
X0191000Y0096000D02*
X0201000Y0096000D01*
X0206000Y0091000D01*
X0206000Y0056000D01*
X0206000Y0046000D02*
X0236625Y0046000D01*
X0256000Y0065375D01*
X0256000Y0066000D01*
X0267875Y0074750D02*
X0271000Y0071625D01*
X0271000Y0036000D01*
X0291000Y0028500D02*
X0296000Y0023500D01*
X0296000Y0021000D01*
X0276000Y0066000D02*
X0276000Y0071000D01*
X0247250Y0095375D02*
X0246000Y0095375D01*
X0225375Y0116000D01*
X0201000Y0116000D01*
X0201000Y0106000D02*
X0226625Y0106000D01*
X0236625Y0109125D02*
X0219750Y0126000D01*
X0201000Y0126000D01*
X0186000Y0141000D02*
X0191000Y0146000D01*
X0186000Y0141000D02*
X0186000Y0071625D01*
X0192875Y0064750D01*
X0192875Y0046625D01*
X0182875Y0051000D02*
X0217875Y0016000D01*
X0239125Y0062250D02*
X0239125Y0087875D01*
X0237875Y0109125D02*
X0236625Y0109125D01*
X0250375Y0131000D02*
X0366625Y0247250D01*
X0367875Y0247250D01*
X0376000Y0255375D01*
X0376000Y0256000D01*
X0379750Y0249125D02*
X0386000Y0255375D01*
X0386000Y0256000D01*
X0379750Y0249125D02*
X0379750Y0231625D01*
X0360375Y0217875D02*
X0283500Y0141000D01*
X0291625Y0143500D02*
X0361000Y0212875D01*
X0341625Y0216625D02*
X0340375Y0216625D01*
X0274750Y0151000D01*
X0274750Y0104750D01*
X0279125Y0110375D02*
X0279125Y0149750D01*
X0293500Y0164125D01*
X0309125Y0138500D02*
X0285375Y0114750D01*
X0300375Y0135375D02*
X0351625Y0186625D01*
X0381625Y0193500D02*
X0311625Y0123500D01*
X0311000Y0201625D02*
X0312875Y0203500D01*
X0312875Y0234750D01*
X0317250Y0236625D02*
X0317250Y0207875D01*
X0268500Y0265375D02*
X0268500Y0266625D01*
X0286000Y0284125D01*
X0286000Y0286000D01*
X0281000Y0288500D02*
X0281000Y0283500D01*
X0278500Y0281000D01*
X0273500Y0281000D01*
X0251625Y0302875D01*
X0276000Y0297875D02*
X0286625Y0308500D01*
X0341000Y0308500D01*
X0296000Y0286000D02*
X0279125Y0269125D01*
X0281000Y0288500D02*
X0283500Y0291000D01*
X0276000Y0296000D02*
X0276000Y0297875D01*
X0193500Y0166000D02*
X0191000Y0166000D01*
X0193500Y0166000D02*
X0198500Y0161000D01*
X0193500Y0156000D02*
X0198500Y0151000D01*
X0193500Y0156000D02*
X0191000Y0156000D01*
X0061000Y0246000D02*
X0061000Y0248500D01*
X0056000Y0253500D01*
D13*
X0029125Y0277250D03*
X0021000Y0269125D03*
X0011625Y0259750D03*
X0020375Y0292875D03*
X0037875Y0310375D03*
X0070375Y0306000D03*
X0075375Y0301000D03*
X0079750Y0279125D03*
X0092875Y0276000D03*
X0101625Y0267250D03*
X0114750Y0251000D03*
X0101625Y0239125D03*
X0097250Y0231625D03*
X0104750Y0218500D03*
X0116000Y0208500D03*
X0126000Y0213500D03*
X0123500Y0218500D03*
X0123500Y0224125D03*
X0140375Y0233500D03*
X0165375Y0228500D03*
X0184750Y0217250D03*
X0180375Y0211000D03*
X0180375Y0205375D03*
X0184125Y0185375D03*
X0150375Y0175375D03*
X0136625Y0181000D03*
X0135375Y0190375D03*
X0135375Y0196000D03*
X0106625Y0204750D03*
X0104125Y0182875D03*
X0126625Y0157250D03*
X0127875Y0116000D03*
X0116000Y0109750D03*
X0047875Y0165375D03*
X0043500Y0168500D03*
X0030375Y0165375D03*
X0135375Y0265375D03*
X0146000Y0265375D03*
X0157875Y0274750D03*
X0169125Y0276000D03*
X0172875Y0265375D03*
X0186000Y0255375D03*
X0190375Y0246625D03*
X0183500Y0245375D03*
X0194750Y0265375D03*
X0216000Y0228500D03*
X0235375Y0228500D03*
X0256625Y0201000D03*
X0261625Y0191000D03*
X0293500Y0164125D03*
X0291625Y0143500D03*
X0283500Y0141000D03*
X0300375Y0135375D03*
X0309125Y0138500D03*
X0311625Y0123500D03*
X0285375Y0114750D03*
X0279125Y0110375D03*
X0274750Y0104750D03*
X0247250Y0095375D03*
X0239125Y0087875D03*
X0227875Y0099125D03*
X0237875Y0109125D03*
X0250375Y0131000D03*
X0277250Y0082250D03*
X0267875Y0079125D03*
X0239125Y0062250D03*
X0271000Y0036000D03*
X0291000Y0047875D03*
X0303500Y0043500D03*
X0321000Y0052875D03*
X0322250Y0061625D03*
X0341000Y0046625D03*
X0352875Y0052875D03*
X0361000Y0044750D03*
X0217875Y0016000D03*
X0192875Y0046625D03*
X0222250Y0186625D03*
X0286000Y0240375D03*
X0293500Y0228500D03*
X0312875Y0234750D03*
X0312250Y0247250D03*
X0346625Y0244750D03*
X0354750Y0229750D03*
X0360375Y0217875D03*
X0361000Y0212875D03*
X0341625Y0216625D03*
X0317250Y0207875D03*
X0311000Y0201625D03*
X0351625Y0186625D03*
X0381625Y0193500D03*
X0379750Y0231625D03*
X0351000Y0272875D03*
X0344125Y0274125D03*
X0356625Y0279750D03*
X0341000Y0308500D03*
X0307250Y0279750D03*
X0279125Y0269125D03*
X0268500Y0265375D03*
X0241000Y0280375D03*
X0251625Y0302875D03*
X0203500Y0309125D03*
X0187250Y0309125D03*
X0136000Y0309125D03*
X0137250Y0290375D03*
X0135375Y0281000D03*
X0124125Y0276625D03*
X0096000Y0292250D03*
X0106000Y0304125D03*
M02*
