G75*
%MOIN*%
%OFA0B0*%
%FSLAX25Y25*%
%IPPOS*%
%LPD*%
%AMOC8*
5,1,8,0,0,1.08239X$1,22.5*
%
%ADD10C,0.00000*%
%ADD11C,0.00700*%
%ADD12C,0.00800*%
%ADD13C,0.02000*%
%ADD14C,0.02500*%
%ADD15C,0.01000*%
%ADD16C,0.01500*%
%ADD17C,0.00600*%
%ADD18C,0.00500*%
%ADD19C,0.00400*%
D10*
X0016811Y0001000D02*
X0381445Y0001000D01*
X0381765Y0001004D01*
X0382085Y0001015D01*
X0382405Y0001035D01*
X0382724Y0001062D01*
X0383043Y0001097D01*
X0383360Y0001139D01*
X0383677Y0001189D01*
X0383992Y0001247D01*
X0384305Y0001312D01*
X0384617Y0001385D01*
X0384927Y0001466D01*
X0385235Y0001553D01*
X0385541Y0001649D01*
X0385844Y0001751D01*
X0386145Y0001861D01*
X0386443Y0001979D01*
X0386739Y0002103D01*
X0387031Y0002234D01*
X0387320Y0002373D01*
X0387605Y0002518D01*
X0387887Y0002671D01*
X0388165Y0002830D01*
X0388439Y0002995D01*
X0388709Y0003168D01*
X0388975Y0003346D01*
X0389236Y0003531D01*
X0389493Y0003723D01*
X0389745Y0003920D01*
X0389992Y0004124D01*
X0390235Y0004333D01*
X0390472Y0004549D01*
X0390704Y0004770D01*
X0390930Y0004996D01*
X0391151Y0005228D01*
X0391367Y0005465D01*
X0391576Y0005708D01*
X0391780Y0005955D01*
X0391977Y0006207D01*
X0392169Y0006464D01*
X0392354Y0006725D01*
X0392532Y0006991D01*
X0392705Y0007261D01*
X0392870Y0007535D01*
X0393029Y0007813D01*
X0393182Y0008095D01*
X0393327Y0008380D01*
X0393466Y0008669D01*
X0393597Y0008961D01*
X0393721Y0009257D01*
X0393839Y0009555D01*
X0393949Y0009856D01*
X0394051Y0010159D01*
X0394147Y0010465D01*
X0394234Y0010773D01*
X0394315Y0011083D01*
X0394388Y0011395D01*
X0394453Y0011708D01*
X0394511Y0012023D01*
X0394561Y0012340D01*
X0394603Y0012657D01*
X0394638Y0012976D01*
X0394665Y0013295D01*
X0394685Y0013615D01*
X0394696Y0013935D01*
X0394700Y0014255D01*
X0394701Y0014255D02*
X0394701Y0302735D01*
X0394697Y0303055D01*
X0394686Y0303374D01*
X0394666Y0303693D01*
X0394639Y0304011D01*
X0394605Y0304329D01*
X0394562Y0304646D01*
X0394512Y0304962D01*
X0394455Y0305276D01*
X0394389Y0305589D01*
X0394317Y0305900D01*
X0394236Y0306210D01*
X0394149Y0306517D01*
X0394054Y0306822D01*
X0393951Y0307125D01*
X0393842Y0307425D01*
X0393725Y0307722D01*
X0393600Y0308017D01*
X0393469Y0308308D01*
X0393331Y0308597D01*
X0393186Y0308881D01*
X0393034Y0309163D01*
X0392875Y0309440D01*
X0392710Y0309714D01*
X0392538Y0309983D01*
X0392360Y0310248D01*
X0392175Y0310509D01*
X0391984Y0310765D01*
X0391787Y0311017D01*
X0391584Y0311264D01*
X0391375Y0311505D01*
X0391160Y0311742D01*
X0390940Y0311974D01*
X0390714Y0312200D01*
X0390482Y0312420D01*
X0390245Y0312635D01*
X0390004Y0312844D01*
X0389757Y0313047D01*
X0389505Y0313244D01*
X0389249Y0313435D01*
X0388988Y0313620D01*
X0388723Y0313798D01*
X0388454Y0313970D01*
X0388180Y0314135D01*
X0387903Y0314294D01*
X0387621Y0314446D01*
X0387337Y0314591D01*
X0387048Y0314729D01*
X0386757Y0314860D01*
X0386462Y0314985D01*
X0386165Y0315102D01*
X0385865Y0315211D01*
X0385562Y0315314D01*
X0385257Y0315409D01*
X0384950Y0315496D01*
X0384640Y0315577D01*
X0384329Y0315649D01*
X0384016Y0315715D01*
X0383702Y0315772D01*
X0383386Y0315822D01*
X0383069Y0315865D01*
X0382751Y0315899D01*
X0382433Y0315926D01*
X0382114Y0315946D01*
X0381795Y0315957D01*
X0381475Y0315961D01*
X0018995Y0315961D01*
X0018560Y0315956D01*
X0018126Y0315940D01*
X0017692Y0315914D01*
X0017258Y0315877D01*
X0016826Y0315830D01*
X0016395Y0315772D01*
X0015965Y0315704D01*
X0015538Y0315626D01*
X0015112Y0315537D01*
X0014689Y0315438D01*
X0014268Y0315329D01*
X0013849Y0315210D01*
X0013434Y0315080D01*
X0013022Y0314941D01*
X0012614Y0314792D01*
X0012209Y0314633D01*
X0011808Y0314464D01*
X0011412Y0314285D01*
X0011020Y0314097D01*
X0010632Y0313900D01*
X0010250Y0313693D01*
X0009872Y0313477D01*
X0009500Y0313252D01*
X0009134Y0313018D01*
X0008773Y0312776D01*
X0008418Y0312524D01*
X0008069Y0312264D01*
X0007727Y0311996D01*
X0007391Y0311720D01*
X0007062Y0311435D01*
X0006740Y0311143D01*
X0006425Y0310843D01*
X0006118Y0310536D01*
X0005818Y0310221D01*
X0005526Y0309899D01*
X0005241Y0309570D01*
X0004965Y0309234D01*
X0004697Y0308892D01*
X0004437Y0308543D01*
X0004185Y0308188D01*
X0003943Y0307827D01*
X0003709Y0307461D01*
X0003484Y0307089D01*
X0003268Y0306711D01*
X0003061Y0306329D01*
X0002864Y0305941D01*
X0002676Y0305549D01*
X0002497Y0305153D01*
X0002328Y0304752D01*
X0002169Y0304347D01*
X0002020Y0303939D01*
X0001881Y0303527D01*
X0001751Y0303112D01*
X0001632Y0302693D01*
X0001523Y0302272D01*
X0001424Y0301849D01*
X0001335Y0301423D01*
X0001257Y0300996D01*
X0001189Y0300566D01*
X0001131Y0300135D01*
X0001084Y0299703D01*
X0001047Y0299269D01*
X0001021Y0298835D01*
X0001005Y0298401D01*
X0001000Y0297966D01*
X0001000Y0016811D01*
X0001005Y0016429D01*
X0001018Y0016047D01*
X0001042Y0015666D01*
X0001074Y0015285D01*
X0001115Y0014905D01*
X0001166Y0014526D01*
X0001226Y0014149D01*
X0001295Y0013773D01*
X0001372Y0013399D01*
X0001459Y0013027D01*
X0001555Y0012657D01*
X0001660Y0012290D01*
X0001774Y0011925D01*
X0001896Y0011563D01*
X0002027Y0011204D01*
X0002167Y0010849D01*
X0002316Y0010497D01*
X0002472Y0010148D01*
X0002638Y0009804D01*
X0002811Y0009463D01*
X0002993Y0009127D01*
X0003182Y0008795D01*
X0003380Y0008468D01*
X0003586Y0008146D01*
X0003799Y0007829D01*
X0004020Y0007518D01*
X0004248Y0007211D01*
X0004484Y0006910D01*
X0004726Y0006615D01*
X0004976Y0006326D01*
X0005233Y0006043D01*
X0005497Y0005767D01*
X0005767Y0005497D01*
X0006043Y0005233D01*
X0006326Y0004976D01*
X0006615Y0004726D01*
X0006910Y0004484D01*
X0007211Y0004248D01*
X0007518Y0004020D01*
X0007829Y0003799D01*
X0008146Y0003586D01*
X0008468Y0003380D01*
X0008795Y0003182D01*
X0009127Y0002993D01*
X0009463Y0002811D01*
X0009804Y0002638D01*
X0010148Y0002472D01*
X0010497Y0002316D01*
X0010849Y0002167D01*
X0011204Y0002027D01*
X0011563Y0001896D01*
X0011925Y0001774D01*
X0012290Y0001660D01*
X0012657Y0001555D01*
X0013027Y0001459D01*
X0013399Y0001372D01*
X0013773Y0001295D01*
X0014149Y0001226D01*
X0014526Y0001166D01*
X0014905Y0001115D01*
X0015285Y0001074D01*
X0015666Y0001042D01*
X0016047Y0001018D01*
X0016429Y0001005D01*
X0016811Y0001000D01*
D11*
X0017092Y0042850D02*
X0017092Y0049155D01*
X0021296Y0042850D01*
X0021296Y0049155D01*
X0014897Y0049155D02*
X0012795Y0049155D01*
X0013846Y0049155D02*
X0013846Y0042850D01*
X0012795Y0042850D02*
X0014897Y0042850D01*
X0010554Y0044952D02*
X0010554Y0049155D01*
X0010554Y0044952D02*
X0008452Y0042850D01*
X0006350Y0044952D01*
X0006350Y0049155D01*
X0007401Y0072850D02*
X0009503Y0072850D01*
X0010554Y0073901D01*
X0010554Y0076003D01*
X0008452Y0076003D01*
X0010554Y0078104D02*
X0009503Y0079155D01*
X0007401Y0079155D01*
X0006350Y0078104D01*
X0006350Y0073901D01*
X0007401Y0072850D01*
X0012795Y0072850D02*
X0012795Y0079155D01*
X0016999Y0072850D01*
X0016999Y0079155D01*
X0019241Y0079155D02*
X0022394Y0079155D01*
X0023445Y0078104D01*
X0023445Y0073901D01*
X0022394Y0072850D01*
X0019241Y0072850D01*
X0019241Y0079155D01*
X0201350Y0068104D02*
X0201350Y0063901D01*
X0202401Y0062850D01*
X0204503Y0062850D01*
X0205554Y0063901D01*
X0205554Y0066003D01*
X0203452Y0066003D01*
X0205554Y0068104D02*
X0204503Y0069155D01*
X0202401Y0069155D01*
X0201350Y0068104D01*
X0207795Y0069155D02*
X0211999Y0062850D01*
X0211999Y0069155D01*
X0214241Y0069155D02*
X0217394Y0069155D01*
X0218445Y0068104D01*
X0218445Y0063901D01*
X0217394Y0062850D01*
X0214241Y0062850D01*
X0214241Y0069155D01*
X0207795Y0069155D02*
X0207795Y0062850D01*
X0207795Y0039155D02*
X0207795Y0034952D01*
X0209897Y0032850D01*
X0211999Y0034952D01*
X0211999Y0039155D01*
X0205554Y0039155D02*
X0201350Y0039155D01*
X0201350Y0036003D01*
X0203452Y0037054D01*
X0204503Y0037054D01*
X0205554Y0036003D01*
X0205554Y0033901D01*
X0204503Y0032850D01*
X0202401Y0032850D01*
X0201350Y0033901D01*
D12*
X0119400Y0116400D02*
X0112594Y0116400D01*
X0112594Y0119803D01*
X0113728Y0120937D01*
X0114863Y0120937D01*
X0115997Y0119803D01*
X0115997Y0116400D01*
X0115997Y0119803D02*
X0117131Y0120937D01*
X0118266Y0120937D01*
X0119400Y0119803D01*
X0119400Y0116400D01*
X0112594Y0123398D02*
X0112594Y0127935D01*
X0112594Y0125667D02*
X0119400Y0125667D01*
X0120534Y0130396D02*
X0120534Y0134933D01*
X0117131Y0137394D02*
X0119400Y0139663D01*
X0117131Y0141931D01*
X0112594Y0141931D01*
X0113728Y0144392D02*
X0118266Y0144392D01*
X0119400Y0145526D01*
X0119400Y0147795D01*
X0118266Y0148929D01*
X0118266Y0151390D02*
X0113728Y0151390D01*
X0112594Y0152524D01*
X0112594Y0154793D01*
X0113728Y0155927D01*
X0109400Y0154793D02*
X0108266Y0155927D01*
X0103728Y0155927D01*
X0102594Y0154793D01*
X0102594Y0151390D01*
X0109400Y0151390D01*
X0109400Y0154793D01*
X0109400Y0148929D02*
X0102594Y0148929D01*
X0099400Y0148929D02*
X0092594Y0144392D01*
X0092594Y0141931D02*
X0092594Y0137394D01*
X0092594Y0139663D02*
X0099400Y0139663D01*
X0102594Y0140797D02*
X0102594Y0138528D01*
X0103728Y0137394D01*
X0108266Y0137394D01*
X0109400Y0138528D01*
X0109400Y0140797D01*
X0108266Y0141931D01*
X0105997Y0141931D01*
X0105997Y0139663D01*
X0103728Y0141931D02*
X0102594Y0140797D01*
X0102594Y0144392D02*
X0109400Y0148929D01*
X0112594Y0147795D02*
X0112594Y0145526D01*
X0113728Y0144392D01*
X0112594Y0147795D02*
X0113728Y0148929D01*
X0118266Y0151390D02*
X0119400Y0152524D01*
X0119400Y0154793D01*
X0118266Y0155927D01*
X0109400Y0144392D02*
X0102594Y0144392D01*
X0099400Y0144392D02*
X0092594Y0148929D01*
X0092594Y0151390D02*
X0092594Y0154793D01*
X0093728Y0155927D01*
X0098266Y0155927D01*
X0099400Y0154793D01*
X0099400Y0151390D01*
X0092594Y0151390D01*
X0089400Y0151390D02*
X0089400Y0154793D01*
X0088266Y0155927D01*
X0083728Y0155927D01*
X0082594Y0154793D01*
X0082594Y0151390D01*
X0089400Y0151390D01*
X0089400Y0148929D02*
X0082594Y0144392D01*
X0083728Y0141931D02*
X0085997Y0141931D01*
X0087131Y0140797D01*
X0087131Y0137394D01*
X0087131Y0139663D02*
X0089400Y0141931D01*
X0089400Y0144392D02*
X0082594Y0148929D01*
X0083728Y0141931D02*
X0082594Y0140797D01*
X0082594Y0137394D01*
X0089400Y0137394D01*
X0090534Y0134933D02*
X0090534Y0130396D01*
X0092594Y0127935D02*
X0092594Y0123398D01*
X0092594Y0125667D02*
X0099400Y0125667D01*
X0102594Y0125667D02*
X0109400Y0125667D01*
X0108266Y0120937D02*
X0107131Y0120937D01*
X0105997Y0119803D01*
X0105997Y0116400D01*
X0102594Y0116400D02*
X0102594Y0119803D01*
X0103728Y0120937D01*
X0104863Y0120937D01*
X0105997Y0119803D01*
X0108266Y0120937D02*
X0109400Y0119803D01*
X0109400Y0116400D01*
X0102594Y0116400D01*
X0099400Y0116400D02*
X0099400Y0119803D01*
X0098266Y0120937D01*
X0097131Y0120937D01*
X0095997Y0119803D01*
X0095997Y0116400D01*
X0099400Y0116400D02*
X0092594Y0116400D01*
X0092594Y0119803D01*
X0093728Y0120937D01*
X0094863Y0120937D01*
X0095997Y0119803D01*
X0102594Y0123398D02*
X0102594Y0127935D01*
X0100534Y0130396D02*
X0100534Y0134933D01*
X0110534Y0134933D02*
X0110534Y0130396D01*
X0112594Y0137394D02*
X0117131Y0137394D01*
X0089400Y0125667D02*
X0082594Y0125667D01*
X0082594Y0127935D02*
X0082594Y0123398D01*
X0083728Y0120937D02*
X0084863Y0120937D01*
X0085997Y0119803D01*
X0085997Y0116400D01*
X0082594Y0116400D02*
X0082594Y0119803D01*
X0083728Y0120937D01*
X0085997Y0119803D02*
X0087131Y0120937D01*
X0088266Y0120937D01*
X0089400Y0119803D01*
X0089400Y0116400D01*
X0082594Y0116400D01*
D13*
X0252000Y0182000D02*
X0252000Y0200015D01*
X0261008Y0200015D01*
X0264010Y0197013D01*
X0264010Y0191008D01*
X0261008Y0188005D01*
X0252000Y0188005D01*
X0258005Y0188005D02*
X0264010Y0182000D01*
X0270416Y0185003D02*
X0273418Y0182000D01*
X0279423Y0182000D01*
X0282426Y0185003D01*
X0282426Y0197013D01*
X0279423Y0200015D01*
X0273418Y0200015D01*
X0270416Y0197013D01*
X0270416Y0185003D01*
X0288831Y0182000D02*
X0288831Y0200015D01*
X0297839Y0200015D01*
X0300842Y0197013D01*
X0300842Y0194010D01*
X0297839Y0191008D01*
X0288831Y0191008D01*
X0297839Y0191008D02*
X0300842Y0188005D01*
X0300842Y0185003D01*
X0297839Y0182000D01*
X0288831Y0182000D01*
X0307247Y0185003D02*
X0310250Y0182000D01*
X0316255Y0182000D01*
X0319257Y0185003D01*
X0319257Y0197013D01*
X0316255Y0200015D01*
X0310250Y0200015D01*
X0307247Y0197013D01*
X0307247Y0185003D01*
X0325663Y0200015D02*
X0337673Y0200015D01*
X0331668Y0200015D02*
X0331668Y0182000D01*
X0344079Y0182000D02*
X0350084Y0182000D01*
X0347081Y0182000D02*
X0347081Y0200015D01*
X0344079Y0200015D02*
X0350084Y0200015D01*
X0356356Y0197013D02*
X0356356Y0185003D01*
X0359358Y0182000D01*
X0365364Y0182000D01*
X0368366Y0185003D01*
X0374772Y0182000D02*
X0374772Y0194010D01*
X0380777Y0200015D01*
X0386782Y0194010D01*
X0386782Y0182000D01*
X0386782Y0191008D02*
X0374772Y0191008D01*
X0368366Y0197013D02*
X0365364Y0200015D01*
X0359358Y0200015D01*
X0356356Y0197013D01*
X0337673Y0212000D02*
X0337673Y0224010D01*
X0331668Y0230015D01*
X0325663Y0224010D01*
X0325663Y0212000D01*
X0319257Y0212000D02*
X0307247Y0212000D01*
X0307247Y0215003D01*
X0319257Y0227013D01*
X0319257Y0230015D01*
X0307247Y0230015D01*
X0300842Y0224010D02*
X0300842Y0212000D01*
X0300842Y0221008D02*
X0288831Y0221008D01*
X0288831Y0224010D02*
X0294837Y0230015D01*
X0300842Y0224010D01*
X0288831Y0224010D02*
X0288831Y0212000D01*
X0282426Y0212000D02*
X0270416Y0212000D01*
X0270416Y0230015D01*
X0264010Y0227013D02*
X0264010Y0221008D01*
X0261008Y0218005D01*
X0252000Y0218005D01*
X0252000Y0212000D02*
X0252000Y0230015D01*
X0261008Y0230015D01*
X0264010Y0227013D01*
X0325663Y0221008D02*
X0337673Y0221008D01*
D14*
X0336826Y0167470D02*
X0333006Y0163650D01*
X0333006Y0148370D01*
X0336826Y0144550D01*
X0344466Y0144550D01*
X0348286Y0148370D01*
X0348286Y0163650D02*
X0344466Y0167470D01*
X0336826Y0167470D01*
X0324898Y0167470D02*
X0309618Y0167470D01*
X0309618Y0144550D01*
X0324898Y0144550D01*
X0328874Y0132470D02*
X0317414Y0132470D01*
X0317414Y0109550D01*
X0328874Y0109550D01*
X0332694Y0113370D01*
X0332694Y0128650D01*
X0328874Y0132470D01*
X0309306Y0132470D02*
X0294026Y0132470D01*
X0294026Y0109550D01*
X0309306Y0109550D01*
X0301666Y0121010D02*
X0294026Y0121010D01*
X0285918Y0109550D02*
X0285918Y0132470D01*
X0286230Y0144550D02*
X0301510Y0144550D01*
X0293870Y0156010D02*
X0286230Y0156010D01*
X0286230Y0167470D02*
X0286230Y0144550D01*
X0278278Y0144550D02*
X0270638Y0144550D01*
X0274458Y0144550D02*
X0274458Y0167470D01*
X0270638Y0167470D02*
X0278278Y0167470D01*
X0286230Y0167470D02*
X0301510Y0167470D01*
X0309618Y0156010D02*
X0317258Y0156010D01*
X0270638Y0132470D02*
X0285918Y0109550D01*
X0270638Y0109550D02*
X0270638Y0132470D01*
X0262530Y0132470D02*
X0262530Y0113370D01*
X0258710Y0109550D01*
X0251070Y0109550D01*
X0247250Y0113370D01*
X0247250Y0132470D01*
X0247250Y0144550D02*
X0258710Y0144550D01*
X0262530Y0148370D01*
X0262530Y0163650D01*
X0258710Y0167470D01*
X0247250Y0167470D01*
X0247250Y0144550D01*
X0180918Y0149750D02*
X0165638Y0149750D01*
X0180918Y0165030D01*
X0180918Y0168850D01*
X0177098Y0172670D01*
X0169458Y0172670D01*
X0165638Y0168850D01*
X0157530Y0168850D02*
X0157530Y0161210D01*
X0153710Y0157390D01*
X0142250Y0157390D01*
X0142250Y0149750D02*
X0142250Y0172670D01*
X0153710Y0172670D01*
X0157530Y0168850D01*
X0122098Y0204750D02*
X0114458Y0204750D01*
X0110638Y0208570D01*
X0118278Y0216210D02*
X0122098Y0216210D01*
X0125918Y0212390D01*
X0125918Y0208570D01*
X0122098Y0204750D01*
X0122098Y0216210D02*
X0125918Y0220030D01*
X0125918Y0223850D01*
X0122098Y0227670D01*
X0114458Y0227670D01*
X0110638Y0223850D01*
X0102530Y0223850D02*
X0102530Y0216210D01*
X0098710Y0212390D01*
X0087250Y0212390D01*
X0087250Y0204750D02*
X0087250Y0227670D01*
X0098710Y0227670D01*
X0102530Y0223850D01*
X0072098Y0172670D02*
X0060638Y0161210D01*
X0075918Y0161210D01*
X0072098Y0149750D02*
X0072098Y0172670D01*
X0052530Y0168850D02*
X0052530Y0161210D01*
X0048710Y0157390D01*
X0037250Y0157390D01*
X0037250Y0149750D02*
X0037250Y0172670D01*
X0048710Y0172670D01*
X0052530Y0168850D01*
X0087250Y0107670D02*
X0098710Y0107670D01*
X0102530Y0103850D01*
X0102530Y0096210D01*
X0098710Y0092390D01*
X0087250Y0092390D01*
X0087250Y0084750D02*
X0087250Y0107670D01*
X0110638Y0100030D02*
X0118278Y0107670D01*
X0118278Y0084750D01*
X0110638Y0084750D02*
X0125918Y0084750D01*
D15*
X0126514Y0050508D02*
X0120509Y0050508D01*
X0120509Y0041500D01*
X0126514Y0041500D01*
X0123512Y0046004D02*
X0120509Y0046004D01*
X0117307Y0041500D02*
X0111301Y0041500D01*
X0111301Y0050508D01*
X0108099Y0050508D02*
X0108099Y0043001D01*
X0106597Y0041500D01*
X0103595Y0041500D01*
X0102094Y0043001D01*
X0102094Y0050508D01*
X0098891Y0049006D02*
X0097390Y0050508D01*
X0092886Y0050508D01*
X0092886Y0041500D01*
X0097390Y0041500D01*
X0098891Y0043001D01*
X0098891Y0049006D01*
X0089683Y0049006D02*
X0089683Y0043001D01*
X0088182Y0041500D01*
X0085179Y0041500D01*
X0083678Y0043001D01*
X0083678Y0049006D01*
X0085179Y0050508D01*
X0088182Y0050508D01*
X0089683Y0049006D01*
X0080475Y0050508D02*
X0080475Y0041500D01*
X0077473Y0047505D02*
X0080475Y0050508D01*
X0077473Y0047505D02*
X0074470Y0050508D01*
X0074470Y0041500D01*
X0062059Y0041500D02*
X0062059Y0050508D01*
X0056054Y0050508D02*
X0062059Y0041500D01*
X0056054Y0041500D02*
X0056054Y0050508D01*
X0052918Y0050508D02*
X0049916Y0050508D01*
X0051417Y0050508D02*
X0051417Y0041500D01*
X0049916Y0041500D02*
X0052918Y0041500D01*
X0046713Y0041500D02*
X0046713Y0047505D01*
X0043710Y0050508D01*
X0040708Y0047505D01*
X0040708Y0041500D01*
X0037505Y0041500D02*
X0037505Y0050508D01*
X0034503Y0047505D01*
X0031500Y0050508D01*
X0031500Y0041500D01*
X0040708Y0046004D02*
X0046713Y0046004D01*
X0138925Y0047505D02*
X0141928Y0041500D01*
X0144930Y0047505D01*
X0157341Y0047505D02*
X0160343Y0050508D01*
X0160343Y0041500D01*
X0157341Y0041500D02*
X0163346Y0041500D01*
X0166549Y0041500D02*
X0168050Y0041500D01*
X0168050Y0043001D01*
X0166549Y0043001D01*
X0166549Y0041500D01*
X0171153Y0043001D02*
X0172654Y0041500D01*
X0175656Y0041500D01*
X0177158Y0043001D01*
X0177158Y0044503D01*
X0175656Y0046004D01*
X0174155Y0046004D01*
X0175656Y0046004D02*
X0177158Y0047505D01*
X0177158Y0049006D01*
X0175656Y0050508D01*
X0172654Y0050508D01*
X0171153Y0049006D01*
D16*
X0103081Y0176698D02*
X0094074Y0176698D01*
X0084766Y0178950D02*
X0084766Y0192462D01*
X0089269Y0192462D02*
X0080262Y0192462D01*
X0075458Y0190210D02*
X0075458Y0187958D01*
X0073206Y0185706D01*
X0066450Y0185706D01*
X0066450Y0178950D02*
X0066450Y0192462D01*
X0073206Y0192462D01*
X0075458Y0190210D01*
X0073206Y0185706D02*
X0075458Y0183454D01*
X0075458Y0181202D01*
X0073206Y0178950D01*
X0066450Y0178950D01*
X0107885Y0181202D02*
X0110137Y0178950D01*
X0114641Y0178950D01*
X0116893Y0181202D01*
X0121697Y0181202D02*
X0123949Y0178950D01*
X0128453Y0178950D01*
X0130705Y0181202D01*
X0130705Y0190210D01*
X0128453Y0192462D01*
X0123949Y0192462D01*
X0121697Y0190210D01*
X0121697Y0181202D01*
X0116893Y0190210D02*
X0114641Y0192462D01*
X0110137Y0192462D01*
X0107885Y0190210D01*
X0107885Y0181202D01*
X0135509Y0178950D02*
X0135509Y0192462D01*
X0140013Y0187958D01*
X0144517Y0192462D01*
X0144517Y0178950D01*
X0127193Y0264250D02*
X0127193Y0273258D01*
X0122689Y0277762D01*
X0118185Y0273258D01*
X0118185Y0264250D01*
X0113381Y0266502D02*
X0113381Y0271006D01*
X0108877Y0271006D01*
X0104374Y0275510D02*
X0104374Y0266502D01*
X0106626Y0264250D01*
X0111129Y0264250D01*
X0113381Y0266502D01*
X0118185Y0271006D02*
X0127193Y0271006D01*
X0113381Y0275510D02*
X0111129Y0277762D01*
X0106626Y0277762D01*
X0104374Y0275510D01*
X0099569Y0275510D02*
X0099569Y0271006D01*
X0097318Y0268754D01*
X0090562Y0268754D01*
X0090562Y0264250D02*
X0090562Y0277762D01*
X0097318Y0277762D01*
X0099569Y0275510D01*
X0085758Y0277762D02*
X0076750Y0277762D01*
X0076750Y0264250D01*
X0076750Y0271006D02*
X0081254Y0271006D01*
D17*
X0083500Y0261000D02*
X0078500Y0261000D01*
X0076000Y0258500D01*
X0076000Y0243500D01*
X0073500Y0241000D01*
X0068500Y0241000D01*
X0066000Y0243500D01*
X0066000Y0258500D01*
X0068500Y0261000D01*
X0073500Y0261000D01*
X0076000Y0258500D01*
X0083500Y0261000D02*
X0086000Y0258500D01*
X0086000Y0243500D01*
X0083500Y0241000D01*
X0078500Y0241000D01*
X0076000Y0243500D01*
X0086000Y0243500D02*
X0088500Y0241000D01*
X0093500Y0241000D01*
X0096000Y0243500D01*
X0096000Y0258500D01*
X0098500Y0261000D01*
X0103500Y0261000D01*
X0106000Y0258500D01*
X0106000Y0243500D01*
X0103500Y0241000D01*
X0098500Y0241000D01*
X0096000Y0243500D01*
X0106000Y0243500D02*
X0108500Y0241000D01*
X0113500Y0241000D01*
X0116000Y0243500D01*
X0116000Y0258500D01*
X0113500Y0261000D01*
X0108500Y0261000D01*
X0106000Y0258500D01*
X0096000Y0258500D02*
X0093500Y0261000D01*
X0088500Y0261000D01*
X0086000Y0258500D01*
X0066000Y0258500D02*
X0063500Y0261000D01*
X0058500Y0261000D01*
X0056000Y0258500D01*
X0056000Y0243500D01*
X0053500Y0241000D01*
X0048500Y0241000D01*
X0046000Y0243500D01*
X0043500Y0241000D01*
X0038500Y0241000D01*
X0036000Y0243500D01*
X0036000Y0258500D01*
X0038500Y0261000D01*
X0043500Y0261000D01*
X0046000Y0258500D01*
X0046000Y0243500D01*
X0056000Y0243500D02*
X0058500Y0241000D01*
X0063500Y0241000D01*
X0066000Y0243500D01*
X0056000Y0258500D02*
X0053500Y0261000D01*
X0048500Y0261000D01*
X0046000Y0258500D01*
X0021000Y0263500D02*
X0018500Y0261000D01*
X0013500Y0261000D01*
X0011000Y0263500D01*
X0011000Y0268500D01*
X0013500Y0271000D01*
X0011000Y0273500D01*
X0011000Y0278500D01*
X0013500Y0281000D01*
X0018500Y0281000D01*
X0021000Y0278500D01*
X0021000Y0273500D01*
X0018500Y0271000D01*
X0021000Y0268500D01*
X0021000Y0263500D01*
X0018500Y0271000D02*
X0013500Y0271000D01*
X0046000Y0288500D02*
X0046000Y0303500D01*
X0048500Y0306000D01*
X0053500Y0306000D01*
X0056000Y0303500D01*
X0056000Y0288500D01*
X0053500Y0286000D01*
X0048500Y0286000D01*
X0046000Y0288500D01*
X0056000Y0288500D02*
X0058500Y0286000D01*
X0063500Y0286000D01*
X0066000Y0288500D01*
X0066000Y0303500D01*
X0063500Y0306000D01*
X0058500Y0306000D01*
X0056000Y0303500D01*
X0066000Y0303500D02*
X0068500Y0306000D01*
X0073500Y0306000D01*
X0076000Y0303500D01*
X0076000Y0288500D01*
X0073500Y0286000D01*
X0068500Y0286000D01*
X0066000Y0288500D01*
X0076000Y0288500D02*
X0078500Y0286000D01*
X0083500Y0286000D01*
X0086000Y0288500D01*
X0086000Y0303500D01*
X0083500Y0306000D01*
X0078500Y0306000D01*
X0076000Y0303500D01*
X0086000Y0303500D02*
X0088500Y0306000D01*
X0093500Y0306000D01*
X0096000Y0303500D01*
X0096000Y0288500D01*
X0093500Y0286000D01*
X0088500Y0286000D01*
X0086000Y0288500D01*
X0116000Y0258500D02*
X0118500Y0261000D01*
X0123500Y0261000D01*
X0126000Y0258500D01*
X0126000Y0243500D01*
X0123500Y0241000D01*
X0118500Y0241000D01*
X0116000Y0243500D01*
X0126000Y0243500D02*
X0128500Y0241000D01*
X0133500Y0241000D01*
X0136000Y0243500D01*
X0136000Y0258500D01*
X0133500Y0261000D01*
X0128500Y0261000D01*
X0126000Y0258500D01*
X0136000Y0258500D02*
X0138500Y0261000D01*
X0143500Y0261000D01*
X0146000Y0258500D01*
X0146000Y0243500D01*
X0143500Y0241000D01*
X0138500Y0241000D01*
X0136000Y0243500D01*
X0146000Y0243500D02*
X0148500Y0241000D01*
X0153500Y0241000D01*
X0156000Y0243500D01*
X0156000Y0258500D01*
X0153500Y0261000D01*
X0148500Y0261000D01*
X0146000Y0258500D01*
X0156000Y0258500D02*
X0158500Y0261000D01*
X0163500Y0261000D01*
X0166000Y0258500D01*
X0166000Y0243500D01*
X0163500Y0241000D01*
X0158500Y0241000D01*
X0156000Y0243500D01*
X0166000Y0243500D02*
X0168500Y0241000D01*
X0173500Y0241000D01*
X0176000Y0243500D01*
X0176000Y0258500D01*
X0173500Y0261000D01*
X0168500Y0261000D01*
X0166000Y0258500D01*
X0188500Y0231000D02*
X0186000Y0228500D01*
X0186000Y0223500D01*
X0188500Y0221000D01*
X0203500Y0221000D01*
X0206000Y0223500D01*
X0206000Y0228500D01*
X0203500Y0231000D01*
X0188500Y0231000D01*
X0188500Y0221000D02*
X0186000Y0218500D01*
X0186000Y0213500D01*
X0188500Y0211000D01*
X0203500Y0211000D01*
X0206000Y0208500D01*
X0206000Y0203500D01*
X0203500Y0201000D01*
X0188500Y0201000D01*
X0186000Y0203500D01*
X0186000Y0208500D01*
X0188500Y0211000D01*
X0188500Y0201000D02*
X0186000Y0198500D01*
X0186000Y0193500D01*
X0188500Y0191000D01*
X0203500Y0191000D01*
X0206000Y0188500D01*
X0206000Y0183500D01*
X0203500Y0181000D01*
X0188500Y0181000D01*
X0186000Y0183500D01*
X0186000Y0188500D01*
X0188500Y0191000D01*
X0188500Y0181000D02*
X0186000Y0178500D01*
X0186000Y0173500D01*
X0188500Y0171000D01*
X0203500Y0171000D01*
X0206000Y0168500D01*
X0206000Y0163500D01*
X0203500Y0161000D01*
X0188500Y0161000D01*
X0186000Y0163500D01*
X0186000Y0168500D01*
X0188500Y0171000D01*
X0188500Y0161000D02*
X0186000Y0158500D01*
X0186000Y0153500D01*
X0188500Y0151000D01*
X0203500Y0151000D01*
X0206000Y0153500D01*
X0206000Y0158500D01*
X0203500Y0161000D01*
X0203500Y0151000D02*
X0206000Y0148500D01*
X0206000Y0143500D01*
X0203500Y0141000D01*
X0188500Y0141000D01*
X0186000Y0143500D01*
X0186000Y0148500D01*
X0188500Y0151000D01*
X0188500Y0141000D02*
X0186000Y0138500D01*
X0186000Y0133500D01*
X0188500Y0131000D01*
X0203500Y0131000D01*
X0206000Y0133500D01*
X0206000Y0138500D01*
X0203500Y0141000D01*
X0203500Y0131000D02*
X0206000Y0128500D01*
X0206000Y0123500D01*
X0203500Y0121000D01*
X0188500Y0121000D01*
X0186000Y0123500D01*
X0186000Y0128500D01*
X0188500Y0131000D01*
X0188500Y0121000D02*
X0186000Y0118500D01*
X0186000Y0113500D01*
X0188500Y0111000D01*
X0203500Y0111000D01*
X0206000Y0113500D01*
X0206000Y0118500D01*
X0203500Y0121000D01*
X0203500Y0111000D02*
X0206000Y0108500D01*
X0206000Y0103500D01*
X0203500Y0101000D01*
X0188500Y0101000D01*
X0186000Y0103500D01*
X0186000Y0108500D01*
X0188500Y0111000D01*
X0188500Y0101000D02*
X0186000Y0098500D01*
X0186000Y0093500D01*
X0188500Y0091000D01*
X0203500Y0091000D01*
X0206000Y0093500D01*
X0206000Y0098500D01*
X0203500Y0101000D01*
X0176000Y0078500D02*
X0176000Y0063500D01*
X0173500Y0061000D01*
X0168500Y0061000D01*
X0166000Y0063500D01*
X0166000Y0078500D01*
X0168500Y0081000D01*
X0173500Y0081000D01*
X0176000Y0078500D01*
X0166000Y0078500D02*
X0163500Y0081000D01*
X0158500Y0081000D01*
X0156000Y0078500D01*
X0156000Y0063500D01*
X0153500Y0061000D01*
X0148500Y0061000D01*
X0146000Y0063500D01*
X0146000Y0078500D01*
X0148500Y0081000D01*
X0153500Y0081000D01*
X0156000Y0078500D01*
X0146000Y0078500D02*
X0143500Y0081000D01*
X0138500Y0081000D01*
X0136000Y0078500D01*
X0136000Y0063500D01*
X0133500Y0061000D01*
X0128500Y0061000D01*
X0126000Y0063500D01*
X0126000Y0078500D01*
X0128500Y0081000D01*
X0133500Y0081000D01*
X0136000Y0078500D01*
X0126000Y0078500D02*
X0123500Y0081000D01*
X0118500Y0081000D01*
X0116000Y0078500D01*
X0116000Y0063500D01*
X0113500Y0061000D01*
X0108500Y0061000D01*
X0106000Y0063500D01*
X0106000Y0078500D01*
X0108500Y0081000D01*
X0113500Y0081000D01*
X0116000Y0078500D01*
X0106000Y0078500D02*
X0103500Y0081000D01*
X0098500Y0081000D01*
X0096000Y0078500D01*
X0096000Y0063500D01*
X0098500Y0061000D01*
X0103500Y0061000D01*
X0106000Y0063500D01*
X0096000Y0063500D02*
X0093500Y0061000D01*
X0088500Y0061000D01*
X0086000Y0063500D01*
X0086000Y0078500D01*
X0088500Y0081000D01*
X0093500Y0081000D01*
X0096000Y0078500D01*
X0086000Y0078500D02*
X0083500Y0081000D01*
X0078500Y0081000D01*
X0076000Y0078500D01*
X0076000Y0063500D01*
X0078500Y0061000D01*
X0083500Y0061000D01*
X0086000Y0063500D01*
X0076000Y0063500D02*
X0073500Y0061000D01*
X0068500Y0061000D01*
X0066000Y0063500D01*
X0066000Y0078500D01*
X0068500Y0081000D01*
X0073500Y0081000D01*
X0076000Y0078500D01*
X0066000Y0078500D02*
X0063500Y0081000D01*
X0058500Y0081000D01*
X0056000Y0078500D01*
X0056000Y0063500D01*
X0058500Y0061000D01*
X0063500Y0061000D01*
X0066000Y0063500D01*
X0056000Y0063500D02*
X0053500Y0061000D01*
X0048500Y0061000D01*
X0046000Y0063500D01*
X0046000Y0078500D01*
X0048500Y0081000D01*
X0053500Y0081000D01*
X0056000Y0078500D01*
X0046000Y0078500D02*
X0043500Y0081000D01*
X0038500Y0081000D01*
X0036000Y0078500D01*
X0036000Y0063500D01*
X0038500Y0061000D01*
X0043500Y0061000D01*
X0046000Y0063500D01*
X0031914Y0060700D02*
X0028578Y0060700D01*
X0030246Y0060700D02*
X0030246Y0065704D01*
X0028578Y0064036D01*
X0026758Y0063202D02*
X0025924Y0062368D01*
X0023422Y0062368D01*
X0023422Y0060700D02*
X0023422Y0065704D01*
X0025924Y0065704D01*
X0026758Y0064870D01*
X0026758Y0063202D01*
X0021602Y0065704D02*
X0019933Y0065704D01*
X0020768Y0065704D02*
X0020768Y0061534D01*
X0019933Y0060700D01*
X0019099Y0060700D01*
X0018265Y0061534D01*
X0016000Y0063500D02*
X0013500Y0061000D01*
X0016000Y0058500D01*
X0016000Y0053500D01*
X0013500Y0051000D01*
X0008500Y0051000D01*
X0006000Y0053500D01*
X0006000Y0058500D01*
X0008500Y0061000D01*
X0006000Y0063500D01*
X0006000Y0068500D01*
X0008500Y0071000D01*
X0013500Y0071000D01*
X0016000Y0068500D01*
X0016000Y0063500D01*
X0013500Y0061000D02*
X0008500Y0061000D01*
X0008500Y0091000D02*
X0023500Y0091000D01*
X0026000Y0093500D01*
X0026000Y0098500D01*
X0023500Y0101000D01*
X0008500Y0101000D01*
X0006000Y0098500D01*
X0006000Y0093500D01*
X0008500Y0091000D01*
X0008500Y0101000D02*
X0006000Y0103500D01*
X0006000Y0108500D01*
X0008500Y0111000D01*
X0023500Y0111000D01*
X0026000Y0108500D01*
X0026000Y0103500D01*
X0023500Y0101000D01*
X0023500Y0111000D02*
X0026000Y0113500D01*
X0026000Y0118500D01*
X0023500Y0121000D01*
X0008500Y0121000D01*
X0006000Y0123500D01*
X0006000Y0128500D01*
X0008500Y0131000D01*
X0023500Y0131000D01*
X0026000Y0128500D01*
X0026000Y0123500D01*
X0023500Y0121000D01*
X0023500Y0131000D02*
X0026000Y0133500D01*
X0026000Y0138500D01*
X0023500Y0141000D01*
X0008500Y0141000D01*
X0006000Y0143500D01*
X0006000Y0148500D01*
X0008500Y0151000D01*
X0023500Y0151000D01*
X0026000Y0148500D01*
X0026000Y0143500D01*
X0023500Y0141000D01*
X0023500Y0151000D02*
X0026000Y0153500D01*
X0026000Y0158500D01*
X0023500Y0161000D01*
X0008500Y0161000D01*
X0006000Y0163500D01*
X0006000Y0168500D01*
X0008500Y0171000D01*
X0023500Y0171000D01*
X0026000Y0168500D01*
X0026000Y0163500D01*
X0023500Y0161000D01*
X0023500Y0171000D02*
X0026000Y0173500D01*
X0026000Y0178500D01*
X0023500Y0181000D01*
X0008500Y0181000D01*
X0006000Y0178500D01*
X0006000Y0173500D01*
X0008500Y0171000D01*
X0008500Y0161000D02*
X0006000Y0158500D01*
X0006000Y0153500D01*
X0008500Y0151000D01*
X0008500Y0141000D02*
X0006000Y0138500D01*
X0006000Y0133500D01*
X0008500Y0131000D01*
X0008500Y0121000D02*
X0006000Y0118500D01*
X0006000Y0113500D01*
X0008500Y0111000D01*
X0081000Y0163500D02*
X0081000Y0168500D01*
X0083500Y0171000D01*
X0088500Y0171000D01*
X0091000Y0168500D01*
X0093500Y0171000D01*
X0098500Y0171000D01*
X0101000Y0168500D01*
X0103500Y0171000D01*
X0108500Y0171000D01*
X0111000Y0168500D01*
X0113500Y0171000D01*
X0118500Y0171000D01*
X0121000Y0168500D01*
X0121000Y0163500D01*
X0118500Y0161000D01*
X0113500Y0161000D01*
X0111000Y0163500D01*
X0108500Y0161000D01*
X0103500Y0161000D01*
X0101000Y0163500D01*
X0101000Y0168500D01*
X0101000Y0163500D02*
X0098500Y0161000D01*
X0093500Y0161000D01*
X0091000Y0163500D01*
X0088500Y0161000D01*
X0083500Y0161000D01*
X0081000Y0163500D01*
X0091000Y0163500D02*
X0091000Y0168500D01*
X0111000Y0168500D02*
X0111000Y0163500D01*
X0026000Y0183500D02*
X0023500Y0181000D01*
X0026000Y0183500D02*
X0026000Y0188500D01*
X0023500Y0191000D01*
X0008500Y0191000D01*
X0006000Y0188500D01*
X0006000Y0183500D01*
X0008500Y0181000D01*
X0008500Y0191000D02*
X0006000Y0193500D01*
X0006000Y0198500D01*
X0008500Y0201000D01*
X0023500Y0201000D01*
X0026000Y0198500D01*
X0026000Y0193500D01*
X0023500Y0191000D01*
X0023500Y0201000D02*
X0026000Y0203500D01*
X0026000Y0208500D01*
X0023500Y0211000D01*
X0008500Y0211000D01*
X0006000Y0208500D01*
X0006000Y0203500D01*
X0008500Y0201000D01*
X0008500Y0211000D02*
X0006000Y0213500D01*
X0006000Y0218500D01*
X0008500Y0221000D01*
X0023500Y0221000D01*
X0026000Y0218500D01*
X0026000Y0213500D01*
X0023500Y0211000D01*
X0023500Y0221000D02*
X0026000Y0223500D01*
X0026000Y0228500D01*
X0023500Y0231000D01*
X0008500Y0231000D01*
X0006000Y0228500D01*
X0006000Y0223500D01*
X0008500Y0221000D01*
X0203500Y0221000D02*
X0206000Y0218500D01*
X0206000Y0213500D01*
X0203500Y0211000D01*
X0203500Y0201000D02*
X0206000Y0198500D01*
X0206000Y0193500D01*
X0203500Y0191000D01*
X0203500Y0181000D02*
X0206000Y0178500D01*
X0206000Y0173500D01*
X0203500Y0171000D01*
X0166000Y0063500D02*
X0163500Y0061000D01*
X0158500Y0061000D01*
X0156000Y0063500D01*
X0146000Y0063500D02*
X0143500Y0061000D01*
X0138500Y0061000D01*
X0136000Y0063500D01*
X0126000Y0063500D02*
X0123500Y0061000D01*
X0118500Y0061000D01*
X0116000Y0063500D01*
X0093500Y0031000D02*
X0088500Y0031000D01*
X0086000Y0028500D01*
X0086000Y0013500D01*
X0088500Y0011000D01*
X0093500Y0011000D01*
X0096000Y0013500D01*
X0096000Y0028500D01*
X0093500Y0031000D01*
X0086000Y0028500D02*
X0083500Y0031000D01*
X0078500Y0031000D01*
X0076000Y0028500D01*
X0076000Y0013500D01*
X0078500Y0011000D01*
X0083500Y0011000D01*
X0086000Y0013500D01*
X0076000Y0013500D02*
X0073500Y0011000D01*
X0068500Y0011000D01*
X0066000Y0013500D01*
X0066000Y0028500D01*
X0068500Y0031000D01*
X0073500Y0031000D01*
X0076000Y0028500D01*
X0066000Y0028500D02*
X0063500Y0031000D01*
X0058500Y0031000D01*
X0056000Y0028500D01*
X0056000Y0013500D01*
X0058500Y0011000D01*
X0063500Y0011000D01*
X0066000Y0013500D01*
X0056000Y0013500D02*
X0053500Y0011000D01*
X0048500Y0011000D01*
X0046000Y0013500D01*
X0046000Y0028500D01*
X0048500Y0031000D01*
X0053500Y0031000D01*
X0056000Y0028500D01*
X0201000Y0043500D02*
X0203500Y0041000D01*
X0208500Y0041000D01*
X0211000Y0043500D01*
X0211000Y0048500D01*
X0208500Y0051000D01*
X0211000Y0053500D01*
X0211000Y0058500D01*
X0208500Y0061000D01*
X0203500Y0061000D01*
X0201000Y0058500D01*
X0201000Y0053500D01*
X0203500Y0051000D01*
X0208500Y0051000D01*
X0203500Y0051000D02*
X0201000Y0048500D01*
X0201000Y0043500D01*
X0216000Y0054334D02*
X0216834Y0053500D01*
X0217668Y0053500D01*
X0218502Y0054334D01*
X0218502Y0058504D01*
X0217668Y0058504D02*
X0219336Y0058504D01*
X0221156Y0058504D02*
X0223659Y0058504D01*
X0224493Y0057670D01*
X0224493Y0056002D01*
X0223659Y0055168D01*
X0221156Y0055168D01*
X0221156Y0053500D02*
X0221156Y0058504D01*
X0226313Y0057670D02*
X0227147Y0058504D01*
X0228815Y0058504D01*
X0229649Y0057670D01*
X0229649Y0056836D01*
X0226313Y0053500D01*
X0229649Y0053500D01*
X0301000Y0028500D02*
X0301000Y0013500D01*
X0303500Y0011000D01*
X0308500Y0011000D01*
X0311000Y0013500D01*
X0311000Y0028500D01*
X0313500Y0031000D01*
X0318500Y0031000D01*
X0321000Y0028500D01*
X0321000Y0013500D01*
X0323500Y0011000D01*
X0328500Y0011000D01*
X0331000Y0013500D01*
X0331000Y0028500D01*
X0333500Y0031000D01*
X0338500Y0031000D01*
X0341000Y0028500D01*
X0343500Y0031000D01*
X0348500Y0031000D01*
X0351000Y0028500D01*
X0351000Y0013500D01*
X0348500Y0011000D01*
X0343500Y0011000D01*
X0341000Y0013500D01*
X0341000Y0028500D01*
X0331000Y0028500D02*
X0328500Y0031000D01*
X0323500Y0031000D01*
X0321000Y0028500D01*
X0311000Y0028500D02*
X0308500Y0031000D01*
X0303500Y0031000D01*
X0301000Y0028500D01*
X0311000Y0013500D02*
X0313500Y0011000D01*
X0318500Y0011000D01*
X0321000Y0013500D01*
X0331000Y0013500D02*
X0333500Y0011000D01*
X0338500Y0011000D01*
X0341000Y0013500D01*
X0338500Y0286000D02*
X0333500Y0286000D01*
X0331000Y0288500D01*
X0331000Y0303500D01*
X0328500Y0306000D01*
X0323500Y0306000D01*
X0321000Y0303500D01*
X0321000Y0288500D01*
X0318500Y0286000D01*
X0313500Y0286000D01*
X0311000Y0288500D01*
X0308500Y0286000D01*
X0303500Y0286000D01*
X0301000Y0288500D01*
X0301000Y0303500D01*
X0303500Y0306000D01*
X0308500Y0306000D01*
X0311000Y0303500D01*
X0311000Y0288500D01*
X0321000Y0288500D02*
X0323500Y0286000D01*
X0328500Y0286000D01*
X0331000Y0288500D01*
X0338500Y0286000D02*
X0341000Y0288500D01*
X0341000Y0303500D01*
X0338500Y0306000D01*
X0333500Y0306000D01*
X0331000Y0303500D01*
X0321000Y0303500D02*
X0318500Y0306000D01*
X0313500Y0306000D01*
X0311000Y0303500D01*
X0341000Y0303500D02*
X0343500Y0306000D01*
X0348500Y0306000D01*
X0351000Y0303500D01*
X0351000Y0288500D01*
X0348500Y0286000D01*
X0343500Y0286000D01*
X0341000Y0288500D01*
D18*
X0276000Y0288362D02*
X0276000Y0306000D01*
X0251197Y0306000D01*
X0251197Y0288362D01*
X0276000Y0288362D01*
X0276000Y0294302D02*
X0275894Y0294304D01*
X0275787Y0294310D01*
X0275681Y0294320D01*
X0275576Y0294333D01*
X0275471Y0294351D01*
X0275367Y0294373D01*
X0275263Y0294398D01*
X0275161Y0294427D01*
X0275060Y0294460D01*
X0274960Y0294496D01*
X0274861Y0294537D01*
X0274765Y0294581D01*
X0274669Y0294628D01*
X0274576Y0294679D01*
X0274484Y0294733D01*
X0274395Y0294791D01*
X0274308Y0294852D01*
X0274223Y0294916D01*
X0274140Y0294983D01*
X0274060Y0295053D01*
X0273983Y0295127D01*
X0273909Y0295202D01*
X0273837Y0295281D01*
X0273768Y0295362D01*
X0273703Y0295446D01*
X0273640Y0295532D01*
X0273581Y0295620D01*
X0273525Y0295711D01*
X0273472Y0295803D01*
X0273423Y0295898D01*
X0273377Y0295994D01*
X0273335Y0296092D01*
X0273297Y0296191D01*
X0273262Y0296291D01*
X0273231Y0296393D01*
X0273204Y0296496D01*
X0273180Y0296600D01*
X0273161Y0296704D01*
X0273145Y0296810D01*
X0273133Y0296915D01*
X0273125Y0297021D01*
X0273121Y0297128D01*
X0273121Y0297234D01*
X0273125Y0297341D01*
X0273133Y0297447D01*
X0273145Y0297552D01*
X0273161Y0297658D01*
X0273180Y0297762D01*
X0273204Y0297866D01*
X0273231Y0297969D01*
X0273262Y0298071D01*
X0273297Y0298171D01*
X0273335Y0298270D01*
X0273377Y0298368D01*
X0273423Y0298464D01*
X0273472Y0298559D01*
X0273525Y0298651D01*
X0273581Y0298742D01*
X0273640Y0298830D01*
X0273703Y0298916D01*
X0273768Y0299000D01*
X0273837Y0299081D01*
X0273909Y0299160D01*
X0273983Y0299235D01*
X0274060Y0299309D01*
X0274140Y0299379D01*
X0274223Y0299446D01*
X0274308Y0299510D01*
X0274395Y0299571D01*
X0274484Y0299629D01*
X0274576Y0299683D01*
X0274669Y0299734D01*
X0274765Y0299781D01*
X0274861Y0299825D01*
X0274960Y0299866D01*
X0275060Y0299902D01*
X0275161Y0299935D01*
X0275263Y0299964D01*
X0275367Y0299989D01*
X0275471Y0300011D01*
X0275576Y0300029D01*
X0275681Y0300042D01*
X0275787Y0300052D01*
X0275894Y0300058D01*
X0276000Y0300060D01*
X0229649Y0296002D02*
X0226646Y0293750D01*
X0225045Y0294501D02*
X0224294Y0293750D01*
X0222793Y0293750D01*
X0222042Y0294501D01*
X0220441Y0293750D02*
X0220441Y0298254D01*
X0218939Y0296753D01*
X0217438Y0298254D01*
X0217438Y0293750D01*
X0215837Y0293750D02*
X0215837Y0298254D01*
X0214336Y0296753D01*
X0212834Y0298254D01*
X0212834Y0293750D01*
X0211233Y0292999D02*
X0208230Y0292999D01*
X0205878Y0295251D02*
X0203626Y0295251D01*
X0203626Y0293750D02*
X0203626Y0298254D01*
X0205878Y0298254D01*
X0206629Y0297503D01*
X0206629Y0296002D01*
X0205878Y0295251D01*
X0189649Y0296002D02*
X0186646Y0296002D01*
X0188898Y0298254D01*
X0188898Y0293750D01*
X0185045Y0293750D02*
X0185045Y0298254D01*
X0183543Y0296753D01*
X0182042Y0298254D01*
X0182042Y0293750D01*
X0180441Y0293750D02*
X0180441Y0298254D01*
X0178939Y0296753D01*
X0177438Y0298254D01*
X0177438Y0293750D01*
X0175837Y0292999D02*
X0172834Y0292999D01*
X0170482Y0295251D02*
X0168230Y0295251D01*
X0168230Y0293750D02*
X0168230Y0298254D01*
X0170482Y0298254D01*
X0171233Y0297503D01*
X0171233Y0296002D01*
X0170482Y0295251D01*
X0166629Y0293750D02*
X0163626Y0296002D01*
X0166629Y0298254D01*
X0150803Y0303638D02*
X0150803Y0286000D01*
X0126000Y0286000D01*
X0126000Y0303638D01*
X0150803Y0303638D01*
X0126000Y0297698D02*
X0126106Y0297696D01*
X0126213Y0297690D01*
X0126319Y0297680D01*
X0126424Y0297667D01*
X0126529Y0297649D01*
X0126633Y0297627D01*
X0126737Y0297602D01*
X0126839Y0297573D01*
X0126940Y0297540D01*
X0127040Y0297504D01*
X0127139Y0297463D01*
X0127235Y0297419D01*
X0127331Y0297372D01*
X0127424Y0297321D01*
X0127516Y0297267D01*
X0127605Y0297209D01*
X0127692Y0297148D01*
X0127777Y0297084D01*
X0127860Y0297017D01*
X0127940Y0296947D01*
X0128017Y0296873D01*
X0128091Y0296798D01*
X0128163Y0296719D01*
X0128232Y0296638D01*
X0128297Y0296554D01*
X0128360Y0296468D01*
X0128419Y0296380D01*
X0128475Y0296289D01*
X0128528Y0296197D01*
X0128577Y0296102D01*
X0128623Y0296006D01*
X0128665Y0295908D01*
X0128703Y0295809D01*
X0128738Y0295709D01*
X0128769Y0295607D01*
X0128796Y0295504D01*
X0128820Y0295400D01*
X0128839Y0295296D01*
X0128855Y0295190D01*
X0128867Y0295085D01*
X0128875Y0294979D01*
X0128879Y0294872D01*
X0128879Y0294766D01*
X0128875Y0294659D01*
X0128867Y0294553D01*
X0128855Y0294448D01*
X0128839Y0294342D01*
X0128820Y0294238D01*
X0128796Y0294134D01*
X0128769Y0294031D01*
X0128738Y0293929D01*
X0128703Y0293829D01*
X0128665Y0293730D01*
X0128623Y0293632D01*
X0128577Y0293536D01*
X0128528Y0293441D01*
X0128475Y0293349D01*
X0128419Y0293258D01*
X0128360Y0293170D01*
X0128297Y0293084D01*
X0128232Y0293000D01*
X0128163Y0292919D01*
X0128091Y0292840D01*
X0128017Y0292765D01*
X0127940Y0292691D01*
X0127860Y0292621D01*
X0127777Y0292554D01*
X0127692Y0292490D01*
X0127605Y0292429D01*
X0127516Y0292371D01*
X0127424Y0292317D01*
X0127331Y0292266D01*
X0127235Y0292219D01*
X0127139Y0292175D01*
X0127040Y0292134D01*
X0126940Y0292098D01*
X0126839Y0292065D01*
X0126737Y0292036D01*
X0126633Y0292011D01*
X0126529Y0291989D01*
X0126424Y0291971D01*
X0126319Y0291958D01*
X0126213Y0291948D01*
X0126106Y0291942D01*
X0126000Y0291940D01*
X0222042Y0297503D02*
X0222793Y0298254D01*
X0224294Y0298254D01*
X0225045Y0297503D01*
X0225045Y0296753D01*
X0224294Y0296002D01*
X0225045Y0295251D01*
X0225045Y0294501D01*
X0224294Y0296002D02*
X0223543Y0296002D01*
X0226646Y0298254D02*
X0229649Y0296002D01*
X0027950Y0279198D02*
X0027950Y0277697D01*
X0027199Y0276946D01*
X0025698Y0278447D02*
X0025698Y0279198D01*
X0026449Y0279949D01*
X0027199Y0279949D01*
X0027950Y0279198D01*
X0025698Y0279198D02*
X0024947Y0279949D01*
X0024197Y0279949D01*
X0023446Y0279198D01*
X0023446Y0277697D01*
X0024197Y0276946D01*
X0024197Y0275345D02*
X0023446Y0274594D01*
X0023446Y0272342D01*
X0027950Y0272342D01*
X0026449Y0272342D02*
X0026449Y0274594D01*
X0025698Y0275345D01*
X0024197Y0275345D01*
X0023446Y0270741D02*
X0023446Y0269239D01*
X0023446Y0269990D02*
X0027199Y0269990D01*
X0027950Y0269239D01*
X0027950Y0268489D01*
X0027199Y0267738D01*
X0126197Y0031000D02*
X0151000Y0031000D01*
X0151000Y0013362D01*
X0126197Y0013362D01*
X0126197Y0031000D01*
X0151000Y0025060D02*
X0150894Y0025058D01*
X0150787Y0025052D01*
X0150681Y0025042D01*
X0150576Y0025029D01*
X0150471Y0025011D01*
X0150367Y0024989D01*
X0150263Y0024964D01*
X0150161Y0024935D01*
X0150060Y0024902D01*
X0149960Y0024866D01*
X0149861Y0024825D01*
X0149765Y0024781D01*
X0149669Y0024734D01*
X0149576Y0024683D01*
X0149484Y0024629D01*
X0149395Y0024571D01*
X0149308Y0024510D01*
X0149223Y0024446D01*
X0149140Y0024379D01*
X0149060Y0024309D01*
X0148983Y0024235D01*
X0148909Y0024160D01*
X0148837Y0024081D01*
X0148768Y0024000D01*
X0148703Y0023916D01*
X0148640Y0023830D01*
X0148581Y0023742D01*
X0148525Y0023651D01*
X0148472Y0023559D01*
X0148423Y0023464D01*
X0148377Y0023368D01*
X0148335Y0023270D01*
X0148297Y0023171D01*
X0148262Y0023071D01*
X0148231Y0022969D01*
X0148204Y0022866D01*
X0148180Y0022762D01*
X0148161Y0022658D01*
X0148145Y0022552D01*
X0148133Y0022447D01*
X0148125Y0022341D01*
X0148121Y0022234D01*
X0148121Y0022128D01*
X0148125Y0022021D01*
X0148133Y0021915D01*
X0148145Y0021810D01*
X0148161Y0021704D01*
X0148180Y0021600D01*
X0148204Y0021496D01*
X0148231Y0021393D01*
X0148262Y0021291D01*
X0148297Y0021191D01*
X0148335Y0021092D01*
X0148377Y0020994D01*
X0148423Y0020898D01*
X0148472Y0020803D01*
X0148525Y0020711D01*
X0148581Y0020620D01*
X0148640Y0020532D01*
X0148703Y0020446D01*
X0148768Y0020362D01*
X0148837Y0020281D01*
X0148909Y0020202D01*
X0148983Y0020127D01*
X0149060Y0020053D01*
X0149140Y0019983D01*
X0149223Y0019916D01*
X0149308Y0019852D01*
X0149395Y0019791D01*
X0149484Y0019733D01*
X0149576Y0019679D01*
X0149669Y0019628D01*
X0149765Y0019581D01*
X0149861Y0019537D01*
X0149960Y0019496D01*
X0150060Y0019460D01*
X0150161Y0019427D01*
X0150263Y0019398D01*
X0150367Y0019373D01*
X0150471Y0019351D01*
X0150576Y0019333D01*
X0150681Y0019320D01*
X0150787Y0019310D01*
X0150894Y0019304D01*
X0151000Y0019302D01*
X0166250Y0026002D02*
X0169253Y0023750D01*
X0170854Y0023750D02*
X0170854Y0028254D01*
X0173106Y0028254D01*
X0173856Y0027503D01*
X0173856Y0026002D01*
X0173106Y0025251D01*
X0170854Y0025251D01*
X0169253Y0028254D02*
X0166250Y0026002D01*
X0175458Y0022999D02*
X0178460Y0022999D01*
X0180062Y0023750D02*
X0180062Y0028254D01*
X0181563Y0026753D01*
X0183064Y0028254D01*
X0183064Y0023750D01*
X0184666Y0023750D02*
X0184666Y0028254D01*
X0186167Y0026753D01*
X0187668Y0028254D01*
X0187668Y0023750D01*
X0189270Y0023750D02*
X0192272Y0023750D01*
X0190771Y0023750D02*
X0190771Y0028254D01*
X0189270Y0026753D01*
X0206250Y0028254D02*
X0206250Y0023750D01*
X0206250Y0025251D02*
X0208502Y0025251D01*
X0209253Y0026002D01*
X0209253Y0027503D01*
X0208502Y0028254D01*
X0206250Y0028254D01*
X0210854Y0022999D02*
X0213856Y0022999D01*
X0215458Y0023750D02*
X0215458Y0028254D01*
X0216959Y0026753D01*
X0218460Y0028254D01*
X0218460Y0023750D01*
X0220062Y0023750D02*
X0220062Y0028254D01*
X0221563Y0026753D01*
X0223064Y0028254D01*
X0223064Y0023750D01*
X0224666Y0023750D02*
X0227668Y0026753D01*
X0227668Y0027503D01*
X0226918Y0028254D01*
X0225416Y0028254D01*
X0224666Y0027503D01*
X0224666Y0023750D02*
X0227668Y0023750D01*
X0229270Y0023750D02*
X0232272Y0026002D01*
X0229270Y0028254D01*
X0251197Y0031000D02*
X0251197Y0013362D01*
X0276000Y0013362D01*
X0276000Y0031000D01*
X0251197Y0031000D01*
X0276000Y0025060D02*
X0275894Y0025058D01*
X0275787Y0025052D01*
X0275681Y0025042D01*
X0275576Y0025029D01*
X0275471Y0025011D01*
X0275367Y0024989D01*
X0275263Y0024964D01*
X0275161Y0024935D01*
X0275060Y0024902D01*
X0274960Y0024866D01*
X0274861Y0024825D01*
X0274765Y0024781D01*
X0274669Y0024734D01*
X0274576Y0024683D01*
X0274484Y0024629D01*
X0274395Y0024571D01*
X0274308Y0024510D01*
X0274223Y0024446D01*
X0274140Y0024379D01*
X0274060Y0024309D01*
X0273983Y0024235D01*
X0273909Y0024160D01*
X0273837Y0024081D01*
X0273768Y0024000D01*
X0273703Y0023916D01*
X0273640Y0023830D01*
X0273581Y0023742D01*
X0273525Y0023651D01*
X0273472Y0023559D01*
X0273423Y0023464D01*
X0273377Y0023368D01*
X0273335Y0023270D01*
X0273297Y0023171D01*
X0273262Y0023071D01*
X0273231Y0022969D01*
X0273204Y0022866D01*
X0273180Y0022762D01*
X0273161Y0022658D01*
X0273145Y0022552D01*
X0273133Y0022447D01*
X0273125Y0022341D01*
X0273121Y0022234D01*
X0273121Y0022128D01*
X0273125Y0022021D01*
X0273133Y0021915D01*
X0273145Y0021810D01*
X0273161Y0021704D01*
X0273180Y0021600D01*
X0273204Y0021496D01*
X0273231Y0021393D01*
X0273262Y0021291D01*
X0273297Y0021191D01*
X0273335Y0021092D01*
X0273377Y0020994D01*
X0273423Y0020898D01*
X0273472Y0020803D01*
X0273525Y0020711D01*
X0273581Y0020620D01*
X0273640Y0020532D01*
X0273703Y0020446D01*
X0273768Y0020362D01*
X0273837Y0020281D01*
X0273909Y0020202D01*
X0273983Y0020127D01*
X0274060Y0020053D01*
X0274140Y0019983D01*
X0274223Y0019916D01*
X0274308Y0019852D01*
X0274395Y0019791D01*
X0274484Y0019733D01*
X0274576Y0019679D01*
X0274669Y0019628D01*
X0274765Y0019581D01*
X0274861Y0019537D01*
X0274960Y0019496D01*
X0275060Y0019460D01*
X0275161Y0019427D01*
X0275263Y0019398D01*
X0275367Y0019373D01*
X0275471Y0019351D01*
X0275576Y0019333D01*
X0275681Y0019320D01*
X0275787Y0019310D01*
X0275894Y0019304D01*
X0276000Y0019302D01*
D19*
X0270761Y0020857D02*
X0268359Y0020857D01*
X0270761Y0023260D01*
X0270761Y0023860D01*
X0270161Y0024461D01*
X0268960Y0024461D01*
X0268359Y0023860D01*
X0267078Y0023860D02*
X0266478Y0024461D01*
X0265277Y0024461D01*
X0264676Y0023860D01*
X0264676Y0023260D01*
X0265277Y0022659D01*
X0266478Y0022659D01*
X0267078Y0022059D01*
X0267078Y0021458D01*
X0266478Y0020857D01*
X0265277Y0020857D01*
X0264676Y0021458D01*
X0263395Y0021458D02*
X0263395Y0024461D01*
X0260993Y0024461D02*
X0260993Y0021458D01*
X0261594Y0020857D01*
X0262795Y0020857D01*
X0263395Y0021458D01*
X0265877Y0020257D02*
X0265877Y0025061D01*
X0145761Y0020857D02*
X0143359Y0020857D01*
X0144560Y0020857D02*
X0144560Y0024461D01*
X0143359Y0023260D01*
X0142078Y0023860D02*
X0141478Y0024461D01*
X0140277Y0024461D01*
X0139676Y0023860D01*
X0139676Y0023260D01*
X0140277Y0022659D01*
X0141478Y0022659D01*
X0142078Y0022059D01*
X0142078Y0021458D01*
X0141478Y0020857D01*
X0140277Y0020857D01*
X0139676Y0021458D01*
X0138395Y0021458D02*
X0138395Y0024461D01*
X0135993Y0024461D02*
X0135993Y0021458D01*
X0136594Y0020857D01*
X0137795Y0020857D01*
X0138395Y0021458D01*
X0140877Y0020257D02*
X0140877Y0025061D01*
X0135242Y0291942D02*
X0135242Y0296746D01*
X0135842Y0296146D02*
X0136443Y0295545D01*
X0135842Y0296146D02*
X0134641Y0296146D01*
X0134041Y0295545D01*
X0134041Y0294945D01*
X0134641Y0294344D01*
X0135842Y0294344D01*
X0136443Y0293744D01*
X0136443Y0293143D01*
X0135842Y0292543D01*
X0134641Y0292543D01*
X0134041Y0293143D01*
X0132760Y0293143D02*
X0132760Y0296146D01*
X0130357Y0296146D02*
X0130357Y0293143D01*
X0130958Y0292543D01*
X0132159Y0292543D01*
X0132760Y0293143D01*
X0137724Y0294344D02*
X0139525Y0296146D01*
X0139525Y0292543D01*
X0140126Y0294344D02*
X0137724Y0294344D01*
X0260993Y0296458D02*
X0261594Y0295857D01*
X0262795Y0295857D01*
X0263395Y0296458D01*
X0263395Y0299461D01*
X0264676Y0298860D02*
X0265277Y0299461D01*
X0266478Y0299461D01*
X0267078Y0298860D01*
X0268359Y0298860D02*
X0268960Y0299461D01*
X0270161Y0299461D01*
X0270761Y0298860D01*
X0270761Y0298260D01*
X0270161Y0297659D01*
X0270761Y0297059D01*
X0270761Y0296458D01*
X0270161Y0295857D01*
X0268960Y0295857D01*
X0268359Y0296458D01*
X0267078Y0296458D02*
X0267078Y0297059D01*
X0266478Y0297659D01*
X0265277Y0297659D01*
X0264676Y0298260D01*
X0264676Y0298860D01*
X0265877Y0300061D02*
X0265877Y0295257D01*
X0265277Y0295857D02*
X0266478Y0295857D01*
X0267078Y0296458D01*
X0265277Y0295857D02*
X0264676Y0296458D01*
X0260993Y0296458D02*
X0260993Y0299461D01*
X0269560Y0297659D02*
X0270161Y0297659D01*
M02*
