G75*
%MOIN*%
%OFA0B0*%
%FSLAX25Y25*%
%IPPOS*%
%LPD*%
%AMOC8*
5,1,8,0,0,1.08239X$1,22.5*
%
%ADD10C,0.06400*%
%ADD11OC8,0.06400*%
%ADD12C,0.02400*%
%ADD13C,0.04000*%
D10*
X0007800Y0056000D02*
X0014200Y0056000D01*
X0014200Y0066000D02*
X0007800Y0066000D01*
X0086000Y0162800D02*
X0086000Y0169200D01*
X0096000Y0169200D02*
X0096000Y0162800D01*
X0106000Y0162800D02*
X0106000Y0169200D01*
X0116000Y0169200D02*
X0116000Y0162800D01*
X0211000Y0252800D02*
X0211000Y0259200D01*
X0221000Y0259200D02*
X0221000Y0252800D01*
X0231000Y0252800D02*
X0231000Y0259200D01*
X0241000Y0259200D02*
X0241000Y0252800D01*
X0251000Y0252800D02*
X0251000Y0259200D01*
X0261000Y0259200D02*
X0261000Y0252800D01*
X0271000Y0252800D02*
X0271000Y0259200D01*
X0281000Y0259200D02*
X0281000Y0252800D01*
X0291000Y0252800D02*
X0291000Y0259200D01*
X0301000Y0259200D02*
X0301000Y0252800D01*
X0316000Y0252800D02*
X0316000Y0259200D01*
X0326000Y0259200D02*
X0326000Y0252800D01*
X0336000Y0252800D02*
X0336000Y0259200D01*
X0346000Y0259200D02*
X0346000Y0252800D01*
X0356000Y0252800D02*
X0356000Y0259200D01*
X0366000Y0259200D02*
X0366000Y0252800D01*
X0376000Y0252800D02*
X0376000Y0259200D01*
X0386000Y0259200D02*
X0386000Y0252800D01*
X0386000Y0069200D02*
X0386000Y0062800D01*
X0376000Y0062800D02*
X0376000Y0069200D01*
X0366000Y0069200D02*
X0366000Y0062800D01*
X0356000Y0062800D02*
X0356000Y0069200D01*
X0346000Y0069200D02*
X0346000Y0062800D01*
X0336000Y0062800D02*
X0336000Y0069200D01*
X0316000Y0069200D02*
X0316000Y0062800D01*
X0306000Y0062800D02*
X0306000Y0069200D01*
X0296000Y0069200D02*
X0296000Y0062800D01*
X0286000Y0062800D02*
X0286000Y0069200D01*
X0276000Y0069200D02*
X0276000Y0062800D01*
X0266000Y0062800D02*
X0266000Y0069200D01*
X0256000Y0069200D02*
X0256000Y0062800D01*
X0246000Y0062800D02*
X0246000Y0069200D01*
X0209200Y0056000D02*
X0202800Y0056000D01*
X0202800Y0046000D02*
X0209200Y0046000D01*
D11*
X0031000Y0021000D03*
X0031000Y0031000D03*
X0041000Y0031000D03*
X0051000Y0031000D03*
X0051000Y0021000D03*
X0041000Y0021000D03*
X0061000Y0021000D03*
X0071000Y0021000D03*
X0071000Y0031000D03*
X0061000Y0031000D03*
X0081000Y0031000D03*
X0091000Y0031000D03*
X0091000Y0021000D03*
X0081000Y0021000D03*
X0101000Y0021000D03*
X0111000Y0021000D03*
X0111000Y0031000D03*
X0101000Y0031000D03*
X0121000Y0031000D03*
X0121000Y0021000D03*
X0121000Y0066000D03*
X0131000Y0066000D03*
X0131000Y0076000D03*
X0121000Y0076000D03*
X0111000Y0076000D03*
X0101000Y0076000D03*
X0101000Y0066000D03*
X0111000Y0066000D03*
X0091000Y0066000D03*
X0081000Y0066000D03*
X0081000Y0076000D03*
X0091000Y0076000D03*
X0071000Y0076000D03*
X0061000Y0076000D03*
X0061000Y0066000D03*
X0071000Y0066000D03*
X0051000Y0066000D03*
X0041000Y0066000D03*
X0041000Y0076000D03*
X0051000Y0076000D03*
X0021000Y0096000D03*
X0021000Y0106000D03*
X0021000Y0116000D03*
X0021000Y0126000D03*
X0021000Y0136000D03*
X0011000Y0136000D03*
X0011000Y0126000D03*
X0011000Y0116000D03*
X0011000Y0106000D03*
X0011000Y0096000D03*
X0011000Y0146000D03*
X0011000Y0156000D03*
X0011000Y0166000D03*
X0011000Y0176000D03*
X0011000Y0186000D03*
X0011000Y0196000D03*
X0011000Y0206000D03*
X0021000Y0206000D03*
X0021000Y0196000D03*
X0021000Y0186000D03*
X0021000Y0176000D03*
X0021000Y0166000D03*
X0021000Y0156000D03*
X0021000Y0146000D03*
X0021000Y0216000D03*
X0021000Y0226000D03*
X0011000Y0226000D03*
X0011000Y0216000D03*
X0041000Y0246000D03*
X0051000Y0246000D03*
X0051000Y0256000D03*
X0041000Y0256000D03*
X0061000Y0256000D03*
X0071000Y0256000D03*
X0071000Y0246000D03*
X0061000Y0246000D03*
X0081000Y0246000D03*
X0091000Y0246000D03*
X0091000Y0256000D03*
X0081000Y0256000D03*
X0101000Y0256000D03*
X0111000Y0256000D03*
X0111000Y0246000D03*
X0101000Y0246000D03*
X0121000Y0246000D03*
X0131000Y0246000D03*
X0131000Y0256000D03*
X0121000Y0256000D03*
X0141000Y0256000D03*
X0151000Y0256000D03*
X0151000Y0246000D03*
X0141000Y0246000D03*
X0161000Y0246000D03*
X0171000Y0246000D03*
X0171000Y0256000D03*
X0161000Y0256000D03*
X0191000Y0226000D03*
X0191000Y0216000D03*
X0201000Y0216000D03*
X0201000Y0226000D03*
X0201000Y0206000D03*
X0201000Y0196000D03*
X0201000Y0186000D03*
X0201000Y0176000D03*
X0201000Y0166000D03*
X0201000Y0156000D03*
X0201000Y0146000D03*
X0191000Y0146000D03*
X0191000Y0156000D03*
X0191000Y0166000D03*
X0191000Y0176000D03*
X0191000Y0186000D03*
X0191000Y0196000D03*
X0191000Y0206000D03*
X0191000Y0136000D03*
X0191000Y0126000D03*
X0191000Y0116000D03*
X0191000Y0106000D03*
X0191000Y0096000D03*
X0201000Y0096000D03*
X0201000Y0106000D03*
X0201000Y0116000D03*
X0201000Y0126000D03*
X0201000Y0136000D03*
X0171000Y0076000D03*
X0161000Y0076000D03*
X0161000Y0066000D03*
X0171000Y0066000D03*
X0151000Y0066000D03*
X0141000Y0066000D03*
X0141000Y0076000D03*
X0151000Y0076000D03*
X0276000Y0031000D03*
X0286000Y0031000D03*
X0286000Y0021000D03*
X0276000Y0021000D03*
X0296000Y0021000D03*
X0306000Y0021000D03*
X0306000Y0031000D03*
X0296000Y0031000D03*
X0316000Y0031000D03*
X0326000Y0031000D03*
X0326000Y0021000D03*
X0316000Y0021000D03*
X0336000Y0021000D03*
X0346000Y0021000D03*
X0346000Y0031000D03*
X0336000Y0031000D03*
X0356000Y0031000D03*
X0366000Y0031000D03*
X0366000Y0021000D03*
X0356000Y0021000D03*
X0356000Y0286000D03*
X0366000Y0286000D03*
X0366000Y0296000D03*
X0356000Y0296000D03*
X0346000Y0296000D03*
X0336000Y0296000D03*
X0336000Y0286000D03*
X0346000Y0286000D03*
X0326000Y0286000D03*
X0316000Y0286000D03*
X0316000Y0296000D03*
X0326000Y0296000D03*
X0306000Y0296000D03*
X0296000Y0296000D03*
X0296000Y0286000D03*
X0306000Y0286000D03*
X0286000Y0286000D03*
X0276000Y0286000D03*
X0276000Y0296000D03*
X0286000Y0296000D03*
X0121000Y0296000D03*
X0121000Y0286000D03*
X0111000Y0286000D03*
X0101000Y0286000D03*
X0101000Y0296000D03*
X0111000Y0296000D03*
X0091000Y0296000D03*
X0081000Y0296000D03*
X0081000Y0286000D03*
X0091000Y0286000D03*
X0071000Y0286000D03*
X0061000Y0286000D03*
X0061000Y0296000D03*
X0071000Y0296000D03*
X0051000Y0296000D03*
X0041000Y0296000D03*
X0041000Y0286000D03*
X0051000Y0286000D03*
X0031000Y0286000D03*
X0031000Y0296000D03*
D12*
X0029904Y0301000D02*
X0029762Y0300998D01*
X0029620Y0300992D01*
X0029478Y0300982D01*
X0029337Y0300969D01*
X0029196Y0300951D01*
X0029056Y0300930D01*
X0028916Y0300904D01*
X0028777Y0300875D01*
X0028639Y0300842D01*
X0028502Y0300806D01*
X0028365Y0300765D01*
X0028230Y0300721D01*
X0028097Y0300673D01*
X0027965Y0300621D01*
X0027834Y0300566D01*
X0027704Y0300507D01*
X0027577Y0300445D01*
X0027451Y0300379D01*
X0027327Y0300309D01*
X0027205Y0300237D01*
X0027085Y0300161D01*
X0026967Y0300081D01*
X0026852Y0299999D01*
X0026738Y0299913D01*
X0026627Y0299824D01*
X0026519Y0299733D01*
X0026413Y0299638D01*
X0026310Y0299540D01*
X0026210Y0299440D01*
X0026112Y0299337D01*
X0026017Y0299231D01*
X0025926Y0299123D01*
X0025837Y0299012D01*
X0025751Y0298898D01*
X0025669Y0298783D01*
X0025589Y0298665D01*
X0025513Y0298545D01*
X0025441Y0298423D01*
X0025371Y0298299D01*
X0025305Y0298173D01*
X0025243Y0298046D01*
X0025184Y0297916D01*
X0025129Y0297785D01*
X0025077Y0297653D01*
X0025029Y0297520D01*
X0024985Y0297385D01*
X0024944Y0297248D01*
X0024908Y0297111D01*
X0024875Y0296973D01*
X0024846Y0296834D01*
X0024820Y0296694D01*
X0024799Y0296554D01*
X0024781Y0296413D01*
X0024768Y0296272D01*
X0024758Y0296130D01*
X0024752Y0295988D01*
X0024750Y0295846D01*
X0024750Y0276000D01*
X0027875Y0272875D01*
X0031000Y0272875D01*
X0031000Y0234750D01*
X0034750Y0231000D01*
X0037910Y0231000D01*
X0038059Y0230998D01*
X0038208Y0230992D01*
X0038356Y0230982D01*
X0038504Y0230968D01*
X0038652Y0230951D01*
X0038799Y0230929D01*
X0038946Y0230903D01*
X0039092Y0230874D01*
X0039237Y0230840D01*
X0039381Y0230803D01*
X0039524Y0230762D01*
X0039666Y0230717D01*
X0039806Y0230669D01*
X0039946Y0230616D01*
X0040084Y0230560D01*
X0040220Y0230500D01*
X0040355Y0230437D01*
X0040488Y0230370D01*
X0040619Y0230300D01*
X0040748Y0230226D01*
X0040875Y0230149D01*
X0041000Y0230068D01*
X0041123Y0229984D01*
X0041244Y0229897D01*
X0041362Y0229807D01*
X0041478Y0229713D01*
X0041591Y0229617D01*
X0041702Y0229517D01*
X0041810Y0229415D01*
X0041915Y0229310D01*
X0042017Y0229202D01*
X0042117Y0229091D01*
X0042213Y0228978D01*
X0042307Y0228862D01*
X0042397Y0228744D01*
X0042484Y0228623D01*
X0042568Y0228500D01*
X0042649Y0228375D01*
X0042726Y0228248D01*
X0042800Y0228119D01*
X0042870Y0227988D01*
X0042937Y0227855D01*
X0043000Y0227720D01*
X0043060Y0227584D01*
X0043116Y0227446D01*
X0043169Y0227306D01*
X0043217Y0227166D01*
X0043262Y0227024D01*
X0043303Y0226881D01*
X0043340Y0226737D01*
X0043374Y0226592D01*
X0043403Y0226446D01*
X0043429Y0226299D01*
X0043451Y0226152D01*
X0043468Y0226004D01*
X0043482Y0225856D01*
X0043492Y0225708D01*
X0043498Y0225559D01*
X0043500Y0225410D01*
X0043500Y0168500D01*
X0047875Y0165375D02*
X0047875Y0232357D01*
X0047873Y0232453D01*
X0047867Y0232550D01*
X0047858Y0232645D01*
X0047844Y0232741D01*
X0047827Y0232836D01*
X0047805Y0232930D01*
X0047781Y0233023D01*
X0047752Y0233115D01*
X0047719Y0233206D01*
X0047684Y0233295D01*
X0047644Y0233383D01*
X0047601Y0233469D01*
X0047554Y0233554D01*
X0047505Y0233636D01*
X0047451Y0233716D01*
X0047395Y0233795D01*
X0047336Y0233870D01*
X0047273Y0233944D01*
X0047208Y0234015D01*
X0047140Y0234083D01*
X0047069Y0234148D01*
X0046995Y0234211D01*
X0046920Y0234270D01*
X0046841Y0234326D01*
X0046761Y0234380D01*
X0046679Y0234429D01*
X0046594Y0234476D01*
X0046508Y0234519D01*
X0046420Y0234559D01*
X0046331Y0234594D01*
X0046240Y0234627D01*
X0046148Y0234656D01*
X0046055Y0234680D01*
X0045961Y0234702D01*
X0045866Y0234719D01*
X0045770Y0234733D01*
X0045675Y0234742D01*
X0045578Y0234748D01*
X0045482Y0234750D01*
X0044232Y0235268D02*
X0036000Y0243500D01*
X0036000Y0274750D01*
X0081000Y0274750D01*
X0091000Y0284750D01*
X0091000Y0286000D01*
X0096000Y0292250D02*
X0096000Y0303229D01*
X0096002Y0303381D01*
X0096008Y0303533D01*
X0096018Y0303684D01*
X0096031Y0303835D01*
X0096049Y0303986D01*
X0096070Y0304136D01*
X0096096Y0304286D01*
X0096125Y0304435D01*
X0096158Y0304583D01*
X0096194Y0304731D01*
X0096235Y0304877D01*
X0096279Y0305022D01*
X0096327Y0305166D01*
X0096379Y0305309D01*
X0096434Y0305450D01*
X0096493Y0305590D01*
X0096556Y0305728D01*
X0096622Y0305865D01*
X0096692Y0306000D01*
X0096765Y0306133D01*
X0096841Y0306264D01*
X0096921Y0306393D01*
X0097004Y0306520D01*
X0097091Y0306645D01*
X0097180Y0306768D01*
X0097273Y0306888D01*
X0097369Y0307006D01*
X0097467Y0307121D01*
X0097569Y0307234D01*
X0097674Y0307344D01*
X0097781Y0307451D01*
X0097891Y0307556D01*
X0098004Y0307658D01*
X0098119Y0307756D01*
X0098237Y0307852D01*
X0098357Y0307945D01*
X0098480Y0308034D01*
X0098605Y0308121D01*
X0098732Y0308204D01*
X0098861Y0308284D01*
X0098992Y0308360D01*
X0099125Y0308433D01*
X0099260Y0308503D01*
X0099397Y0308569D01*
X0099535Y0308632D01*
X0099675Y0308691D01*
X0099816Y0308746D01*
X0099959Y0308798D01*
X0100103Y0308846D01*
X0100248Y0308890D01*
X0100394Y0308931D01*
X0100542Y0308967D01*
X0100690Y0309000D01*
X0100839Y0309029D01*
X0100989Y0309055D01*
X0101139Y0309076D01*
X0101290Y0309094D01*
X0101441Y0309107D01*
X0101592Y0309117D01*
X0101744Y0309123D01*
X0101896Y0309125D01*
X0136000Y0309125D01*
X0145375Y0298500D02*
X0271000Y0298500D01*
X0273500Y0301000D01*
X0308500Y0301000D01*
X0311000Y0298500D01*
X0311000Y0291000D01*
X0331000Y0291000D01*
X0336000Y0286000D01*
X0342875Y0281000D02*
X0321000Y0281000D01*
X0316000Y0286000D01*
X0307250Y0279750D02*
X0292250Y0279750D01*
X0286000Y0273500D01*
X0171625Y0273500D01*
X0169125Y0276000D01*
X0157875Y0274750D02*
X0156000Y0276625D01*
X0124125Y0276625D01*
X0116000Y0272875D02*
X0095375Y0272875D01*
X0088500Y0266000D01*
X0053500Y0266000D01*
X0042875Y0255375D01*
X0041000Y0256000D01*
X0051000Y0246000D01*
X0041000Y0246000D02*
X0104125Y0182875D01*
X0112250Y0178500D02*
X0124125Y0190375D01*
X0135375Y0190375D01*
X0135375Y0196000D02*
X0146000Y0185375D01*
X0184125Y0185375D01*
X0191000Y0176000D02*
X0196000Y0171000D01*
X0270375Y0171000D01*
X0316000Y0125375D01*
X0316000Y0074750D01*
X0314125Y0074750D01*
X0311000Y0071625D01*
X0311000Y0042250D01*
X0344750Y0042250D01*
X0356000Y0031000D01*
X0351000Y0026000D02*
X0361000Y0026000D01*
X0361000Y0044750D01*
X0352875Y0052875D02*
X0347250Y0052875D01*
X0341000Y0046625D01*
X0331000Y0036000D02*
X0336000Y0031000D01*
X0331000Y0036000D02*
X0307875Y0036000D01*
X0307875Y0044750D01*
X0303500Y0049125D01*
X0301000Y0049125D01*
X0301000Y0071625D01*
X0294750Y0077875D01*
X0281625Y0077875D01*
X0277250Y0082250D01*
X0271625Y0083500D02*
X0311625Y0123500D01*
X0300375Y0135375D02*
X0282875Y0117875D01*
X0236625Y0117875D01*
X0229750Y0111000D01*
X0188500Y0111000D01*
X0181625Y0104125D01*
X0137875Y0104125D01*
X0137875Y0088500D01*
X0131000Y0081625D01*
X0131000Y0076000D01*
X0121000Y0076000D02*
X0121000Y0098500D01*
X0127875Y0098500D01*
X0136625Y0107250D01*
X0163500Y0107250D01*
X0187250Y0131000D01*
X0250375Y0131000D01*
X0237875Y0114750D02*
X0285375Y0114750D01*
X0279125Y0110375D02*
X0251625Y0110375D01*
X0232250Y0091000D01*
X0146000Y0091000D01*
X0146000Y0071000D01*
X0151000Y0066000D01*
X0153500Y0061000D02*
X0146000Y0061000D01*
X0141000Y0066000D01*
X0141000Y0076000D02*
X0141000Y0101000D01*
X0224125Y0101000D01*
X0237875Y0114750D01*
X0237875Y0109125D02*
X0227875Y0099125D01*
X0233500Y0087875D02*
X0250375Y0104750D01*
X0274750Y0104750D01*
X0271625Y0083500D02*
X0166000Y0083500D01*
X0166000Y0073500D01*
X0163500Y0071000D01*
X0156000Y0071000D01*
X0156000Y0063500D01*
X0153500Y0061000D01*
X0161000Y0066000D02*
X0166000Y0061000D01*
X0201000Y0061000D01*
X0206000Y0056000D01*
X0224750Y0074750D01*
X0287875Y0074750D01*
X0290375Y0072250D01*
X0296000Y0072250D01*
X0296000Y0066000D01*
X0286000Y0066000D02*
X0286000Y0057250D01*
X0264125Y0057250D01*
X0256000Y0065375D01*
X0256000Y0066000D01*
X0247250Y0054125D02*
X0239125Y0062250D01*
X0247250Y0054125D02*
X0284750Y0054125D01*
X0291000Y0047875D01*
X0296625Y0040375D02*
X0199125Y0040375D01*
X0192875Y0046625D01*
X0171000Y0076000D02*
X0172875Y0077875D01*
X0266625Y0077875D01*
X0267875Y0079125D01*
X0247250Y0095375D02*
X0246625Y0095375D01*
X0239125Y0087875D01*
X0233500Y0087875D02*
X0162875Y0087875D01*
X0151000Y0076000D01*
X0127180Y0051000D02*
X0126910Y0051003D01*
X0126640Y0051013D01*
X0126370Y0051029D01*
X0126101Y0051052D01*
X0125832Y0051082D01*
X0125565Y0051117D01*
X0125298Y0051160D01*
X0125032Y0051208D01*
X0124768Y0051263D01*
X0124504Y0051325D01*
X0124243Y0051393D01*
X0123983Y0051467D01*
X0123725Y0051547D01*
X0123469Y0051634D01*
X0123216Y0051727D01*
X0122964Y0051825D01*
X0122715Y0051930D01*
X0122469Y0052041D01*
X0122225Y0052158D01*
X0121984Y0052281D01*
X0121747Y0052409D01*
X0121512Y0052543D01*
X0121281Y0052683D01*
X0121053Y0052828D01*
X0120829Y0052979D01*
X0120609Y0053135D01*
X0120392Y0053297D01*
X0120179Y0053463D01*
X0119971Y0053635D01*
X0119766Y0053812D01*
X0119566Y0053993D01*
X0119371Y0054180D01*
X0119180Y0054371D01*
X0118993Y0054566D01*
X0118812Y0054766D01*
X0118635Y0054971D01*
X0118463Y0055179D01*
X0118297Y0055392D01*
X0118135Y0055609D01*
X0117979Y0055829D01*
X0117828Y0056053D01*
X0117683Y0056281D01*
X0117543Y0056512D01*
X0117409Y0056747D01*
X0117281Y0056984D01*
X0117158Y0057225D01*
X0117041Y0057469D01*
X0116930Y0057715D01*
X0116825Y0057964D01*
X0116727Y0058216D01*
X0116634Y0058469D01*
X0116547Y0058725D01*
X0116467Y0058983D01*
X0116393Y0059243D01*
X0116325Y0059504D01*
X0116263Y0059768D01*
X0116208Y0060032D01*
X0116160Y0060298D01*
X0116117Y0060565D01*
X0116082Y0060832D01*
X0116052Y0061101D01*
X0116029Y0061370D01*
X0116013Y0061640D01*
X0116003Y0061910D01*
X0116000Y0062180D01*
X0116000Y0098500D01*
X0151625Y0134125D01*
X0189125Y0134125D01*
X0191000Y0136000D01*
X0157250Y0151000D02*
X0284125Y0151000D01*
X0291625Y0143500D01*
X0283500Y0141000D02*
X0152875Y0141000D01*
X0127875Y0116000D01*
X0116000Y0109750D02*
X0157250Y0151000D01*
X0150375Y0175375D02*
X0094750Y0175375D01*
X0091625Y0172250D01*
X0086000Y0172250D01*
X0086000Y0166000D01*
X0096000Y0166000D02*
X0096000Y0157250D01*
X0126625Y0157250D01*
X0112250Y0178500D02*
X0087875Y0178500D01*
X0027250Y0117875D01*
X0022875Y0117875D01*
X0021000Y0116000D01*
X0016000Y0118500D02*
X0016000Y0106625D01*
X0020375Y0106625D01*
X0021000Y0106000D01*
X0026625Y0106000D01*
X0026625Y0059125D01*
X0036000Y0059125D01*
X0036000Y0026000D01*
X0116000Y0026000D01*
X0121000Y0031000D01*
X0131000Y0031000D02*
X0276000Y0031000D01*
X0281000Y0036000D02*
X0271000Y0036000D01*
X0281000Y0036000D02*
X0286000Y0031000D01*
X0288500Y0026000D02*
X0133500Y0026000D01*
X0123500Y0016000D01*
X0046000Y0016000D01*
X0041000Y0021000D01*
X0036000Y0026000D02*
X0031000Y0021000D01*
X0031000Y0031000D02*
X0011000Y0051000D01*
X0011000Y0056000D01*
X0018500Y0059125D02*
X0011625Y0066000D01*
X0011000Y0066000D01*
X0018500Y0059125D02*
X0026625Y0059125D01*
X0036000Y0063500D02*
X0038500Y0061000D01*
X0041000Y0061000D01*
X0041000Y0031000D01*
X0051000Y0031000D02*
X0051000Y0061000D01*
X0048500Y0061000D01*
X0046000Y0063500D01*
X0046000Y0076000D01*
X0051000Y0076000D01*
X0056000Y0076000D02*
X0061000Y0076000D01*
X0056000Y0076000D02*
X0056000Y0063500D01*
X0058500Y0061000D01*
X0061000Y0061000D01*
X0061000Y0031000D01*
X0071000Y0031000D02*
X0071000Y0061000D01*
X0068500Y0061000D01*
X0066000Y0063500D01*
X0066000Y0076000D01*
X0071000Y0076000D01*
X0076000Y0076000D02*
X0081000Y0076000D01*
X0076000Y0076000D02*
X0076000Y0063500D01*
X0078500Y0061000D01*
X0081000Y0061000D01*
X0081000Y0031000D01*
X0091000Y0031000D02*
X0091000Y0061000D01*
X0088500Y0061000D01*
X0086000Y0063500D01*
X0086000Y0076000D01*
X0091000Y0076000D01*
X0096000Y0076000D02*
X0101000Y0076000D01*
X0096000Y0076000D02*
X0096000Y0063500D01*
X0098500Y0061000D01*
X0101000Y0061000D01*
X0101000Y0031000D01*
X0111000Y0031000D02*
X0111000Y0061000D01*
X0108500Y0061000D01*
X0106000Y0063500D01*
X0106000Y0076000D01*
X0111000Y0076000D01*
X0127180Y0051000D02*
X0245375Y0051000D01*
X0252875Y0043500D01*
X0303500Y0043500D01*
X0296625Y0040375D02*
X0306000Y0031000D01*
X0296000Y0031000D02*
X0294125Y0029125D01*
X0291625Y0029125D01*
X0288500Y0026000D01*
X0287875Y0022875D02*
X0290375Y0022875D01*
X0293500Y0026000D01*
X0321000Y0026000D01*
X0326000Y0031000D01*
X0341000Y0016000D02*
X0217875Y0016000D01*
X0286000Y0021000D02*
X0287875Y0022875D01*
X0321000Y0052875D02*
X0321000Y0061625D01*
X0322250Y0061625D01*
X0323500Y0066000D02*
X0316000Y0066000D01*
X0323500Y0066000D02*
X0332250Y0057250D01*
X0371000Y0057250D01*
X0391000Y0057250D01*
X0391000Y0126000D01*
X0377250Y0139750D01*
X0377250Y0194750D01*
X0382875Y0200375D01*
X0384125Y0200375D01*
X0384125Y0237250D01*
X0382250Y0239125D01*
X0381000Y0239125D01*
X0381000Y0261625D01*
X0381625Y0262250D01*
X0381625Y0270375D01*
X0366000Y0286000D01*
X0361000Y0288500D02*
X0361000Y0264750D01*
X0354125Y0264750D01*
X0346000Y0256625D01*
X0346000Y0256000D01*
X0356000Y0256000D02*
X0356000Y0255375D01*
X0362250Y0249125D01*
X0362250Y0226000D01*
X0351625Y0215375D01*
X0351625Y0186625D01*
X0344125Y0212250D02*
X0316000Y0212250D01*
X0295375Y0232875D01*
X0141000Y0232875D01*
X0140375Y0233500D01*
X0136000Y0241000D02*
X0184750Y0241000D01*
X0190375Y0246625D01*
X0183500Y0245375D02*
X0182875Y0246000D01*
X0171000Y0246000D01*
X0166000Y0251000D02*
X0205375Y0251000D01*
X0209125Y0247250D01*
X0272875Y0247250D01*
X0276000Y0250375D01*
X0276000Y0264750D01*
X0281625Y0264750D01*
X0291000Y0274125D01*
X0344125Y0274125D01*
X0342875Y0281000D02*
X0351000Y0272875D01*
X0351000Y0279750D02*
X0356625Y0279750D01*
X0351000Y0279750D02*
X0351000Y0298500D01*
X0341000Y0308500D01*
X0346000Y0296000D02*
X0328500Y0313500D01*
X0191625Y0313500D01*
X0187250Y0309125D01*
X0203500Y0309125D02*
X0204750Y0310375D01*
X0321625Y0310375D01*
X0336000Y0296000D01*
X0326000Y0296000D02*
X0314750Y0307250D01*
X0250375Y0307250D01*
X0247875Y0304750D01*
X0106625Y0304750D01*
X0106000Y0304125D01*
X0109125Y0301625D02*
X0107250Y0299750D01*
X0106000Y0299750D01*
X0106000Y0283500D01*
X0103500Y0281000D01*
X0097875Y0281000D01*
X0092875Y0276000D01*
X0101625Y0267250D02*
X0104125Y0269750D01*
X0278500Y0269750D01*
X0279125Y0269125D01*
X0286000Y0264750D02*
X0307250Y0264750D01*
X0316000Y0256000D01*
X0317875Y0247250D02*
X0312250Y0247250D01*
X0317875Y0247250D02*
X0326000Y0255375D01*
X0326000Y0256000D01*
X0346625Y0244750D02*
X0350176Y0244750D01*
X0350392Y0244747D01*
X0350608Y0244740D01*
X0350824Y0244726D01*
X0351040Y0244708D01*
X0351255Y0244685D01*
X0351469Y0244656D01*
X0351683Y0244622D01*
X0351895Y0244583D01*
X0352107Y0244539D01*
X0352318Y0244490D01*
X0352527Y0244436D01*
X0352735Y0244376D01*
X0352941Y0244312D01*
X0353146Y0244243D01*
X0353349Y0244168D01*
X0353551Y0244089D01*
X0353750Y0244005D01*
X0353947Y0243917D01*
X0354142Y0243823D01*
X0354335Y0243725D01*
X0354525Y0243622D01*
X0354713Y0243515D01*
X0354898Y0243403D01*
X0355080Y0243287D01*
X0355260Y0243166D01*
X0355436Y0243041D01*
X0355609Y0242912D01*
X0355780Y0242778D01*
X0355947Y0242641D01*
X0356110Y0242499D01*
X0356270Y0242354D01*
X0356427Y0242205D01*
X0356580Y0242052D01*
X0356729Y0241895D01*
X0356874Y0241735D01*
X0357016Y0241572D01*
X0357153Y0241405D01*
X0357287Y0241234D01*
X0357416Y0241061D01*
X0357541Y0240885D01*
X0357662Y0240705D01*
X0357778Y0240523D01*
X0357890Y0240338D01*
X0357997Y0240150D01*
X0358100Y0239960D01*
X0358198Y0239767D01*
X0358292Y0239572D01*
X0358380Y0239375D01*
X0358464Y0239176D01*
X0358543Y0238974D01*
X0358618Y0238771D01*
X0358687Y0238566D01*
X0358751Y0238360D01*
X0358811Y0238152D01*
X0358865Y0237943D01*
X0358914Y0237732D01*
X0358958Y0237520D01*
X0358997Y0237308D01*
X0359031Y0237094D01*
X0359060Y0236880D01*
X0359083Y0236665D01*
X0359101Y0236449D01*
X0359115Y0236233D01*
X0359122Y0236017D01*
X0359125Y0235801D01*
X0359125Y0227250D01*
X0344125Y0212250D01*
X0341625Y0216625D02*
X0316000Y0216625D01*
X0286000Y0246625D01*
X0286000Y0264750D01*
X0291000Y0256000D02*
X0291000Y0251000D01*
X0291002Y0250860D01*
X0291008Y0250720D01*
X0291018Y0250580D01*
X0291031Y0250440D01*
X0291049Y0250301D01*
X0291071Y0250162D01*
X0291096Y0250025D01*
X0291125Y0249887D01*
X0291158Y0249751D01*
X0291195Y0249616D01*
X0291236Y0249482D01*
X0291281Y0249349D01*
X0291329Y0249217D01*
X0291381Y0249087D01*
X0291436Y0248958D01*
X0291495Y0248831D01*
X0291558Y0248705D01*
X0291624Y0248581D01*
X0291693Y0248460D01*
X0291766Y0248340D01*
X0291843Y0248222D01*
X0291922Y0248107D01*
X0292005Y0247993D01*
X0292091Y0247883D01*
X0292180Y0247774D01*
X0292272Y0247668D01*
X0292367Y0247565D01*
X0292464Y0247464D01*
X0292565Y0247367D01*
X0292668Y0247272D01*
X0292774Y0247180D01*
X0292883Y0247091D01*
X0292993Y0247005D01*
X0293107Y0246922D01*
X0293222Y0246843D01*
X0293340Y0246766D01*
X0293460Y0246693D01*
X0293581Y0246624D01*
X0293705Y0246558D01*
X0293831Y0246495D01*
X0293958Y0246436D01*
X0294087Y0246381D01*
X0294217Y0246329D01*
X0294349Y0246281D01*
X0294482Y0246236D01*
X0294616Y0246195D01*
X0294751Y0246158D01*
X0294887Y0246125D01*
X0295025Y0246096D01*
X0295162Y0246071D01*
X0295301Y0246049D01*
X0295440Y0246031D01*
X0295580Y0246018D01*
X0295720Y0246008D01*
X0295860Y0246002D01*
X0296000Y0246000D01*
X0312250Y0229750D01*
X0354750Y0229750D01*
X0360375Y0219750D02*
X0366000Y0225375D01*
X0366000Y0256000D01*
X0379750Y0231625D02*
X0361000Y0212875D01*
X0360375Y0217875D02*
X0360375Y0219750D01*
X0381625Y0193500D02*
X0391000Y0202875D01*
X0391000Y0283929D01*
X0390998Y0284100D01*
X0390992Y0284271D01*
X0390981Y0284441D01*
X0390967Y0284611D01*
X0390948Y0284781D01*
X0390926Y0284951D01*
X0390899Y0285119D01*
X0390868Y0285288D01*
X0390833Y0285455D01*
X0390795Y0285621D01*
X0390752Y0285787D01*
X0390705Y0285951D01*
X0390654Y0286114D01*
X0390599Y0286276D01*
X0390540Y0286436D01*
X0390478Y0286595D01*
X0390412Y0286753D01*
X0390342Y0286909D01*
X0390268Y0287063D01*
X0390190Y0287215D01*
X0390109Y0287365D01*
X0390024Y0287514D01*
X0389936Y0287660D01*
X0389844Y0287804D01*
X0389748Y0287946D01*
X0389650Y0288085D01*
X0389547Y0288222D01*
X0389442Y0288357D01*
X0389333Y0288489D01*
X0389222Y0288618D01*
X0389107Y0288744D01*
X0388989Y0288868D01*
X0388868Y0288989D01*
X0388744Y0289107D01*
X0388618Y0289222D01*
X0388489Y0289333D01*
X0388357Y0289442D01*
X0388222Y0289547D01*
X0388085Y0289650D01*
X0387946Y0289748D01*
X0387804Y0289844D01*
X0387660Y0289936D01*
X0387514Y0290024D01*
X0387365Y0290109D01*
X0387215Y0290190D01*
X0387063Y0290268D01*
X0386909Y0290342D01*
X0386753Y0290412D01*
X0386595Y0290478D01*
X0386436Y0290540D01*
X0386276Y0290599D01*
X0386114Y0290654D01*
X0385951Y0290705D01*
X0385787Y0290752D01*
X0385621Y0290795D01*
X0385455Y0290833D01*
X0385288Y0290868D01*
X0385119Y0290899D01*
X0384951Y0290926D01*
X0384781Y0290948D01*
X0384611Y0290967D01*
X0384441Y0290981D01*
X0384271Y0290992D01*
X0384100Y0290998D01*
X0383929Y0291000D01*
X0363500Y0291000D01*
X0361000Y0288500D01*
X0301000Y0256000D02*
X0301000Y0246625D01*
X0312875Y0234750D01*
X0293500Y0228500D02*
X0293500Y0164125D01*
X0309125Y0138500D02*
X0309125Y0197875D01*
X0306625Y0200375D01*
X0306625Y0205899D01*
X0306627Y0205985D01*
X0306633Y0206071D01*
X0306642Y0206157D01*
X0306655Y0206242D01*
X0306672Y0206327D01*
X0306692Y0206410D01*
X0306716Y0206493D01*
X0306744Y0206575D01*
X0306775Y0206655D01*
X0306810Y0206734D01*
X0306848Y0206811D01*
X0306890Y0206887D01*
X0306934Y0206961D01*
X0306982Y0207032D01*
X0307033Y0207102D01*
X0307087Y0207169D01*
X0307144Y0207234D01*
X0307204Y0207296D01*
X0307266Y0207356D01*
X0307331Y0207413D01*
X0307398Y0207467D01*
X0307468Y0207518D01*
X0307539Y0207566D01*
X0307613Y0207610D01*
X0307689Y0207652D01*
X0307766Y0207690D01*
X0307845Y0207725D01*
X0307925Y0207756D01*
X0308007Y0207784D01*
X0308090Y0207808D01*
X0308173Y0207828D01*
X0308258Y0207845D01*
X0308343Y0207858D01*
X0308429Y0207867D01*
X0308515Y0207873D01*
X0308601Y0207875D01*
X0317250Y0207875D01*
X0311000Y0201625D02*
X0386000Y0126625D01*
X0386000Y0066000D01*
X0371000Y0057250D02*
X0371000Y0026000D01*
X0366000Y0021000D01*
X0351000Y0026000D02*
X0346000Y0031000D01*
X0346000Y0021000D02*
X0341000Y0016000D01*
X0216625Y0181000D02*
X0136625Y0181000D01*
X0152250Y0191000D02*
X0261625Y0191000D01*
X0256625Y0201000D02*
X0146625Y0201000D01*
X0123500Y0224125D01*
X0120375Y0226625D02*
X0122250Y0228500D01*
X0165375Y0228500D01*
X0161000Y0246000D02*
X0166000Y0251000D01*
X0161000Y0256000D02*
X0166000Y0261000D01*
X0190375Y0261000D01*
X0194750Y0265375D01*
X0188500Y0257875D02*
X0202250Y0257875D01*
X0209750Y0265375D01*
X0268500Y0265375D01*
X0241000Y0280375D02*
X0136000Y0280375D01*
X0135375Y0281000D01*
X0138500Y0286000D02*
X0121000Y0286000D01*
X0116000Y0291000D02*
X0116000Y0272875D01*
X0132875Y0262875D02*
X0135375Y0265375D01*
X0132875Y0262875D02*
X0087875Y0262875D01*
X0081000Y0256000D01*
X0091000Y0256000D02*
X0096000Y0251000D01*
X0096000Y0231625D01*
X0097250Y0231625D01*
X0097644Y0226625D02*
X0097483Y0226627D01*
X0097323Y0226633D01*
X0097163Y0226642D01*
X0097003Y0226656D01*
X0096843Y0226673D01*
X0096684Y0226695D01*
X0096525Y0226720D01*
X0096368Y0226749D01*
X0096210Y0226782D01*
X0096054Y0226818D01*
X0095899Y0226858D01*
X0095744Y0226902D01*
X0095591Y0226950D01*
X0095439Y0227002D01*
X0095288Y0227057D01*
X0095139Y0227115D01*
X0094991Y0227178D01*
X0094844Y0227244D01*
X0094699Y0227313D01*
X0094556Y0227386D01*
X0094415Y0227462D01*
X0094276Y0227542D01*
X0094138Y0227625D01*
X0094003Y0227711D01*
X0093870Y0227801D01*
X0093739Y0227894D01*
X0093610Y0227990D01*
X0093484Y0228089D01*
X0093360Y0228191D01*
X0093238Y0228296D01*
X0093119Y0228404D01*
X0093003Y0228515D01*
X0092890Y0228628D01*
X0092779Y0228744D01*
X0092671Y0228863D01*
X0092566Y0228985D01*
X0092464Y0229109D01*
X0092365Y0229235D01*
X0092269Y0229364D01*
X0092176Y0229495D01*
X0092086Y0229628D01*
X0092000Y0229763D01*
X0091917Y0229901D01*
X0091837Y0230040D01*
X0091761Y0230181D01*
X0091688Y0230324D01*
X0091619Y0230469D01*
X0091553Y0230616D01*
X0091490Y0230764D01*
X0091432Y0230913D01*
X0091377Y0231064D01*
X0091325Y0231216D01*
X0091277Y0231369D01*
X0091233Y0231524D01*
X0091193Y0231679D01*
X0091157Y0231835D01*
X0091124Y0231993D01*
X0091095Y0232150D01*
X0091070Y0232309D01*
X0091048Y0232468D01*
X0091031Y0232628D01*
X0091017Y0232788D01*
X0091008Y0232948D01*
X0091002Y0233108D01*
X0091000Y0233269D01*
X0091000Y0246000D01*
X0101625Y0239125D02*
X0106000Y0243500D01*
X0106000Y0251000D01*
X0114750Y0251000D01*
X0111000Y0246000D02*
X0119125Y0237875D01*
X0283500Y0237875D01*
X0286000Y0240375D01*
X0235375Y0228500D02*
X0223500Y0228500D01*
X0201000Y0206000D01*
X0196000Y0211000D02*
X0201000Y0216000D01*
X0196000Y0211000D02*
X0180375Y0211000D01*
X0181000Y0206000D02*
X0191000Y0206000D01*
X0181000Y0206000D02*
X0180375Y0205375D01*
X0184750Y0217250D02*
X0188500Y0221000D01*
X0208500Y0221000D01*
X0216000Y0228500D01*
X0188500Y0257875D02*
X0186000Y0255375D01*
X0172875Y0265375D02*
X0160375Y0265375D01*
X0151000Y0256000D01*
X0146000Y0251000D02*
X0146000Y0265375D01*
X0141000Y0256000D02*
X0136000Y0251000D01*
X0136000Y0241000D01*
X0141000Y0246000D02*
X0146000Y0251000D01*
X0120375Y0226625D02*
X0097644Y0226625D01*
X0104750Y0218500D02*
X0123500Y0218500D01*
X0126000Y0213500D02*
X0115375Y0213500D01*
X0106625Y0204750D01*
X0116000Y0208500D02*
X0124125Y0200375D01*
X0142875Y0200375D01*
X0152250Y0191000D01*
X0216625Y0181000D02*
X0222250Y0186625D01*
X0138500Y0286000D02*
X0146625Y0294125D01*
X0274125Y0294125D01*
X0276000Y0296000D01*
X0251625Y0302875D02*
X0250375Y0301625D01*
X0109125Y0301625D01*
X0116000Y0291000D02*
X0121000Y0296000D01*
X0137250Y0290375D02*
X0145375Y0298500D01*
X0081000Y0296000D02*
X0081000Y0301000D01*
X0071625Y0310375D01*
X0037875Y0310375D01*
X0029904Y0301000D02*
X0075375Y0301000D01*
X0070375Y0306000D02*
X0017180Y0306000D01*
X0006000Y0296000D01*
X0006000Y0294820D01*
X0006000Y0143500D01*
X0008500Y0141000D01*
X0016000Y0141000D01*
X0016000Y0131000D01*
X0021000Y0126000D01*
X0018500Y0121000D02*
X0016000Y0118500D01*
X0018500Y0121000D02*
X0026000Y0121000D01*
X0026000Y0181000D01*
X0021000Y0186000D01*
X0021000Y0196000D02*
X0016000Y0196000D01*
X0016000Y0226000D01*
X0011000Y0226000D01*
X0016000Y0226000D02*
X0021000Y0226000D01*
X0030375Y0231000D02*
X0025375Y0236000D01*
X0025375Y0271000D01*
X0020375Y0276000D01*
X0020375Y0292875D01*
X0032875Y0281000D02*
X0063500Y0281000D01*
X0066000Y0283500D01*
X0066000Y0291000D01*
X0076000Y0291000D01*
X0081000Y0286000D01*
X0079750Y0279125D02*
X0072875Y0286000D01*
X0071000Y0286000D01*
X0032875Y0281000D02*
X0029125Y0277250D01*
X0021000Y0269125D02*
X0011625Y0259750D01*
X0030375Y0231000D02*
X0030375Y0165375D01*
X0045482Y0234750D02*
X0045400Y0234752D01*
X0045319Y0234758D01*
X0045238Y0234767D01*
X0045157Y0234780D01*
X0045077Y0234797D01*
X0044998Y0234817D01*
X0044920Y0234842D01*
X0044843Y0234869D01*
X0044768Y0234901D01*
X0044694Y0234935D01*
X0044622Y0234973D01*
X0044551Y0235015D01*
X0044483Y0235059D01*
X0044417Y0235107D01*
X0044353Y0235158D01*
X0044291Y0235211D01*
X0044232Y0235268D01*
X0041000Y0076000D02*
X0036000Y0076000D01*
X0036000Y0063500D01*
X0121000Y0021000D02*
X0131000Y0031000D01*
D13*
X0192875Y0046625D03*
X0217875Y0016000D03*
X0271000Y0036000D03*
X0291000Y0047875D03*
X0303500Y0043500D03*
X0321000Y0052875D03*
X0322250Y0061625D03*
X0341000Y0046625D03*
X0352875Y0052875D03*
X0361000Y0044750D03*
X0277250Y0082250D03*
X0267875Y0079125D03*
X0247250Y0095375D03*
X0239125Y0087875D03*
X0227875Y0099125D03*
X0237875Y0109125D03*
X0250375Y0131000D03*
X0279125Y0110375D03*
X0274750Y0104750D03*
X0285375Y0114750D03*
X0300375Y0135375D03*
X0309125Y0138500D03*
X0311625Y0123500D03*
X0291625Y0143500D03*
X0283500Y0141000D03*
X0293500Y0164125D03*
X0261625Y0191000D03*
X0256625Y0201000D03*
X0235375Y0228500D03*
X0216000Y0228500D03*
X0190375Y0246625D03*
X0183500Y0245375D03*
X0186000Y0255375D03*
X0194750Y0265375D03*
X0172875Y0265375D03*
X0169125Y0276000D03*
X0157875Y0274750D03*
X0146000Y0265375D03*
X0135375Y0265375D03*
X0124125Y0276625D03*
X0135375Y0281000D03*
X0137250Y0290375D03*
X0136000Y0309125D03*
X0106000Y0304125D03*
X0096000Y0292250D03*
X0092875Y0276000D03*
X0101625Y0267250D03*
X0114750Y0251000D03*
X0101625Y0239125D03*
X0097250Y0231625D03*
X0104750Y0218500D03*
X0116000Y0208500D03*
X0126000Y0213500D03*
X0123500Y0218500D03*
X0123500Y0224125D03*
X0140375Y0233500D03*
X0165375Y0228500D03*
X0184750Y0217250D03*
X0180375Y0211000D03*
X0180375Y0205375D03*
X0184125Y0185375D03*
X0150375Y0175375D03*
X0136625Y0181000D03*
X0135375Y0190375D03*
X0135375Y0196000D03*
X0106625Y0204750D03*
X0104125Y0182875D03*
X0126625Y0157250D03*
X0127875Y0116000D03*
X0116000Y0109750D03*
X0047875Y0165375D03*
X0043500Y0168500D03*
X0030375Y0165375D03*
X0011625Y0259750D03*
X0021000Y0269125D03*
X0029125Y0277250D03*
X0020375Y0292875D03*
X0037875Y0310375D03*
X0070375Y0306000D03*
X0075375Y0301000D03*
X0079750Y0279125D03*
X0187250Y0309125D03*
X0203500Y0309125D03*
X0241000Y0280375D03*
X0251625Y0302875D03*
X0279125Y0269125D03*
X0268500Y0265375D03*
X0286000Y0240375D03*
X0293500Y0228500D03*
X0312875Y0234750D03*
X0312250Y0247250D03*
X0346625Y0244750D03*
X0354750Y0229750D03*
X0360375Y0217875D03*
X0361000Y0212875D03*
X0341625Y0216625D03*
X0317250Y0207875D03*
X0311000Y0201625D03*
X0351625Y0186625D03*
X0381625Y0193500D03*
X0379750Y0231625D03*
X0351000Y0272875D03*
X0344125Y0274125D03*
X0356625Y0279750D03*
X0341000Y0308500D03*
X0307250Y0279750D03*
X0222250Y0186625D03*
X0239125Y0062250D03*
M02*
