%
M48
M72
T01C0.02400
T02C0.04000
%
T01
X141000Y90375
X146000Y85375
X159125Y85375
X144750Y99750
X131000Y113500
X126625Y129125
X120375Y144125
X111625Y152875
X120375Y174750
X121000Y182250
X119750Y189125
X111000Y193500
X106000Y193500
X105375Y198500
X106000Y184750
X94125Y181000
X85375Y177875
X73500Y190375
X81625Y207250
X67875Y229125
X66000Y246625
X44750Y239750
X35375Y253500
X31000Y257875
X26000Y250375
X12875Y258500
X31000Y277875
X43500Y290375
X53500Y290375
X59750Y289750
X67875Y287250
X81625Y286625
X81625Y281000
X102875Y286625
X114125Y286625
X116625Y291000
X128500Y291000
X142250Y282250
X120375Y277875
X144750Y307250
X168500Y271625
X164125Y267250
X191000Y246625
X191000Y234750
X182250Y232875
X177250Y232250
X175375Y226625
X165375Y228500
X172250Y238500
X152250Y236000
X146000Y234125
X142250Y212250
X130375Y199750
X115375Y221000
X101000Y234125
X115375Y242875
X161000Y212250
X165375Y209750
X161000Y200375
X174750Y200375
X178500Y204750
X214750Y176000
X214125Y166000
X224125Y156000
X237875Y147875
X247875Y143500
X254125Y136000
X249750Y126000
X272875Y162250
X277250Y178500
X269750Y201625
X255375Y227875
X250375Y236625
X263500Y241625
X291625Y246000
X297250Y237250
X321000Y216625
X322250Y211625
X324125Y206000
X331000Y207250
X326000Y227875
X339125Y228500
X316625Y265375
X323500Y280375
X331000Y283500
X343500Y276000
X346625Y287875
X371000Y286000
X296000Y266000
X291625Y271625
X272250Y287875
X266000Y276000
X260375Y276000
X289750Y297250
X221625Y236000
X204750Y239125
X220375Y216000
X235375Y202250
X217875Y196000
X177250Y129125
X177250Y100375
X181625Y73500
X232875Y66000
X253500Y30375
X262875Y26000
X278500Y16000
X286625Y41000
X364125Y79125
X386625Y109125
X391000Y116000
X335375Y155375
X334750Y160375
X356625Y176625
X356000Y181625
X364125Y189750
X369750Y189750
X380375Y162250
X200375Y264125
X69750Y162250
X44750Y176625
X40375Y189750
X44750Y198500
X40375Y207250
X44750Y211625
X33500Y214125
X35375Y224750
X26000Y234750
X46000Y265375
X44750Y301000
X27250Y142875
X44750Y121000
T02
X11000Y11000
X11000Y21000
X21000Y21000
X31000Y21000
X31000Y11000
X21000Y11000
X41000Y11000
X51000Y11000
X51000Y21000
X41000Y21000
X61000Y21000
X71000Y21000
X71000Y11000
X61000Y11000
X81000Y11000
X91000Y11000
X91000Y21000
X81000Y21000
X101000Y21000
X101000Y11000
X101000Y66000
X111000Y66000
X111000Y76000
X101000Y76000
X91000Y76000
X81000Y76000
X81000Y66000
X91000Y66000
X71000Y66000
X61000Y66000
X61000Y76000
X71000Y76000
X51000Y76000
X41000Y76000
X41000Y66000
X51000Y66000
X11000Y66000
X11000Y56000
X11000Y96000
X11000Y106000
X11000Y116000
X11000Y126000
X11000Y136000
X21000Y136000
X21000Y126000
X21000Y116000
X21000Y106000
X21000Y96000
X21000Y146000
X21000Y156000
X21000Y166000
X21000Y176000
X21000Y186000
X21000Y196000
X21000Y206000
X11000Y206000
X11000Y196000
X11000Y186000
X11000Y176000
X11000Y166000
X11000Y156000
X11000Y146000
X86000Y166000
X96000Y166000
X106000Y166000
X116000Y166000
X196000Y161000
X206000Y161000
X206000Y151000
X196000Y151000
X196000Y141000
X206000Y141000
X206000Y131000
X196000Y131000
X196000Y121000
X206000Y121000
X206000Y111000
X196000Y111000
X196000Y101000
X206000Y101000
X171000Y76000
X161000Y76000
X161000Y66000
X171000Y66000
X151000Y66000
X141000Y66000
X141000Y76000
X151000Y76000
X131000Y76000
X121000Y76000
X121000Y66000
X131000Y66000
X246000Y66000
X256000Y66000
X266000Y66000
X276000Y66000
X286000Y66000
X296000Y66000
X306000Y66000
X316000Y66000
X336000Y66000
X346000Y66000
X356000Y66000
X366000Y66000
X376000Y66000
X386000Y66000
X386000Y21000
X376000Y21000
X376000Y11000
X386000Y11000
X366000Y11000
X356000Y11000
X356000Y21000
X366000Y21000
X346000Y21000
X336000Y21000
X336000Y11000
X346000Y11000
X326000Y11000
X316000Y11000
X316000Y21000
X326000Y21000
X306000Y21000
X296000Y21000
X296000Y11000
X306000Y11000
X206000Y171000
X196000Y171000
X196000Y181000
X206000Y181000
X206000Y191000
X196000Y191000
X196000Y201000
X206000Y201000
X206000Y211000
X196000Y211000
X196000Y221000
X206000Y221000
X206000Y231000
X196000Y231000
X171000Y251000
X161000Y251000
X161000Y261000
X171000Y261000
X151000Y261000
X141000Y261000
X141000Y251000
X151000Y251000
X131000Y251000
X121000Y251000
X121000Y261000
X131000Y261000
X111000Y261000
X101000Y261000
X101000Y251000
X111000Y251000
X91000Y251000
X81000Y251000
X81000Y261000
X91000Y261000
X71000Y261000
X61000Y261000
X61000Y251000
X71000Y251000
X51000Y251000
X41000Y251000
X41000Y261000
X51000Y261000
X51000Y296000
X41000Y296000
X41000Y306000
X51000Y306000
X61000Y306000
X71000Y306000
X71000Y296000
X61000Y296000
X81000Y296000
X91000Y296000
X91000Y306000
X81000Y306000
X101000Y306000
X101000Y296000
X31000Y296000
X21000Y296000
X21000Y306000
X31000Y306000
X11000Y306000
X11000Y296000
X11000Y226000
X11000Y216000
X21000Y216000
X21000Y226000
X211000Y256000
X221000Y256000
X231000Y256000
X241000Y256000
X251000Y256000
X261000Y256000
X271000Y256000
X281000Y256000
X291000Y256000
X301000Y256000
X316000Y256000
X326000Y256000
X336000Y256000
X346000Y256000
X356000Y256000
X366000Y256000
X376000Y256000
X386000Y256000
X386000Y296000
X376000Y296000
X376000Y306000
X386000Y306000
X366000Y306000
X356000Y306000
X356000Y296000
X366000Y296000
X346000Y296000
X336000Y296000
X336000Y306000
X346000Y306000
X326000Y306000
X316000Y306000
X316000Y296000
X326000Y296000
X306000Y296000
X296000Y296000
X296000Y306000
X306000Y306000
M30
