G75*
%MOIN*%
%OFA0B0*%
%FSLAX25Y25*%
%IPPOS*%
%LPD*%
%AMOC8*
5,1,8,0,0,1.08239X$1,22.5*
%
%ADD10C,0.00000*%
%ADD11C,0.00400*%
%ADD12C,0.02000*%
%ADD13C,0.02500*%
%ADD14C,0.01000*%
%ADD15C,0.00600*%
%ADD16C,0.00500*%
D10*
X0001000Y0008071D02*
X0001000Y0308917D01*
X0001002Y0309087D01*
X0001008Y0309257D01*
X0001019Y0309427D01*
X0001033Y0309597D01*
X0001051Y0309766D01*
X0001074Y0309935D01*
X0001101Y0310103D01*
X0001131Y0310270D01*
X0001166Y0310437D01*
X0001205Y0310603D01*
X0001247Y0310767D01*
X0001294Y0310931D01*
X0001345Y0311093D01*
X0001399Y0311255D01*
X0001458Y0311414D01*
X0001520Y0311573D01*
X0001586Y0311730D01*
X0001656Y0311885D01*
X0001729Y0312038D01*
X0001807Y0312190D01*
X0001888Y0312340D01*
X0001972Y0312488D01*
X0002060Y0312633D01*
X0002152Y0312777D01*
X0002247Y0312918D01*
X0002345Y0313057D01*
X0002447Y0313193D01*
X0002552Y0313327D01*
X0002660Y0313459D01*
X0002771Y0313587D01*
X0002886Y0313713D01*
X0003003Y0313837D01*
X0003123Y0313957D01*
X0003247Y0314074D01*
X0003373Y0314189D01*
X0003501Y0314300D01*
X0003633Y0314408D01*
X0003767Y0314513D01*
X0003903Y0314615D01*
X0004042Y0314713D01*
X0004183Y0314808D01*
X0004327Y0314900D01*
X0004472Y0314988D01*
X0004620Y0315072D01*
X0004770Y0315153D01*
X0004922Y0315231D01*
X0005075Y0315304D01*
X0005230Y0315374D01*
X0005387Y0315440D01*
X0005546Y0315502D01*
X0005705Y0315561D01*
X0005867Y0315615D01*
X0006029Y0315666D01*
X0006193Y0315713D01*
X0006357Y0315755D01*
X0006523Y0315794D01*
X0006690Y0315829D01*
X0006857Y0315859D01*
X0007025Y0315886D01*
X0007194Y0315909D01*
X0007363Y0315927D01*
X0007533Y0315941D01*
X0007703Y0315952D01*
X0007873Y0315958D01*
X0008043Y0315960D01*
X0008043Y0315961D02*
X0388512Y0315961D01*
X0388666Y0315959D01*
X0388820Y0315953D01*
X0388975Y0315944D01*
X0389128Y0315930D01*
X0389282Y0315913D01*
X0389434Y0315892D01*
X0389587Y0315867D01*
X0389738Y0315838D01*
X0389889Y0315806D01*
X0390039Y0315770D01*
X0390188Y0315730D01*
X0390336Y0315686D01*
X0390483Y0315639D01*
X0390629Y0315588D01*
X0390773Y0315533D01*
X0390916Y0315475D01*
X0391057Y0315413D01*
X0391197Y0315348D01*
X0391335Y0315279D01*
X0391472Y0315207D01*
X0391607Y0315132D01*
X0391739Y0315053D01*
X0391870Y0314971D01*
X0391998Y0314886D01*
X0392125Y0314797D01*
X0392249Y0314705D01*
X0392371Y0314611D01*
X0392490Y0314513D01*
X0392607Y0314412D01*
X0392722Y0314309D01*
X0392833Y0314202D01*
X0392942Y0314093D01*
X0393049Y0313982D01*
X0393152Y0313867D01*
X0393253Y0313750D01*
X0393351Y0313631D01*
X0393445Y0313509D01*
X0393537Y0313385D01*
X0393626Y0313258D01*
X0393711Y0313130D01*
X0393793Y0312999D01*
X0393872Y0312867D01*
X0393947Y0312732D01*
X0394019Y0312595D01*
X0394088Y0312457D01*
X0394153Y0312317D01*
X0394215Y0312176D01*
X0394273Y0312033D01*
X0394328Y0311889D01*
X0394379Y0311743D01*
X0394426Y0311596D01*
X0394470Y0311448D01*
X0394510Y0311299D01*
X0394546Y0311149D01*
X0394578Y0310998D01*
X0394607Y0310847D01*
X0394632Y0310694D01*
X0394653Y0310542D01*
X0394670Y0310388D01*
X0394684Y0310235D01*
X0394693Y0310080D01*
X0394699Y0309926D01*
X0394701Y0309772D01*
X0394701Y0007221D01*
X0394699Y0007066D01*
X0394693Y0006911D01*
X0394684Y0006756D01*
X0394670Y0006602D01*
X0394653Y0006447D01*
X0394632Y0006294D01*
X0394606Y0006141D01*
X0394578Y0005988D01*
X0394545Y0005837D01*
X0394509Y0005686D01*
X0394468Y0005536D01*
X0394425Y0005387D01*
X0394377Y0005240D01*
X0394326Y0005093D01*
X0394271Y0004948D01*
X0394213Y0004805D01*
X0394150Y0004662D01*
X0394085Y0004522D01*
X0394016Y0004383D01*
X0393943Y0004246D01*
X0393868Y0004111D01*
X0393788Y0003977D01*
X0393706Y0003846D01*
X0393620Y0003717D01*
X0393531Y0003590D01*
X0393439Y0003465D01*
X0393344Y0003342D01*
X0393246Y0003222D01*
X0393144Y0003105D01*
X0393040Y0002990D01*
X0392933Y0002877D01*
X0392824Y0002768D01*
X0392711Y0002661D01*
X0392596Y0002557D01*
X0392479Y0002455D01*
X0392359Y0002357D01*
X0392236Y0002262D01*
X0392111Y0002170D01*
X0391984Y0002081D01*
X0391855Y0001995D01*
X0391724Y0001913D01*
X0391591Y0001833D01*
X0391455Y0001758D01*
X0391318Y0001685D01*
X0391179Y0001616D01*
X0391039Y0001551D01*
X0390896Y0001488D01*
X0390753Y0001430D01*
X0390608Y0001375D01*
X0390461Y0001324D01*
X0390314Y0001276D01*
X0390165Y0001233D01*
X0390015Y0001192D01*
X0389864Y0001156D01*
X0389713Y0001123D01*
X0389560Y0001095D01*
X0389407Y0001069D01*
X0389254Y0001048D01*
X0389099Y0001031D01*
X0388945Y0001017D01*
X0388790Y0001008D01*
X0388635Y0001002D01*
X0388480Y0001000D01*
X0008071Y0001000D01*
X0007900Y0001002D01*
X0007729Y0001008D01*
X0007559Y0001019D01*
X0007389Y0001033D01*
X0007219Y0001052D01*
X0007049Y0001074D01*
X0006881Y0001101D01*
X0006712Y0001132D01*
X0006545Y0001167D01*
X0006379Y0001205D01*
X0006213Y0001248D01*
X0006049Y0001295D01*
X0005886Y0001346D01*
X0005724Y0001401D01*
X0005564Y0001460D01*
X0005405Y0001522D01*
X0005247Y0001588D01*
X0005091Y0001658D01*
X0004937Y0001732D01*
X0004785Y0001810D01*
X0004635Y0001891D01*
X0004486Y0001976D01*
X0004340Y0002064D01*
X0004196Y0002156D01*
X0004054Y0002252D01*
X0003915Y0002350D01*
X0003778Y0002453D01*
X0003643Y0002558D01*
X0003511Y0002667D01*
X0003382Y0002778D01*
X0003256Y0002893D01*
X0003132Y0003011D01*
X0003011Y0003132D01*
X0002893Y0003256D01*
X0002778Y0003382D01*
X0002667Y0003511D01*
X0002558Y0003643D01*
X0002453Y0003778D01*
X0002350Y0003915D01*
X0002252Y0004054D01*
X0002156Y0004196D01*
X0002064Y0004340D01*
X0001976Y0004486D01*
X0001891Y0004635D01*
X0001810Y0004785D01*
X0001732Y0004937D01*
X0001658Y0005091D01*
X0001588Y0005247D01*
X0001522Y0005405D01*
X0001460Y0005564D01*
X0001401Y0005724D01*
X0001346Y0005886D01*
X0001295Y0006049D01*
X0001248Y0006213D01*
X0001205Y0006379D01*
X0001167Y0006545D01*
X0001132Y0006712D01*
X0001101Y0006881D01*
X0001074Y0007049D01*
X0001052Y0007219D01*
X0001033Y0007389D01*
X0001019Y0007559D01*
X0001008Y0007729D01*
X0001002Y0007900D01*
X0001000Y0008071D01*
D11*
X0022401Y0054200D02*
X0023602Y0055401D01*
X0023602Y0057803D01*
X0024883Y0057803D02*
X0026084Y0057803D01*
X0025484Y0057803D02*
X0025484Y0054200D01*
X0026084Y0054200D02*
X0024883Y0054200D01*
X0027339Y0054200D02*
X0027339Y0057803D01*
X0029741Y0054200D01*
X0029741Y0057803D01*
X0030368Y0064200D02*
X0030968Y0064801D01*
X0030968Y0067203D01*
X0030368Y0067803D01*
X0028566Y0067803D01*
X0028566Y0064200D01*
X0030368Y0064200D01*
X0027285Y0064200D02*
X0027285Y0067803D01*
X0024883Y0067803D02*
X0027285Y0064200D01*
X0024883Y0064200D02*
X0024883Y0067803D01*
X0023602Y0067203D02*
X0023002Y0067803D01*
X0021801Y0067803D01*
X0021200Y0067203D01*
X0021200Y0064801D01*
X0021801Y0064200D01*
X0023002Y0064200D01*
X0023602Y0064801D01*
X0023602Y0066002D01*
X0022401Y0066002D01*
X0021200Y0057803D02*
X0021200Y0055401D01*
X0022401Y0054200D01*
X0084197Y0136200D02*
X0084197Y0138002D01*
X0084797Y0138602D01*
X0085398Y0138602D01*
X0085998Y0138002D01*
X0085998Y0136200D01*
X0084197Y0136200D02*
X0087800Y0136200D01*
X0087800Y0138002D01*
X0087199Y0138602D01*
X0086599Y0138602D01*
X0085998Y0138002D01*
X0084197Y0139883D02*
X0084197Y0142285D01*
X0084197Y0141084D02*
X0087800Y0141084D01*
X0088401Y0143566D02*
X0088401Y0145968D01*
X0087800Y0147249D02*
X0084197Y0147249D01*
X0084197Y0149051D01*
X0084797Y0149651D01*
X0085998Y0149651D01*
X0086599Y0149051D01*
X0086599Y0147249D01*
X0086599Y0148450D02*
X0087800Y0149651D01*
X0087800Y0150933D02*
X0084197Y0153335D01*
X0084197Y0154616D02*
X0084197Y0156417D01*
X0084797Y0157018D01*
X0087199Y0157018D01*
X0087800Y0156417D01*
X0087800Y0154616D01*
X0084197Y0154616D01*
X0084197Y0150933D02*
X0087800Y0153335D01*
X0094197Y0153335D02*
X0097800Y0150933D01*
X0097800Y0153335D02*
X0094197Y0150933D01*
X0094197Y0149651D02*
X0094197Y0147249D01*
X0094197Y0148450D02*
X0097800Y0148450D01*
X0098401Y0145968D02*
X0098401Y0143566D01*
X0097800Y0141084D02*
X0094197Y0141084D01*
X0094197Y0139883D02*
X0094197Y0142285D01*
X0094797Y0138602D02*
X0095398Y0138602D01*
X0095998Y0138002D01*
X0095998Y0136200D01*
X0094197Y0136200D02*
X0097800Y0136200D01*
X0097800Y0138002D01*
X0097199Y0138602D01*
X0096599Y0138602D01*
X0095998Y0138002D01*
X0094797Y0138602D02*
X0094197Y0138002D01*
X0094197Y0136200D01*
X0104197Y0136200D02*
X0104197Y0138002D01*
X0104797Y0138602D01*
X0105398Y0138602D01*
X0105998Y0138002D01*
X0105998Y0136200D01*
X0104197Y0136200D02*
X0107800Y0136200D01*
X0107800Y0138002D01*
X0107199Y0138602D01*
X0106599Y0138602D01*
X0105998Y0138002D01*
X0104197Y0139883D02*
X0104197Y0142285D01*
X0104197Y0141084D02*
X0107800Y0141084D01*
X0108401Y0143566D02*
X0108401Y0145968D01*
X0107199Y0147249D02*
X0107800Y0147850D01*
X0107800Y0149051D01*
X0107199Y0149651D01*
X0105998Y0149651D01*
X0105998Y0148450D01*
X0104797Y0147249D02*
X0107199Y0147249D01*
X0104797Y0147249D02*
X0104197Y0147850D01*
X0104197Y0149051D01*
X0104797Y0149651D01*
X0104197Y0150933D02*
X0107800Y0153335D01*
X0104197Y0153335D01*
X0104197Y0154616D02*
X0104197Y0156417D01*
X0104797Y0157018D01*
X0107199Y0157018D01*
X0107800Y0156417D01*
X0107800Y0154616D01*
X0104197Y0154616D01*
X0104197Y0150933D02*
X0107800Y0150933D01*
X0114197Y0151533D02*
X0114797Y0150933D01*
X0117199Y0150933D01*
X0117800Y0151533D01*
X0117800Y0152734D01*
X0117199Y0153335D01*
X0117199Y0154616D02*
X0117800Y0155216D01*
X0117800Y0156417D01*
X0117199Y0157018D01*
X0114797Y0157018D02*
X0114197Y0156417D01*
X0114197Y0155216D01*
X0114797Y0154616D01*
X0117199Y0154616D01*
X0114797Y0153335D02*
X0114197Y0152734D01*
X0114197Y0151533D01*
X0114197Y0149651D02*
X0116599Y0149651D01*
X0117800Y0148450D01*
X0116599Y0147249D01*
X0114197Y0147249D01*
X0118401Y0145968D02*
X0118401Y0143566D01*
X0117800Y0141084D02*
X0114197Y0141084D01*
X0114197Y0139883D02*
X0114197Y0142285D01*
X0114797Y0138602D02*
X0115398Y0138602D01*
X0115998Y0138002D01*
X0115998Y0136200D01*
X0114197Y0136200D02*
X0117800Y0136200D01*
X0117800Y0138002D01*
X0117199Y0138602D01*
X0116599Y0138602D01*
X0115998Y0138002D01*
X0114797Y0138602D02*
X0114197Y0138002D01*
X0114197Y0136200D01*
X0097800Y0154616D02*
X0094197Y0154616D01*
X0094197Y0156417D01*
X0094797Y0157018D01*
X0097199Y0157018D01*
X0097800Y0156417D01*
X0097800Y0154616D01*
X0210398Y0266200D02*
X0209197Y0267401D01*
X0210398Y0268602D01*
X0212800Y0268602D01*
X0212800Y0269883D02*
X0209197Y0269883D01*
X0209197Y0271685D01*
X0209797Y0272285D01*
X0212199Y0272285D01*
X0212800Y0271685D01*
X0212800Y0269883D01*
X0210998Y0268602D02*
X0210998Y0266200D01*
X0210398Y0266200D02*
X0212800Y0266200D01*
X0219197Y0267401D02*
X0220398Y0268602D01*
X0222800Y0268602D01*
X0222800Y0269883D02*
X0219197Y0269883D01*
X0219197Y0271685D01*
X0219797Y0272285D01*
X0222199Y0272285D01*
X0222800Y0271685D01*
X0222800Y0269883D01*
X0220998Y0268602D02*
X0220998Y0266200D01*
X0220398Y0266200D02*
X0219197Y0267401D01*
X0220398Y0266200D02*
X0222800Y0266200D01*
X0229197Y0267401D02*
X0230398Y0266200D01*
X0232800Y0266200D01*
X0230998Y0266200D02*
X0230998Y0268602D01*
X0230398Y0268602D02*
X0232800Y0268602D01*
X0232800Y0269883D02*
X0229197Y0269883D01*
X0229197Y0271685D01*
X0229797Y0272285D01*
X0230998Y0272285D01*
X0231599Y0271685D01*
X0231599Y0269883D01*
X0231599Y0271084D02*
X0232800Y0272285D01*
X0232800Y0273566D02*
X0229197Y0273566D01*
X0229197Y0275968D01*
X0229197Y0277249D02*
X0229197Y0279651D01*
X0230998Y0278450D02*
X0230998Y0277249D01*
X0229197Y0277249D02*
X0232800Y0277249D01*
X0232800Y0275968D02*
X0232800Y0273566D01*
X0230998Y0273566D02*
X0230998Y0274767D01*
X0230398Y0268602D02*
X0229197Y0267401D01*
X0239197Y0266801D02*
X0239797Y0266200D01*
X0242199Y0266200D01*
X0242800Y0266801D01*
X0242800Y0268002D01*
X0242199Y0268602D01*
X0240998Y0268602D01*
X0240998Y0267401D01*
X0239797Y0268602D02*
X0239197Y0268002D01*
X0239197Y0266801D01*
X0239197Y0269883D02*
X0242800Y0272285D01*
X0239197Y0272285D01*
X0239197Y0273566D02*
X0239197Y0275368D01*
X0239797Y0275968D01*
X0242199Y0275968D01*
X0242800Y0275368D01*
X0242800Y0273566D01*
X0239197Y0273566D01*
X0239197Y0269883D02*
X0242800Y0269883D01*
X0249197Y0271084D02*
X0252800Y0271084D01*
X0252800Y0269883D02*
X0252800Y0272285D01*
X0252199Y0273566D02*
X0252800Y0274167D01*
X0252800Y0275368D01*
X0252199Y0275968D01*
X0251599Y0275968D01*
X0250998Y0275368D01*
X0250998Y0274767D01*
X0250998Y0275368D02*
X0250398Y0275968D01*
X0249797Y0275968D01*
X0249197Y0275368D01*
X0249197Y0274167D01*
X0249797Y0273566D01*
X0249197Y0271084D02*
X0250398Y0269883D01*
X0249797Y0268602D02*
X0249197Y0268002D01*
X0249197Y0266200D01*
X0252800Y0266200D01*
X0252800Y0268002D01*
X0252199Y0268602D01*
X0249797Y0268602D01*
X0259197Y0268002D02*
X0259197Y0266200D01*
X0262800Y0266200D01*
X0262800Y0268002D01*
X0262199Y0268602D01*
X0259797Y0268602D01*
X0259197Y0268002D01*
X0260398Y0269883D02*
X0259197Y0271084D01*
X0262800Y0271084D01*
X0262800Y0269883D02*
X0262800Y0272285D01*
X0262800Y0273566D02*
X0260398Y0275968D01*
X0259797Y0275968D01*
X0259197Y0275368D01*
X0259197Y0274167D01*
X0259797Y0273566D01*
X0262800Y0273566D02*
X0262800Y0275968D01*
X0269197Y0274767D02*
X0272800Y0274767D01*
X0272800Y0273566D02*
X0272800Y0275968D01*
X0270398Y0273566D02*
X0269197Y0274767D01*
X0269197Y0271084D02*
X0272800Y0271084D01*
X0272800Y0269883D02*
X0272800Y0272285D01*
X0270398Y0269883D02*
X0269197Y0271084D01*
X0269797Y0268602D02*
X0269197Y0268002D01*
X0269197Y0266200D01*
X0272800Y0266200D01*
X0272800Y0268002D01*
X0272199Y0268602D01*
X0269797Y0268602D01*
X0279197Y0268002D02*
X0279197Y0266200D01*
X0282800Y0266200D01*
X0282800Y0268002D01*
X0282199Y0268602D01*
X0279797Y0268602D01*
X0279197Y0268002D01*
X0280398Y0269883D02*
X0279197Y0271084D01*
X0282800Y0271084D01*
X0282800Y0269883D02*
X0282800Y0272285D01*
X0282199Y0273566D02*
X0279797Y0273566D01*
X0279197Y0274167D01*
X0279197Y0275368D01*
X0279797Y0275968D01*
X0282199Y0273566D01*
X0282800Y0274167D01*
X0282800Y0275368D01*
X0282199Y0275968D01*
X0279797Y0275968D01*
X0289197Y0271685D02*
X0289197Y0270484D01*
X0289797Y0269883D01*
X0290398Y0269883D01*
X0290998Y0270484D01*
X0290998Y0272285D01*
X0289797Y0272285D02*
X0289197Y0271685D01*
X0289797Y0272285D02*
X0292199Y0272285D01*
X0292800Y0271685D01*
X0292800Y0270484D01*
X0292199Y0269883D01*
X0292199Y0268602D02*
X0289797Y0268602D01*
X0289197Y0268002D01*
X0289197Y0266200D01*
X0292800Y0266200D01*
X0292800Y0268002D01*
X0292199Y0268602D01*
X0299197Y0268002D02*
X0299197Y0266200D01*
X0302800Y0266200D01*
X0302800Y0268002D01*
X0302199Y0268602D01*
X0299797Y0268602D01*
X0299197Y0268002D01*
X0299797Y0269883D02*
X0300398Y0269883D01*
X0300998Y0270484D01*
X0300998Y0271685D01*
X0301599Y0272285D01*
X0302199Y0272285D01*
X0302800Y0271685D01*
X0302800Y0270484D01*
X0302199Y0269883D01*
X0301599Y0269883D01*
X0300998Y0270484D01*
X0300998Y0271685D02*
X0300398Y0272285D01*
X0299797Y0272285D01*
X0299197Y0271685D01*
X0299197Y0270484D01*
X0299797Y0269883D01*
X0314197Y0269883D02*
X0314197Y0272285D01*
X0314797Y0272285D01*
X0317199Y0269883D01*
X0317800Y0269883D01*
X0317199Y0268602D02*
X0314797Y0268602D01*
X0314197Y0268002D01*
X0314197Y0266200D01*
X0317800Y0266200D01*
X0317800Y0268002D01*
X0317199Y0268602D01*
X0324197Y0268002D02*
X0324197Y0266200D01*
X0327800Y0266200D01*
X0327800Y0268002D01*
X0327199Y0268602D01*
X0324797Y0268602D01*
X0324197Y0268002D01*
X0325998Y0269883D02*
X0325998Y0271685D01*
X0326599Y0272285D01*
X0327199Y0272285D01*
X0327800Y0271685D01*
X0327800Y0270484D01*
X0327199Y0269883D01*
X0325998Y0269883D01*
X0324797Y0271084D01*
X0324197Y0272285D01*
X0334197Y0272285D02*
X0334197Y0269883D01*
X0335998Y0269883D01*
X0335398Y0271084D01*
X0335398Y0271685D01*
X0335998Y0272285D01*
X0337199Y0272285D01*
X0337800Y0271685D01*
X0337800Y0270484D01*
X0337199Y0269883D01*
X0337199Y0268602D02*
X0334797Y0268602D01*
X0334197Y0268002D01*
X0334197Y0266200D01*
X0337800Y0266200D01*
X0337800Y0268002D01*
X0337199Y0268602D01*
X0344197Y0268002D02*
X0344197Y0266200D01*
X0347800Y0266200D01*
X0347800Y0268002D01*
X0347199Y0268602D01*
X0344797Y0268602D01*
X0344197Y0268002D01*
X0345998Y0269883D02*
X0345998Y0272285D01*
X0344197Y0271685D02*
X0345998Y0269883D01*
X0344197Y0271685D02*
X0347800Y0271685D01*
X0354197Y0271685D02*
X0354797Y0272285D01*
X0355398Y0272285D01*
X0355998Y0271685D01*
X0356599Y0272285D01*
X0357199Y0272285D01*
X0357800Y0271685D01*
X0357800Y0270484D01*
X0357199Y0269883D01*
X0357199Y0268602D02*
X0354797Y0268602D01*
X0354197Y0268002D01*
X0354197Y0266200D01*
X0357800Y0266200D01*
X0357800Y0268002D01*
X0357199Y0268602D01*
X0354797Y0269883D02*
X0354197Y0270484D01*
X0354197Y0271685D01*
X0355998Y0271685D02*
X0355998Y0271084D01*
X0364197Y0270484D02*
X0364797Y0269883D01*
X0364197Y0270484D02*
X0364197Y0271685D01*
X0364797Y0272285D01*
X0365398Y0272285D01*
X0367800Y0269883D01*
X0367800Y0272285D01*
X0367199Y0268602D02*
X0364797Y0268602D01*
X0364197Y0268002D01*
X0364197Y0266200D01*
X0367800Y0266200D01*
X0367800Y0268002D01*
X0367199Y0268602D01*
X0374197Y0268602D02*
X0374197Y0266200D01*
X0374197Y0267401D02*
X0377800Y0267401D01*
X0377800Y0269883D02*
X0374197Y0272285D01*
X0374197Y0273566D02*
X0374197Y0275368D01*
X0374797Y0275968D01*
X0377199Y0275968D01*
X0377800Y0275368D01*
X0377800Y0273566D01*
X0374197Y0273566D01*
X0374197Y0269883D02*
X0377800Y0272285D01*
X0377800Y0277249D02*
X0374197Y0279651D01*
X0374197Y0280933D02*
X0374197Y0282734D01*
X0374797Y0283335D01*
X0377199Y0283335D01*
X0377800Y0282734D01*
X0377800Y0280933D01*
X0374197Y0280933D01*
X0375398Y0284616D02*
X0374197Y0285817D01*
X0377800Y0285817D01*
X0377800Y0284616D02*
X0377800Y0287018D01*
X0384197Y0286417D02*
X0384197Y0285216D01*
X0384797Y0284616D01*
X0387199Y0284616D01*
X0384797Y0287018D01*
X0387199Y0287018D01*
X0387800Y0286417D01*
X0387800Y0285216D01*
X0387199Y0284616D01*
X0387199Y0283335D02*
X0384797Y0283335D01*
X0384197Y0282734D01*
X0384197Y0280933D01*
X0387800Y0280933D01*
X0387800Y0282734D01*
X0387199Y0283335D01*
X0384197Y0286417D02*
X0384797Y0287018D01*
X0384197Y0279651D02*
X0387800Y0277249D01*
X0387199Y0275968D02*
X0384797Y0275968D01*
X0384197Y0275368D01*
X0384197Y0273566D01*
X0387800Y0273566D01*
X0387800Y0275368D01*
X0387199Y0275968D01*
X0387800Y0272285D02*
X0384197Y0269883D01*
X0384797Y0268602D02*
X0385998Y0268602D01*
X0386599Y0268002D01*
X0386599Y0266200D01*
X0387800Y0266200D02*
X0384197Y0266200D01*
X0384197Y0268002D01*
X0384797Y0268602D01*
X0386599Y0267401D02*
X0387800Y0268602D01*
X0387800Y0269883D02*
X0384197Y0272285D01*
X0222800Y0275368D02*
X0219197Y0275368D01*
X0220998Y0273566D01*
X0220998Y0275968D01*
X0212800Y0275368D02*
X0212800Y0274167D01*
X0212199Y0273566D01*
X0210998Y0273566D02*
X0210398Y0274767D01*
X0210398Y0275368D01*
X0210998Y0275968D01*
X0212199Y0275968D01*
X0212800Y0275368D01*
X0210998Y0273566D02*
X0209197Y0273566D01*
X0209197Y0275968D01*
X0254197Y0054919D02*
X0254197Y0052517D01*
X0257800Y0052517D01*
X0257800Y0051236D02*
X0257800Y0048834D01*
X0254197Y0048834D01*
X0254197Y0051236D01*
X0255998Y0050035D02*
X0255998Y0048834D01*
X0255998Y0047553D02*
X0256599Y0046952D01*
X0256599Y0045151D01*
X0256599Y0046352D02*
X0257800Y0047553D01*
X0255998Y0047553D02*
X0254797Y0047553D01*
X0254197Y0046952D01*
X0254197Y0045151D01*
X0257800Y0045151D01*
X0257199Y0043869D02*
X0254797Y0043869D01*
X0254197Y0043269D01*
X0254197Y0042068D01*
X0254797Y0041467D01*
X0257199Y0041467D01*
X0257800Y0042068D01*
X0257800Y0043269D01*
X0257199Y0043869D01*
X0257800Y0040213D02*
X0257800Y0039012D01*
X0257800Y0039612D02*
X0254197Y0039612D01*
X0254197Y0039012D02*
X0254197Y0040213D01*
X0264197Y0045151D02*
X0264197Y0046952D01*
X0264797Y0047553D01*
X0265998Y0047553D01*
X0266599Y0046952D01*
X0266599Y0045151D01*
X0266599Y0046352D02*
X0267800Y0047553D01*
X0267199Y0048834D02*
X0267800Y0049434D01*
X0267800Y0050635D01*
X0267199Y0051236D01*
X0266599Y0051236D01*
X0265998Y0050635D01*
X0265998Y0049434D01*
X0265398Y0048834D01*
X0264797Y0048834D01*
X0264197Y0049434D01*
X0264197Y0050635D01*
X0264797Y0051236D01*
X0264197Y0052517D02*
X0264197Y0054919D01*
X0264197Y0053718D02*
X0267800Y0053718D01*
X0274197Y0053117D02*
X0274197Y0054318D01*
X0274797Y0054919D01*
X0275398Y0054919D01*
X0275998Y0054318D01*
X0276599Y0054919D01*
X0277199Y0054919D01*
X0277800Y0054318D01*
X0277800Y0053117D01*
X0277199Y0052517D01*
X0276599Y0051236D02*
X0274197Y0051236D01*
X0274797Y0052517D02*
X0274197Y0053117D01*
X0275998Y0053718D02*
X0275998Y0054318D01*
X0276599Y0051236D02*
X0277800Y0050035D01*
X0276599Y0048834D01*
X0274197Y0048834D01*
X0274797Y0047553D02*
X0275398Y0047553D01*
X0275998Y0046952D01*
X0276599Y0047553D01*
X0277199Y0047553D01*
X0277800Y0046952D01*
X0277800Y0045751D01*
X0277199Y0045151D01*
X0275998Y0046352D02*
X0275998Y0046952D01*
X0274797Y0047553D02*
X0274197Y0046952D01*
X0274197Y0045751D01*
X0274797Y0045151D01*
X0267800Y0045151D02*
X0264197Y0045151D01*
X0255998Y0052517D02*
X0255998Y0053718D01*
X0284197Y0054919D02*
X0286599Y0054919D01*
X0287800Y0053718D01*
X0286599Y0052517D01*
X0284197Y0052517D01*
X0284197Y0051236D02*
X0284197Y0048834D01*
X0285998Y0048834D01*
X0285398Y0050035D01*
X0285398Y0050635D01*
X0285998Y0051236D01*
X0287199Y0051236D01*
X0287800Y0050635D01*
X0287800Y0049434D01*
X0287199Y0048834D01*
X0294197Y0048834D02*
X0297800Y0051236D01*
X0294197Y0051236D01*
X0294197Y0052517D02*
X0294197Y0054318D01*
X0294797Y0054919D01*
X0297199Y0054919D01*
X0297800Y0054318D01*
X0297800Y0052517D01*
X0294197Y0052517D01*
X0294197Y0048834D02*
X0297800Y0048834D01*
X0297199Y0047553D02*
X0295998Y0047553D01*
X0295998Y0046352D01*
X0294797Y0047553D02*
X0294197Y0046952D01*
X0294197Y0045751D01*
X0294797Y0045151D01*
X0297199Y0045151D01*
X0297800Y0045751D01*
X0297800Y0046952D01*
X0297199Y0047553D01*
X0304197Y0046952D02*
X0304197Y0045751D01*
X0304797Y0045151D01*
X0307199Y0045151D01*
X0307800Y0045751D01*
X0307800Y0046952D01*
X0307199Y0047553D01*
X0305998Y0047553D01*
X0305998Y0046352D01*
X0304797Y0047553D02*
X0304197Y0046952D01*
X0304197Y0048834D02*
X0307800Y0051236D01*
X0304197Y0051236D01*
X0304197Y0052517D02*
X0304197Y0054318D01*
X0304797Y0054919D01*
X0307199Y0054919D01*
X0307800Y0054318D01*
X0307800Y0052517D01*
X0304197Y0052517D01*
X0304197Y0048834D02*
X0307800Y0048834D01*
X0314197Y0048780D02*
X0316599Y0048780D01*
X0317800Y0047579D01*
X0316599Y0046378D01*
X0314197Y0046378D01*
X0314197Y0050061D02*
X0314197Y0051262D01*
X0314197Y0050662D02*
X0317800Y0050662D01*
X0317800Y0051262D02*
X0317800Y0050061D01*
X0317800Y0052517D02*
X0314197Y0052517D01*
X0317800Y0054919D01*
X0314197Y0054919D01*
X0334197Y0054318D02*
X0334197Y0053117D01*
X0334797Y0052517D01*
X0337199Y0052517D01*
X0334797Y0054919D01*
X0337199Y0054919D01*
X0337800Y0054318D01*
X0337800Y0053117D01*
X0337199Y0052517D01*
X0337199Y0051236D02*
X0334797Y0051236D01*
X0334197Y0050635D01*
X0334197Y0048834D01*
X0337800Y0048834D01*
X0337800Y0050635D01*
X0337199Y0051236D01*
X0337800Y0047553D02*
X0335398Y0047553D01*
X0334197Y0046352D01*
X0335398Y0045151D01*
X0337800Y0045151D01*
X0335998Y0045151D02*
X0335998Y0047553D01*
X0334197Y0054318D02*
X0334797Y0054919D01*
X0344197Y0053718D02*
X0347800Y0053718D01*
X0347800Y0052517D02*
X0347800Y0054919D01*
X0345398Y0052517D02*
X0344197Y0053718D01*
X0344797Y0051236D02*
X0344197Y0050635D01*
X0344197Y0048834D01*
X0347800Y0048834D01*
X0347800Y0050635D01*
X0347199Y0051236D01*
X0344797Y0051236D01*
X0345398Y0047553D02*
X0347800Y0047553D01*
X0345998Y0047553D02*
X0345998Y0045151D01*
X0345398Y0045151D02*
X0344197Y0046352D01*
X0345398Y0047553D01*
X0345398Y0045151D02*
X0347800Y0045151D01*
X0354197Y0046352D02*
X0355398Y0047553D01*
X0357800Y0047553D01*
X0357800Y0048834D02*
X0357800Y0050635D01*
X0357199Y0051236D01*
X0354797Y0051236D01*
X0354197Y0050635D01*
X0354197Y0048834D01*
X0357800Y0048834D01*
X0355998Y0047553D02*
X0355998Y0045151D01*
X0355398Y0045151D02*
X0357800Y0045151D01*
X0355398Y0045151D02*
X0354197Y0046352D01*
X0354797Y0052517D02*
X0354197Y0053117D01*
X0354197Y0054318D01*
X0354797Y0054919D01*
X0355398Y0054919D01*
X0357800Y0052517D01*
X0357800Y0054919D01*
X0364197Y0054318D02*
X0364197Y0053117D01*
X0364797Y0052517D01*
X0364797Y0051236D02*
X0364197Y0050635D01*
X0364197Y0048834D01*
X0367800Y0048834D01*
X0367800Y0050635D01*
X0367199Y0051236D01*
X0364797Y0051236D01*
X0367199Y0052517D02*
X0367800Y0053117D01*
X0367800Y0054318D01*
X0367199Y0054919D01*
X0366599Y0054919D01*
X0365998Y0054318D01*
X0365998Y0053718D01*
X0365998Y0054318D02*
X0365398Y0054919D01*
X0364797Y0054919D01*
X0364197Y0054318D01*
X0365398Y0047553D02*
X0367800Y0047553D01*
X0365998Y0047553D02*
X0365998Y0045151D01*
X0365398Y0045151D02*
X0364197Y0046352D01*
X0365398Y0047553D01*
X0365398Y0045151D02*
X0367800Y0045151D01*
X0374197Y0046352D02*
X0375398Y0047553D01*
X0377800Y0047553D01*
X0377800Y0048834D02*
X0377800Y0050635D01*
X0377199Y0051236D01*
X0374797Y0051236D01*
X0374197Y0050635D01*
X0374197Y0048834D01*
X0377800Y0048834D01*
X0375998Y0047553D02*
X0375998Y0045151D01*
X0375398Y0045151D02*
X0377800Y0045151D01*
X0375398Y0045151D02*
X0374197Y0046352D01*
X0375998Y0052517D02*
X0375998Y0054919D01*
X0374197Y0054318D02*
X0377800Y0054318D01*
X0375998Y0052517D02*
X0374197Y0054318D01*
X0384197Y0054919D02*
X0384197Y0052517D01*
X0385998Y0052517D01*
X0385398Y0053718D01*
X0385398Y0054318D01*
X0385998Y0054919D01*
X0387199Y0054919D01*
X0387800Y0054318D01*
X0387800Y0053117D01*
X0387199Y0052517D01*
X0387199Y0051236D02*
X0384797Y0051236D01*
X0384197Y0050635D01*
X0384197Y0048834D01*
X0387800Y0048834D01*
X0387800Y0050635D01*
X0387199Y0051236D01*
X0387800Y0047553D02*
X0385398Y0047553D01*
X0384197Y0046352D01*
X0385398Y0045151D01*
X0387800Y0045151D01*
X0385998Y0045151D02*
X0385998Y0047553D01*
D12*
X0386782Y0182000D02*
X0386782Y0194010D01*
X0380777Y0200015D01*
X0374772Y0194010D01*
X0374772Y0182000D01*
X0368366Y0185003D02*
X0365364Y0182000D01*
X0359358Y0182000D01*
X0356356Y0185003D01*
X0356356Y0197013D01*
X0359358Y0200015D01*
X0365364Y0200015D01*
X0368366Y0197013D01*
X0374772Y0191008D02*
X0386782Y0191008D01*
X0350084Y0200015D02*
X0344079Y0200015D01*
X0347081Y0200015D02*
X0347081Y0182000D01*
X0344079Y0182000D02*
X0350084Y0182000D01*
X0331668Y0182000D02*
X0331668Y0200015D01*
X0325663Y0200015D02*
X0337673Y0200015D01*
X0337673Y0212000D02*
X0337673Y0224010D01*
X0331668Y0230015D01*
X0325663Y0224010D01*
X0325663Y0212000D01*
X0319257Y0212000D02*
X0307247Y0212000D01*
X0307247Y0215003D01*
X0319257Y0227013D01*
X0319257Y0230015D01*
X0307247Y0230015D01*
X0300842Y0224010D02*
X0300842Y0212000D01*
X0300842Y0221008D02*
X0288831Y0221008D01*
X0288831Y0224010D02*
X0294837Y0230015D01*
X0300842Y0224010D01*
X0288831Y0224010D02*
X0288831Y0212000D01*
X0282426Y0212000D02*
X0270416Y0212000D01*
X0270416Y0230015D01*
X0264010Y0227013D02*
X0264010Y0221008D01*
X0261008Y0218005D01*
X0252000Y0218005D01*
X0252000Y0212000D02*
X0252000Y0230015D01*
X0261008Y0230015D01*
X0264010Y0227013D01*
X0261008Y0200015D02*
X0252000Y0200015D01*
X0252000Y0182000D01*
X0252000Y0188005D02*
X0261008Y0188005D01*
X0264010Y0191008D01*
X0264010Y0197013D01*
X0261008Y0200015D01*
X0270416Y0197013D02*
X0270416Y0185003D01*
X0273418Y0182000D01*
X0279423Y0182000D01*
X0282426Y0185003D01*
X0282426Y0197013D01*
X0279423Y0200015D01*
X0273418Y0200015D01*
X0270416Y0197013D01*
X0258005Y0188005D02*
X0264010Y0182000D01*
X0288831Y0182000D02*
X0288831Y0200015D01*
X0297839Y0200015D01*
X0300842Y0197013D01*
X0300842Y0194010D01*
X0297839Y0191008D01*
X0288831Y0191008D01*
X0297839Y0191008D02*
X0300842Y0188005D01*
X0300842Y0185003D01*
X0297839Y0182000D01*
X0288831Y0182000D01*
X0307247Y0185003D02*
X0310250Y0182000D01*
X0316255Y0182000D01*
X0319257Y0185003D01*
X0319257Y0197013D01*
X0316255Y0200015D01*
X0310250Y0200015D01*
X0307247Y0197013D01*
X0307247Y0185003D01*
X0325663Y0221008D02*
X0337673Y0221008D01*
D13*
X0336826Y0167470D02*
X0333006Y0163650D01*
X0333006Y0148370D01*
X0336826Y0144550D01*
X0344466Y0144550D01*
X0348286Y0148370D01*
X0348286Y0163650D02*
X0344466Y0167470D01*
X0336826Y0167470D01*
X0324898Y0167470D02*
X0309618Y0167470D01*
X0309618Y0144550D01*
X0324898Y0144550D01*
X0328874Y0132470D02*
X0317414Y0132470D01*
X0317414Y0109550D01*
X0328874Y0109550D01*
X0332694Y0113370D01*
X0332694Y0128650D01*
X0328874Y0132470D01*
X0309306Y0132470D02*
X0294026Y0132470D01*
X0294026Y0109550D01*
X0309306Y0109550D01*
X0301666Y0121010D02*
X0294026Y0121010D01*
X0285918Y0109550D02*
X0285918Y0132470D01*
X0286230Y0144550D02*
X0301510Y0144550D01*
X0293870Y0156010D02*
X0286230Y0156010D01*
X0286230Y0167470D02*
X0286230Y0144550D01*
X0278278Y0144550D02*
X0270638Y0144550D01*
X0274458Y0144550D02*
X0274458Y0167470D01*
X0270638Y0167470D02*
X0278278Y0167470D01*
X0286230Y0167470D02*
X0301510Y0167470D01*
X0309618Y0156010D02*
X0317258Y0156010D01*
X0270638Y0132470D02*
X0285918Y0109550D01*
X0270638Y0109550D02*
X0270638Y0132470D01*
X0262530Y0132470D02*
X0262530Y0113370D01*
X0258710Y0109550D01*
X0251070Y0109550D01*
X0247250Y0113370D01*
X0247250Y0132470D01*
X0247250Y0144550D02*
X0258710Y0144550D01*
X0262530Y0148370D01*
X0262530Y0163650D01*
X0258710Y0167470D01*
X0247250Y0167470D01*
X0247250Y0144550D01*
X0242530Y0184550D02*
X0234890Y0192190D01*
X0238710Y0192190D02*
X0227250Y0192190D01*
X0227250Y0184550D02*
X0227250Y0207470D01*
X0238710Y0207470D01*
X0242530Y0203650D01*
X0242530Y0196010D01*
X0238710Y0192190D01*
X0217250Y0209550D02*
X0217250Y0232470D01*
X0228710Y0232470D01*
X0232530Y0228650D01*
X0232530Y0221010D01*
X0228710Y0217190D01*
X0217250Y0217190D01*
D14*
X0231500Y0090508D02*
X0234503Y0087505D01*
X0237505Y0090508D01*
X0237505Y0081500D01*
X0240708Y0081500D02*
X0240708Y0087505D01*
X0243710Y0090508D01*
X0246713Y0087505D01*
X0246713Y0081500D01*
X0249916Y0081500D02*
X0252918Y0081500D01*
X0251417Y0081500D02*
X0251417Y0090508D01*
X0249916Y0090508D02*
X0252918Y0090508D01*
X0256054Y0090508D02*
X0262059Y0081500D01*
X0262059Y0090508D01*
X0256054Y0090508D02*
X0256054Y0081500D01*
X0246713Y0086004D02*
X0240708Y0086004D01*
X0231500Y0081500D02*
X0231500Y0090508D01*
X0274470Y0090508D02*
X0274470Y0081500D01*
X0280475Y0081500D02*
X0280475Y0090508D01*
X0277473Y0087505D01*
X0274470Y0090508D01*
X0283678Y0089006D02*
X0283678Y0083001D01*
X0285179Y0081500D01*
X0288182Y0081500D01*
X0289683Y0083001D01*
X0289683Y0089006D01*
X0288182Y0090508D01*
X0285179Y0090508D01*
X0283678Y0089006D01*
X0292886Y0090508D02*
X0292886Y0081500D01*
X0297390Y0081500D01*
X0298891Y0083001D01*
X0298891Y0089006D01*
X0297390Y0090508D01*
X0292886Y0090508D01*
X0302094Y0090508D02*
X0302094Y0083001D01*
X0303595Y0081500D01*
X0306597Y0081500D01*
X0308099Y0083001D01*
X0308099Y0090508D01*
X0311301Y0090508D02*
X0311301Y0081500D01*
X0317307Y0081500D01*
X0320509Y0081500D02*
X0326514Y0081500D01*
X0320509Y0081500D02*
X0320509Y0090508D01*
X0326514Y0090508D01*
X0323512Y0086004D02*
X0320509Y0086004D01*
X0338925Y0087505D02*
X0341928Y0081500D01*
X0344930Y0087505D01*
X0357341Y0087505D02*
X0360343Y0090508D01*
X0360343Y0081500D01*
X0357341Y0081500D02*
X0363346Y0081500D01*
X0366549Y0081500D02*
X0366549Y0083001D01*
X0368050Y0083001D01*
X0368050Y0081500D01*
X0366549Y0081500D01*
X0371153Y0083001D02*
X0377158Y0089006D01*
X0377158Y0083001D01*
X0375656Y0081500D01*
X0372654Y0081500D01*
X0371153Y0083001D01*
X0371153Y0089006D01*
X0372654Y0090508D01*
X0375656Y0090508D01*
X0377158Y0089006D01*
D15*
X0378500Y0071000D02*
X0373500Y0071000D01*
X0371000Y0068500D01*
X0371000Y0063500D01*
X0373500Y0061000D01*
X0378500Y0061000D01*
X0381000Y0063500D01*
X0383500Y0061000D01*
X0388500Y0061000D01*
X0391000Y0063500D01*
X0391000Y0068500D01*
X0388500Y0071000D01*
X0383500Y0071000D01*
X0381000Y0068500D01*
X0381000Y0063500D01*
X0381000Y0068500D02*
X0378500Y0071000D01*
X0371000Y0068500D02*
X0368500Y0071000D01*
X0363500Y0071000D01*
X0361000Y0068500D01*
X0361000Y0063500D01*
X0363500Y0061000D01*
X0368500Y0061000D01*
X0371000Y0063500D01*
X0361000Y0063500D02*
X0358500Y0061000D01*
X0353500Y0061000D01*
X0351000Y0063500D01*
X0348500Y0061000D01*
X0343500Y0061000D01*
X0341000Y0063500D01*
X0338500Y0061000D01*
X0333500Y0061000D01*
X0331000Y0063500D01*
X0331000Y0068500D01*
X0333500Y0071000D01*
X0338500Y0071000D01*
X0341000Y0068500D01*
X0343500Y0071000D01*
X0348500Y0071000D01*
X0351000Y0068500D01*
X0351000Y0063500D01*
X0351000Y0068500D02*
X0353500Y0071000D01*
X0358500Y0071000D01*
X0361000Y0068500D01*
X0341000Y0068500D02*
X0341000Y0063500D01*
X0321000Y0063500D02*
X0318500Y0061000D01*
X0313500Y0061000D01*
X0311000Y0063500D01*
X0308500Y0061000D01*
X0303500Y0061000D01*
X0301000Y0063500D01*
X0298500Y0061000D01*
X0293500Y0061000D01*
X0291000Y0063500D01*
X0288500Y0061000D01*
X0283500Y0061000D01*
X0281000Y0063500D01*
X0278500Y0061000D01*
X0273500Y0061000D01*
X0271000Y0063500D01*
X0268500Y0061000D01*
X0263500Y0061000D01*
X0261000Y0063500D01*
X0258500Y0061000D01*
X0253500Y0061000D01*
X0251000Y0063500D01*
X0248500Y0061000D01*
X0243500Y0061000D01*
X0241000Y0063500D01*
X0241000Y0068500D01*
X0243500Y0071000D01*
X0248500Y0071000D01*
X0251000Y0068500D01*
X0253500Y0071000D01*
X0258500Y0071000D01*
X0261000Y0068500D01*
X0261000Y0063500D01*
X0261000Y0068500D02*
X0263500Y0071000D01*
X0268500Y0071000D01*
X0271000Y0068500D01*
X0273500Y0071000D01*
X0278500Y0071000D01*
X0281000Y0068500D01*
X0283500Y0071000D01*
X0288500Y0071000D01*
X0291000Y0068500D01*
X0291000Y0063500D01*
X0291000Y0068500D02*
X0293500Y0071000D01*
X0298500Y0071000D01*
X0301000Y0068500D01*
X0303500Y0071000D01*
X0308500Y0071000D01*
X0311000Y0068500D01*
X0313500Y0071000D01*
X0318500Y0071000D01*
X0321000Y0068500D01*
X0321000Y0063500D01*
X0311000Y0063500D02*
X0311000Y0068500D01*
X0301000Y0068500D02*
X0301000Y0063500D01*
X0281000Y0063500D02*
X0281000Y0068500D01*
X0271000Y0068500D02*
X0271000Y0063500D01*
X0251000Y0063500D02*
X0251000Y0068500D01*
X0211000Y0098500D02*
X0211000Y0103500D01*
X0208500Y0106000D01*
X0193500Y0106000D01*
X0191000Y0108500D01*
X0191000Y0113500D01*
X0193500Y0116000D01*
X0208500Y0116000D01*
X0211000Y0118500D01*
X0211000Y0123500D01*
X0208500Y0126000D01*
X0193500Y0126000D01*
X0191000Y0128500D01*
X0191000Y0133500D01*
X0193500Y0136000D01*
X0208500Y0136000D01*
X0211000Y0138500D01*
X0211000Y0143500D01*
X0208500Y0146000D01*
X0193500Y0146000D01*
X0191000Y0148500D01*
X0191000Y0153500D01*
X0193500Y0156000D01*
X0208500Y0156000D01*
X0211000Y0158500D01*
X0211000Y0163500D01*
X0208500Y0166000D01*
X0193500Y0166000D01*
X0191000Y0168500D01*
X0191000Y0173500D01*
X0193500Y0176000D01*
X0208500Y0176000D01*
X0211000Y0173500D01*
X0211000Y0168500D01*
X0208500Y0166000D01*
X0208500Y0156000D02*
X0211000Y0153500D01*
X0211000Y0148500D01*
X0208500Y0146000D01*
X0208500Y0136000D02*
X0211000Y0133500D01*
X0211000Y0128500D01*
X0208500Y0126000D01*
X0208500Y0116000D02*
X0211000Y0113500D01*
X0211000Y0108500D01*
X0208500Y0106000D01*
X0211000Y0098500D02*
X0208500Y0096000D01*
X0193500Y0096000D01*
X0191000Y0098500D01*
X0191000Y0103500D01*
X0193500Y0106000D01*
X0193500Y0116000D02*
X0191000Y0118500D01*
X0191000Y0123500D01*
X0193500Y0126000D01*
X0193500Y0136000D02*
X0191000Y0138500D01*
X0191000Y0143500D01*
X0193500Y0146000D01*
X0193500Y0156000D02*
X0191000Y0158500D01*
X0191000Y0163500D01*
X0193500Y0166000D01*
X0193500Y0176000D02*
X0191000Y0178500D01*
X0191000Y0183500D01*
X0193500Y0186000D01*
X0208500Y0186000D01*
X0211000Y0183500D01*
X0211000Y0178500D01*
X0208500Y0176000D01*
X0208500Y0186000D02*
X0211000Y0188500D01*
X0211000Y0193500D01*
X0208500Y0196000D01*
X0193500Y0196000D01*
X0191000Y0198500D01*
X0191000Y0203500D01*
X0193500Y0206000D01*
X0208500Y0206000D01*
X0211000Y0203500D01*
X0211000Y0198500D01*
X0208500Y0196000D01*
X0208500Y0206000D02*
X0211000Y0208500D01*
X0211000Y0213500D01*
X0208500Y0216000D01*
X0193500Y0216000D01*
X0191000Y0218500D01*
X0191000Y0223500D01*
X0193500Y0226000D01*
X0191000Y0228500D01*
X0191000Y0233500D01*
X0193500Y0236000D01*
X0208500Y0236000D01*
X0211000Y0233500D01*
X0211000Y0228500D01*
X0208500Y0226000D01*
X0193500Y0226000D01*
X0193500Y0216000D02*
X0191000Y0213500D01*
X0191000Y0208500D01*
X0193500Y0206000D01*
X0193500Y0196000D02*
X0191000Y0193500D01*
X0191000Y0188500D01*
X0193500Y0186000D01*
X0208500Y0216000D02*
X0211000Y0218500D01*
X0211000Y0223500D01*
X0208500Y0226000D01*
X0208500Y0251000D02*
X0206000Y0253500D01*
X0206000Y0258500D01*
X0208500Y0261000D01*
X0213500Y0261000D01*
X0216000Y0258500D01*
X0218500Y0261000D01*
X0223500Y0261000D01*
X0226000Y0258500D01*
X0226000Y0253500D01*
X0223500Y0251000D01*
X0218500Y0251000D01*
X0216000Y0253500D01*
X0213500Y0251000D01*
X0208500Y0251000D01*
X0216000Y0253500D02*
X0216000Y0258500D01*
X0226000Y0258500D02*
X0228500Y0261000D01*
X0233500Y0261000D01*
X0236000Y0258500D01*
X0238500Y0261000D01*
X0243500Y0261000D01*
X0246000Y0258500D01*
X0248500Y0261000D01*
X0253500Y0261000D01*
X0256000Y0258500D01*
X0256000Y0253500D01*
X0253500Y0251000D01*
X0248500Y0251000D01*
X0246000Y0253500D01*
X0243500Y0251000D01*
X0238500Y0251000D01*
X0236000Y0253500D01*
X0233500Y0251000D01*
X0228500Y0251000D01*
X0226000Y0253500D01*
X0236000Y0253500D02*
X0236000Y0258500D01*
X0246000Y0258500D02*
X0246000Y0253500D01*
X0256000Y0253500D02*
X0258500Y0251000D01*
X0263500Y0251000D01*
X0266000Y0253500D01*
X0268500Y0251000D01*
X0273500Y0251000D01*
X0276000Y0253500D01*
X0278500Y0251000D01*
X0283500Y0251000D01*
X0286000Y0253500D01*
X0286000Y0258500D01*
X0283500Y0261000D01*
X0278500Y0261000D01*
X0276000Y0258500D01*
X0276000Y0253500D01*
X0276000Y0258500D02*
X0273500Y0261000D01*
X0268500Y0261000D01*
X0266000Y0258500D01*
X0266000Y0253500D01*
X0266000Y0258500D02*
X0263500Y0261000D01*
X0258500Y0261000D01*
X0256000Y0258500D01*
X0286000Y0258500D02*
X0288500Y0261000D01*
X0293500Y0261000D01*
X0296000Y0258500D01*
X0298500Y0261000D01*
X0303500Y0261000D01*
X0306000Y0258500D01*
X0306000Y0253500D01*
X0303500Y0251000D01*
X0298500Y0251000D01*
X0296000Y0253500D01*
X0293500Y0251000D01*
X0288500Y0251000D01*
X0286000Y0253500D01*
X0296000Y0253500D02*
X0296000Y0258500D01*
X0311000Y0258500D02*
X0311000Y0253500D01*
X0313500Y0251000D01*
X0318500Y0251000D01*
X0321000Y0253500D01*
X0321000Y0258500D01*
X0318500Y0261000D01*
X0313500Y0261000D01*
X0311000Y0258500D01*
X0321000Y0258500D02*
X0323500Y0261000D01*
X0328500Y0261000D01*
X0331000Y0258500D01*
X0333500Y0261000D01*
X0338500Y0261000D01*
X0341000Y0258500D01*
X0343500Y0261000D01*
X0348500Y0261000D01*
X0351000Y0258500D01*
X0353500Y0261000D01*
X0358500Y0261000D01*
X0361000Y0258500D01*
X0363500Y0261000D01*
X0368500Y0261000D01*
X0371000Y0258500D01*
X0373500Y0261000D01*
X0378500Y0261000D01*
X0381000Y0258500D01*
X0383500Y0261000D01*
X0388500Y0261000D01*
X0391000Y0258500D01*
X0391000Y0253500D01*
X0388500Y0251000D01*
X0383500Y0251000D01*
X0381000Y0253500D01*
X0378500Y0251000D01*
X0373500Y0251000D01*
X0371000Y0253500D01*
X0371000Y0258500D01*
X0371000Y0253500D02*
X0368500Y0251000D01*
X0363500Y0251000D01*
X0361000Y0253500D01*
X0358500Y0251000D01*
X0353500Y0251000D01*
X0351000Y0253500D01*
X0348500Y0251000D01*
X0343500Y0251000D01*
X0341000Y0253500D01*
X0341000Y0258500D01*
X0341000Y0253500D02*
X0338500Y0251000D01*
X0333500Y0251000D01*
X0331000Y0253500D01*
X0328500Y0251000D01*
X0323500Y0251000D01*
X0321000Y0253500D01*
X0331000Y0253500D02*
X0331000Y0258500D01*
X0351000Y0258500D02*
X0351000Y0253500D01*
X0361000Y0253500D02*
X0361000Y0258500D01*
X0381000Y0258500D02*
X0381000Y0253500D01*
X0378500Y0291000D02*
X0373500Y0291000D01*
X0371000Y0293500D01*
X0371000Y0308500D01*
X0368500Y0311000D01*
X0363500Y0311000D01*
X0361000Y0308500D01*
X0361000Y0293500D01*
X0358500Y0291000D01*
X0353500Y0291000D01*
X0351000Y0293500D01*
X0351000Y0308500D01*
X0348500Y0311000D01*
X0343500Y0311000D01*
X0341000Y0308500D01*
X0341000Y0293500D01*
X0338500Y0291000D01*
X0333500Y0291000D01*
X0331000Y0293500D01*
X0331000Y0308500D01*
X0328500Y0311000D01*
X0323500Y0311000D01*
X0321000Y0308500D01*
X0321000Y0293500D01*
X0318500Y0291000D01*
X0313500Y0291000D01*
X0311000Y0293500D01*
X0311000Y0308500D01*
X0313500Y0311000D01*
X0318500Y0311000D01*
X0321000Y0308500D01*
X0331000Y0308500D02*
X0333500Y0311000D01*
X0338500Y0311000D01*
X0341000Y0308500D01*
X0351000Y0308500D02*
X0353500Y0311000D01*
X0358500Y0311000D01*
X0361000Y0308500D01*
X0371000Y0308500D02*
X0373500Y0311000D01*
X0378500Y0311000D01*
X0381000Y0308500D01*
X0381000Y0293500D01*
X0378500Y0291000D01*
X0381000Y0293500D02*
X0383500Y0291000D01*
X0388500Y0291000D01*
X0391000Y0293500D01*
X0391000Y0308500D01*
X0388500Y0311000D01*
X0383500Y0311000D01*
X0381000Y0308500D01*
X0371000Y0293500D02*
X0368500Y0291000D01*
X0363500Y0291000D01*
X0361000Y0293500D01*
X0351000Y0293500D02*
X0348500Y0291000D01*
X0343500Y0291000D01*
X0341000Y0293500D01*
X0331000Y0293500D02*
X0328500Y0291000D01*
X0323500Y0291000D01*
X0321000Y0293500D01*
X0311000Y0293500D02*
X0308500Y0291000D01*
X0303500Y0291000D01*
X0301000Y0293500D01*
X0298500Y0291000D01*
X0293500Y0291000D01*
X0291000Y0293500D01*
X0291000Y0308500D01*
X0293500Y0311000D01*
X0298500Y0311000D01*
X0301000Y0308500D01*
X0301000Y0293500D01*
X0301000Y0308500D02*
X0303500Y0311000D01*
X0308500Y0311000D01*
X0311000Y0308500D01*
X0176000Y0263500D02*
X0176000Y0248500D01*
X0173500Y0246000D01*
X0168500Y0246000D01*
X0166000Y0248500D01*
X0166000Y0263500D01*
X0163500Y0266000D01*
X0158500Y0266000D01*
X0156000Y0263500D01*
X0156000Y0248500D01*
X0153500Y0246000D01*
X0148500Y0246000D01*
X0146000Y0248500D01*
X0146000Y0263500D01*
X0143500Y0266000D01*
X0138500Y0266000D01*
X0136000Y0263500D01*
X0136000Y0248500D01*
X0133500Y0246000D01*
X0128500Y0246000D01*
X0126000Y0248500D01*
X0126000Y0263500D01*
X0123500Y0266000D01*
X0118500Y0266000D01*
X0116000Y0263500D01*
X0116000Y0248500D01*
X0113500Y0246000D01*
X0108500Y0246000D01*
X0106000Y0248500D01*
X0106000Y0263500D01*
X0108500Y0266000D01*
X0113500Y0266000D01*
X0116000Y0263500D01*
X0126000Y0263500D02*
X0128500Y0266000D01*
X0133500Y0266000D01*
X0136000Y0263500D01*
X0146000Y0263500D02*
X0148500Y0266000D01*
X0153500Y0266000D01*
X0156000Y0263500D01*
X0166000Y0263500D02*
X0168500Y0266000D01*
X0173500Y0266000D01*
X0176000Y0263500D01*
X0166000Y0248500D02*
X0163500Y0246000D01*
X0158500Y0246000D01*
X0156000Y0248500D01*
X0146000Y0248500D02*
X0143500Y0246000D01*
X0138500Y0246000D01*
X0136000Y0248500D01*
X0126000Y0248500D02*
X0123500Y0246000D01*
X0118500Y0246000D01*
X0116000Y0248500D01*
X0106000Y0248500D02*
X0103500Y0246000D01*
X0098500Y0246000D01*
X0096000Y0248500D01*
X0096000Y0263500D01*
X0098500Y0266000D01*
X0103500Y0266000D01*
X0106000Y0263500D01*
X0096000Y0263500D02*
X0093500Y0266000D01*
X0088500Y0266000D01*
X0086000Y0263500D01*
X0086000Y0248500D01*
X0083500Y0246000D01*
X0078500Y0246000D01*
X0076000Y0248500D01*
X0076000Y0263500D01*
X0078500Y0266000D01*
X0083500Y0266000D01*
X0086000Y0263500D01*
X0076000Y0263500D02*
X0073500Y0266000D01*
X0068500Y0266000D01*
X0066000Y0263500D01*
X0066000Y0248500D01*
X0063500Y0246000D01*
X0058500Y0246000D01*
X0056000Y0248500D01*
X0056000Y0263500D01*
X0058500Y0266000D01*
X0063500Y0266000D01*
X0066000Y0263500D01*
X0056000Y0263500D02*
X0053500Y0266000D01*
X0048500Y0266000D01*
X0046000Y0263500D01*
X0043500Y0266000D01*
X0038500Y0266000D01*
X0036000Y0263500D01*
X0036000Y0248500D01*
X0038500Y0246000D01*
X0043500Y0246000D01*
X0046000Y0248500D01*
X0046000Y0263500D01*
X0046000Y0248500D02*
X0048500Y0246000D01*
X0053500Y0246000D01*
X0056000Y0248500D01*
X0066000Y0248500D02*
X0068500Y0246000D01*
X0073500Y0246000D01*
X0076000Y0248500D01*
X0086000Y0248500D02*
X0088500Y0246000D01*
X0093500Y0246000D01*
X0096000Y0248500D01*
X0093500Y0291000D02*
X0088500Y0291000D01*
X0086000Y0293500D01*
X0086000Y0308500D01*
X0088500Y0311000D01*
X0093500Y0311000D01*
X0096000Y0308500D01*
X0098500Y0311000D01*
X0103500Y0311000D01*
X0106000Y0308500D01*
X0106000Y0293500D01*
X0103500Y0291000D01*
X0098500Y0291000D01*
X0096000Y0293500D01*
X0096000Y0308500D01*
X0086000Y0308500D02*
X0083500Y0311000D01*
X0078500Y0311000D01*
X0076000Y0308500D01*
X0076000Y0293500D01*
X0073500Y0291000D01*
X0068500Y0291000D01*
X0066000Y0293500D01*
X0066000Y0308500D01*
X0068500Y0311000D01*
X0073500Y0311000D01*
X0076000Y0308500D01*
X0066000Y0308500D02*
X0063500Y0311000D01*
X0058500Y0311000D01*
X0056000Y0308500D01*
X0056000Y0293500D01*
X0058500Y0291000D01*
X0063500Y0291000D01*
X0066000Y0293500D01*
X0056000Y0293500D02*
X0053500Y0291000D01*
X0048500Y0291000D01*
X0046000Y0293500D01*
X0046000Y0308500D01*
X0048500Y0311000D01*
X0053500Y0311000D01*
X0056000Y0308500D01*
X0046000Y0308500D02*
X0043500Y0311000D01*
X0038500Y0311000D01*
X0036000Y0308500D01*
X0036000Y0293500D01*
X0038500Y0291000D01*
X0043500Y0291000D01*
X0046000Y0293500D01*
X0036000Y0293500D02*
X0033500Y0291000D01*
X0028500Y0291000D01*
X0026000Y0293500D01*
X0026000Y0308500D01*
X0028500Y0311000D01*
X0033500Y0311000D01*
X0036000Y0308500D01*
X0026000Y0308500D02*
X0023500Y0311000D01*
X0018500Y0311000D01*
X0016000Y0308500D01*
X0016000Y0293500D01*
X0018500Y0291000D01*
X0023500Y0291000D01*
X0026000Y0293500D01*
X0016000Y0293500D02*
X0013500Y0291000D01*
X0008500Y0291000D01*
X0006000Y0293500D01*
X0006000Y0308500D01*
X0008500Y0311000D01*
X0013500Y0311000D01*
X0016000Y0308500D01*
X0076000Y0293500D02*
X0078500Y0291000D01*
X0083500Y0291000D01*
X0086000Y0293500D01*
X0093500Y0291000D02*
X0096000Y0293500D01*
X0026000Y0228500D02*
X0023500Y0231000D01*
X0008500Y0231000D01*
X0006000Y0228500D01*
X0006000Y0223500D01*
X0008500Y0221000D01*
X0023500Y0221000D01*
X0026000Y0218500D01*
X0026000Y0213500D01*
X0023500Y0211000D01*
X0008500Y0211000D01*
X0006000Y0208500D01*
X0006000Y0203500D01*
X0008500Y0201000D01*
X0023500Y0201000D01*
X0026000Y0198500D01*
X0026000Y0193500D01*
X0023500Y0191000D01*
X0008500Y0191000D01*
X0006000Y0188500D01*
X0006000Y0183500D01*
X0008500Y0181000D01*
X0023500Y0181000D01*
X0026000Y0178500D01*
X0026000Y0173500D01*
X0023500Y0171000D01*
X0008500Y0171000D01*
X0006000Y0168500D01*
X0006000Y0163500D01*
X0008500Y0161000D01*
X0023500Y0161000D01*
X0026000Y0158500D01*
X0026000Y0153500D01*
X0023500Y0151000D01*
X0008500Y0151000D01*
X0006000Y0153500D01*
X0006000Y0158500D01*
X0008500Y0161000D01*
X0008500Y0151000D02*
X0006000Y0148500D01*
X0006000Y0143500D01*
X0008500Y0141000D01*
X0023500Y0141000D01*
X0026000Y0138500D01*
X0026000Y0133500D01*
X0023500Y0131000D01*
X0008500Y0131000D01*
X0006000Y0133500D01*
X0006000Y0138500D01*
X0008500Y0141000D01*
X0008500Y0131000D02*
X0006000Y0128500D01*
X0006000Y0123500D01*
X0008500Y0121000D01*
X0023500Y0121000D01*
X0026000Y0118500D01*
X0026000Y0113500D01*
X0023500Y0111000D01*
X0008500Y0111000D01*
X0006000Y0113500D01*
X0006000Y0118500D01*
X0008500Y0121000D01*
X0008500Y0111000D02*
X0006000Y0108500D01*
X0006000Y0103500D01*
X0008500Y0101000D01*
X0006000Y0098500D01*
X0006000Y0093500D01*
X0008500Y0091000D01*
X0023500Y0091000D01*
X0026000Y0093500D01*
X0026000Y0098500D01*
X0023500Y0101000D01*
X0008500Y0101000D01*
X0023500Y0101000D02*
X0026000Y0103500D01*
X0026000Y0108500D01*
X0023500Y0111000D01*
X0023500Y0121000D02*
X0026000Y0123500D01*
X0026000Y0128500D01*
X0023500Y0131000D01*
X0023500Y0141000D02*
X0026000Y0143500D01*
X0026000Y0148500D01*
X0023500Y0151000D01*
X0023500Y0161000D02*
X0026000Y0163500D01*
X0026000Y0168500D01*
X0023500Y0171000D01*
X0008500Y0171000D02*
X0006000Y0173500D01*
X0006000Y0178500D01*
X0008500Y0181000D01*
X0008500Y0191000D02*
X0006000Y0193500D01*
X0006000Y0198500D01*
X0008500Y0201000D01*
X0008500Y0211000D02*
X0006000Y0213500D01*
X0006000Y0218500D01*
X0008500Y0221000D01*
X0023500Y0221000D02*
X0026000Y0223500D01*
X0026000Y0228500D01*
X0023500Y0211000D02*
X0026000Y0208500D01*
X0026000Y0203500D01*
X0023500Y0201000D01*
X0023500Y0191000D02*
X0026000Y0188500D01*
X0026000Y0183500D01*
X0023500Y0181000D01*
X0081000Y0168500D02*
X0081000Y0163500D01*
X0083500Y0161000D01*
X0088500Y0161000D01*
X0091000Y0163500D01*
X0091000Y0168500D01*
X0088500Y0171000D01*
X0083500Y0171000D01*
X0081000Y0168500D01*
X0091000Y0168500D02*
X0093500Y0171000D01*
X0098500Y0171000D01*
X0101000Y0168500D01*
X0103500Y0171000D01*
X0108500Y0171000D01*
X0111000Y0168500D01*
X0113500Y0171000D01*
X0118500Y0171000D01*
X0121000Y0168500D01*
X0121000Y0163500D01*
X0118500Y0161000D01*
X0113500Y0161000D01*
X0111000Y0163500D01*
X0108500Y0161000D01*
X0103500Y0161000D01*
X0101000Y0163500D01*
X0101000Y0168500D01*
X0101000Y0163500D02*
X0098500Y0161000D01*
X0093500Y0161000D01*
X0091000Y0163500D01*
X0111000Y0163500D02*
X0111000Y0168500D01*
X0108500Y0081000D02*
X0113500Y0081000D01*
X0116000Y0078500D01*
X0116000Y0063500D01*
X0113500Y0061000D01*
X0108500Y0061000D01*
X0106000Y0063500D01*
X0106000Y0078500D01*
X0108500Y0081000D01*
X0106000Y0078500D02*
X0103500Y0081000D01*
X0098500Y0081000D01*
X0096000Y0078500D01*
X0096000Y0063500D01*
X0098500Y0061000D01*
X0103500Y0061000D01*
X0106000Y0063500D01*
X0096000Y0063500D02*
X0093500Y0061000D01*
X0088500Y0061000D01*
X0086000Y0063500D01*
X0086000Y0078500D01*
X0088500Y0081000D01*
X0093500Y0081000D01*
X0096000Y0078500D01*
X0086000Y0078500D02*
X0083500Y0081000D01*
X0078500Y0081000D01*
X0076000Y0078500D01*
X0076000Y0063500D01*
X0078500Y0061000D01*
X0083500Y0061000D01*
X0086000Y0063500D01*
X0076000Y0063500D02*
X0073500Y0061000D01*
X0068500Y0061000D01*
X0066000Y0063500D01*
X0066000Y0078500D01*
X0068500Y0081000D01*
X0073500Y0081000D01*
X0076000Y0078500D01*
X0066000Y0078500D02*
X0063500Y0081000D01*
X0058500Y0081000D01*
X0056000Y0078500D01*
X0056000Y0063500D01*
X0058500Y0061000D01*
X0063500Y0061000D01*
X0066000Y0063500D01*
X0056000Y0063500D02*
X0053500Y0061000D01*
X0048500Y0061000D01*
X0046000Y0063500D01*
X0046000Y0078500D01*
X0048500Y0081000D01*
X0053500Y0081000D01*
X0056000Y0078500D01*
X0046000Y0078500D02*
X0043500Y0081000D01*
X0038500Y0081000D01*
X0036000Y0078500D01*
X0036000Y0063500D01*
X0038500Y0061000D01*
X0043500Y0061000D01*
X0046000Y0063500D01*
X0016000Y0063500D02*
X0013500Y0061000D01*
X0016000Y0058500D01*
X0016000Y0053500D01*
X0013500Y0051000D01*
X0008500Y0051000D01*
X0006000Y0053500D01*
X0006000Y0058500D01*
X0008500Y0061000D01*
X0006000Y0063500D01*
X0006000Y0068500D01*
X0008500Y0071000D01*
X0013500Y0071000D01*
X0016000Y0068500D01*
X0016000Y0063500D01*
X0013500Y0061000D02*
X0008500Y0061000D01*
X0008500Y0026000D02*
X0013500Y0026000D01*
X0016000Y0023500D01*
X0016000Y0008500D01*
X0018500Y0006000D01*
X0023500Y0006000D01*
X0026000Y0008500D01*
X0026000Y0023500D01*
X0028500Y0026000D01*
X0033500Y0026000D01*
X0036000Y0023500D01*
X0036000Y0008500D01*
X0038500Y0006000D01*
X0043500Y0006000D01*
X0046000Y0008500D01*
X0046000Y0023500D01*
X0048500Y0026000D01*
X0053500Y0026000D01*
X0056000Y0023500D01*
X0056000Y0008500D01*
X0058500Y0006000D01*
X0063500Y0006000D01*
X0066000Y0008500D01*
X0066000Y0023500D01*
X0068500Y0026000D01*
X0073500Y0026000D01*
X0076000Y0023500D01*
X0076000Y0008500D01*
X0073500Y0006000D01*
X0068500Y0006000D01*
X0066000Y0008500D01*
X0056000Y0008500D02*
X0053500Y0006000D01*
X0048500Y0006000D01*
X0046000Y0008500D01*
X0036000Y0008500D02*
X0033500Y0006000D01*
X0028500Y0006000D01*
X0026000Y0008500D01*
X0016000Y0008500D02*
X0013500Y0006000D01*
X0008500Y0006000D01*
X0006000Y0008500D01*
X0006000Y0023500D01*
X0008500Y0026000D01*
X0016000Y0023500D02*
X0018500Y0026000D01*
X0023500Y0026000D01*
X0026000Y0023500D01*
X0036000Y0023500D02*
X0038500Y0026000D01*
X0043500Y0026000D01*
X0046000Y0023500D01*
X0056000Y0023500D02*
X0058500Y0026000D01*
X0063500Y0026000D01*
X0066000Y0023500D01*
X0076000Y0023500D02*
X0078500Y0026000D01*
X0083500Y0026000D01*
X0086000Y0023500D01*
X0086000Y0008500D01*
X0083500Y0006000D01*
X0078500Y0006000D01*
X0076000Y0008500D01*
X0086000Y0008500D02*
X0088500Y0006000D01*
X0093500Y0006000D01*
X0096000Y0008500D01*
X0098500Y0006000D01*
X0103500Y0006000D01*
X0106000Y0008500D01*
X0106000Y0023500D01*
X0103500Y0026000D01*
X0098500Y0026000D01*
X0096000Y0023500D01*
X0096000Y0008500D01*
X0096000Y0023500D02*
X0093500Y0026000D01*
X0088500Y0026000D01*
X0086000Y0023500D01*
X0118500Y0061000D02*
X0116000Y0063500D01*
X0118500Y0061000D02*
X0123500Y0061000D01*
X0126000Y0063500D01*
X0126000Y0078500D01*
X0128500Y0081000D01*
X0133500Y0081000D01*
X0136000Y0078500D01*
X0136000Y0063500D01*
X0133500Y0061000D01*
X0128500Y0061000D01*
X0126000Y0063500D01*
X0136000Y0063500D02*
X0138500Y0061000D01*
X0143500Y0061000D01*
X0146000Y0063500D01*
X0146000Y0078500D01*
X0148500Y0081000D01*
X0153500Y0081000D01*
X0156000Y0078500D01*
X0156000Y0063500D01*
X0153500Y0061000D01*
X0148500Y0061000D01*
X0146000Y0063500D01*
X0156000Y0063500D02*
X0158500Y0061000D01*
X0163500Y0061000D01*
X0166000Y0063500D01*
X0168500Y0061000D01*
X0173500Y0061000D01*
X0176000Y0063500D01*
X0176000Y0078500D01*
X0173500Y0081000D01*
X0168500Y0081000D01*
X0166000Y0078500D01*
X0166000Y0063500D01*
X0166000Y0078500D02*
X0163500Y0081000D01*
X0158500Y0081000D01*
X0156000Y0078500D01*
X0146000Y0078500D02*
X0143500Y0081000D01*
X0138500Y0081000D01*
X0136000Y0078500D01*
X0126000Y0078500D02*
X0123500Y0081000D01*
X0118500Y0081000D01*
X0116000Y0078500D01*
X0291000Y0023500D02*
X0291000Y0008500D01*
X0293500Y0006000D01*
X0298500Y0006000D01*
X0301000Y0008500D01*
X0301000Y0023500D01*
X0303500Y0026000D01*
X0308500Y0026000D01*
X0311000Y0023500D01*
X0311000Y0008500D01*
X0313500Y0006000D01*
X0318500Y0006000D01*
X0321000Y0008500D01*
X0321000Y0023500D01*
X0323500Y0026000D01*
X0328500Y0026000D01*
X0331000Y0023500D01*
X0331000Y0008500D01*
X0333500Y0006000D01*
X0338500Y0006000D01*
X0341000Y0008500D01*
X0341000Y0023500D01*
X0343500Y0026000D01*
X0348500Y0026000D01*
X0351000Y0023500D01*
X0351000Y0008500D01*
X0353500Y0006000D01*
X0358500Y0006000D01*
X0361000Y0008500D01*
X0361000Y0023500D01*
X0363500Y0026000D01*
X0368500Y0026000D01*
X0371000Y0023500D01*
X0371000Y0008500D01*
X0368500Y0006000D01*
X0363500Y0006000D01*
X0361000Y0008500D01*
X0371000Y0008500D02*
X0373500Y0006000D01*
X0378500Y0006000D01*
X0381000Y0008500D01*
X0383500Y0006000D01*
X0388500Y0006000D01*
X0391000Y0008500D01*
X0391000Y0023500D01*
X0388500Y0026000D01*
X0383500Y0026000D01*
X0381000Y0023500D01*
X0381000Y0008500D01*
X0381000Y0023500D02*
X0378500Y0026000D01*
X0373500Y0026000D01*
X0371000Y0023500D01*
X0361000Y0023500D02*
X0358500Y0026000D01*
X0353500Y0026000D01*
X0351000Y0023500D01*
X0341000Y0023500D02*
X0338500Y0026000D01*
X0333500Y0026000D01*
X0331000Y0023500D01*
X0321000Y0023500D02*
X0318500Y0026000D01*
X0313500Y0026000D01*
X0311000Y0023500D01*
X0301000Y0023500D02*
X0298500Y0026000D01*
X0293500Y0026000D01*
X0291000Y0023500D01*
X0301000Y0008500D02*
X0303500Y0006000D01*
X0308500Y0006000D01*
X0311000Y0008500D01*
X0321000Y0008500D02*
X0323500Y0006000D01*
X0328500Y0006000D01*
X0331000Y0008500D01*
X0341000Y0008500D02*
X0343500Y0006000D01*
X0348500Y0006000D01*
X0351000Y0008500D01*
D16*
X0287668Y0008750D02*
X0284666Y0008750D01*
X0287668Y0011753D01*
X0287668Y0012503D01*
X0286918Y0013254D01*
X0285416Y0013254D01*
X0284666Y0012503D01*
X0283064Y0013254D02*
X0283064Y0008750D01*
X0280062Y0008750D02*
X0280062Y0013254D01*
X0281563Y0011753D01*
X0283064Y0013254D01*
X0278460Y0013254D02*
X0276959Y0011753D01*
X0275458Y0013254D01*
X0275458Y0008750D01*
X0273856Y0007999D02*
X0270854Y0007999D01*
X0268502Y0010251D02*
X0266250Y0010251D01*
X0266250Y0008750D02*
X0266250Y0013254D01*
X0268502Y0013254D01*
X0269253Y0012503D01*
X0269253Y0011002D01*
X0268502Y0010251D01*
X0278460Y0008750D02*
X0278460Y0013254D01*
X0132668Y0008750D02*
X0129666Y0008750D01*
X0131167Y0008750D02*
X0131167Y0013254D01*
X0129666Y0011753D01*
X0128064Y0013254D02*
X0128064Y0008750D01*
X0125062Y0008750D02*
X0125062Y0013254D01*
X0126563Y0011753D01*
X0128064Y0013254D01*
X0123460Y0013254D02*
X0123460Y0008750D01*
X0120458Y0008750D02*
X0120458Y0013254D01*
X0121959Y0011753D01*
X0123460Y0013254D01*
X0118856Y0007999D02*
X0115854Y0007999D01*
X0113502Y0010251D02*
X0111250Y0010251D01*
X0111250Y0008750D02*
X0111250Y0013254D01*
X0113502Y0013254D01*
X0114253Y0012503D01*
X0114253Y0011002D01*
X0113502Y0010251D01*
X0113856Y0083750D02*
X0110854Y0083750D01*
X0112355Y0083750D02*
X0112355Y0088254D01*
X0110854Y0086753D01*
X0109253Y0087503D02*
X0109253Y0086002D01*
X0108502Y0085251D01*
X0106250Y0085251D01*
X0106250Y0083750D02*
X0106250Y0088254D01*
X0108502Y0088254D01*
X0109253Y0087503D01*
X0018160Y0073450D02*
X0015158Y0073450D01*
X0016659Y0073450D02*
X0016659Y0077954D01*
X0015158Y0076453D01*
X0013556Y0077203D02*
X0013556Y0075702D01*
X0012806Y0074951D01*
X0010554Y0074951D01*
X0010554Y0073450D02*
X0010554Y0077954D01*
X0012806Y0077954D01*
X0013556Y0077203D01*
X0008953Y0077954D02*
X0007451Y0077954D01*
X0008202Y0077954D02*
X0008202Y0074201D01*
X0007451Y0073450D01*
X0006701Y0073450D01*
X0005950Y0074201D01*
X0031250Y0158750D02*
X0031250Y0163254D01*
X0033502Y0163254D01*
X0034253Y0162503D01*
X0034253Y0161002D01*
X0033502Y0160251D01*
X0031250Y0160251D01*
X0035854Y0161002D02*
X0038856Y0161002D01*
X0038106Y0158750D02*
X0038106Y0163254D01*
X0035854Y0161002D01*
X0090950Y0183450D02*
X0093202Y0183450D01*
X0093953Y0184201D01*
X0093953Y0184951D01*
X0093202Y0185702D01*
X0090950Y0185702D01*
X0090950Y0183450D02*
X0090950Y0187954D01*
X0093202Y0187954D01*
X0093953Y0187203D01*
X0093953Y0186453D01*
X0093202Y0185702D01*
X0095554Y0187954D02*
X0098556Y0187954D01*
X0097055Y0187954D02*
X0097055Y0183450D01*
X0100158Y0182699D02*
X0103160Y0182699D01*
X0104762Y0184201D02*
X0105512Y0183450D01*
X0107014Y0183450D01*
X0107764Y0184201D01*
X0109366Y0184201D02*
X0110116Y0183450D01*
X0111618Y0183450D01*
X0112368Y0184201D01*
X0112368Y0187203D01*
X0111618Y0187954D01*
X0110116Y0187954D01*
X0109366Y0187203D01*
X0109366Y0184201D01*
X0107764Y0187203D02*
X0107014Y0187954D01*
X0105512Y0187954D01*
X0104762Y0187203D01*
X0104762Y0184201D01*
X0113970Y0183450D02*
X0113970Y0187954D01*
X0115471Y0186453D01*
X0116972Y0187954D01*
X0116972Y0183450D01*
X0216250Y0168254D02*
X0216250Y0163750D01*
X0216250Y0165251D02*
X0218502Y0165251D01*
X0219253Y0166002D01*
X0219253Y0167503D01*
X0218502Y0168254D01*
X0216250Y0168254D01*
X0220854Y0167503D02*
X0221605Y0168254D01*
X0223106Y0168254D01*
X0223856Y0167503D01*
X0223856Y0166753D01*
X0220854Y0163750D01*
X0223856Y0163750D01*
X0108856Y0274501D02*
X0108106Y0273750D01*
X0106605Y0273750D01*
X0105854Y0274501D01*
X0107355Y0276002D02*
X0108106Y0276002D01*
X0108856Y0275251D01*
X0108856Y0274501D01*
X0108106Y0276002D02*
X0108856Y0276753D01*
X0108856Y0277503D01*
X0108106Y0278254D01*
X0106605Y0278254D01*
X0105854Y0277503D01*
X0104253Y0277503D02*
X0104253Y0276002D01*
X0103502Y0275251D01*
X0101250Y0275251D01*
X0101250Y0273750D02*
X0101250Y0278254D01*
X0103502Y0278254D01*
X0104253Y0277503D01*
X0111250Y0303750D02*
X0111250Y0308254D01*
X0113502Y0308254D01*
X0114253Y0307503D01*
X0114253Y0306002D01*
X0113502Y0305251D01*
X0111250Y0305251D01*
X0115854Y0302999D02*
X0118856Y0302999D01*
X0120458Y0303750D02*
X0120458Y0308254D01*
X0121959Y0306753D01*
X0123460Y0308254D01*
X0123460Y0303750D01*
X0125062Y0303750D02*
X0125062Y0308254D01*
X0126563Y0306753D01*
X0128064Y0308254D01*
X0128064Y0303750D01*
X0129666Y0306002D02*
X0132668Y0306002D01*
X0131918Y0303750D02*
X0131918Y0308254D01*
X0129666Y0306002D01*
X0266250Y0305251D02*
X0268502Y0305251D01*
X0269253Y0306002D01*
X0269253Y0307503D01*
X0268502Y0308254D01*
X0266250Y0308254D01*
X0266250Y0303750D01*
X0270854Y0302999D02*
X0273856Y0302999D01*
X0275458Y0303750D02*
X0275458Y0308254D01*
X0276959Y0306753D01*
X0278460Y0308254D01*
X0278460Y0303750D01*
X0280062Y0303750D02*
X0280062Y0308254D01*
X0281563Y0306753D01*
X0283064Y0308254D01*
X0283064Y0303750D01*
X0284666Y0304501D02*
X0285416Y0303750D01*
X0286918Y0303750D01*
X0287668Y0304501D01*
X0287668Y0305251D01*
X0286918Y0306002D01*
X0286167Y0306002D01*
X0286918Y0306002D02*
X0287668Y0306753D01*
X0287668Y0307503D01*
X0286918Y0308254D01*
X0285416Y0308254D01*
X0284666Y0307503D01*
M02*
