G75*
%MOIN*%
%OFA0B0*%
%FSLAX25Y25*%
%IPPOS*%
%LPD*%
%AMOC8*
5,1,8,0,0,1.08239X$1,22.5*
%
%ADD10C,0.06400*%
%ADD11OC8,0.06400*%
%ADD12C,0.02400*%
%ADD13C,0.04000*%
D10*
X0007800Y0056000D02*
X0014200Y0056000D01*
X0014200Y0066000D02*
X0007800Y0066000D01*
X0086000Y0162800D02*
X0086000Y0169200D01*
X0096000Y0169200D02*
X0096000Y0162800D01*
X0106000Y0162800D02*
X0106000Y0169200D01*
X0116000Y0169200D02*
X0116000Y0162800D01*
X0211000Y0252800D02*
X0211000Y0259200D01*
X0221000Y0259200D02*
X0221000Y0252800D01*
X0231000Y0252800D02*
X0231000Y0259200D01*
X0241000Y0259200D02*
X0241000Y0252800D01*
X0251000Y0252800D02*
X0251000Y0259200D01*
X0261000Y0259200D02*
X0261000Y0252800D01*
X0271000Y0252800D02*
X0271000Y0259200D01*
X0281000Y0259200D02*
X0281000Y0252800D01*
X0291000Y0252800D02*
X0291000Y0259200D01*
X0301000Y0259200D02*
X0301000Y0252800D01*
X0316000Y0252800D02*
X0316000Y0259200D01*
X0326000Y0259200D02*
X0326000Y0252800D01*
X0336000Y0252800D02*
X0336000Y0259200D01*
X0346000Y0259200D02*
X0346000Y0252800D01*
X0356000Y0252800D02*
X0356000Y0259200D01*
X0366000Y0259200D02*
X0366000Y0252800D01*
X0376000Y0252800D02*
X0376000Y0259200D01*
X0386000Y0259200D02*
X0386000Y0252800D01*
X0386000Y0069200D02*
X0386000Y0062800D01*
X0376000Y0062800D02*
X0376000Y0069200D01*
X0366000Y0069200D02*
X0366000Y0062800D01*
X0356000Y0062800D02*
X0356000Y0069200D01*
X0346000Y0069200D02*
X0346000Y0062800D01*
X0336000Y0062800D02*
X0336000Y0069200D01*
X0316000Y0069200D02*
X0316000Y0062800D01*
X0306000Y0062800D02*
X0306000Y0069200D01*
X0296000Y0069200D02*
X0296000Y0062800D01*
X0286000Y0062800D02*
X0286000Y0069200D01*
X0276000Y0069200D02*
X0276000Y0062800D01*
X0266000Y0062800D02*
X0266000Y0069200D01*
X0256000Y0069200D02*
X0256000Y0062800D01*
X0246000Y0062800D02*
X0246000Y0069200D01*
D11*
X0011000Y0011000D03*
X0011000Y0021000D03*
X0021000Y0021000D03*
X0031000Y0021000D03*
X0031000Y0011000D03*
X0021000Y0011000D03*
X0041000Y0011000D03*
X0051000Y0011000D03*
X0051000Y0021000D03*
X0041000Y0021000D03*
X0061000Y0021000D03*
X0071000Y0021000D03*
X0071000Y0011000D03*
X0061000Y0011000D03*
X0081000Y0011000D03*
X0091000Y0011000D03*
X0091000Y0021000D03*
X0081000Y0021000D03*
X0101000Y0021000D03*
X0101000Y0011000D03*
X0101000Y0066000D03*
X0111000Y0066000D03*
X0111000Y0076000D03*
X0101000Y0076000D03*
X0091000Y0076000D03*
X0081000Y0076000D03*
X0081000Y0066000D03*
X0091000Y0066000D03*
X0071000Y0066000D03*
X0061000Y0066000D03*
X0061000Y0076000D03*
X0071000Y0076000D03*
X0051000Y0076000D03*
X0041000Y0076000D03*
X0041000Y0066000D03*
X0051000Y0066000D03*
X0021000Y0096000D03*
X0021000Y0106000D03*
X0021000Y0116000D03*
X0021000Y0126000D03*
X0021000Y0136000D03*
X0011000Y0136000D03*
X0011000Y0126000D03*
X0011000Y0116000D03*
X0011000Y0106000D03*
X0011000Y0096000D03*
X0011000Y0146000D03*
X0011000Y0156000D03*
X0011000Y0166000D03*
X0011000Y0176000D03*
X0011000Y0186000D03*
X0011000Y0196000D03*
X0011000Y0206000D03*
X0021000Y0206000D03*
X0021000Y0196000D03*
X0021000Y0186000D03*
X0021000Y0176000D03*
X0021000Y0166000D03*
X0021000Y0156000D03*
X0021000Y0146000D03*
X0021000Y0216000D03*
X0021000Y0226000D03*
X0011000Y0226000D03*
X0011000Y0216000D03*
X0041000Y0251000D03*
X0051000Y0251000D03*
X0051000Y0261000D03*
X0041000Y0261000D03*
X0061000Y0261000D03*
X0071000Y0261000D03*
X0071000Y0251000D03*
X0061000Y0251000D03*
X0081000Y0251000D03*
X0091000Y0251000D03*
X0091000Y0261000D03*
X0081000Y0261000D03*
X0101000Y0261000D03*
X0111000Y0261000D03*
X0111000Y0251000D03*
X0101000Y0251000D03*
X0121000Y0251000D03*
X0131000Y0251000D03*
X0131000Y0261000D03*
X0121000Y0261000D03*
X0141000Y0261000D03*
X0151000Y0261000D03*
X0151000Y0251000D03*
X0141000Y0251000D03*
X0161000Y0251000D03*
X0171000Y0251000D03*
X0171000Y0261000D03*
X0161000Y0261000D03*
X0196000Y0231000D03*
X0206000Y0231000D03*
X0206000Y0221000D03*
X0196000Y0221000D03*
X0196000Y0211000D03*
X0206000Y0211000D03*
X0206000Y0201000D03*
X0196000Y0201000D03*
X0196000Y0191000D03*
X0206000Y0191000D03*
X0206000Y0181000D03*
X0196000Y0181000D03*
X0196000Y0171000D03*
X0206000Y0171000D03*
X0206000Y0161000D03*
X0196000Y0161000D03*
X0196000Y0151000D03*
X0206000Y0151000D03*
X0206000Y0141000D03*
X0196000Y0141000D03*
X0196000Y0131000D03*
X0206000Y0131000D03*
X0206000Y0121000D03*
X0196000Y0121000D03*
X0196000Y0111000D03*
X0206000Y0111000D03*
X0206000Y0101000D03*
X0196000Y0101000D03*
X0171000Y0076000D03*
X0161000Y0076000D03*
X0161000Y0066000D03*
X0171000Y0066000D03*
X0151000Y0066000D03*
X0141000Y0066000D03*
X0141000Y0076000D03*
X0151000Y0076000D03*
X0131000Y0076000D03*
X0121000Y0076000D03*
X0121000Y0066000D03*
X0131000Y0066000D03*
X0296000Y0021000D03*
X0306000Y0021000D03*
X0306000Y0011000D03*
X0296000Y0011000D03*
X0316000Y0011000D03*
X0326000Y0011000D03*
X0326000Y0021000D03*
X0316000Y0021000D03*
X0336000Y0021000D03*
X0346000Y0021000D03*
X0346000Y0011000D03*
X0336000Y0011000D03*
X0356000Y0011000D03*
X0366000Y0011000D03*
X0366000Y0021000D03*
X0356000Y0021000D03*
X0376000Y0021000D03*
X0386000Y0021000D03*
X0386000Y0011000D03*
X0376000Y0011000D03*
X0376000Y0296000D03*
X0386000Y0296000D03*
X0386000Y0306000D03*
X0376000Y0306000D03*
X0366000Y0306000D03*
X0356000Y0306000D03*
X0356000Y0296000D03*
X0366000Y0296000D03*
X0346000Y0296000D03*
X0336000Y0296000D03*
X0336000Y0306000D03*
X0346000Y0306000D03*
X0326000Y0306000D03*
X0316000Y0306000D03*
X0316000Y0296000D03*
X0326000Y0296000D03*
X0306000Y0296000D03*
X0296000Y0296000D03*
X0296000Y0306000D03*
X0306000Y0306000D03*
X0101000Y0306000D03*
X0101000Y0296000D03*
X0091000Y0296000D03*
X0081000Y0296000D03*
X0081000Y0306000D03*
X0091000Y0306000D03*
X0071000Y0306000D03*
X0061000Y0306000D03*
X0061000Y0296000D03*
X0071000Y0296000D03*
X0051000Y0296000D03*
X0041000Y0296000D03*
X0041000Y0306000D03*
X0051000Y0306000D03*
X0031000Y0306000D03*
X0021000Y0306000D03*
X0021000Y0296000D03*
X0031000Y0296000D03*
X0011000Y0296000D03*
X0011000Y0306000D03*
D12*
X0016000Y0311000D01*
X0093500Y0311000D01*
X0096000Y0308500D01*
X0096000Y0303500D01*
X0101000Y0298500D01*
X0101000Y0296000D01*
X0096000Y0298500D02*
X0096000Y0293500D01*
X0098500Y0291000D01*
X0103500Y0291000D01*
X0107875Y0295375D01*
X0112250Y0295375D01*
X0116625Y0291000D01*
X0120375Y0288500D02*
X0143500Y0311625D01*
X0310375Y0311625D01*
X0316000Y0306000D01*
X0316000Y0296000D02*
X0291625Y0271625D01*
X0284750Y0272875D02*
X0284750Y0267875D01*
X0286000Y0266625D01*
X0286000Y0247250D01*
X0214750Y0176000D01*
X0209125Y0176000D02*
X0235375Y0202250D01*
X0219750Y0206000D02*
X0250375Y0236625D01*
X0255375Y0227875D02*
X0213500Y0186000D01*
X0193500Y0186000D01*
X0182875Y0196625D01*
X0182875Y0206625D01*
X0175375Y0214125D01*
X0175375Y0226625D01*
X0177250Y0232250D02*
X0186000Y0223500D01*
X0186000Y0199125D01*
X0194125Y0191000D01*
X0196000Y0191000D01*
X0193500Y0196000D02*
X0189125Y0200375D01*
X0189125Y0226000D01*
X0182250Y0232875D01*
X0186625Y0232875D02*
X0193500Y0226000D01*
X0198500Y0226000D01*
X0201000Y0223500D01*
X0201000Y0216000D01*
X0196000Y0211000D01*
X0203500Y0206000D02*
X0219750Y0206000D01*
X0209750Y0211000D02*
X0230375Y0231625D01*
X0234125Y0231625D01*
X0251000Y0248500D01*
X0251000Y0256000D01*
X0255375Y0247250D02*
X0272875Y0247250D01*
X0276000Y0250375D01*
X0276000Y0268500D01*
X0301000Y0293500D01*
X0301000Y0301000D01*
X0306000Y0306000D01*
X0306000Y0296000D02*
X0306000Y0294125D01*
X0284750Y0272875D01*
X0296000Y0266000D02*
X0326000Y0296000D01*
X0331000Y0293500D02*
X0331000Y0301000D01*
X0336000Y0306000D01*
X0341000Y0301000D02*
X0346000Y0306000D01*
X0341000Y0301000D02*
X0341000Y0293500D01*
X0331000Y0283500D01*
X0323500Y0286000D02*
X0323500Y0280375D01*
X0323500Y0286000D02*
X0331000Y0293500D01*
X0346000Y0292875D02*
X0346000Y0296000D01*
X0346000Y0292875D02*
X0318500Y0265375D01*
X0316625Y0265375D01*
X0301000Y0256000D02*
X0301000Y0247250D01*
X0384750Y0163500D01*
X0384750Y0161000D01*
X0382250Y0158500D01*
X0382250Y0107875D01*
X0386000Y0104125D01*
X0386000Y0066000D01*
X0381000Y0071625D02*
X0381000Y0026000D01*
X0376000Y0021000D01*
X0381000Y0013500D02*
X0381000Y0008500D01*
X0377875Y0005375D01*
X0301625Y0005375D01*
X0296000Y0011000D01*
X0296000Y0013500D01*
X0291000Y0018500D01*
X0290375Y0017875D01*
X0286000Y0017875D01*
X0279750Y0011625D01*
X0230375Y0011625D01*
X0177250Y0064750D01*
X0173500Y0061000D01*
X0166000Y0061000D01*
X0161000Y0066000D01*
X0161000Y0076000D01*
X0171000Y0076000D02*
X0171000Y0066000D01*
X0177250Y0064750D02*
X0177250Y0100375D01*
X0191000Y0092875D02*
X0253500Y0030375D01*
X0254125Y0034750D02*
X0254750Y0034750D01*
X0262875Y0026625D01*
X0262875Y0026000D01*
X0254125Y0034750D02*
X0201000Y0087875D01*
X0201000Y0103500D01*
X0196000Y0108500D01*
X0196000Y0111000D01*
X0191000Y0113500D02*
X0196000Y0118500D01*
X0196000Y0121000D01*
X0206000Y0121000D02*
X0206000Y0118500D01*
X0214125Y0110375D01*
X0214125Y0101000D01*
X0237875Y0077250D01*
X0275375Y0077250D01*
X0281000Y0071625D01*
X0281000Y0060375D01*
X0286625Y0054750D01*
X0286625Y0041000D01*
X0296000Y0045375D02*
X0316000Y0065375D01*
X0316000Y0066000D01*
X0321000Y0071625D02*
X0312250Y0080375D01*
X0239125Y0080375D01*
X0217250Y0102250D01*
X0217250Y0111625D01*
X0211000Y0117875D01*
X0211000Y0126000D01*
X0206000Y0131000D01*
X0208500Y0136000D02*
X0203500Y0136000D01*
X0198500Y0131000D01*
X0196000Y0131000D01*
X0196000Y0141000D02*
X0198500Y0141000D01*
X0203500Y0146000D01*
X0208500Y0146000D01*
X0212875Y0141625D01*
X0212875Y0140375D01*
X0222250Y0131000D01*
X0222250Y0119750D01*
X0228500Y0113500D01*
X0228500Y0104125D01*
X0242875Y0089750D01*
X0316000Y0089750D01*
X0331000Y0074750D01*
X0331000Y0029750D01*
X0336000Y0024750D01*
X0336000Y0021000D01*
X0341000Y0018500D02*
X0341000Y0071625D01*
X0319750Y0092875D01*
X0244125Y0092875D01*
X0231625Y0105375D01*
X0231625Y0114750D01*
X0225375Y0121000D01*
X0225375Y0132250D01*
X0216000Y0141625D01*
X0216000Y0142875D01*
X0207875Y0151000D01*
X0206000Y0151000D01*
X0208500Y0156000D02*
X0203500Y0156000D01*
X0198500Y0151000D01*
X0196000Y0151000D01*
X0196000Y0161000D02*
X0198500Y0161000D01*
X0203500Y0166000D01*
X0208500Y0166000D01*
X0234750Y0139750D01*
X0234750Y0126000D01*
X0258500Y0102250D01*
X0335375Y0102250D01*
X0362875Y0074750D01*
X0367875Y0074750D01*
X0371000Y0071625D01*
X0371000Y0036000D01*
X0356000Y0021000D01*
X0351000Y0018500D02*
X0356000Y0013500D01*
X0356000Y0011000D01*
X0351000Y0018500D02*
X0351000Y0024750D01*
X0361000Y0034750D01*
X0361000Y0071625D01*
X0333500Y0099125D01*
X0257250Y0099125D01*
X0231625Y0124750D01*
X0231625Y0137250D01*
X0207875Y0161000D01*
X0206000Y0161000D01*
X0208500Y0156000D02*
X0213500Y0151000D01*
X0213500Y0149750D01*
X0219750Y0143500D01*
X0219750Y0142250D01*
X0228500Y0133500D01*
X0228500Y0122250D01*
X0234750Y0116000D01*
X0234750Y0106625D01*
X0245375Y0096000D01*
X0326625Y0096000D01*
X0351000Y0071625D01*
X0351000Y0029125D01*
X0346000Y0024125D01*
X0346000Y0021000D01*
X0341000Y0018500D02*
X0346000Y0013500D01*
X0346000Y0011000D01*
X0336000Y0011000D02*
X0336000Y0013500D01*
X0331000Y0018500D01*
X0331000Y0025375D01*
X0327250Y0029125D01*
X0327250Y0074125D01*
X0314750Y0086625D01*
X0241625Y0086625D01*
X0225375Y0102875D01*
X0225375Y0112250D01*
X0219125Y0118500D01*
X0219125Y0129750D01*
X0207875Y0141000D01*
X0206000Y0141000D01*
X0208500Y0136000D02*
X0216000Y0128500D01*
X0216000Y0117250D01*
X0222250Y0111000D01*
X0222250Y0101625D01*
X0240375Y0083500D01*
X0313500Y0083500D01*
X0324125Y0072875D01*
X0324125Y0022875D01*
X0326000Y0021000D01*
X0321000Y0018500D02*
X0321000Y0071625D01*
X0306000Y0066000D02*
X0296000Y0066000D01*
X0291000Y0061000D01*
X0291000Y0018500D01*
X0296000Y0021000D02*
X0296000Y0045375D01*
X0276000Y0066000D02*
X0271000Y0061000D01*
X0271000Y0060375D01*
X0267875Y0057250D01*
X0241625Y0057250D01*
X0232875Y0066000D01*
X0232875Y0061625D02*
X0231625Y0061625D01*
X0211000Y0082250D01*
X0211000Y0106000D01*
X0206000Y0111000D01*
X0191000Y0113500D02*
X0191000Y0092875D01*
X0171000Y0079125D02*
X0171000Y0076000D01*
X0171000Y0079125D02*
X0116000Y0134125D01*
X0078500Y0096625D01*
X0021625Y0096625D01*
X0021000Y0096000D01*
X0011000Y0096000D01*
X0011000Y0106000D02*
X0010375Y0106625D01*
X0010375Y0109125D01*
X0006000Y0113500D01*
X0006000Y0181000D01*
X0011000Y0186000D01*
X0016000Y0183500D02*
X0016000Y0208500D01*
X0018500Y0211000D01*
X0023500Y0211000D01*
X0031000Y0218500D01*
X0031000Y0257875D01*
X0035375Y0253500D02*
X0035375Y0249125D01*
X0044750Y0239750D01*
X0049125Y0238500D02*
X0049125Y0245375D01*
X0046000Y0248500D01*
X0046000Y0265375D01*
X0041000Y0261000D02*
X0034750Y0267250D01*
X0021000Y0253500D01*
X0021000Y0226000D01*
X0016000Y0223500D02*
X0016000Y0239125D01*
X0012875Y0242250D01*
X0012875Y0258500D01*
X0026000Y0250375D02*
X0026000Y0234750D01*
X0035375Y0224750D02*
X0049125Y0238500D01*
X0051000Y0251000D02*
X0051000Y0261000D01*
X0056000Y0258500D02*
X0056000Y0267875D01*
X0031000Y0292875D01*
X0031000Y0296000D01*
X0026000Y0298500D02*
X0026000Y0293500D01*
X0031000Y0288500D01*
X0031000Y0277875D01*
X0034750Y0267250D02*
X0011000Y0291000D01*
X0011000Y0296000D01*
X0026000Y0298500D02*
X0028500Y0301000D01*
X0034125Y0301000D01*
X0039125Y0306000D01*
X0041000Y0306000D01*
X0038500Y0301000D02*
X0044750Y0301000D01*
X0043500Y0296000D02*
X0041000Y0296000D01*
X0043500Y0296000D02*
X0047875Y0291625D01*
X0047875Y0290375D01*
X0052250Y0286000D01*
X0053500Y0286000D01*
X0076000Y0263500D01*
X0076000Y0248500D01*
X0033500Y0206000D01*
X0021000Y0206000D01*
X0033500Y0214125D02*
X0066000Y0246625D01*
X0061000Y0251000D02*
X0061000Y0253500D01*
X0056000Y0258500D01*
X0061000Y0261000D02*
X0061000Y0267250D01*
X0036000Y0292250D01*
X0036000Y0298500D01*
X0038500Y0301000D01*
X0043500Y0290375D02*
X0043500Y0289125D01*
X0066000Y0266625D01*
X0066000Y0256000D01*
X0071000Y0251000D01*
X0086000Y0263500D02*
X0059750Y0289750D01*
X0056000Y0292875D02*
X0056000Y0301000D01*
X0051000Y0306000D01*
X0061000Y0306000D02*
X0066000Y0301000D01*
X0066000Y0293500D01*
X0067875Y0291625D01*
X0067875Y0287250D01*
X0072250Y0284750D02*
X0072250Y0294750D01*
X0071000Y0296000D01*
X0076000Y0293500D02*
X0076000Y0301000D01*
X0071000Y0306000D01*
X0081000Y0306000D02*
X0086000Y0301000D01*
X0093500Y0301000D01*
X0096000Y0298500D01*
X0091000Y0296000D02*
X0091000Y0278500D01*
X0106000Y0263500D01*
X0106000Y0248500D01*
X0105375Y0247875D01*
X0105375Y0198500D01*
X0104750Y0193500D02*
X0096000Y0202250D01*
X0096000Y0263500D01*
X0082875Y0276625D01*
X0080375Y0276625D01*
X0072250Y0284750D01*
X0076000Y0293500D02*
X0081625Y0287875D01*
X0081625Y0286625D01*
X0086000Y0285375D02*
X0086000Y0291000D01*
X0081000Y0296000D01*
X0086000Y0285375D02*
X0081625Y0281000D01*
X0086000Y0263500D02*
X0086000Y0203500D01*
X0104750Y0184750D01*
X0106000Y0184750D01*
X0104750Y0189125D02*
X0119750Y0189125D01*
X0121000Y0184750D02*
X0134750Y0198500D01*
X0134750Y0247250D01*
X0136000Y0248500D01*
X0136000Y0277250D01*
X0127875Y0285375D01*
X0127875Y0290375D01*
X0128500Y0291000D01*
X0120375Y0288500D02*
X0120375Y0277875D01*
X0116000Y0284750D02*
X0114125Y0286625D01*
X0116000Y0284750D02*
X0116000Y0258500D01*
X0121000Y0253500D01*
X0121000Y0251000D01*
X0131000Y0251000D02*
X0131000Y0200375D01*
X0130375Y0199750D01*
X0142250Y0212250D02*
X0142250Y0226000D01*
X0141000Y0227250D01*
X0141000Y0234750D01*
X0152250Y0246000D01*
X0153500Y0246000D01*
X0156000Y0248500D01*
X0156000Y0268500D01*
X0142250Y0282250D01*
X0144750Y0286625D02*
X0164125Y0267250D01*
X0168500Y0271625D02*
X0261625Y0271625D01*
X0266000Y0276000D01*
X0260375Y0276000D02*
X0272250Y0287875D01*
X0289750Y0294125D02*
X0289750Y0297250D01*
X0289750Y0294125D02*
X0264125Y0268500D01*
X0171000Y0268500D01*
X0163500Y0261000D01*
X0161000Y0261000D01*
X0171000Y0261000D02*
X0171000Y0251000D01*
X0179125Y0242875D02*
X0200375Y0264125D01*
X0209125Y0264750D02*
X0252875Y0264750D01*
X0261000Y0256625D01*
X0261000Y0256000D01*
X0271000Y0256000D02*
X0271000Y0271000D01*
X0296000Y0296000D01*
X0343500Y0276000D02*
X0361000Y0293500D01*
X0361000Y0298500D01*
X0366000Y0303500D01*
X0366000Y0306000D01*
X0361000Y0308500D02*
X0361000Y0302875D01*
X0356000Y0297875D01*
X0356000Y0296000D01*
X0351000Y0293500D02*
X0351000Y0301000D01*
X0356000Y0306000D01*
X0361000Y0308500D02*
X0363500Y0311000D01*
X0368500Y0311000D01*
X0371000Y0308500D01*
X0371000Y0286000D01*
X0366000Y0294125D02*
X0366000Y0296000D01*
X0366000Y0294125D02*
X0351000Y0279125D01*
X0351000Y0250375D01*
X0328500Y0227875D01*
X0326000Y0227875D01*
X0321000Y0216625D02*
X0247875Y0143500D01*
X0237875Y0147875D02*
X0237875Y0131625D01*
X0247875Y0121625D01*
X0320375Y0121625D01*
X0362875Y0079125D01*
X0364125Y0079125D01*
X0379125Y0073500D02*
X0381000Y0071625D01*
X0379125Y0073500D02*
X0379125Y0159750D01*
X0380375Y0161000D01*
X0380375Y0162250D01*
X0376000Y0167875D02*
X0291000Y0252875D01*
X0291000Y0256000D01*
X0291625Y0246000D02*
X0214125Y0168500D01*
X0214125Y0166000D01*
X0209125Y0176000D02*
X0193500Y0176000D01*
X0174750Y0194750D01*
X0174750Y0200375D01*
X0178500Y0204750D02*
X0159750Y0204750D01*
X0129750Y0174750D01*
X0120375Y0174750D01*
X0115375Y0169750D02*
X0115375Y0166625D01*
X0116000Y0166000D01*
X0116000Y0134125D01*
X0126625Y0129125D02*
X0177250Y0129125D01*
X0181625Y0154125D02*
X0181625Y0073500D01*
X0159125Y0085375D02*
X0151000Y0077250D01*
X0151000Y0076000D01*
X0146000Y0073500D02*
X0146000Y0085375D01*
X0141000Y0090375D02*
X0141000Y0076000D01*
X0136000Y0073500D02*
X0136000Y0091000D01*
X0144750Y0099750D01*
X0131000Y0113500D02*
X0131000Y0076000D01*
X0136000Y0073500D02*
X0131000Y0068500D01*
X0131000Y0066000D01*
X0146000Y0073500D02*
X0151000Y0068500D01*
X0151000Y0066000D01*
X0111000Y0066000D02*
X0096000Y0051000D01*
X0096000Y0018500D01*
X0091000Y0013500D01*
X0091000Y0011000D01*
X0096000Y0008500D02*
X0092875Y0005375D01*
X0016625Y0005375D01*
X0011000Y0011000D01*
X0011000Y0013500D01*
X0016000Y0018500D01*
X0016000Y0050375D01*
X0019750Y0054125D01*
X0019750Y0057875D01*
X0011625Y0066000D01*
X0011000Y0066000D01*
X0011000Y0056000D02*
X0011000Y0021000D01*
X0021000Y0021000D02*
X0021000Y0051000D01*
X0036000Y0066000D01*
X0036000Y0071000D01*
X0041000Y0076000D01*
X0051000Y0066000D02*
X0036000Y0051000D01*
X0036000Y0018500D01*
X0031000Y0013500D01*
X0031000Y0011000D01*
X0041000Y0021000D02*
X0041000Y0048500D01*
X0056000Y0063500D01*
X0056000Y0071000D01*
X0061000Y0076000D01*
X0071000Y0066000D02*
X0056000Y0051000D01*
X0056000Y0018500D01*
X0051000Y0013500D01*
X0051000Y0011000D01*
X0061000Y0021000D02*
X0061000Y0048500D01*
X0076000Y0063500D01*
X0076000Y0071000D01*
X0081000Y0076000D01*
X0091000Y0066000D02*
X0076000Y0051000D01*
X0076000Y0018500D01*
X0071000Y0013500D01*
X0071000Y0011000D01*
X0081000Y0021000D02*
X0081000Y0048500D01*
X0096000Y0063500D01*
X0096000Y0071000D01*
X0101000Y0076000D01*
X0044750Y0121000D02*
X0018500Y0121000D01*
X0013500Y0116000D01*
X0011000Y0116000D01*
X0011000Y0106000D02*
X0021000Y0106000D01*
X0021000Y0126000D02*
X0084750Y0126000D01*
X0111625Y0152875D01*
X0120375Y0159750D02*
X0120375Y0144125D01*
X0120375Y0159750D02*
X0161000Y0200375D01*
X0165375Y0209750D02*
X0165375Y0228500D01*
X0164125Y0232875D02*
X0172250Y0232875D01*
X0176625Y0237250D01*
X0183500Y0237250D01*
X0186625Y0234125D01*
X0186625Y0232875D01*
X0191000Y0234750D02*
X0191000Y0236000D01*
X0211000Y0256000D01*
X0209125Y0264750D02*
X0191000Y0246625D01*
X0179125Y0242875D02*
X0153500Y0242875D01*
X0146000Y0235375D01*
X0146000Y0234125D01*
X0152250Y0236000D02*
X0169750Y0236000D01*
X0172250Y0238500D01*
X0164125Y0232875D02*
X0161000Y0229750D01*
X0161000Y0212250D01*
X0193500Y0196000D02*
X0198500Y0196000D01*
X0203500Y0191000D01*
X0206000Y0191000D01*
X0198500Y0201000D02*
X0203500Y0206000D01*
X0198500Y0201000D02*
X0196000Y0201000D01*
X0206000Y0211000D02*
X0209750Y0211000D01*
X0220375Y0216000D02*
X0224125Y0216000D01*
X0255375Y0247250D01*
X0263500Y0241625D02*
X0217875Y0196000D01*
X0196000Y0171000D02*
X0196000Y0168500D01*
X0181625Y0154125D01*
X0224125Y0156000D02*
X0269750Y0201625D01*
X0277250Y0217250D02*
X0297250Y0237250D01*
X0277250Y0217250D02*
X0277250Y0178500D01*
X0272875Y0162250D02*
X0322250Y0211625D01*
X0324125Y0206000D02*
X0254125Y0136000D01*
X0249750Y0126000D02*
X0331000Y0207250D01*
X0339125Y0228500D02*
X0366000Y0255375D01*
X0366000Y0256000D01*
X0376000Y0256000D02*
X0376000Y0255375D01*
X0364125Y0243500D01*
X0364125Y0189750D01*
X0369750Y0189750D02*
X0369750Y0239125D01*
X0386000Y0255375D01*
X0386000Y0256000D01*
X0391000Y0261625D02*
X0391000Y0121625D01*
X0386625Y0117250D01*
X0386625Y0109125D01*
X0391000Y0116000D02*
X0391000Y0026000D01*
X0386000Y0021000D01*
X0386000Y0018500D01*
X0381000Y0013500D01*
X0326000Y0013500D02*
X0326000Y0011000D01*
X0326000Y0013500D02*
X0321000Y0018500D01*
X0278500Y0016000D02*
X0232875Y0061625D01*
X0335375Y0155375D02*
X0356625Y0176625D01*
X0356000Y0181625D02*
X0334750Y0160375D01*
X0376000Y0167875D02*
X0376000Y0066000D01*
X0221625Y0236000D02*
X0221625Y0246000D01*
X0231000Y0255375D01*
X0231000Y0256000D01*
X0221000Y0256000D02*
X0221000Y0255375D01*
X0204750Y0239125D01*
X0144750Y0286625D02*
X0144750Y0307250D01*
X0111000Y0278500D02*
X0102875Y0286625D01*
X0111000Y0278500D02*
X0111000Y0261000D01*
X0111000Y0251000D02*
X0111000Y0193500D01*
X0106000Y0193500D02*
X0104750Y0193500D01*
X0104750Y0189125D02*
X0091000Y0202875D01*
X0091000Y0251000D01*
X0101000Y0251000D02*
X0101000Y0234125D01*
X0115375Y0242875D02*
X0115375Y0221000D01*
X0081625Y0207250D02*
X0081625Y0203500D01*
X0115375Y0169750D01*
X0106000Y0166000D02*
X0106000Y0174750D01*
X0095375Y0185375D01*
X0021625Y0185375D01*
X0021000Y0186000D01*
X0016000Y0183500D02*
X0021000Y0178500D01*
X0021000Y0176000D01*
X0018500Y0171000D02*
X0033500Y0171000D01*
X0044750Y0182250D01*
X0092875Y0182250D01*
X0094125Y0181000D01*
X0085375Y0177875D02*
X0056625Y0177875D01*
X0029750Y0151000D01*
X0018500Y0151000D01*
X0013500Y0146000D01*
X0011000Y0146000D01*
X0021000Y0156000D02*
X0024125Y0156000D01*
X0044750Y0176625D01*
X0040375Y0189750D02*
X0040375Y0207250D01*
X0044750Y0211625D02*
X0044750Y0198500D01*
X0021000Y0216000D02*
X0021000Y0218500D01*
X0016000Y0223500D01*
X0067875Y0229125D02*
X0073500Y0223500D01*
X0073500Y0190375D01*
X0069750Y0162250D02*
X0045375Y0162250D01*
X0028500Y0145375D01*
X0028500Y0144125D01*
X0027250Y0142875D01*
X0021000Y0136000D02*
X0011000Y0136000D01*
X0011000Y0166000D02*
X0013500Y0166000D01*
X0018500Y0171000D01*
X0121000Y0182250D02*
X0121000Y0184750D01*
X0053500Y0290375D02*
X0056000Y0292875D01*
X0346625Y0289125D02*
X0346625Y0287875D01*
X0346625Y0289125D02*
X0351000Y0293500D01*
X0386000Y0296000D02*
X0386000Y0266625D01*
X0391000Y0261625D01*
X0101000Y0021000D02*
X0101000Y0018500D01*
X0096000Y0013500D01*
X0096000Y0008500D01*
D13*
X0181625Y0073500D03*
X0159125Y0085375D03*
X0146000Y0085375D03*
X0141000Y0090375D03*
X0144750Y0099750D03*
X0131000Y0113500D03*
X0126625Y0129125D03*
X0120375Y0144125D03*
X0111625Y0152875D03*
X0120375Y0174750D03*
X0121000Y0182250D03*
X0119750Y0189125D03*
X0111000Y0193500D03*
X0106000Y0193500D03*
X0105375Y0198500D03*
X0106000Y0184750D03*
X0094125Y0181000D03*
X0085375Y0177875D03*
X0073500Y0190375D03*
X0081625Y0207250D03*
X0067875Y0229125D03*
X0066000Y0246625D03*
X0044750Y0239750D03*
X0035375Y0253500D03*
X0031000Y0257875D03*
X0026000Y0250375D03*
X0012875Y0258500D03*
X0031000Y0277875D03*
X0043500Y0290375D03*
X0053500Y0290375D03*
X0059750Y0289750D03*
X0067875Y0287250D03*
X0081625Y0286625D03*
X0081625Y0281000D03*
X0102875Y0286625D03*
X0114125Y0286625D03*
X0116625Y0291000D03*
X0128500Y0291000D03*
X0142250Y0282250D03*
X0120375Y0277875D03*
X0144750Y0307250D03*
X0168500Y0271625D03*
X0164125Y0267250D03*
X0191000Y0246625D03*
X0191000Y0234750D03*
X0182250Y0232875D03*
X0177250Y0232250D03*
X0175375Y0226625D03*
X0165375Y0228500D03*
X0172250Y0238500D03*
X0152250Y0236000D03*
X0146000Y0234125D03*
X0142250Y0212250D03*
X0130375Y0199750D03*
X0115375Y0221000D03*
X0101000Y0234125D03*
X0115375Y0242875D03*
X0161000Y0212250D03*
X0165375Y0209750D03*
X0161000Y0200375D03*
X0174750Y0200375D03*
X0178500Y0204750D03*
X0214750Y0176000D03*
X0214125Y0166000D03*
X0224125Y0156000D03*
X0237875Y0147875D03*
X0247875Y0143500D03*
X0254125Y0136000D03*
X0249750Y0126000D03*
X0272875Y0162250D03*
X0277250Y0178500D03*
X0269750Y0201625D03*
X0255375Y0227875D03*
X0250375Y0236625D03*
X0263500Y0241625D03*
X0291625Y0246000D03*
X0297250Y0237250D03*
X0321000Y0216625D03*
X0322250Y0211625D03*
X0324125Y0206000D03*
X0331000Y0207250D03*
X0326000Y0227875D03*
X0339125Y0228500D03*
X0316625Y0265375D03*
X0323500Y0280375D03*
X0331000Y0283500D03*
X0343500Y0276000D03*
X0346625Y0287875D03*
X0371000Y0286000D03*
X0296000Y0266000D03*
X0291625Y0271625D03*
X0272250Y0287875D03*
X0266000Y0276000D03*
X0260375Y0276000D03*
X0289750Y0297250D03*
X0221625Y0236000D03*
X0204750Y0239125D03*
X0220375Y0216000D03*
X0235375Y0202250D03*
X0217875Y0196000D03*
X0177250Y0129125D03*
X0177250Y0100375D03*
X0232875Y0066000D03*
X0253500Y0030375D03*
X0262875Y0026000D03*
X0278500Y0016000D03*
X0286625Y0041000D03*
X0364125Y0079125D03*
X0386625Y0109125D03*
X0391000Y0116000D03*
X0335375Y0155375D03*
X0334750Y0160375D03*
X0356625Y0176625D03*
X0356000Y0181625D03*
X0364125Y0189750D03*
X0369750Y0189750D03*
X0380375Y0162250D03*
X0200375Y0264125D03*
X0069750Y0162250D03*
X0044750Y0176625D03*
X0040375Y0189750D03*
X0044750Y0198500D03*
X0040375Y0207250D03*
X0044750Y0211625D03*
X0033500Y0214125D03*
X0035375Y0224750D03*
X0026000Y0234750D03*
X0046000Y0265375D03*
X0044750Y0301000D03*
X0027250Y0142875D03*
X0044750Y0121000D03*
M02*
