%
M48
M72
T01C0.01200
T02C0.04000
%
T01
X75400Y58000
X76600Y53200
X115600Y58000
X130000Y38200
X137200Y29200
X134200Y21400
X139000Y15400
X153400Y34000
X185200Y46000
X236800Y42400
X253600Y29800
X257800Y29200
X265000Y26800
X259600Y19600
X265000Y14800
X259600Y6400
X272200Y38800
X267400Y47200
X95800Y11200
X130000Y236800
X167800Y262600
X173800Y265000
X163000Y268000
X158200Y272800
X154600Y275800
X149800Y277000
X135400Y272200
X127000Y277000
X139600Y302200
X166000Y280600
X170800Y275800
X178600Y247000
X178600Y238000
X172600Y235600
X232600Y238000
X223000Y282400
X253600Y303400
X265000Y304600
X270400Y301000
X272800Y304000
X275200Y289600
X269800Y289600
X263200Y289600
X295600Y292000
X296200Y299800
X301600Y298000
X95200Y306400
X92200Y273400
X92800Y265000
T02
X51000Y16000
X51000Y26000
X61000Y26000
X71000Y26000
X71000Y16000
X61000Y16000
X81000Y16000
X91000Y16000
X91000Y26000
X81000Y26000
X81000Y66000
X91000Y66000
X91000Y76000
X81000Y76000
X71000Y76000
X61000Y76000
X61000Y66000
X71000Y66000
X51000Y66000
X41000Y66000
X41000Y76000
X51000Y76000
X21000Y96000
X21000Y106000
X21000Y116000
X21000Y126000
X21000Y136000
X11000Y136000
X11000Y126000
X11000Y116000
X11000Y106000
X11000Y96000
X11000Y66000
X11000Y56000
X101000Y66000
X111000Y66000
X111000Y76000
X101000Y76000
X121000Y76000
X131000Y76000
X131000Y66000
X121000Y66000
X141000Y66000
X151000Y66000
X151000Y76000
X141000Y76000
X161000Y76000
X171000Y76000
X171000Y66000
X161000Y66000
X191000Y96000
X191000Y106000
X191000Y116000
X191000Y126000
X191000Y136000
X201000Y136000
X201000Y126000
X201000Y116000
X201000Y106000
X201000Y96000
X206000Y56000
X206000Y46000
X306000Y26000
X306000Y16000
X316000Y16000
X326000Y16000
X326000Y26000
X316000Y26000
X336000Y26000
X346000Y26000
X346000Y16000
X336000Y16000
X201000Y146000
X201000Y156000
X201000Y166000
X201000Y176000
X201000Y186000
X201000Y196000
X201000Y206000
X191000Y206000
X191000Y196000
X191000Y186000
X191000Y176000
X191000Y166000
X191000Y156000
X191000Y146000
X116000Y166000
X106000Y166000
X96000Y166000
X86000Y166000
X21000Y166000
X21000Y156000
X21000Y146000
X11000Y146000
X11000Y156000
X11000Y166000
X11000Y176000
X11000Y186000
X11000Y196000
X11000Y206000
X21000Y206000
X21000Y196000
X21000Y186000
X21000Y176000
X21000Y216000
X21000Y226000
X11000Y226000
X11000Y216000
X41000Y246000
X51000Y246000
X51000Y256000
X41000Y256000
X61000Y256000
X71000Y256000
X71000Y246000
X61000Y246000
X81000Y246000
X91000Y246000
X91000Y256000
X81000Y256000
X101000Y256000
X111000Y256000
X111000Y246000
X101000Y246000
X121000Y246000
X131000Y246000
X131000Y256000
X121000Y256000
X141000Y256000
X151000Y256000
X151000Y246000
X141000Y246000
X161000Y246000
X171000Y246000
X171000Y256000
X161000Y256000
X191000Y226000
X191000Y216000
X201000Y216000
X201000Y226000
X306000Y291000
X306000Y301000
X316000Y301000
X326000Y301000
X326000Y291000
X316000Y291000
X336000Y291000
X346000Y291000
X346000Y301000
X336000Y301000
X91000Y301000
X81000Y301000
X81000Y291000
X91000Y291000
X71000Y291000
X61000Y291000
X61000Y301000
X71000Y301000
X51000Y301000
X51000Y291000
X16000Y276000
X16000Y266000
M30
