G75*
%MOIN*%
%OFA0B0*%
%FSLAX25Y25*%
%IPPOS*%
%LPD*%
%AMOC8*
5,1,8,0,0,1.08239X$1,22.5*
%
%ADD10C,0.06400*%
%ADD11OC8,0.06400*%
%ADD12C,0.00600*%
%ADD13C,0.02800*%
D10*
X0007800Y0056000D02*
X0014200Y0056000D01*
X0014200Y0066000D02*
X0007800Y0066000D01*
X0086000Y0162800D02*
X0086000Y0169200D01*
X0096000Y0169200D02*
X0096000Y0162800D01*
X0106000Y0162800D02*
X0106000Y0169200D01*
X0116000Y0169200D02*
X0116000Y0162800D01*
X0019200Y0266000D02*
X0012800Y0266000D01*
X0012800Y0276000D02*
X0019200Y0276000D01*
X0202800Y0056000D02*
X0209200Y0056000D01*
X0209200Y0046000D02*
X0202800Y0046000D01*
D11*
X0171000Y0066000D03*
X0161000Y0066000D03*
X0161000Y0076000D03*
X0171000Y0076000D03*
X0151000Y0076000D03*
X0141000Y0076000D03*
X0141000Y0066000D03*
X0151000Y0066000D03*
X0131000Y0066000D03*
X0121000Y0066000D03*
X0121000Y0076000D03*
X0131000Y0076000D03*
X0111000Y0076000D03*
X0101000Y0076000D03*
X0101000Y0066000D03*
X0111000Y0066000D03*
X0091000Y0066000D03*
X0081000Y0066000D03*
X0081000Y0076000D03*
X0091000Y0076000D03*
X0071000Y0076000D03*
X0061000Y0076000D03*
X0061000Y0066000D03*
X0071000Y0066000D03*
X0051000Y0066000D03*
X0041000Y0066000D03*
X0041000Y0076000D03*
X0051000Y0076000D03*
X0021000Y0096000D03*
X0021000Y0106000D03*
X0021000Y0116000D03*
X0021000Y0126000D03*
X0021000Y0136000D03*
X0011000Y0136000D03*
X0011000Y0126000D03*
X0011000Y0116000D03*
X0011000Y0106000D03*
X0011000Y0096000D03*
X0011000Y0146000D03*
X0011000Y0156000D03*
X0011000Y0166000D03*
X0011000Y0176000D03*
X0011000Y0186000D03*
X0011000Y0196000D03*
X0011000Y0206000D03*
X0021000Y0206000D03*
X0021000Y0196000D03*
X0021000Y0186000D03*
X0021000Y0176000D03*
X0021000Y0166000D03*
X0021000Y0156000D03*
X0021000Y0146000D03*
X0021000Y0216000D03*
X0021000Y0226000D03*
X0011000Y0226000D03*
X0011000Y0216000D03*
X0041000Y0246000D03*
X0051000Y0246000D03*
X0051000Y0256000D03*
X0041000Y0256000D03*
X0061000Y0256000D03*
X0071000Y0256000D03*
X0071000Y0246000D03*
X0061000Y0246000D03*
X0081000Y0246000D03*
X0091000Y0246000D03*
X0091000Y0256000D03*
X0081000Y0256000D03*
X0101000Y0256000D03*
X0111000Y0256000D03*
X0111000Y0246000D03*
X0101000Y0246000D03*
X0121000Y0246000D03*
X0131000Y0246000D03*
X0131000Y0256000D03*
X0121000Y0256000D03*
X0141000Y0256000D03*
X0151000Y0256000D03*
X0151000Y0246000D03*
X0141000Y0246000D03*
X0161000Y0246000D03*
X0171000Y0246000D03*
X0171000Y0256000D03*
X0161000Y0256000D03*
X0191000Y0226000D03*
X0191000Y0216000D03*
X0201000Y0216000D03*
X0201000Y0226000D03*
X0201000Y0206000D03*
X0201000Y0196000D03*
X0201000Y0186000D03*
X0201000Y0176000D03*
X0201000Y0166000D03*
X0201000Y0156000D03*
X0201000Y0146000D03*
X0191000Y0146000D03*
X0191000Y0156000D03*
X0191000Y0166000D03*
X0191000Y0176000D03*
X0191000Y0186000D03*
X0191000Y0196000D03*
X0191000Y0206000D03*
X0191000Y0136000D03*
X0191000Y0126000D03*
X0191000Y0116000D03*
X0191000Y0106000D03*
X0191000Y0096000D03*
X0201000Y0096000D03*
X0201000Y0106000D03*
X0201000Y0116000D03*
X0201000Y0126000D03*
X0201000Y0136000D03*
X0306000Y0026000D03*
X0306000Y0016000D03*
X0316000Y0016000D03*
X0326000Y0016000D03*
X0326000Y0026000D03*
X0316000Y0026000D03*
X0336000Y0026000D03*
X0346000Y0026000D03*
X0346000Y0016000D03*
X0336000Y0016000D03*
X0091000Y0016000D03*
X0081000Y0016000D03*
X0081000Y0026000D03*
X0091000Y0026000D03*
X0071000Y0026000D03*
X0061000Y0026000D03*
X0061000Y0016000D03*
X0071000Y0016000D03*
X0051000Y0016000D03*
X0051000Y0026000D03*
X0051000Y0291000D03*
X0051000Y0301000D03*
X0061000Y0301000D03*
X0071000Y0301000D03*
X0071000Y0291000D03*
X0061000Y0291000D03*
X0081000Y0291000D03*
X0091000Y0291000D03*
X0091000Y0301000D03*
X0081000Y0301000D03*
X0306000Y0301000D03*
X0306000Y0291000D03*
X0316000Y0291000D03*
X0326000Y0291000D03*
X0326000Y0301000D03*
X0316000Y0301000D03*
X0336000Y0301000D03*
X0346000Y0301000D03*
X0346000Y0291000D03*
X0336000Y0291000D03*
D12*
X0046600Y0045400D02*
X0046600Y0024400D01*
X0049600Y0021400D01*
X0051400Y0021400D01*
X0055600Y0017200D01*
X0055600Y0015400D01*
X0059800Y0011200D01*
X0095800Y0011200D01*
X0097600Y0015400D02*
X0092800Y0020200D01*
X0075400Y0020200D01*
X0071200Y0016000D01*
X0071000Y0016000D01*
X0065200Y0021400D02*
X0061000Y0025600D01*
X0061000Y0026000D01*
X0056800Y0031600D02*
X0051400Y0026200D01*
X0051000Y0026000D01*
X0056800Y0031600D02*
X0200800Y0031600D01*
X0214000Y0044800D01*
X0260200Y0044800D01*
X0278800Y0026200D01*
X0305800Y0026200D01*
X0306000Y0026000D01*
X0306400Y0026200D01*
X0346000Y0065800D01*
X0346000Y0291000D01*
X0336000Y0291000D02*
X0329200Y0284200D01*
X0299800Y0284200D01*
X0283000Y0301000D01*
X0270400Y0301000D01*
X0270400Y0303400D02*
X0269200Y0303400D01*
X0268000Y0302200D01*
X0268000Y0299800D01*
X0275800Y0292000D01*
X0276400Y0292000D01*
X0277600Y0290800D01*
X0277600Y0283000D01*
X0232600Y0238000D01*
X0208600Y0262600D02*
X0167800Y0262600D01*
X0166600Y0256600D02*
X0166600Y0254200D01*
X0170200Y0250600D01*
X0172600Y0250600D01*
X0177400Y0245800D01*
X0178600Y0247000D01*
X0177400Y0245800D02*
X0190600Y0232600D01*
X0190600Y0226000D01*
X0191000Y0226000D01*
X0193000Y0218200D02*
X0181000Y0230200D01*
X0181000Y0239200D01*
X0174400Y0245800D01*
X0171400Y0245800D01*
X0171000Y0246000D01*
X0165400Y0245800D02*
X0165400Y0251800D01*
X0161200Y0256000D01*
X0161000Y0256000D01*
X0166600Y0256600D02*
X0146200Y0277000D01*
X0127000Y0277000D01*
X0124600Y0278200D02*
X0124600Y0262600D01*
X0131200Y0256000D01*
X0131000Y0256000D01*
X0129400Y0251800D02*
X0125200Y0256000D01*
X0125200Y0260200D01*
X0095200Y0290200D01*
X0095200Y0292600D01*
X0092200Y0295600D01*
X0089800Y0295600D01*
X0085600Y0291400D01*
X0085600Y0289600D01*
X0056200Y0260200D01*
X0049000Y0260200D01*
X0045400Y0256600D01*
X0045400Y0254200D01*
X0041800Y0250600D01*
X0039400Y0250600D01*
X0025600Y0236800D01*
X0025600Y0210400D01*
X0021400Y0206200D01*
X0021000Y0206000D01*
X0021400Y0200200D02*
X0019000Y0200200D01*
X0015400Y0196600D01*
X0015400Y0194200D01*
X0011800Y0190600D01*
X0009400Y0190600D01*
X0006400Y0187600D01*
X0006400Y0100600D01*
X0011000Y0096000D01*
X0015400Y0094600D02*
X0015400Y0101800D01*
X0019600Y0106000D01*
X0021000Y0106000D01*
X0015400Y0101800D02*
X0011200Y0106000D01*
X0011000Y0106000D01*
X0015400Y0094600D02*
X0011200Y0090400D01*
X0011200Y0066400D01*
X0011000Y0066000D01*
X0011000Y0056000D02*
X0025600Y0070600D01*
X0025600Y0115000D01*
X0095200Y0184600D01*
X0095200Y0274000D01*
X0091000Y0278200D01*
X0091000Y0291000D01*
X0092800Y0296800D02*
X0065200Y0296800D01*
X0061000Y0301000D01*
X0059200Y0305200D02*
X0055600Y0301600D01*
X0055600Y0289000D01*
X0031600Y0265000D01*
X0031000Y0265600D01*
X0021400Y0265600D01*
X0016000Y0266000D01*
X0016000Y0265600D01*
X0021400Y0265600D01*
X0021400Y0226000D01*
X0021000Y0226000D01*
X0011000Y0226000D01*
X0021400Y0200200D02*
X0040600Y0219400D01*
X0040600Y0245800D01*
X0041000Y0246000D01*
X0041000Y0256000D02*
X0040600Y0256000D01*
X0031600Y0265000D01*
X0016000Y0276000D02*
X0016000Y0276400D01*
X0046000Y0306400D01*
X0095200Y0306400D01*
X0256600Y0306400D01*
X0273400Y0289600D01*
X0273400Y0282400D01*
X0202600Y0211600D01*
X0200800Y0211600D01*
X0196600Y0207400D01*
X0196600Y0095800D01*
X0172600Y0071800D01*
X0170800Y0071800D01*
X0166600Y0067600D01*
X0166600Y0064600D01*
X0185200Y0046000D01*
X0206000Y0046000D01*
X0224200Y0047200D02*
X0205600Y0065800D01*
X0171400Y0065800D01*
X0171000Y0066000D01*
X0161000Y0066000D02*
X0160600Y0065800D01*
X0133000Y0038200D01*
X0130000Y0038200D01*
X0127000Y0034000D02*
X0095200Y0065800D01*
X0095200Y0067600D01*
X0091000Y0071800D01*
X0089200Y0071800D01*
X0085600Y0075400D01*
X0085600Y0077200D01*
X0082600Y0080200D01*
X0065200Y0080200D01*
X0061000Y0076000D01*
X0056800Y0077800D02*
X0056800Y0070600D01*
X0061000Y0066400D01*
X0061000Y0066000D01*
X0066400Y0065200D02*
X0066400Y0067600D01*
X0069400Y0070600D01*
X0076600Y0070600D01*
X0080800Y0066400D01*
X0081000Y0066000D01*
X0085600Y0064600D02*
X0085600Y0067600D01*
X0081400Y0071800D01*
X0075400Y0071800D01*
X0071200Y0076000D01*
X0071000Y0076000D01*
X0060400Y0081400D02*
X0056800Y0077800D01*
X0060400Y0081400D02*
X0091600Y0081400D01*
X0095200Y0077800D01*
X0095200Y0076000D01*
X0099400Y0071800D01*
X0101200Y0071800D01*
X0105400Y0067600D01*
X0105400Y0065800D01*
X0113200Y0058000D01*
X0115600Y0058000D01*
X0085600Y0064600D02*
X0076600Y0055600D01*
X0076600Y0053200D01*
X0075400Y0058000D02*
X0075400Y0061600D01*
X0071000Y0066000D01*
X0066400Y0065200D02*
X0046600Y0045400D01*
X0071000Y0026000D02*
X0075400Y0030400D01*
X0092800Y0030400D01*
X0094000Y0029200D01*
X0137200Y0029200D01*
X0134200Y0021400D02*
X0065200Y0021400D01*
X0097600Y0015400D02*
X0139000Y0015400D01*
X0127000Y0034000D02*
X0153400Y0034000D01*
X0161000Y0076000D02*
X0161200Y0076000D01*
X0178600Y0093400D01*
X0106000Y0166000D01*
X0096400Y0166000D02*
X0096000Y0166000D01*
X0096400Y0166000D02*
X0142000Y0211600D01*
X0196600Y0211600D01*
X0201000Y0216000D01*
X0193000Y0218200D02*
X0191000Y0216000D01*
X0191200Y0216400D01*
X0193000Y0218200D01*
X0200800Y0226000D01*
X0201000Y0226000D01*
X0178600Y0238000D02*
X0173200Y0238000D01*
X0165400Y0245800D01*
X0170800Y0256000D02*
X0171000Y0256000D01*
X0170800Y0256000D02*
X0149800Y0277000D01*
X0154600Y0275800D02*
X0161800Y0283000D01*
X0167200Y0283000D01*
X0167800Y0282400D01*
X0223000Y0282400D01*
X0235600Y0289600D02*
X0208600Y0262600D01*
X0209200Y0265000D02*
X0173800Y0265000D01*
X0163000Y0268000D02*
X0170800Y0275800D01*
X0166000Y0280600D02*
X0158200Y0272800D01*
X0135400Y0272200D02*
X0135400Y0254200D01*
X0133000Y0251800D01*
X0129400Y0251800D01*
X0125200Y0247600D02*
X0121000Y0251800D01*
X0115600Y0251800D01*
X0111400Y0256000D01*
X0111000Y0256000D01*
X0121000Y0246000D02*
X0121000Y0245800D01*
X0130000Y0236800D01*
X0135400Y0235600D02*
X0125200Y0245800D01*
X0125200Y0247600D01*
X0135400Y0235600D02*
X0172600Y0235600D01*
X0209200Y0265000D02*
X0236200Y0292000D01*
X0264400Y0292000D01*
X0266800Y0289600D01*
X0269800Y0289600D01*
X0273400Y0289600D02*
X0275200Y0289600D01*
X0263200Y0289600D02*
X0235600Y0289600D01*
X0253600Y0303400D02*
X0149800Y0303400D01*
X0124600Y0278200D01*
X0139600Y0302200D02*
X0098200Y0302200D01*
X0092800Y0296800D01*
X0091000Y0301000D02*
X0086800Y0301000D01*
X0082600Y0305200D01*
X0059200Y0305200D01*
X0092200Y0273400D02*
X0075400Y0256600D01*
X0075400Y0250600D01*
X0071200Y0246400D01*
X0071000Y0246000D01*
X0085600Y0244600D02*
X0021400Y0180400D01*
X0019600Y0180400D01*
X0015400Y0176200D01*
X0015400Y0170200D01*
X0011200Y0166000D01*
X0011000Y0166000D01*
X0011200Y0185800D02*
X0011000Y0186000D01*
X0011200Y0185800D02*
X0020800Y0185800D01*
X0021000Y0186000D01*
X0085600Y0244600D02*
X0085600Y0256600D01*
X0092800Y0263800D01*
X0092800Y0265000D01*
X0265000Y0304600D02*
X0269800Y0304600D01*
X0271600Y0306400D01*
X0284800Y0306400D01*
X0304600Y0286600D01*
X0321400Y0286600D01*
X0325600Y0290800D01*
X0326000Y0291000D01*
X0331600Y0290800D02*
X0326200Y0285400D01*
X0304000Y0285400D01*
X0297400Y0292000D01*
X0295600Y0292000D01*
X0300400Y0295600D02*
X0296200Y0299800D01*
X0301600Y0298000D02*
X0302800Y0298000D01*
X0304000Y0296800D01*
X0321400Y0296800D01*
X0325600Y0301000D01*
X0326000Y0301000D01*
X0331600Y0296800D02*
X0335800Y0301000D01*
X0336000Y0301000D01*
X0331600Y0296800D02*
X0331600Y0290800D01*
X0316000Y0291000D02*
X0316000Y0291400D01*
X0311800Y0295600D01*
X0300400Y0295600D01*
X0272800Y0304000D02*
X0271000Y0304000D01*
X0270400Y0303400D01*
X0212200Y0106000D02*
X0201000Y0106000D01*
X0212200Y0106000D02*
X0272200Y0046000D01*
X0272200Y0038800D01*
X0267400Y0047200D02*
X0224200Y0047200D01*
X0236800Y0042400D02*
X0259600Y0019600D01*
X0265000Y0014800D02*
X0301000Y0014800D01*
X0304000Y0011800D01*
X0331600Y0011800D01*
X0335800Y0016000D01*
X0336000Y0016000D01*
X0330400Y0020200D02*
X0335800Y0025600D01*
X0336000Y0026000D01*
X0334600Y0030400D02*
X0341800Y0030400D01*
X0346000Y0026200D01*
X0346000Y0026000D01*
X0346000Y0016000D02*
X0336400Y0006400D01*
X0259600Y0006400D01*
X0267400Y0016000D02*
X0253600Y0029800D01*
X0257800Y0029200D02*
X0274000Y0029200D01*
X0281800Y0021400D01*
X0327400Y0021400D01*
X0331600Y0025600D01*
X0331600Y0027400D01*
X0334600Y0030400D01*
X0330400Y0020200D02*
X0281200Y0020200D01*
X0274600Y0026800D01*
X0265000Y0026800D01*
X0267400Y0016000D02*
X0306000Y0016000D01*
X0191000Y0096000D02*
X0190600Y0095800D01*
X0181000Y0095800D01*
X0178600Y0093400D01*
D13*
X0185200Y0046000D03*
X0153400Y0034000D03*
X0137200Y0029200D03*
X0134200Y0021400D03*
X0139000Y0015400D03*
X0130000Y0038200D03*
X0115600Y0058000D03*
X0076600Y0053200D03*
X0075400Y0058000D03*
X0095800Y0011200D03*
X0236800Y0042400D03*
X0253600Y0029800D03*
X0257800Y0029200D03*
X0265000Y0026800D03*
X0259600Y0019600D03*
X0265000Y0014800D03*
X0259600Y0006400D03*
X0272200Y0038800D03*
X0267400Y0047200D03*
X0172600Y0235600D03*
X0178600Y0238000D03*
X0178600Y0247000D03*
X0167800Y0262600D03*
X0173800Y0265000D03*
X0163000Y0268000D03*
X0158200Y0272800D03*
X0154600Y0275800D03*
X0149800Y0277000D03*
X0135400Y0272200D03*
X0127000Y0277000D03*
X0139600Y0302200D03*
X0166000Y0280600D03*
X0170800Y0275800D03*
X0223000Y0282400D03*
X0253600Y0303400D03*
X0265000Y0304600D03*
X0270400Y0301000D03*
X0272800Y0304000D03*
X0275200Y0289600D03*
X0269800Y0289600D03*
X0263200Y0289600D03*
X0295600Y0292000D03*
X0296200Y0299800D03*
X0301600Y0298000D03*
X0232600Y0238000D03*
X0130000Y0236800D03*
X0092800Y0265000D03*
X0092200Y0273400D03*
X0095200Y0306400D03*
M02*
