%
M48
M72
T01C0.02400
T02C0.04000
%
T01
X116000Y109750
X127875Y116000
X126625Y157250
X150375Y175375
X136625Y181000
X135375Y190375
X135375Y196000
X116000Y208500
X126000Y213500
X123500Y218500
X123500Y224125
X104750Y218500
X106625Y204750
X104125Y182875
X47875Y165375
X43500Y168500
X30375Y165375
X97250Y231625
X101625Y239125
X114750Y251000
X101625Y267250
X92875Y276000
X79750Y279125
X96000Y292250
X106000Y304125
X135375Y281000
X124125Y276625
X135375Y265375
X146000Y265375
X157875Y274750
X169125Y276000
X172875Y265375
X186000Y255375
X190375Y246625
X183500Y245375
X165375Y228500
X184750Y217250
X180375Y211000
X180375Y205375
X184125Y185375
X222250Y186625
X256625Y201000
X261625Y191000
X293500Y164125
X291625Y143500
X283500Y141000
X300375Y135375
X309125Y138500
X311625Y123500
X285375Y114750
X279125Y110375
X274750Y104750
X247250Y95375
X239125Y87875
X227875Y99125
X237875Y109125
X250375Y131000
X277250Y82250
X267875Y79125
X239125Y62250
X271000Y36000
X291000Y47875
X303500Y43500
X321000Y52875
X322250Y61625
X341000Y46625
X352875Y52875
X361000Y44750
X217875Y16000
X192875Y46625
X351625Y186625
X381625Y193500
X361000Y212875
X360375Y217875
X354750Y229750
X341625Y216625
X317250Y207875
X311000Y201625
X293500Y228500
X286000Y240375
X312250Y247250
X312875Y234750
X346625Y244750
X379750Y231625
X351000Y272875
X344125Y274125
X356625Y279750
X341000Y308500
X307250Y279750
X279125Y269125
X268500Y265375
X241000Y280375
X251625Y302875
X203500Y309125
X187250Y309125
X136000Y309125
X137250Y290375
X194750Y265375
X216000Y228500
X235375Y228500
X140375Y233500
X75375Y301000
X70375Y306000
X37875Y310375
X20375Y292875
X29125Y277250
X21000Y269125
X11625Y259750
T02
X31000Y21000
X31000Y31000
X41000Y31000
X51000Y31000
X51000Y21000
X41000Y21000
X61000Y21000
X71000Y21000
X71000Y31000
X61000Y31000
X81000Y31000
X91000Y31000
X91000Y21000
X81000Y21000
X101000Y21000
X111000Y21000
X111000Y31000
X101000Y31000
X121000Y31000
X121000Y21000
X121000Y66000
X131000Y66000
X131000Y76000
X121000Y76000
X111000Y76000
X101000Y76000
X101000Y66000
X111000Y66000
X91000Y66000
X81000Y66000
X81000Y76000
X91000Y76000
X71000Y76000
X61000Y76000
X61000Y66000
X71000Y66000
X51000Y66000
X41000Y66000
X41000Y76000
X51000Y76000
X21000Y96000
X21000Y106000
X21000Y116000
X21000Y126000
X21000Y136000
X11000Y136000
X11000Y126000
X11000Y116000
X11000Y106000
X11000Y96000
X11000Y66000
X11000Y56000
X11000Y146000
X11000Y156000
X11000Y166000
X11000Y176000
X11000Y186000
X11000Y196000
X11000Y206000
X21000Y206000
X21000Y196000
X21000Y186000
X21000Y176000
X21000Y166000
X21000Y156000
X21000Y146000
X86000Y166000
X96000Y166000
X106000Y166000
X116000Y166000
X191000Y166000
X191000Y156000
X191000Y146000
X201000Y146000
X201000Y156000
X201000Y166000
X201000Y176000
X201000Y186000
X201000Y196000
X201000Y206000
X191000Y206000
X191000Y196000
X191000Y186000
X191000Y176000
X191000Y136000
X191000Y126000
X191000Y116000
X191000Y106000
X191000Y96000
X201000Y96000
X201000Y106000
X201000Y116000
X201000Y126000
X201000Y136000
X171000Y76000
X161000Y76000
X161000Y66000
X171000Y66000
X151000Y66000
X141000Y66000
X141000Y76000
X151000Y76000
X206000Y56000
X206000Y46000
X246000Y66000
X256000Y66000
X266000Y66000
X276000Y66000
X286000Y66000
X296000Y66000
X306000Y66000
X316000Y66000
X336000Y66000
X346000Y66000
X356000Y66000
X366000Y66000
X376000Y66000
X386000Y66000
X366000Y31000
X356000Y31000
X356000Y21000
X366000Y21000
X346000Y21000
X336000Y21000
X336000Y31000
X346000Y31000
X326000Y31000
X316000Y31000
X316000Y21000
X326000Y21000
X306000Y21000
X296000Y21000
X296000Y31000
X306000Y31000
X286000Y31000
X276000Y31000
X276000Y21000
X286000Y21000
X201000Y216000
X201000Y226000
X191000Y226000
X191000Y216000
X171000Y246000
X161000Y246000
X161000Y256000
X171000Y256000
X151000Y256000
X141000Y256000
X141000Y246000
X151000Y246000
X131000Y246000
X121000Y246000
X121000Y256000
X131000Y256000
X111000Y256000
X101000Y256000
X101000Y246000
X111000Y246000
X91000Y246000
X81000Y246000
X81000Y256000
X91000Y256000
X71000Y256000
X61000Y256000
X61000Y246000
X71000Y246000
X51000Y246000
X41000Y246000
X41000Y256000
X51000Y256000
X21000Y226000
X21000Y216000
X11000Y216000
X11000Y226000
X31000Y286000
X31000Y296000
X41000Y296000
X51000Y296000
X51000Y286000
X41000Y286000
X61000Y286000
X71000Y286000
X71000Y296000
X61000Y296000
X81000Y296000
X91000Y296000
X91000Y286000
X81000Y286000
X101000Y286000
X111000Y286000
X111000Y296000
X101000Y296000
X121000Y296000
X121000Y286000
X211000Y256000
X221000Y256000
X231000Y256000
X241000Y256000
X251000Y256000
X261000Y256000
X271000Y256000
X281000Y256000
X291000Y256000
X301000Y256000
X316000Y256000
X326000Y256000
X336000Y256000
X346000Y256000
X356000Y256000
X366000Y256000
X376000Y256000
X386000Y256000
X366000Y286000
X356000Y286000
X356000Y296000
X366000Y296000
X346000Y296000
X336000Y296000
X336000Y286000
X346000Y286000
X326000Y286000
X316000Y286000
X316000Y296000
X326000Y296000
X306000Y296000
X296000Y296000
X296000Y286000
X306000Y286000
X286000Y286000
X276000Y286000
X276000Y296000
X286000Y296000
M30
